%TF.GenerationSoftware,KiCad,Pcbnew,(5.1.9)-1*%
%TF.CreationDate,2021-04-18T01:25:59+01:00*%
%TF.ProjectId,PowerPole,506f7765-7250-46f6-9c65-2e6b69636164,rev?*%
%TF.SameCoordinates,Original*%
%TF.FileFunction,Soldermask,Bot*%
%TF.FilePolarity,Negative*%
%FSLAX46Y46*%
G04 Gerber Fmt 4.6, Leading zero omitted, Abs format (unit mm)*
G04 Created by KiCad (PCBNEW (5.1.9)-1) date 2021-04-18 01:25:59*
%MOMM*%
%LPD*%
G01*
G04 APERTURE LIST*
%ADD10C,4.428000*%
%ADD11C,2.400000*%
%ADD12O,1.600000X1.600000*%
%ADD13C,1.600000*%
%ADD14O,6.000000X5.500000*%
%ADD15O,1.905000X2.000000*%
%ADD16R,1.905000X2.000000*%
%ADD17O,3.500000X3.500000*%
%ADD18C,1.800000*%
%ADD19R,1.800000X1.800000*%
%ADD20O,1.500000X1.500000*%
%ADD21R,1.500000X1.500000*%
%ADD22O,2.600000X2.600000*%
%ADD23R,2.600000X2.600000*%
%ADD24O,1.800000X1.800000*%
%ADD25R,1.600000X1.600000*%
G04 APERTURE END LIST*
D10*
%TO.C,K1*%
X155060000Y-36830000D03*
X146660000Y-45230000D03*
X146660000Y-28430000D03*
X137160000Y-36830000D03*
%TD*%
D11*
%TO.C,F5*%
X158750000Y-71620000D03*
X162150000Y-71620000D03*
X162150000Y-85090000D03*
X158750000Y-85090000D03*
%TD*%
%TO.C,F4*%
X139700000Y-71620000D03*
X143100000Y-71620000D03*
X143100000Y-85090000D03*
X139700000Y-85090000D03*
%TD*%
%TO.C,F3*%
X116840000Y-71620000D03*
X120240000Y-71620000D03*
X120240000Y-85090000D03*
X116840000Y-85090000D03*
%TD*%
%TO.C,F2*%
X97790000Y-71620000D03*
X101190000Y-71620000D03*
X101190000Y-85090000D03*
X97790000Y-85090000D03*
%TD*%
%TO.C,F1*%
X123325000Y-34925000D03*
X123325000Y-38325000D03*
X109855000Y-38325000D03*
X109855000Y-34925000D03*
%TD*%
D12*
%TO.C,R8*%
X124460000Y-60960000D03*
D13*
X124460000Y-50800000D03*
%TD*%
%TO.C,J8*%
G36*
G01*
X105750000Y-59734200D02*
X105750000Y-55835800D01*
G75*
G02*
X106000800Y-55585000I250800J0D01*
G01*
X109899200Y-55585000D01*
G75*
G02*
X110150000Y-55835800I0J-250800D01*
G01*
X110150000Y-59734200D01*
G75*
G02*
X109899200Y-59985000I-250800J0D01*
G01*
X106000800Y-59985000D01*
G75*
G02*
X105750000Y-59734200I0J250800D01*
G01*
G37*
%TD*%
%TO.C,J7*%
G36*
G01*
X96225000Y-59734200D02*
X96225000Y-55835800D01*
G75*
G02*
X96475800Y-55585000I250800J0D01*
G01*
X100374200Y-55585000D01*
G75*
G02*
X100625000Y-55835800I0J-250800D01*
G01*
X100625000Y-59734200D01*
G75*
G02*
X100374200Y-59985000I-250800J0D01*
G01*
X96475800Y-59985000D01*
G75*
G02*
X96225000Y-59734200I0J250800D01*
G01*
G37*
%TD*%
%TO.C,J6*%
G36*
G01*
X123410000Y-46520000D02*
X123410000Y-44920000D01*
G75*
G02*
X123660000Y-44670000I250000J0D01*
G01*
X125260000Y-44670000D01*
G75*
G02*
X125510000Y-44920000I0J-250000D01*
G01*
X125510000Y-46520000D01*
G75*
G02*
X125260000Y-46770000I-250000J0D01*
G01*
X123660000Y-46770000D01*
G75*
G02*
X123410000Y-46520000I0J250000D01*
G01*
G37*
%TD*%
D14*
%TO.C,J5*%
X99695000Y-108230000D03*
X99695000Y-100330000D03*
%TD*%
%TO.C,J4*%
X118745000Y-108230000D03*
X118745000Y-100330000D03*
%TD*%
%TO.C,J3*%
X141605000Y-108230000D03*
X141605000Y-100330000D03*
%TD*%
%TO.C,J2*%
X160655000Y-108230000D03*
X160655000Y-100330000D03*
%TD*%
%TO.C,J1*%
X98425000Y-46635000D03*
X98425000Y-38735000D03*
%TD*%
D13*
%TO.C,C5*%
X177800000Y-43100000D03*
X177800000Y-38100000D03*
%TD*%
D15*
%TO.C,D1*%
X172085000Y-38100000D03*
X169545000Y-38100000D03*
D16*
X167005000Y-38100000D03*
D17*
X169545000Y-21440000D03*
%TD*%
D13*
%TO.C,SW1*%
X144570000Y-54610000D03*
G36*
G01*
X140170000Y-55160000D02*
X140170000Y-54060000D01*
G75*
G02*
X140420000Y-53810000I250000J0D01*
G01*
X141520000Y-53810000D01*
G75*
G02*
X141770000Y-54060000I0J-250000D01*
G01*
X141770000Y-55160000D01*
G75*
G02*
X141520000Y-55410000I-250000J0D01*
G01*
X140420000Y-55410000D01*
G75*
G02*
X140170000Y-55160000I0J250000D01*
G01*
G37*
%TD*%
D12*
%TO.C,R9*%
X189230000Y-41910000D03*
D13*
X189230000Y-52070000D03*
%TD*%
D12*
%TO.C,R7*%
X107950000Y-91440000D03*
D13*
X107950000Y-101600000D03*
%TD*%
D12*
%TO.C,R6*%
X127000000Y-91440000D03*
D13*
X127000000Y-101600000D03*
%TD*%
D12*
%TO.C,R5*%
X149860000Y-91440000D03*
D13*
X149860000Y-101600000D03*
%TD*%
D12*
%TO.C,R4*%
X168910000Y-91440000D03*
D13*
X168910000Y-101600000D03*
%TD*%
D12*
%TO.C,R3*%
X151130000Y-60960000D03*
D13*
X161290000Y-60960000D03*
%TD*%
D12*
%TO.C,R2*%
X187325000Y-56515000D03*
D13*
X187325000Y-66675000D03*
%TD*%
D12*
%TO.C,R1*%
X193675000Y-77470000D03*
D13*
X193675000Y-67310000D03*
%TD*%
D18*
%TO.C,D15*%
X130810000Y-60960000D03*
D19*
X133350000Y-60960000D03*
%TD*%
D20*
%TO.C,D14*%
X129540000Y-54610000D03*
D21*
X137160000Y-54610000D03*
%TD*%
D20*
%TO.C,D13*%
X172720000Y-53340000D03*
D21*
X165100000Y-53340000D03*
%TD*%
D20*
%TO.C,D12*%
X172720000Y-55880000D03*
D21*
X165100000Y-55880000D03*
%TD*%
D20*
%TO.C,D11*%
X160020000Y-54610000D03*
D21*
X160020000Y-46990000D03*
%TD*%
D18*
%TO.C,D10*%
X107950000Y-87630000D03*
D19*
X107950000Y-85090000D03*
%TD*%
D18*
%TO.C,D9*%
X127000000Y-87630000D03*
D19*
X127000000Y-85090000D03*
%TD*%
D18*
%TO.C,D8*%
X149860000Y-87630000D03*
D19*
X149860000Y-85090000D03*
%TD*%
D18*
%TO.C,D7*%
X168910000Y-87630000D03*
D19*
X168910000Y-85090000D03*
%TD*%
D18*
%TO.C,D6*%
X142240000Y-60960000D03*
D19*
X139700000Y-60960000D03*
%TD*%
D22*
%TO.C,D5*%
X180340000Y-76200000D03*
D23*
X180340000Y-60960000D03*
%TD*%
D22*
%TO.C,D4*%
X171450000Y-76200000D03*
D23*
X171450000Y-60960000D03*
%TD*%
D24*
%TO.C,D3*%
X187325000Y-69850000D03*
D19*
X187325000Y-77470000D03*
%TD*%
D15*
%TO.C,D2*%
X188595000Y-38100000D03*
X186055000Y-38100000D03*
D16*
X183515000Y-38100000D03*
D17*
X186055000Y-21440000D03*
%TD*%
D13*
%TO.C,C4*%
X184785000Y-47070000D03*
X184785000Y-52070000D03*
%TD*%
%TO.C,C3*%
X194310000Y-51355000D03*
X194310000Y-46355000D03*
%TD*%
%TO.C,C2*%
X194310000Y-43100000D03*
X194310000Y-38100000D03*
%TD*%
%TO.C,C1*%
X193040000Y-59150000D03*
D25*
X193040000Y-57150000D03*
%TD*%
M02*
