%TF.GenerationSoftware,KiCad,Pcbnew,(5.1.9)-1*%
%TF.CreationDate,2021-04-19T13:23:52+01:00*%
%TF.ProjectId,PowerPole,506f7765-7250-46f6-9c65-2e6b69636164,rev?*%
%TF.SameCoordinates,Original*%
%TF.FileFunction,Legend,Top*%
%TF.FilePolarity,Positive*%
%FSLAX46Y46*%
G04 Gerber Fmt 4.6, Leading zero omitted, Abs format (unit mm)*
G04 Created by KiCad (PCBNEW (5.1.9)-1) date 2021-04-19 13:23:52*
%MOMM*%
%LPD*%
G01*
G04 APERTURE LIST*
%ADD10C,0.250000*%
%ADD11C,0.150000*%
%ADD12C,0.010000*%
%ADD13C,0.200000*%
%ADD14C,0.100000*%
%ADD15C,0.120000*%
%ADD16C,0.254000*%
G04 APERTURE END LIST*
D10*
X174370000Y-97833571D02*
X174370000Y-96333571D01*
X174927142Y-97833571D02*
X174927142Y-97047857D01*
X174865238Y-96905000D01*
X174741428Y-96833571D01*
X174555714Y-96833571D01*
X174431904Y-96905000D01*
X174370000Y-96976428D01*
X175360476Y-96833571D02*
X175855714Y-96833571D01*
X175546190Y-96333571D02*
X175546190Y-97619285D01*
X175608095Y-97762142D01*
X175731904Y-97833571D01*
X175855714Y-97833571D01*
X176103333Y-96833571D02*
X176598571Y-96833571D01*
X176289047Y-96333571D02*
X176289047Y-97619285D01*
X176350952Y-97762142D01*
X176474761Y-97833571D01*
X176598571Y-97833571D01*
X177031904Y-96833571D02*
X177031904Y-98333571D01*
X177031904Y-96905000D02*
X177155714Y-96833571D01*
X177403333Y-96833571D01*
X177527142Y-96905000D01*
X177589047Y-96976428D01*
X177650952Y-97119285D01*
X177650952Y-97547857D01*
X177589047Y-97690714D01*
X177527142Y-97762142D01*
X177403333Y-97833571D01*
X177155714Y-97833571D01*
X177031904Y-97762142D01*
X178146190Y-97762142D02*
X178270000Y-97833571D01*
X178517619Y-97833571D01*
X178641428Y-97762142D01*
X178703333Y-97619285D01*
X178703333Y-97547857D01*
X178641428Y-97405000D01*
X178517619Y-97333571D01*
X178331904Y-97333571D01*
X178208095Y-97262142D01*
X178146190Y-97119285D01*
X178146190Y-97047857D01*
X178208095Y-96905000D01*
X178331904Y-96833571D01*
X178517619Y-96833571D01*
X178641428Y-96905000D01*
X179260476Y-97690714D02*
X179322380Y-97762142D01*
X179260476Y-97833571D01*
X179198571Y-97762142D01*
X179260476Y-97690714D01*
X179260476Y-97833571D01*
X179260476Y-96905000D02*
X179322380Y-96976428D01*
X179260476Y-97047857D01*
X179198571Y-96976428D01*
X179260476Y-96905000D01*
X179260476Y-97047857D01*
X180808095Y-96262142D02*
X179693809Y-98190714D01*
X182170000Y-96262142D02*
X181055714Y-98190714D01*
X182603333Y-97833571D02*
X182603333Y-96333571D01*
X182603333Y-96905000D02*
X182727142Y-96833571D01*
X182974761Y-96833571D01*
X183098571Y-96905000D01*
X183160476Y-96976428D01*
X183222380Y-97119285D01*
X183222380Y-97547857D01*
X183160476Y-97690714D01*
X183098571Y-97762142D01*
X182974761Y-97833571D01*
X182727142Y-97833571D01*
X182603333Y-97762142D01*
X183779523Y-97833571D02*
X183779523Y-96833571D01*
X183779523Y-96333571D02*
X183717619Y-96405000D01*
X183779523Y-96476428D01*
X183841428Y-96405000D01*
X183779523Y-96333571D01*
X183779523Y-96476428D01*
X184212857Y-96833571D02*
X184708095Y-96833571D01*
X184398571Y-96333571D02*
X184398571Y-97619285D01*
X184460476Y-97762142D01*
X184584285Y-97833571D01*
X184708095Y-97833571D01*
X185141428Y-97690714D02*
X185203333Y-97762142D01*
X185141428Y-97833571D01*
X185079523Y-97762142D01*
X185141428Y-97690714D01*
X185141428Y-97833571D01*
X185946190Y-97833571D02*
X185822380Y-97762142D01*
X185760476Y-97619285D01*
X185760476Y-96333571D01*
X186317619Y-96833571D02*
X186627142Y-97833571D01*
X186936666Y-96833571D02*
X186627142Y-97833571D01*
X186503333Y-98190714D01*
X186441428Y-98262142D01*
X186317619Y-98333571D01*
X188360476Y-96262142D02*
X187246190Y-98190714D01*
X188670000Y-96333571D02*
X189474761Y-96333571D01*
X189041428Y-96905000D01*
X189227142Y-96905000D01*
X189350952Y-96976428D01*
X189412857Y-97047857D01*
X189474761Y-97190714D01*
X189474761Y-97547857D01*
X189412857Y-97690714D01*
X189350952Y-97762142D01*
X189227142Y-97833571D01*
X188855714Y-97833571D01*
X188731904Y-97762142D01*
X188670000Y-97690714D01*
X190589047Y-96833571D02*
X190589047Y-98047857D01*
X190527142Y-98190714D01*
X190465238Y-98262142D01*
X190341428Y-98333571D01*
X190155714Y-98333571D01*
X190031904Y-98262142D01*
X190589047Y-97762142D02*
X190465238Y-97833571D01*
X190217619Y-97833571D01*
X190093809Y-97762142D01*
X190031904Y-97690714D01*
X189970000Y-97547857D01*
X189970000Y-97119285D01*
X190031904Y-96976428D01*
X190093809Y-96905000D01*
X190217619Y-96833571D01*
X190465238Y-96833571D01*
X190589047Y-96905000D01*
X191146190Y-97762142D02*
X191270000Y-97833571D01*
X191517619Y-97833571D01*
X191641428Y-97762142D01*
X191703333Y-97619285D01*
X191703333Y-97547857D01*
X191641428Y-97405000D01*
X191517619Y-97333571D01*
X191331904Y-97333571D01*
X191208095Y-97262142D01*
X191146190Y-97119285D01*
X191146190Y-97047857D01*
X191208095Y-96905000D01*
X191331904Y-96833571D01*
X191517619Y-96833571D01*
X191641428Y-96905000D01*
X192693809Y-97047857D02*
X192879523Y-97119285D01*
X192941428Y-97190714D01*
X193003333Y-97333571D01*
X193003333Y-97547857D01*
X192941428Y-97690714D01*
X192879523Y-97762142D01*
X192755714Y-97833571D01*
X192260476Y-97833571D01*
X192260476Y-96333571D01*
X192693809Y-96333571D01*
X192817619Y-96405000D01*
X192879523Y-96476428D01*
X192941428Y-96619285D01*
X192941428Y-96762142D01*
X192879523Y-96905000D01*
X192817619Y-96976428D01*
X192693809Y-97047857D01*
X192260476Y-97047857D01*
X193560476Y-96333571D02*
X193560476Y-97547857D01*
X193622380Y-97690714D01*
X193684285Y-97762142D01*
X193808095Y-97833571D01*
X194055714Y-97833571D01*
X194179523Y-97762142D01*
X194241428Y-97690714D01*
X194303333Y-97547857D01*
X194303333Y-96333571D01*
X194922380Y-97833571D02*
X194922380Y-96333571D01*
X195665238Y-97833571D01*
X195665238Y-96333571D01*
X196284285Y-97833571D02*
X196284285Y-96833571D01*
X196284285Y-97119285D02*
X196346190Y-96976428D01*
X196408095Y-96905000D01*
X196531904Y-96833571D01*
X196655714Y-96833571D01*
D11*
X113252619Y-41727380D02*
X113252619Y-40727380D01*
X113585952Y-41441666D01*
X113919285Y-40727380D01*
X113919285Y-41727380D01*
X114824047Y-41727380D02*
X114824047Y-41203571D01*
X114776428Y-41108333D01*
X114681190Y-41060714D01*
X114490714Y-41060714D01*
X114395476Y-41108333D01*
X114824047Y-41679761D02*
X114728809Y-41727380D01*
X114490714Y-41727380D01*
X114395476Y-41679761D01*
X114347857Y-41584523D01*
X114347857Y-41489285D01*
X114395476Y-41394047D01*
X114490714Y-41346428D01*
X114728809Y-41346428D01*
X114824047Y-41298809D01*
X115205000Y-41727380D02*
X115728809Y-41060714D01*
X115205000Y-41060714D02*
X115728809Y-41727380D01*
X116776428Y-40727380D02*
X117395476Y-40727380D01*
X117062142Y-41108333D01*
X117205000Y-41108333D01*
X117300238Y-41155952D01*
X117347857Y-41203571D01*
X117395476Y-41298809D01*
X117395476Y-41536904D01*
X117347857Y-41632142D01*
X117300238Y-41679761D01*
X117205000Y-41727380D01*
X116919285Y-41727380D01*
X116824047Y-41679761D01*
X116776428Y-41632142D01*
X118014523Y-40727380D02*
X118109761Y-40727380D01*
X118205000Y-40775000D01*
X118252619Y-40822619D01*
X118300238Y-40917857D01*
X118347857Y-41108333D01*
X118347857Y-41346428D01*
X118300238Y-41536904D01*
X118252619Y-41632142D01*
X118205000Y-41679761D01*
X118109761Y-41727380D01*
X118014523Y-41727380D01*
X117919285Y-41679761D01*
X117871666Y-41632142D01*
X117824047Y-41536904D01*
X117776428Y-41346428D01*
X117776428Y-41108333D01*
X117824047Y-40917857D01*
X117871666Y-40822619D01*
X117919285Y-40775000D01*
X118014523Y-40727380D01*
X118728809Y-41441666D02*
X119205000Y-41441666D01*
X118633571Y-41727380D02*
X118966904Y-40727380D01*
X119300238Y-41727380D01*
X92932380Y-58237380D02*
X92456190Y-58237380D01*
X92456190Y-57237380D01*
X93408571Y-58237380D02*
X93313333Y-58189761D01*
X93265714Y-58142142D01*
X93218095Y-58046904D01*
X93218095Y-57761190D01*
X93265714Y-57665952D01*
X93313333Y-57618333D01*
X93408571Y-57570714D01*
X93551428Y-57570714D01*
X93646666Y-57618333D01*
X93694285Y-57665952D01*
X93741904Y-57761190D01*
X93741904Y-58046904D01*
X93694285Y-58142142D01*
X93646666Y-58189761D01*
X93551428Y-58237380D01*
X93408571Y-58237380D01*
X94599047Y-58237380D02*
X94599047Y-57713571D01*
X94551428Y-57618333D01*
X94456190Y-57570714D01*
X94265714Y-57570714D01*
X94170476Y-57618333D01*
X94599047Y-58189761D02*
X94503809Y-58237380D01*
X94265714Y-58237380D01*
X94170476Y-58189761D01*
X94122857Y-58094523D01*
X94122857Y-57999285D01*
X94170476Y-57904047D01*
X94265714Y-57856428D01*
X94503809Y-57856428D01*
X94599047Y-57808809D01*
X95503809Y-58237380D02*
X95503809Y-57237380D01*
X95503809Y-58189761D02*
X95408571Y-58237380D01*
X95218095Y-58237380D01*
X95122857Y-58189761D01*
X95075238Y-58142142D01*
X95027619Y-58046904D01*
X95027619Y-57761190D01*
X95075238Y-57665952D01*
X95122857Y-57618333D01*
X95218095Y-57570714D01*
X95408571Y-57570714D01*
X95503809Y-57618333D01*
X111633095Y-57285000D02*
X111537857Y-57237380D01*
X111395000Y-57237380D01*
X111252142Y-57285000D01*
X111156904Y-57380238D01*
X111109285Y-57475476D01*
X111061666Y-57665952D01*
X111061666Y-57808809D01*
X111109285Y-57999285D01*
X111156904Y-58094523D01*
X111252142Y-58189761D01*
X111395000Y-58237380D01*
X111490238Y-58237380D01*
X111633095Y-58189761D01*
X111680714Y-58142142D01*
X111680714Y-57808809D01*
X111490238Y-57808809D01*
X112109285Y-58237380D02*
X112109285Y-57237380D01*
X112680714Y-58237380D01*
X112680714Y-57237380D01*
X113156904Y-58237380D02*
X113156904Y-57237380D01*
X113395000Y-57237380D01*
X113537857Y-57285000D01*
X113633095Y-57380238D01*
X113680714Y-57475476D01*
X113728333Y-57665952D01*
X113728333Y-57808809D01*
X113680714Y-57999285D01*
X113633095Y-58094523D01*
X113537857Y-58189761D01*
X113395000Y-58237380D01*
X113156904Y-58237380D01*
X115149761Y-46172380D02*
X115149761Y-45172380D01*
X115483095Y-45886666D01*
X115816428Y-45172380D01*
X115816428Y-46172380D01*
X116673571Y-46124761D02*
X116578333Y-46172380D01*
X116387857Y-46172380D01*
X116292619Y-46124761D01*
X116245000Y-46029523D01*
X116245000Y-45648571D01*
X116292619Y-45553333D01*
X116387857Y-45505714D01*
X116578333Y-45505714D01*
X116673571Y-45553333D01*
X116721190Y-45648571D01*
X116721190Y-45743809D01*
X116245000Y-45839047D01*
X117006904Y-45505714D02*
X117387857Y-45505714D01*
X117149761Y-45172380D02*
X117149761Y-46029523D01*
X117197380Y-46124761D01*
X117292619Y-46172380D01*
X117387857Y-46172380D01*
X118102142Y-46124761D02*
X118006904Y-46172380D01*
X117816428Y-46172380D01*
X117721190Y-46124761D01*
X117673571Y-46029523D01*
X117673571Y-45648571D01*
X117721190Y-45553333D01*
X117816428Y-45505714D01*
X118006904Y-45505714D01*
X118102142Y-45553333D01*
X118149761Y-45648571D01*
X118149761Y-45743809D01*
X117673571Y-45839047D01*
X118578333Y-46172380D02*
X118578333Y-45505714D01*
X118578333Y-45696190D02*
X118625952Y-45600952D01*
X118673571Y-45553333D01*
X118768809Y-45505714D01*
X118864047Y-45505714D01*
X119959285Y-45791428D02*
X120721190Y-45791428D01*
X120340238Y-46172380D02*
X120340238Y-45410476D01*
X121102142Y-45505714D02*
X121340238Y-46172380D01*
X121578333Y-45505714D01*
X122340238Y-46124761D02*
X122245000Y-46172380D01*
X122054523Y-46172380D01*
X121959285Y-46124761D01*
X121911666Y-46029523D01*
X121911666Y-45648571D01*
X121959285Y-45553333D01*
X122054523Y-45505714D01*
X122245000Y-45505714D01*
X122340238Y-45553333D01*
X122387857Y-45648571D01*
X122387857Y-45743809D01*
X121911666Y-45839047D01*
X92274761Y-62047380D02*
X91798571Y-62047380D01*
X91798571Y-61047380D01*
X92608095Y-62047380D02*
X92608095Y-61380714D01*
X92608095Y-61047380D02*
X92560476Y-61095000D01*
X92608095Y-61142619D01*
X92655714Y-61095000D01*
X92608095Y-61047380D01*
X92608095Y-61142619D01*
X93084285Y-61380714D02*
X93084285Y-62047380D01*
X93084285Y-61475952D02*
X93131904Y-61428333D01*
X93227142Y-61380714D01*
X93370000Y-61380714D01*
X93465238Y-61428333D01*
X93512857Y-61523571D01*
X93512857Y-62047380D01*
X93989047Y-62047380D02*
X93989047Y-61047380D01*
X94084285Y-61666428D02*
X94370000Y-62047380D01*
X94370000Y-61380714D02*
X93989047Y-61761666D01*
X95465238Y-61380714D02*
X95655714Y-62047380D01*
X95846190Y-61571190D01*
X96036666Y-62047380D01*
X96227142Y-61380714D01*
X96608095Y-62047380D02*
X96608095Y-61047380D01*
X97036666Y-62047380D02*
X97036666Y-61523571D01*
X96989047Y-61428333D01*
X96893809Y-61380714D01*
X96750952Y-61380714D01*
X96655714Y-61428333D01*
X96608095Y-61475952D01*
X97893809Y-61999761D02*
X97798571Y-62047380D01*
X97608095Y-62047380D01*
X97512857Y-61999761D01*
X97465238Y-61904523D01*
X97465238Y-61523571D01*
X97512857Y-61428333D01*
X97608095Y-61380714D01*
X97798571Y-61380714D01*
X97893809Y-61428333D01*
X97941428Y-61523571D01*
X97941428Y-61618809D01*
X97465238Y-61714047D01*
X98370000Y-61380714D02*
X98370000Y-62047380D01*
X98370000Y-61475952D02*
X98417619Y-61428333D01*
X98512857Y-61380714D01*
X98655714Y-61380714D01*
X98750952Y-61428333D01*
X98798571Y-61523571D01*
X98798571Y-62047380D01*
X100036666Y-61380714D02*
X100036666Y-62047380D01*
X100036666Y-61475952D02*
X100084285Y-61428333D01*
X100179523Y-61380714D01*
X100322380Y-61380714D01*
X100417619Y-61428333D01*
X100465238Y-61523571D01*
X100465238Y-62047380D01*
X101084285Y-62047380D02*
X100989047Y-61999761D01*
X100941428Y-61952142D01*
X100893809Y-61856904D01*
X100893809Y-61571190D01*
X100941428Y-61475952D01*
X100989047Y-61428333D01*
X101084285Y-61380714D01*
X101227142Y-61380714D01*
X101322380Y-61428333D01*
X101370000Y-61475952D01*
X101417619Y-61571190D01*
X101417619Y-61856904D01*
X101370000Y-61952142D01*
X101322380Y-61999761D01*
X101227142Y-62047380D01*
X101084285Y-62047380D01*
X101703333Y-61380714D02*
X102084285Y-61380714D01*
X101846190Y-61047380D02*
X101846190Y-61904523D01*
X101893809Y-61999761D01*
X101989047Y-62047380D01*
X102084285Y-62047380D01*
X103608095Y-61380714D02*
X103608095Y-62047380D01*
X103179523Y-61380714D02*
X103179523Y-61904523D01*
X103227142Y-61999761D01*
X103322380Y-62047380D01*
X103465238Y-62047380D01*
X103560476Y-61999761D01*
X103608095Y-61952142D01*
X104036666Y-61999761D02*
X104131904Y-62047380D01*
X104322380Y-62047380D01*
X104417619Y-61999761D01*
X104465238Y-61904523D01*
X104465238Y-61856904D01*
X104417619Y-61761666D01*
X104322380Y-61714047D01*
X104179523Y-61714047D01*
X104084285Y-61666428D01*
X104036666Y-61571190D01*
X104036666Y-61523571D01*
X104084285Y-61428333D01*
X104179523Y-61380714D01*
X104322380Y-61380714D01*
X104417619Y-61428333D01*
X104893809Y-62047380D02*
X104893809Y-61380714D01*
X104893809Y-61047380D02*
X104846190Y-61095000D01*
X104893809Y-61142619D01*
X104941428Y-61095000D01*
X104893809Y-61047380D01*
X104893809Y-61142619D01*
X105370000Y-61380714D02*
X105370000Y-62047380D01*
X105370000Y-61475952D02*
X105417619Y-61428333D01*
X105512857Y-61380714D01*
X105655714Y-61380714D01*
X105750952Y-61428333D01*
X105798571Y-61523571D01*
X105798571Y-62047380D01*
X106703333Y-61380714D02*
X106703333Y-62190238D01*
X106655714Y-62285476D01*
X106608095Y-62333095D01*
X106512857Y-62380714D01*
X106370000Y-62380714D01*
X106274761Y-62333095D01*
X106703333Y-61999761D02*
X106608095Y-62047380D01*
X106417619Y-62047380D01*
X106322380Y-61999761D01*
X106274761Y-61952142D01*
X106227142Y-61856904D01*
X106227142Y-61571190D01*
X106274761Y-61475952D01*
X106322380Y-61428333D01*
X106417619Y-61380714D01*
X106608095Y-61380714D01*
X106703333Y-61428333D01*
X108370000Y-62047380D02*
X108370000Y-61523571D01*
X108322380Y-61428333D01*
X108227142Y-61380714D01*
X108036666Y-61380714D01*
X107941428Y-61428333D01*
X108370000Y-61999761D02*
X108274761Y-62047380D01*
X108036666Y-62047380D01*
X107941428Y-61999761D01*
X107893809Y-61904523D01*
X107893809Y-61809285D01*
X107941428Y-61714047D01*
X108036666Y-61666428D01*
X108274761Y-61666428D01*
X108370000Y-61618809D01*
X108846190Y-62047380D02*
X108846190Y-61380714D01*
X108846190Y-61475952D02*
X108893809Y-61428333D01*
X108989047Y-61380714D01*
X109131904Y-61380714D01*
X109227142Y-61428333D01*
X109274761Y-61523571D01*
X109274761Y-62047380D01*
X109274761Y-61523571D02*
X109322380Y-61428333D01*
X109417619Y-61380714D01*
X109560476Y-61380714D01*
X109655714Y-61428333D01*
X109703333Y-61523571D01*
X109703333Y-62047380D01*
X110179523Y-62047380D02*
X110179523Y-61380714D01*
X110179523Y-61475952D02*
X110227142Y-61428333D01*
X110322380Y-61380714D01*
X110465238Y-61380714D01*
X110560476Y-61428333D01*
X110608095Y-61523571D01*
X110608095Y-62047380D01*
X110608095Y-61523571D02*
X110655714Y-61428333D01*
X110750952Y-61380714D01*
X110893809Y-61380714D01*
X110989047Y-61428333D01*
X111036666Y-61523571D01*
X111036666Y-62047380D01*
X111893809Y-61999761D02*
X111798571Y-62047380D01*
X111608095Y-62047380D01*
X111512857Y-61999761D01*
X111465238Y-61904523D01*
X111465238Y-61523571D01*
X111512857Y-61428333D01*
X111608095Y-61380714D01*
X111798571Y-61380714D01*
X111893809Y-61428333D01*
X111941428Y-61523571D01*
X111941428Y-61618809D01*
X111465238Y-61714047D01*
X112227142Y-61380714D02*
X112608095Y-61380714D01*
X112370000Y-61047380D02*
X112370000Y-61904523D01*
X112417619Y-61999761D01*
X112512857Y-62047380D01*
X112608095Y-62047380D01*
X113322380Y-61999761D02*
X113227142Y-62047380D01*
X113036666Y-62047380D01*
X112941428Y-61999761D01*
X112893809Y-61904523D01*
X112893809Y-61523571D01*
X112941428Y-61428333D01*
X113036666Y-61380714D01*
X113227142Y-61380714D01*
X113322380Y-61428333D01*
X113370000Y-61523571D01*
X113370000Y-61618809D01*
X112893809Y-61714047D01*
X113798571Y-62047380D02*
X113798571Y-61380714D01*
X113798571Y-61571190D02*
X113846190Y-61475952D01*
X113893809Y-61428333D01*
X113989047Y-61380714D01*
X114084285Y-61380714D01*
X146113571Y-24645952D02*
X146018333Y-24598333D01*
X145970714Y-24550714D01*
X145923095Y-24455476D01*
X145923095Y-24407857D01*
X145970714Y-24312619D01*
X146018333Y-24265000D01*
X146113571Y-24217380D01*
X146304047Y-24217380D01*
X146399285Y-24265000D01*
X146446904Y-24312619D01*
X146494523Y-24407857D01*
X146494523Y-24455476D01*
X146446904Y-24550714D01*
X146399285Y-24598333D01*
X146304047Y-24645952D01*
X146113571Y-24645952D01*
X146018333Y-24693571D01*
X145970714Y-24741190D01*
X145923095Y-24836428D01*
X145923095Y-25026904D01*
X145970714Y-25122142D01*
X146018333Y-25169761D01*
X146113571Y-25217380D01*
X146304047Y-25217380D01*
X146399285Y-25169761D01*
X146446904Y-25122142D01*
X146494523Y-25026904D01*
X146494523Y-24836428D01*
X146446904Y-24741190D01*
X146399285Y-24693571D01*
X146304047Y-24645952D01*
X147399285Y-24217380D02*
X146923095Y-24217380D01*
X146875476Y-24693571D01*
X146923095Y-24645952D01*
X147018333Y-24598333D01*
X147256428Y-24598333D01*
X147351666Y-24645952D01*
X147399285Y-24693571D01*
X147446904Y-24788809D01*
X147446904Y-25026904D01*
X147399285Y-25122142D01*
X147351666Y-25169761D01*
X147256428Y-25217380D01*
X147018333Y-25217380D01*
X146923095Y-25169761D01*
X146875476Y-25122142D01*
X146113571Y-41155952D02*
X146018333Y-41108333D01*
X145970714Y-41060714D01*
X145923095Y-40965476D01*
X145923095Y-40917857D01*
X145970714Y-40822619D01*
X146018333Y-40775000D01*
X146113571Y-40727380D01*
X146304047Y-40727380D01*
X146399285Y-40775000D01*
X146446904Y-40822619D01*
X146494523Y-40917857D01*
X146494523Y-40965476D01*
X146446904Y-41060714D01*
X146399285Y-41108333D01*
X146304047Y-41155952D01*
X146113571Y-41155952D01*
X146018333Y-41203571D01*
X145970714Y-41251190D01*
X145923095Y-41346428D01*
X145923095Y-41536904D01*
X145970714Y-41632142D01*
X146018333Y-41679761D01*
X146113571Y-41727380D01*
X146304047Y-41727380D01*
X146399285Y-41679761D01*
X146446904Y-41632142D01*
X146494523Y-41536904D01*
X146494523Y-41346428D01*
X146446904Y-41251190D01*
X146399285Y-41203571D01*
X146304047Y-41155952D01*
X147351666Y-40727380D02*
X147161190Y-40727380D01*
X147065952Y-40775000D01*
X147018333Y-40822619D01*
X146923095Y-40965476D01*
X146875476Y-41155952D01*
X146875476Y-41536904D01*
X146923095Y-41632142D01*
X146970714Y-41679761D01*
X147065952Y-41727380D01*
X147256428Y-41727380D01*
X147351666Y-41679761D01*
X147399285Y-41632142D01*
X147446904Y-41536904D01*
X147446904Y-41298809D01*
X147399285Y-41203571D01*
X147351666Y-41155952D01*
X147256428Y-41108333D01*
X147065952Y-41108333D01*
X146970714Y-41155952D01*
X146923095Y-41203571D01*
X146875476Y-41298809D01*
X154368571Y-33535952D02*
X154273333Y-33488333D01*
X154225714Y-33440714D01*
X154178095Y-33345476D01*
X154178095Y-33297857D01*
X154225714Y-33202619D01*
X154273333Y-33155000D01*
X154368571Y-33107380D01*
X154559047Y-33107380D01*
X154654285Y-33155000D01*
X154701904Y-33202619D01*
X154749523Y-33297857D01*
X154749523Y-33345476D01*
X154701904Y-33440714D01*
X154654285Y-33488333D01*
X154559047Y-33535952D01*
X154368571Y-33535952D01*
X154273333Y-33583571D01*
X154225714Y-33631190D01*
X154178095Y-33726428D01*
X154178095Y-33916904D01*
X154225714Y-34012142D01*
X154273333Y-34059761D01*
X154368571Y-34107380D01*
X154559047Y-34107380D01*
X154654285Y-34059761D01*
X154701904Y-34012142D01*
X154749523Y-33916904D01*
X154749523Y-33726428D01*
X154701904Y-33631190D01*
X154654285Y-33583571D01*
X154559047Y-33535952D01*
X155082857Y-33107380D02*
X155749523Y-33107380D01*
X155320952Y-34107380D01*
X136350476Y-33107380D02*
X136969523Y-33107380D01*
X136636190Y-33488333D01*
X136779047Y-33488333D01*
X136874285Y-33535952D01*
X136921904Y-33583571D01*
X136969523Y-33678809D01*
X136969523Y-33916904D01*
X136921904Y-34012142D01*
X136874285Y-34059761D01*
X136779047Y-34107380D01*
X136493333Y-34107380D01*
X136398095Y-34059761D01*
X136350476Y-34012142D01*
X137588571Y-33107380D02*
X137683809Y-33107380D01*
X137779047Y-33155000D01*
X137826666Y-33202619D01*
X137874285Y-33297857D01*
X137921904Y-33488333D01*
X137921904Y-33726428D01*
X137874285Y-33916904D01*
X137826666Y-34012142D01*
X137779047Y-34059761D01*
X137683809Y-34107380D01*
X137588571Y-34107380D01*
X137493333Y-34059761D01*
X137445714Y-34012142D01*
X137398095Y-33916904D01*
X137350476Y-33726428D01*
X137350476Y-33488333D01*
X137398095Y-33297857D01*
X137445714Y-33202619D01*
X137493333Y-33155000D01*
X137588571Y-33107380D01*
D12*
%TO.C,G\u002A\u002A\u002A*%
G36*
X182982159Y-92953816D02*
G01*
X183048252Y-92957451D01*
X183096635Y-92962972D01*
X183134995Y-92971884D01*
X183171020Y-92985694D01*
X183189614Y-92994442D01*
X183259941Y-93039715D01*
X183310403Y-93098461D01*
X183337717Y-93154500D01*
X183343212Y-93177955D01*
X183347844Y-93217839D01*
X183351704Y-93275931D01*
X183354881Y-93354009D01*
X183357469Y-93453851D01*
X183359556Y-93577235D01*
X183359636Y-93583125D01*
X183364830Y-93967300D01*
X183146700Y-93967300D01*
X183146700Y-93888842D01*
X183108205Y-93921232D01*
X183068909Y-93947018D01*
X183025488Y-93965864D01*
X183022480Y-93966741D01*
X182963102Y-93976465D01*
X182891963Y-93978368D01*
X182821389Y-93972696D01*
X182769817Y-93961718D01*
X182687813Y-93925090D01*
X182621446Y-93872710D01*
X182574027Y-93807610D01*
X182557053Y-93766946D01*
X182546080Y-93696711D01*
X182548475Y-93669147D01*
X182740973Y-93669147D01*
X182754988Y-93712080D01*
X182786230Y-93748602D01*
X182832598Y-93773388D01*
X182848970Y-93777704D01*
X182888083Y-93782129D01*
X182940132Y-93783312D01*
X182996073Y-93781586D01*
X183046864Y-93777280D01*
X183083459Y-93770725D01*
X183088953Y-93768921D01*
X183115598Y-93746019D01*
X183135120Y-93703469D01*
X183145525Y-93646503D01*
X183146700Y-93617696D01*
X183146700Y-93546232D01*
X182976233Y-93550391D01*
X182906824Y-93552360D01*
X182857978Y-93554857D01*
X182824862Y-93558712D01*
X182802641Y-93564757D01*
X182786482Y-93573823D01*
X182773033Y-93585338D01*
X182746288Y-93625125D01*
X182740973Y-93669147D01*
X182548475Y-93669147D01*
X182552707Y-93620444D01*
X182574878Y-93546441D01*
X182610539Y-93482996D01*
X182633873Y-93456798D01*
X182667951Y-93428492D01*
X182704162Y-93407521D01*
X182747196Y-93392677D01*
X182801742Y-93382754D01*
X182872490Y-93376542D01*
X182959375Y-93372967D01*
X183146700Y-93367631D01*
X183146700Y-93298330D01*
X183144235Y-93254224D01*
X183137934Y-93217355D01*
X183132977Y-93203389D01*
X183104633Y-93174985D01*
X183057065Y-93154214D01*
X182995823Y-93143106D01*
X182964545Y-93141800D01*
X182893652Y-93144766D01*
X182841716Y-93154656D01*
X182802880Y-93172957D01*
X182784582Y-93187517D01*
X182752303Y-93217432D01*
X182676451Y-93158528D01*
X182640102Y-93129110D01*
X182613257Y-93105114D01*
X182600901Y-93091048D01*
X182600600Y-93089951D01*
X182609499Y-93077014D01*
X182632437Y-93053867D01*
X182654234Y-93034370D01*
X182707763Y-92996606D01*
X182768028Y-92971194D01*
X182839964Y-92956922D01*
X182928503Y-92952578D01*
X182982159Y-92953816D01*
G37*
X182982159Y-92953816D02*
X183048252Y-92957451D01*
X183096635Y-92962972D01*
X183134995Y-92971884D01*
X183171020Y-92985694D01*
X183189614Y-92994442D01*
X183259941Y-93039715D01*
X183310403Y-93098461D01*
X183337717Y-93154500D01*
X183343212Y-93177955D01*
X183347844Y-93217839D01*
X183351704Y-93275931D01*
X183354881Y-93354009D01*
X183357469Y-93453851D01*
X183359556Y-93577235D01*
X183359636Y-93583125D01*
X183364830Y-93967300D01*
X183146700Y-93967300D01*
X183146700Y-93888842D01*
X183108205Y-93921232D01*
X183068909Y-93947018D01*
X183025488Y-93965864D01*
X183022480Y-93966741D01*
X182963102Y-93976465D01*
X182891963Y-93978368D01*
X182821389Y-93972696D01*
X182769817Y-93961718D01*
X182687813Y-93925090D01*
X182621446Y-93872710D01*
X182574027Y-93807610D01*
X182557053Y-93766946D01*
X182546080Y-93696711D01*
X182548475Y-93669147D01*
X182740973Y-93669147D01*
X182754988Y-93712080D01*
X182786230Y-93748602D01*
X182832598Y-93773388D01*
X182848970Y-93777704D01*
X182888083Y-93782129D01*
X182940132Y-93783312D01*
X182996073Y-93781586D01*
X183046864Y-93777280D01*
X183083459Y-93770725D01*
X183088953Y-93768921D01*
X183115598Y-93746019D01*
X183135120Y-93703469D01*
X183145525Y-93646503D01*
X183146700Y-93617696D01*
X183146700Y-93546232D01*
X182976233Y-93550391D01*
X182906824Y-93552360D01*
X182857978Y-93554857D01*
X182824862Y-93558712D01*
X182802641Y-93564757D01*
X182786482Y-93573823D01*
X182773033Y-93585338D01*
X182746288Y-93625125D01*
X182740973Y-93669147D01*
X182548475Y-93669147D01*
X182552707Y-93620444D01*
X182574878Y-93546441D01*
X182610539Y-93482996D01*
X182633873Y-93456798D01*
X182667951Y-93428492D01*
X182704162Y-93407521D01*
X182747196Y-93392677D01*
X182801742Y-93382754D01*
X182872490Y-93376542D01*
X182959375Y-93372967D01*
X183146700Y-93367631D01*
X183146700Y-93298330D01*
X183144235Y-93254224D01*
X183137934Y-93217355D01*
X183132977Y-93203389D01*
X183104633Y-93174985D01*
X183057065Y-93154214D01*
X182995823Y-93143106D01*
X182964545Y-93141800D01*
X182893652Y-93144766D01*
X182841716Y-93154656D01*
X182802880Y-93172957D01*
X182784582Y-93187517D01*
X182752303Y-93217432D01*
X182676451Y-93158528D01*
X182640102Y-93129110D01*
X182613257Y-93105114D01*
X182600901Y-93091048D01*
X182600600Y-93089951D01*
X182609499Y-93077014D01*
X182632437Y-93053867D01*
X182654234Y-93034370D01*
X182707763Y-92996606D01*
X182768028Y-92971194D01*
X182839964Y-92956922D01*
X182928503Y-92952578D01*
X182982159Y-92953816D01*
G36*
X185064400Y-93967300D02*
G01*
X184861200Y-93967300D01*
X184861200Y-93922850D01*
X184857831Y-93889539D01*
X184846660Y-93880161D01*
X184826086Y-93894015D01*
X184816990Y-93903533D01*
X184783723Y-93928001D01*
X184733972Y-93950609D01*
X184676628Y-93968306D01*
X184620579Y-93978041D01*
X184597198Y-93978997D01*
X184546767Y-93974043D01*
X184496078Y-93962991D01*
X184485093Y-93959462D01*
X184417772Y-93924173D01*
X184356108Y-93871090D01*
X184308372Y-93807680D01*
X184300341Y-93792641D01*
X184290297Y-93770977D01*
X184282813Y-93749781D01*
X184277514Y-93725005D01*
X184274024Y-93692599D01*
X184271970Y-93648513D01*
X184270975Y-93588699D01*
X184270735Y-93526713D01*
X184469371Y-93526713D01*
X184478609Y-93612169D01*
X184498308Y-93677449D01*
X184529046Y-93724283D01*
X184571404Y-93754402D01*
X184583937Y-93759545D01*
X184650522Y-93774480D01*
X184713045Y-93767133D01*
X184754409Y-93750838D01*
X184790971Y-93729476D01*
X184817698Y-93703305D01*
X184836018Y-93668263D01*
X184847363Y-93620292D01*
X184853161Y-93555330D01*
X184854844Y-93469316D01*
X184854846Y-93465650D01*
X184854320Y-93394569D01*
X184852291Y-93343341D01*
X184848084Y-93306429D01*
X184841027Y-93278300D01*
X184830446Y-93253418D01*
X184828578Y-93249750D01*
X184790739Y-93201155D01*
X184739974Y-93169533D01*
X184681879Y-93154949D01*
X184622051Y-93157464D01*
X184566089Y-93177143D01*
X184519589Y-93214048D01*
X184497754Y-93246013D01*
X184484381Y-93285810D01*
X184475072Y-93346954D01*
X184470014Y-93419352D01*
X184469371Y-93526713D01*
X184270735Y-93526713D01*
X184270666Y-93509107D01*
X184270650Y-93472000D01*
X184271256Y-93368146D01*
X184273695Y-93285917D01*
X184278895Y-93221550D01*
X184287786Y-93171286D01*
X184301297Y-93131364D01*
X184320356Y-93098024D01*
X184345893Y-93067506D01*
X184378221Y-93036601D01*
X184442300Y-92989257D01*
X184510101Y-92961947D01*
X184589692Y-92951690D01*
X184608673Y-92951424D01*
X184664450Y-92957805D01*
X184723465Y-92974526D01*
X184776837Y-92998230D01*
X184815682Y-93025561D01*
X184821480Y-93031828D01*
X184840087Y-93048878D01*
X184849786Y-93052900D01*
X184853277Y-93040837D01*
X184856654Y-93007201D01*
X184859697Y-92955817D01*
X184862190Y-92890511D01*
X184863912Y-92815108D01*
X184864106Y-92802075D01*
X184867550Y-92551250D01*
X184965975Y-92547540D01*
X185064400Y-92543831D01*
X185064400Y-93967300D01*
G37*
X185064400Y-93967300D02*
X184861200Y-93967300D01*
X184861200Y-93922850D01*
X184857831Y-93889539D01*
X184846660Y-93880161D01*
X184826086Y-93894015D01*
X184816990Y-93903533D01*
X184783723Y-93928001D01*
X184733972Y-93950609D01*
X184676628Y-93968306D01*
X184620579Y-93978041D01*
X184597198Y-93978997D01*
X184546767Y-93974043D01*
X184496078Y-93962991D01*
X184485093Y-93959462D01*
X184417772Y-93924173D01*
X184356108Y-93871090D01*
X184308372Y-93807680D01*
X184300341Y-93792641D01*
X184290297Y-93770977D01*
X184282813Y-93749781D01*
X184277514Y-93725005D01*
X184274024Y-93692599D01*
X184271970Y-93648513D01*
X184270975Y-93588699D01*
X184270735Y-93526713D01*
X184469371Y-93526713D01*
X184478609Y-93612169D01*
X184498308Y-93677449D01*
X184529046Y-93724283D01*
X184571404Y-93754402D01*
X184583937Y-93759545D01*
X184650522Y-93774480D01*
X184713045Y-93767133D01*
X184754409Y-93750838D01*
X184790971Y-93729476D01*
X184817698Y-93703305D01*
X184836018Y-93668263D01*
X184847363Y-93620292D01*
X184853161Y-93555330D01*
X184854844Y-93469316D01*
X184854846Y-93465650D01*
X184854320Y-93394569D01*
X184852291Y-93343341D01*
X184848084Y-93306429D01*
X184841027Y-93278300D01*
X184830446Y-93253418D01*
X184828578Y-93249750D01*
X184790739Y-93201155D01*
X184739974Y-93169533D01*
X184681879Y-93154949D01*
X184622051Y-93157464D01*
X184566089Y-93177143D01*
X184519589Y-93214048D01*
X184497754Y-93246013D01*
X184484381Y-93285810D01*
X184475072Y-93346954D01*
X184470014Y-93419352D01*
X184469371Y-93526713D01*
X184270735Y-93526713D01*
X184270666Y-93509107D01*
X184270650Y-93472000D01*
X184271256Y-93368146D01*
X184273695Y-93285917D01*
X184278895Y-93221550D01*
X184287786Y-93171286D01*
X184301297Y-93131364D01*
X184320356Y-93098024D01*
X184345893Y-93067506D01*
X184378221Y-93036601D01*
X184442300Y-92989257D01*
X184510101Y-92961947D01*
X184589692Y-92951690D01*
X184608673Y-92951424D01*
X184664450Y-92957805D01*
X184723465Y-92974526D01*
X184776837Y-92998230D01*
X184815682Y-93025561D01*
X184821480Y-93031828D01*
X184840087Y-93048878D01*
X184849786Y-93052900D01*
X184853277Y-93040837D01*
X184856654Y-93007201D01*
X184859697Y-92955817D01*
X184862190Y-92890511D01*
X184863912Y-92815108D01*
X184864106Y-92802075D01*
X184867550Y-92551250D01*
X184965975Y-92547540D01*
X185064400Y-92543831D01*
X185064400Y-93967300D01*
G36*
X187080611Y-92954008D02*
G01*
X187161197Y-92963418D01*
X187202850Y-92972727D01*
X187270513Y-93001196D01*
X187331617Y-93044335D01*
X187380183Y-93096780D01*
X187410232Y-93153169D01*
X187412561Y-93160850D01*
X187416859Y-93190105D01*
X187420455Y-93242643D01*
X187423281Y-93316356D01*
X187425268Y-93409136D01*
X187426346Y-93518872D01*
X187426529Y-93589475D01*
X187426600Y-93967300D01*
X187223400Y-93967300D01*
X187223400Y-93888842D01*
X187184905Y-93921232D01*
X187145609Y-93947018D01*
X187102188Y-93965864D01*
X187099180Y-93966741D01*
X187036645Y-93976965D01*
X186962588Y-93978576D01*
X186888875Y-93971985D01*
X186827371Y-93957606D01*
X186826360Y-93957246D01*
X186745647Y-93916402D01*
X186683247Y-93859951D01*
X186640719Y-93790875D01*
X186619622Y-93712150D01*
X186620651Y-93665675D01*
X186817403Y-93665675D01*
X186827714Y-93715479D01*
X186857144Y-93752107D01*
X186896051Y-93769632D01*
X186931474Y-93777525D01*
X186950350Y-93781956D01*
X186987406Y-93785704D01*
X187036819Y-93784187D01*
X187089357Y-93778444D01*
X187135788Y-93769514D01*
X187166880Y-93758437D01*
X187168566Y-93757400D01*
X187199607Y-93726366D01*
X187217361Y-93680566D01*
X187223378Y-93615863D01*
X187223400Y-93610873D01*
X187223400Y-93548200D01*
X187063815Y-93548200D01*
X186977498Y-93549967D01*
X186913354Y-93556238D01*
X186868342Y-93568462D01*
X186839416Y-93588090D01*
X186823536Y-93616573D01*
X186817659Y-93655361D01*
X186817403Y-93665675D01*
X186620651Y-93665675D01*
X186621514Y-93626758D01*
X186631099Y-93584092D01*
X186665724Y-93508784D01*
X186721113Y-93447434D01*
X186791600Y-93403577D01*
X186818973Y-93392699D01*
X186849868Y-93384872D01*
X186889445Y-93379442D01*
X186942863Y-93375756D01*
X187015280Y-93373162D01*
X187036075Y-93372629D01*
X187223400Y-93368070D01*
X187223400Y-93294442D01*
X187219717Y-93240003D01*
X187207882Y-93204719D01*
X187201175Y-93195436D01*
X187161977Y-93167493D01*
X187106789Y-93149580D01*
X187042604Y-93141671D01*
X186976416Y-93143742D01*
X186915218Y-93155768D01*
X186866004Y-93177725D01*
X186844250Y-93196705D01*
X186833524Y-93205903D01*
X186819894Y-93205623D01*
X186798219Y-93193808D01*
X186763356Y-93168396D01*
X186752175Y-93159830D01*
X186716010Y-93130690D01*
X186689438Y-93106779D01*
X186677513Y-93092692D01*
X186677300Y-93091735D01*
X186687725Y-93072164D01*
X186714867Y-93046131D01*
X186752524Y-93018129D01*
X186794495Y-92992646D01*
X186834579Y-92974173D01*
X186843948Y-92971066D01*
X186911971Y-92957786D01*
X186994197Y-92952116D01*
X187080611Y-92954008D01*
G37*
X187080611Y-92954008D02*
X187161197Y-92963418D01*
X187202850Y-92972727D01*
X187270513Y-93001196D01*
X187331617Y-93044335D01*
X187380183Y-93096780D01*
X187410232Y-93153169D01*
X187412561Y-93160850D01*
X187416859Y-93190105D01*
X187420455Y-93242643D01*
X187423281Y-93316356D01*
X187425268Y-93409136D01*
X187426346Y-93518872D01*
X187426529Y-93589475D01*
X187426600Y-93967300D01*
X187223400Y-93967300D01*
X187223400Y-93888842D01*
X187184905Y-93921232D01*
X187145609Y-93947018D01*
X187102188Y-93965864D01*
X187099180Y-93966741D01*
X187036645Y-93976965D01*
X186962588Y-93978576D01*
X186888875Y-93971985D01*
X186827371Y-93957606D01*
X186826360Y-93957246D01*
X186745647Y-93916402D01*
X186683247Y-93859951D01*
X186640719Y-93790875D01*
X186619622Y-93712150D01*
X186620651Y-93665675D01*
X186817403Y-93665675D01*
X186827714Y-93715479D01*
X186857144Y-93752107D01*
X186896051Y-93769632D01*
X186931474Y-93777525D01*
X186950350Y-93781956D01*
X186987406Y-93785704D01*
X187036819Y-93784187D01*
X187089357Y-93778444D01*
X187135788Y-93769514D01*
X187166880Y-93758437D01*
X187168566Y-93757400D01*
X187199607Y-93726366D01*
X187217361Y-93680566D01*
X187223378Y-93615863D01*
X187223400Y-93610873D01*
X187223400Y-93548200D01*
X187063815Y-93548200D01*
X186977498Y-93549967D01*
X186913354Y-93556238D01*
X186868342Y-93568462D01*
X186839416Y-93588090D01*
X186823536Y-93616573D01*
X186817659Y-93655361D01*
X186817403Y-93665675D01*
X186620651Y-93665675D01*
X186621514Y-93626758D01*
X186631099Y-93584092D01*
X186665724Y-93508784D01*
X186721113Y-93447434D01*
X186791600Y-93403577D01*
X186818973Y-93392699D01*
X186849868Y-93384872D01*
X186889445Y-93379442D01*
X186942863Y-93375756D01*
X187015280Y-93373162D01*
X187036075Y-93372629D01*
X187223400Y-93368070D01*
X187223400Y-93294442D01*
X187219717Y-93240003D01*
X187207882Y-93204719D01*
X187201175Y-93195436D01*
X187161977Y-93167493D01*
X187106789Y-93149580D01*
X187042604Y-93141671D01*
X186976416Y-93143742D01*
X186915218Y-93155768D01*
X186866004Y-93177725D01*
X186844250Y-93196705D01*
X186833524Y-93205903D01*
X186819894Y-93205623D01*
X186798219Y-93193808D01*
X186763356Y-93168396D01*
X186752175Y-93159830D01*
X186716010Y-93130690D01*
X186689438Y-93106779D01*
X186677513Y-93092692D01*
X186677300Y-93091735D01*
X186687725Y-93072164D01*
X186714867Y-93046131D01*
X186752524Y-93018129D01*
X186794495Y-92992646D01*
X186834579Y-92974173D01*
X186843948Y-92971066D01*
X186911971Y-92957786D01*
X186994197Y-92952116D01*
X187080611Y-92954008D01*
G36*
X188829979Y-92958454D02*
G01*
X188924183Y-92984872D01*
X189005323Y-93032754D01*
X189072502Y-93101598D01*
X189117044Y-93174356D01*
X189135600Y-93214112D01*
X189148016Y-93248416D01*
X189155825Y-93284727D01*
X189160560Y-93330501D01*
X189163755Y-93393197D01*
X189164157Y-93403503D01*
X189169696Y-93548200D01*
X188540855Y-93548200D01*
X188547947Y-93601075D01*
X188568735Y-93665584D01*
X188609954Y-93720310D01*
X188667248Y-93761002D01*
X188734527Y-93783120D01*
X188790890Y-93783582D01*
X188855375Y-93770629D01*
X188916821Y-93747379D01*
X188960572Y-93719995D01*
X188997634Y-93688810D01*
X189066192Y-93747061D01*
X189100623Y-93777148D01*
X189126412Y-93801249D01*
X189138256Y-93814395D01*
X189138404Y-93814719D01*
X189131975Y-93829992D01*
X189108590Y-93853596D01*
X189073475Y-93881489D01*
X189031854Y-93909626D01*
X188988953Y-93933965D01*
X188976579Y-93939938D01*
X188913408Y-93960740D01*
X188837174Y-93973630D01*
X188757555Y-93977945D01*
X188684229Y-93973024D01*
X188639450Y-93962963D01*
X188557789Y-93929816D01*
X188494214Y-93888297D01*
X188441579Y-93832974D01*
X188411396Y-93789500D01*
X188373776Y-93710243D01*
X188348450Y-93614021D01*
X188336396Y-93506604D01*
X188338592Y-93393767D01*
X188340717Y-93372041D01*
X188341032Y-93370400D01*
X188540855Y-93370400D01*
X188962665Y-93370400D01*
X188954799Y-93329125D01*
X188930316Y-93254087D01*
X188890005Y-93197216D01*
X188835780Y-93160091D01*
X188769554Y-93144290D01*
X188731514Y-93144976D01*
X188662027Y-93163036D01*
X188605961Y-93200710D01*
X188566629Y-93254883D01*
X188547947Y-93317524D01*
X188540855Y-93370400D01*
X188341032Y-93370400D01*
X188363177Y-93255352D01*
X188402287Y-93156486D01*
X188457330Y-93076227D01*
X188527588Y-93015358D01*
X188612342Y-92974664D01*
X188710876Y-92954928D01*
X188723608Y-92954004D01*
X188829979Y-92958454D01*
G37*
X188829979Y-92958454D02*
X188924183Y-92984872D01*
X189005323Y-93032754D01*
X189072502Y-93101598D01*
X189117044Y-93174356D01*
X189135600Y-93214112D01*
X189148016Y-93248416D01*
X189155825Y-93284727D01*
X189160560Y-93330501D01*
X189163755Y-93393197D01*
X189164157Y-93403503D01*
X189169696Y-93548200D01*
X188540855Y-93548200D01*
X188547947Y-93601075D01*
X188568735Y-93665584D01*
X188609954Y-93720310D01*
X188667248Y-93761002D01*
X188734527Y-93783120D01*
X188790890Y-93783582D01*
X188855375Y-93770629D01*
X188916821Y-93747379D01*
X188960572Y-93719995D01*
X188997634Y-93688810D01*
X189066192Y-93747061D01*
X189100623Y-93777148D01*
X189126412Y-93801249D01*
X189138256Y-93814395D01*
X189138404Y-93814719D01*
X189131975Y-93829992D01*
X189108590Y-93853596D01*
X189073475Y-93881489D01*
X189031854Y-93909626D01*
X188988953Y-93933965D01*
X188976579Y-93939938D01*
X188913408Y-93960740D01*
X188837174Y-93973630D01*
X188757555Y-93977945D01*
X188684229Y-93973024D01*
X188639450Y-93962963D01*
X188557789Y-93929816D01*
X188494214Y-93888297D01*
X188441579Y-93832974D01*
X188411396Y-93789500D01*
X188373776Y-93710243D01*
X188348450Y-93614021D01*
X188336396Y-93506604D01*
X188338592Y-93393767D01*
X188340717Y-93372041D01*
X188341032Y-93370400D01*
X188540855Y-93370400D01*
X188962665Y-93370400D01*
X188954799Y-93329125D01*
X188930316Y-93254087D01*
X188890005Y-93197216D01*
X188835780Y-93160091D01*
X188769554Y-93144290D01*
X188731514Y-93144976D01*
X188662027Y-93163036D01*
X188605961Y-93200710D01*
X188566629Y-93254883D01*
X188547947Y-93317524D01*
X188540855Y-93370400D01*
X188341032Y-93370400D01*
X188363177Y-93255352D01*
X188402287Y-93156486D01*
X188457330Y-93076227D01*
X188527588Y-93015358D01*
X188612342Y-92974664D01*
X188710876Y-92954928D01*
X188723608Y-92954004D01*
X188829979Y-92958454D01*
G36*
X182113421Y-91361190D02*
G01*
X182192612Y-91382129D01*
X182263596Y-91421542D01*
X182322677Y-91478228D01*
X182366158Y-91550983D01*
X182379763Y-91589031D01*
X182388650Y-91635449D01*
X182395067Y-91700939D01*
X182399012Y-91779313D01*
X182400482Y-91864382D01*
X182399476Y-91949958D01*
X182395992Y-92029853D01*
X182390028Y-92097877D01*
X182381582Y-92147843D01*
X182379933Y-92153981D01*
X182344483Y-92233175D01*
X182290466Y-92298435D01*
X182221927Y-92347398D01*
X182142915Y-92377698D01*
X182057473Y-92386970D01*
X181994425Y-92379336D01*
X181949303Y-92364371D01*
X181898065Y-92340208D01*
X181867175Y-92321946D01*
X181800499Y-92277940D01*
X181800500Y-92666169D01*
X181800699Y-92779377D01*
X181801358Y-92869333D01*
X181802567Y-92938186D01*
X181804415Y-92988081D01*
X181806992Y-93021164D01*
X181810389Y-93039583D01*
X181814695Y-93045484D01*
X181816375Y-93045024D01*
X181836891Y-93031554D01*
X181866228Y-93010915D01*
X181870350Y-93007928D01*
X181943010Y-92969967D01*
X182024569Y-92952145D01*
X182109077Y-92953993D01*
X182190583Y-92975040D01*
X182263137Y-93014820D01*
X182293939Y-93041328D01*
X182319722Y-93067541D01*
X182340481Y-93091240D01*
X182356791Y-93115473D01*
X182369226Y-93143283D01*
X182378357Y-93177717D01*
X182384760Y-93221821D01*
X182389006Y-93278640D01*
X182391671Y-93351220D01*
X182393326Y-93442607D01*
X182394546Y-93555846D01*
X182394744Y-93576775D01*
X182398439Y-93967300D01*
X182194200Y-93967300D01*
X182194180Y-93633925D01*
X182193909Y-93523684D01*
X182192752Y-93435772D01*
X182190173Y-93367119D01*
X182185634Y-93314658D01*
X182178598Y-93275319D01*
X182168527Y-93246033D01*
X182154884Y-93223731D01*
X182137132Y-93205345D01*
X182116275Y-93188931D01*
X182060671Y-93162747D01*
X181997894Y-93156118D01*
X181934937Y-93167715D01*
X181878792Y-93196214D01*
X181836451Y-93240287D01*
X181835208Y-93242251D01*
X181826689Y-93256970D01*
X181820019Y-93272625D01*
X181814926Y-93292452D01*
X181811140Y-93319685D01*
X181808388Y-93357561D01*
X181806401Y-93409315D01*
X181804907Y-93478181D01*
X181803635Y-93567396D01*
X181802917Y-93627575D01*
X181798985Y-93967300D01*
X181597300Y-93967300D01*
X181597300Y-91897728D01*
X181799688Y-91897728D01*
X181806455Y-91978563D01*
X181822280Y-92050950D01*
X181847203Y-92108509D01*
X181859381Y-92125542D01*
X181901200Y-92157250D01*
X181957001Y-92175372D01*
X182018816Y-92179100D01*
X182078677Y-92167626D01*
X182113345Y-92151271D01*
X182141004Y-92130234D01*
X182161046Y-92104380D01*
X182174612Y-92069531D01*
X182182841Y-92021513D01*
X182186871Y-91956148D01*
X182187850Y-91878150D01*
X182187270Y-91802452D01*
X182185195Y-91747176D01*
X182181116Y-91707363D01*
X182174526Y-91678053D01*
X182164955Y-91654364D01*
X182131606Y-91607816D01*
X182085506Y-91579679D01*
X182023620Y-91568571D01*
X181978327Y-91569456D01*
X181932168Y-91574135D01*
X181902503Y-91582335D01*
X181880426Y-91597748D01*
X181862436Y-91617525D01*
X181833353Y-91668344D01*
X181813175Y-91736238D01*
X181801941Y-91814826D01*
X181799688Y-91897728D01*
X181597300Y-91897728D01*
X181597300Y-91363800D01*
X181800500Y-91363800D01*
X181800500Y-91413741D01*
X181800499Y-91463682D01*
X181863577Y-91421234D01*
X181945207Y-91379541D01*
X182029720Y-91359927D01*
X182113421Y-91361190D01*
G37*
X182113421Y-91361190D02*
X182192612Y-91382129D01*
X182263596Y-91421542D01*
X182322677Y-91478228D01*
X182366158Y-91550983D01*
X182379763Y-91589031D01*
X182388650Y-91635449D01*
X182395067Y-91700939D01*
X182399012Y-91779313D01*
X182400482Y-91864382D01*
X182399476Y-91949958D01*
X182395992Y-92029853D01*
X182390028Y-92097877D01*
X182381582Y-92147843D01*
X182379933Y-92153981D01*
X182344483Y-92233175D01*
X182290466Y-92298435D01*
X182221927Y-92347398D01*
X182142915Y-92377698D01*
X182057473Y-92386970D01*
X181994425Y-92379336D01*
X181949303Y-92364371D01*
X181898065Y-92340208D01*
X181867175Y-92321946D01*
X181800499Y-92277940D01*
X181800500Y-92666169D01*
X181800699Y-92779377D01*
X181801358Y-92869333D01*
X181802567Y-92938186D01*
X181804415Y-92988081D01*
X181806992Y-93021164D01*
X181810389Y-93039583D01*
X181814695Y-93045484D01*
X181816375Y-93045024D01*
X181836891Y-93031554D01*
X181866228Y-93010915D01*
X181870350Y-93007928D01*
X181943010Y-92969967D01*
X182024569Y-92952145D01*
X182109077Y-92953993D01*
X182190583Y-92975040D01*
X182263137Y-93014820D01*
X182293939Y-93041328D01*
X182319722Y-93067541D01*
X182340481Y-93091240D01*
X182356791Y-93115473D01*
X182369226Y-93143283D01*
X182378357Y-93177717D01*
X182384760Y-93221821D01*
X182389006Y-93278640D01*
X182391671Y-93351220D01*
X182393326Y-93442607D01*
X182394546Y-93555846D01*
X182394744Y-93576775D01*
X182398439Y-93967300D01*
X182194200Y-93967300D01*
X182194180Y-93633925D01*
X182193909Y-93523684D01*
X182192752Y-93435772D01*
X182190173Y-93367119D01*
X182185634Y-93314658D01*
X182178598Y-93275319D01*
X182168527Y-93246033D01*
X182154884Y-93223731D01*
X182137132Y-93205345D01*
X182116275Y-93188931D01*
X182060671Y-93162747D01*
X181997894Y-93156118D01*
X181934937Y-93167715D01*
X181878792Y-93196214D01*
X181836451Y-93240287D01*
X181835208Y-93242251D01*
X181826689Y-93256970D01*
X181820019Y-93272625D01*
X181814926Y-93292452D01*
X181811140Y-93319685D01*
X181808388Y-93357561D01*
X181806401Y-93409315D01*
X181804907Y-93478181D01*
X181803635Y-93567396D01*
X181802917Y-93627575D01*
X181798985Y-93967300D01*
X181597300Y-93967300D01*
X181597300Y-91897728D01*
X181799688Y-91897728D01*
X181806455Y-91978563D01*
X181822280Y-92050950D01*
X181847203Y-92108509D01*
X181859381Y-92125542D01*
X181901200Y-92157250D01*
X181957001Y-92175372D01*
X182018816Y-92179100D01*
X182078677Y-92167626D01*
X182113345Y-92151271D01*
X182141004Y-92130234D01*
X182161046Y-92104380D01*
X182174612Y-92069531D01*
X182182841Y-92021513D01*
X182186871Y-91956148D01*
X182187850Y-91878150D01*
X182187270Y-91802452D01*
X182185195Y-91747176D01*
X182181116Y-91707363D01*
X182174526Y-91678053D01*
X182164955Y-91654364D01*
X182131606Y-91607816D01*
X182085506Y-91579679D01*
X182023620Y-91568571D01*
X181978327Y-91569456D01*
X181932168Y-91574135D01*
X181902503Y-91582335D01*
X181880426Y-91597748D01*
X181862436Y-91617525D01*
X181833353Y-91668344D01*
X181813175Y-91736238D01*
X181801941Y-91814826D01*
X181799688Y-91897728D01*
X181597300Y-91897728D01*
X181597300Y-91363800D01*
X181800500Y-91363800D01*
X181800500Y-91413741D01*
X181800499Y-91463682D01*
X181863577Y-91421234D01*
X181945207Y-91379541D01*
X182029720Y-91359927D01*
X182113421Y-91361190D01*
G36*
X184157634Y-92971296D02*
G01*
X184184925Y-92982589D01*
X184220848Y-93000983D01*
X184245054Y-93016573D01*
X184251600Y-93024154D01*
X184243984Y-93038075D01*
X184223656Y-93066199D01*
X184194394Y-93103409D01*
X184181213Y-93119475D01*
X184110827Y-93204274D01*
X184070088Y-93179434D01*
X184010288Y-93156648D01*
X183947850Y-93156052D01*
X183888678Y-93175918D01*
X183838672Y-93214514D01*
X183810275Y-93255615D01*
X183801557Y-93273946D01*
X183794818Y-93292380D01*
X183789804Y-93314334D01*
X183786261Y-93343226D01*
X183783934Y-93382470D01*
X183782569Y-93435484D01*
X183781913Y-93505685D01*
X183781710Y-93596489D01*
X183781700Y-93639790D01*
X183781700Y-93967300D01*
X183578500Y-93967300D01*
X183578500Y-92964000D01*
X183781700Y-92964000D01*
X183781700Y-93067579D01*
X183832403Y-93024178D01*
X183903844Y-92979068D01*
X183985379Y-92954802D01*
X184071734Y-92952005D01*
X184157634Y-92971296D01*
G37*
X184157634Y-92971296D02*
X184184925Y-92982589D01*
X184220848Y-93000983D01*
X184245054Y-93016573D01*
X184251600Y-93024154D01*
X184243984Y-93038075D01*
X184223656Y-93066199D01*
X184194394Y-93103409D01*
X184181213Y-93119475D01*
X184110827Y-93204274D01*
X184070088Y-93179434D01*
X184010288Y-93156648D01*
X183947850Y-93156052D01*
X183888678Y-93175918D01*
X183838672Y-93214514D01*
X183810275Y-93255615D01*
X183801557Y-93273946D01*
X183794818Y-93292380D01*
X183789804Y-93314334D01*
X183786261Y-93343226D01*
X183783934Y-93382470D01*
X183782569Y-93435484D01*
X183781913Y-93505685D01*
X183781710Y-93596489D01*
X183781700Y-93639790D01*
X183781700Y-93967300D01*
X183578500Y-93967300D01*
X183578500Y-92964000D01*
X183781700Y-92964000D01*
X183781700Y-93067579D01*
X183832403Y-93024178D01*
X183903844Y-92979068D01*
X183985379Y-92954802D01*
X184071734Y-92952005D01*
X184157634Y-92971296D01*
G36*
X186075965Y-93306327D02*
G01*
X186104749Y-93394140D01*
X186131346Y-93473003D01*
X186154708Y-93539983D01*
X186173784Y-93592148D01*
X186187526Y-93626565D01*
X186194882Y-93640302D01*
X186195512Y-93640293D01*
X186200991Y-93625907D01*
X186212039Y-93590339D01*
X186227686Y-93536948D01*
X186246961Y-93469095D01*
X186268896Y-93390142D01*
X186289872Y-93313250D01*
X186313311Y-93226851D01*
X186334784Y-93148170D01*
X186353339Y-93080650D01*
X186368027Y-93027738D01*
X186377897Y-92992878D01*
X186381840Y-92979875D01*
X186396135Y-92971031D01*
X186431975Y-92965824D01*
X186491134Y-92964006D01*
X186495867Y-92964000D01*
X186550727Y-92964984D01*
X186583483Y-92968272D01*
X186597370Y-92974367D01*
X186597884Y-92979875D01*
X186592313Y-92996529D01*
X186580381Y-93033314D01*
X186563400Y-93086146D01*
X186542684Y-93150941D01*
X186519545Y-93223616D01*
X186519312Y-93224350D01*
X186490951Y-93313486D01*
X186457771Y-93417583D01*
X186422717Y-93527416D01*
X186388730Y-93633761D01*
X186364289Y-93710125D01*
X186281907Y-93967300D01*
X186098771Y-93967300D01*
X185998215Y-93629972D01*
X185971714Y-93541839D01*
X185947250Y-93461939D01*
X185925826Y-93393434D01*
X185908446Y-93339487D01*
X185896114Y-93303260D01*
X185889833Y-93287914D01*
X185889570Y-93287646D01*
X185884018Y-93297992D01*
X185872371Y-93329695D01*
X185855616Y-93379718D01*
X185834740Y-93445027D01*
X185810732Y-93522584D01*
X185784578Y-93609355D01*
X185780881Y-93621798D01*
X185680281Y-93960950D01*
X185588056Y-93964685D01*
X185534940Y-93965272D01*
X185503484Y-93961466D01*
X185490255Y-93952822D01*
X185489909Y-93951985D01*
X185483177Y-93931911D01*
X185470139Y-93891801D01*
X185451788Y-93834787D01*
X185429118Y-93763998D01*
X185403122Y-93682566D01*
X185374793Y-93593620D01*
X185345125Y-93500291D01*
X185315111Y-93405710D01*
X185285744Y-93313007D01*
X185258018Y-93225313D01*
X185232926Y-93145758D01*
X185211461Y-93077473D01*
X185194617Y-93023588D01*
X185183386Y-92987234D01*
X185178763Y-92971542D01*
X185178700Y-92971184D01*
X185190424Y-92967929D01*
X185221698Y-92965443D01*
X185266675Y-92964118D01*
X185286053Y-92964000D01*
X185393406Y-92964000D01*
X185404657Y-93005275D01*
X185411061Y-93028882D01*
X185423019Y-93073070D01*
X185439464Y-93133898D01*
X185459333Y-93207423D01*
X185481559Y-93289704D01*
X185497329Y-93348102D01*
X185520017Y-93431210D01*
X185540784Y-93505535D01*
X185558666Y-93567765D01*
X185572697Y-93614586D01*
X185581912Y-93642684D01*
X185585100Y-93649479D01*
X185590459Y-93637834D01*
X185602438Y-93605034D01*
X185619999Y-93554145D01*
X185642103Y-93488229D01*
X185667713Y-93410350D01*
X185695790Y-93323573D01*
X185700198Y-93309827D01*
X185808947Y-92970350D01*
X185886917Y-92966584D01*
X185964887Y-92962819D01*
X186075965Y-93306327D01*
G37*
X186075965Y-93306327D02*
X186104749Y-93394140D01*
X186131346Y-93473003D01*
X186154708Y-93539983D01*
X186173784Y-93592148D01*
X186187526Y-93626565D01*
X186194882Y-93640302D01*
X186195512Y-93640293D01*
X186200991Y-93625907D01*
X186212039Y-93590339D01*
X186227686Y-93536948D01*
X186246961Y-93469095D01*
X186268896Y-93390142D01*
X186289872Y-93313250D01*
X186313311Y-93226851D01*
X186334784Y-93148170D01*
X186353339Y-93080650D01*
X186368027Y-93027738D01*
X186377897Y-92992878D01*
X186381840Y-92979875D01*
X186396135Y-92971031D01*
X186431975Y-92965824D01*
X186491134Y-92964006D01*
X186495867Y-92964000D01*
X186550727Y-92964984D01*
X186583483Y-92968272D01*
X186597370Y-92974367D01*
X186597884Y-92979875D01*
X186592313Y-92996529D01*
X186580381Y-93033314D01*
X186563400Y-93086146D01*
X186542684Y-93150941D01*
X186519545Y-93223616D01*
X186519312Y-93224350D01*
X186490951Y-93313486D01*
X186457771Y-93417583D01*
X186422717Y-93527416D01*
X186388730Y-93633761D01*
X186364289Y-93710125D01*
X186281907Y-93967300D01*
X186098771Y-93967300D01*
X185998215Y-93629972D01*
X185971714Y-93541839D01*
X185947250Y-93461939D01*
X185925826Y-93393434D01*
X185908446Y-93339487D01*
X185896114Y-93303260D01*
X185889833Y-93287914D01*
X185889570Y-93287646D01*
X185884018Y-93297992D01*
X185872371Y-93329695D01*
X185855616Y-93379718D01*
X185834740Y-93445027D01*
X185810732Y-93522584D01*
X185784578Y-93609355D01*
X185780881Y-93621798D01*
X185680281Y-93960950D01*
X185588056Y-93964685D01*
X185534940Y-93965272D01*
X185503484Y-93961466D01*
X185490255Y-93952822D01*
X185489909Y-93951985D01*
X185483177Y-93931911D01*
X185470139Y-93891801D01*
X185451788Y-93834787D01*
X185429118Y-93763998D01*
X185403122Y-93682566D01*
X185374793Y-93593620D01*
X185345125Y-93500291D01*
X185315111Y-93405710D01*
X185285744Y-93313007D01*
X185258018Y-93225313D01*
X185232926Y-93145758D01*
X185211461Y-93077473D01*
X185194617Y-93023588D01*
X185183386Y-92987234D01*
X185178763Y-92971542D01*
X185178700Y-92971184D01*
X185190424Y-92967929D01*
X185221698Y-92965443D01*
X185266675Y-92964118D01*
X185286053Y-92964000D01*
X185393406Y-92964000D01*
X185404657Y-93005275D01*
X185411061Y-93028882D01*
X185423019Y-93073070D01*
X185439464Y-93133898D01*
X185459333Y-93207423D01*
X185481559Y-93289704D01*
X185497329Y-93348102D01*
X185520017Y-93431210D01*
X185540784Y-93505535D01*
X185558666Y-93567765D01*
X185572697Y-93614586D01*
X185581912Y-93642684D01*
X185585100Y-93649479D01*
X185590459Y-93637834D01*
X185602438Y-93605034D01*
X185619999Y-93554145D01*
X185642103Y-93488229D01*
X185667713Y-93410350D01*
X185695790Y-93323573D01*
X185700198Y-93309827D01*
X185808947Y-92970350D01*
X185886917Y-92966584D01*
X185964887Y-92962819D01*
X186075965Y-93306327D01*
G36*
X188241057Y-92974333D02*
G01*
X188314246Y-93012622D01*
X188319716Y-93022488D01*
X188313851Y-93039952D01*
X188294672Y-93068622D01*
X188260199Y-93112107D01*
X188258616Y-93114033D01*
X188185289Y-93203166D01*
X188135561Y-93177247D01*
X188071921Y-93157060D01*
X188007884Y-93159553D01*
X187948988Y-93182995D01*
X187900771Y-93225652D01*
X187880644Y-93257002D01*
X187873813Y-93272996D01*
X187868520Y-93293066D01*
X187864575Y-93320431D01*
X187861789Y-93358312D01*
X187859972Y-93409931D01*
X187858934Y-93478507D01*
X187858485Y-93567262D01*
X187858419Y-93633925D01*
X187858400Y-93967300D01*
X187655200Y-93967300D01*
X187655200Y-92964000D01*
X187858400Y-92964000D01*
X187858400Y-93054192D01*
X187902824Y-93020308D01*
X187979975Y-92976725D01*
X188065669Y-92954467D01*
X188154500Y-92953637D01*
X188241057Y-92974333D01*
G37*
X188241057Y-92974333D02*
X188314246Y-93012622D01*
X188319716Y-93022488D01*
X188313851Y-93039952D01*
X188294672Y-93068622D01*
X188260199Y-93112107D01*
X188258616Y-93114033D01*
X188185289Y-93203166D01*
X188135561Y-93177247D01*
X188071921Y-93157060D01*
X188007884Y-93159553D01*
X187948988Y-93182995D01*
X187900771Y-93225652D01*
X187880644Y-93257002D01*
X187873813Y-93272996D01*
X187868520Y-93293066D01*
X187864575Y-93320431D01*
X187861789Y-93358312D01*
X187859972Y-93409931D01*
X187858934Y-93478507D01*
X187858485Y-93567262D01*
X187858419Y-93633925D01*
X187858400Y-93967300D01*
X187655200Y-93967300D01*
X187655200Y-92964000D01*
X187858400Y-92964000D01*
X187858400Y-93054192D01*
X187902824Y-93020308D01*
X187979975Y-92976725D01*
X188065669Y-92954467D01*
X188154500Y-92953637D01*
X188241057Y-92974333D01*
G36*
X181076561Y-91360261D02*
G01*
X181164365Y-91383420D01*
X181245004Y-91425087D01*
X181314832Y-91484531D01*
X181370199Y-91561016D01*
X181389354Y-91600630D01*
X181403940Y-91652298D01*
X181414053Y-91722364D01*
X181419698Y-91804222D01*
X181420880Y-91891269D01*
X181417607Y-91976899D01*
X181409882Y-92054509D01*
X181397713Y-92117493D01*
X181388884Y-92144094D01*
X181343140Y-92224122D01*
X181280000Y-92292060D01*
X181204779Y-92342951D01*
X181152800Y-92364271D01*
X181077169Y-92380205D01*
X180994754Y-92385624D01*
X180923189Y-92380032D01*
X180831796Y-92351240D01*
X180748478Y-92298765D01*
X180716871Y-92270443D01*
X180669574Y-92215083D01*
X180634939Y-92152564D01*
X180611668Y-92078672D01*
X180598460Y-91989188D01*
X180594016Y-91879898D01*
X180594000Y-91871800D01*
X180803550Y-91871800D01*
X180805136Y-91953778D01*
X180810905Y-92015353D01*
X180822370Y-92061380D01*
X180841044Y-92096715D01*
X180868442Y-92126213D01*
X180887659Y-92141621D01*
X180943826Y-92168853D01*
X181009797Y-92178226D01*
X181077263Y-92169691D01*
X181137917Y-92143195D01*
X181137989Y-92143149D01*
X181169957Y-92113408D01*
X181192818Y-92070144D01*
X181207461Y-92010257D01*
X181214777Y-91930646D01*
X181216021Y-91871315D01*
X181215524Y-91804704D01*
X181213147Y-91757144D01*
X181208004Y-91722307D01*
X181199209Y-91693864D01*
X181187725Y-91669055D01*
X181148083Y-91616463D01*
X181095812Y-91582130D01*
X181035943Y-91566062D01*
X180973509Y-91568266D01*
X180913542Y-91588746D01*
X180861073Y-91627509D01*
X180829636Y-91668643D01*
X180818434Y-91690911D01*
X180810928Y-91716138D01*
X180806414Y-91749802D01*
X180804191Y-91797383D01*
X180803553Y-91864360D01*
X180803550Y-91871800D01*
X180594000Y-91871800D01*
X180597572Y-91763271D01*
X180609253Y-91674843D01*
X180630491Y-91602104D01*
X180662732Y-91540642D01*
X180707423Y-91486049D01*
X180726664Y-91467387D01*
X180806644Y-91409175D01*
X180894052Y-91372405D01*
X180985240Y-91356345D01*
X181076561Y-91360261D01*
G37*
X181076561Y-91360261D02*
X181164365Y-91383420D01*
X181245004Y-91425087D01*
X181314832Y-91484531D01*
X181370199Y-91561016D01*
X181389354Y-91600630D01*
X181403940Y-91652298D01*
X181414053Y-91722364D01*
X181419698Y-91804222D01*
X181420880Y-91891269D01*
X181417607Y-91976899D01*
X181409882Y-92054509D01*
X181397713Y-92117493D01*
X181388884Y-92144094D01*
X181343140Y-92224122D01*
X181280000Y-92292060D01*
X181204779Y-92342951D01*
X181152800Y-92364271D01*
X181077169Y-92380205D01*
X180994754Y-92385624D01*
X180923189Y-92380032D01*
X180831796Y-92351240D01*
X180748478Y-92298765D01*
X180716871Y-92270443D01*
X180669574Y-92215083D01*
X180634939Y-92152564D01*
X180611668Y-92078672D01*
X180598460Y-91989188D01*
X180594016Y-91879898D01*
X180594000Y-91871800D01*
X180803550Y-91871800D01*
X180805136Y-91953778D01*
X180810905Y-92015353D01*
X180822370Y-92061380D01*
X180841044Y-92096715D01*
X180868442Y-92126213D01*
X180887659Y-92141621D01*
X180943826Y-92168853D01*
X181009797Y-92178226D01*
X181077263Y-92169691D01*
X181137917Y-92143195D01*
X181137989Y-92143149D01*
X181169957Y-92113408D01*
X181192818Y-92070144D01*
X181207461Y-92010257D01*
X181214777Y-91930646D01*
X181216021Y-91871315D01*
X181215524Y-91804704D01*
X181213147Y-91757144D01*
X181208004Y-91722307D01*
X181199209Y-91693864D01*
X181187725Y-91669055D01*
X181148083Y-91616463D01*
X181095812Y-91582130D01*
X181035943Y-91566062D01*
X180973509Y-91568266D01*
X180913542Y-91588746D01*
X180861073Y-91627509D01*
X180829636Y-91668643D01*
X180818434Y-91690911D01*
X180810928Y-91716138D01*
X180806414Y-91749802D01*
X180804191Y-91797383D01*
X180803553Y-91864360D01*
X180803550Y-91871800D01*
X180594000Y-91871800D01*
X180597572Y-91763271D01*
X180609253Y-91674843D01*
X180630491Y-91602104D01*
X180662732Y-91540642D01*
X180707423Y-91486049D01*
X180726664Y-91467387D01*
X180806644Y-91409175D01*
X180894052Y-91372405D01*
X180985240Y-91356345D01*
X181076561Y-91360261D01*
G36*
X183017644Y-91362812D02*
G01*
X183107719Y-91386645D01*
X183190868Y-91430211D01*
X183246477Y-91476277D01*
X183300430Y-91542491D01*
X183338930Y-91619355D01*
X183363134Y-91710391D01*
X183374198Y-91819124D01*
X183375204Y-91868625D01*
X183375300Y-91948000D01*
X182739149Y-91948000D01*
X182747626Y-91995625D01*
X182770643Y-92068470D01*
X182809758Y-92126085D01*
X182860947Y-92163898D01*
X182935086Y-92186234D01*
X183015327Y-92186630D01*
X183096327Y-92165823D01*
X183172746Y-92124550D01*
X183178978Y-92120033D01*
X183193722Y-92111370D01*
X183208586Y-92111480D01*
X183229198Y-92122694D01*
X183261184Y-92147340D01*
X183277758Y-92160932D01*
X183350609Y-92221050D01*
X183292728Y-92274253D01*
X183248066Y-92308870D01*
X183196873Y-92339455D01*
X183168491Y-92352283D01*
X183097142Y-92372065D01*
X183016616Y-92383548D01*
X182938129Y-92385670D01*
X182881673Y-92379381D01*
X182794189Y-92351261D01*
X182714799Y-92306722D01*
X182667741Y-92267095D01*
X182614994Y-92196576D01*
X182576320Y-92109770D01*
X182551659Y-92011495D01*
X182540951Y-91906570D01*
X182544135Y-91799812D01*
X182546907Y-91782900D01*
X182740935Y-91782900D01*
X183159400Y-91782900D01*
X183159400Y-91746797D01*
X183149471Y-91697739D01*
X183123728Y-91645846D01*
X183088233Y-91601191D01*
X183057681Y-91577862D01*
X182999292Y-91558205D01*
X182934458Y-91554644D01*
X182873252Y-91566941D01*
X182840603Y-91583042D01*
X182795333Y-91627487D01*
X182762384Y-91689983D01*
X182748386Y-91741625D01*
X182740935Y-91782900D01*
X182546907Y-91782900D01*
X182561150Y-91696039D01*
X182591937Y-91600069D01*
X182636434Y-91516720D01*
X182677784Y-91466369D01*
X182750713Y-91410490D01*
X182834656Y-91374656D01*
X182925129Y-91358790D01*
X183017644Y-91362812D01*
G37*
X183017644Y-91362812D02*
X183107719Y-91386645D01*
X183190868Y-91430211D01*
X183246477Y-91476277D01*
X183300430Y-91542491D01*
X183338930Y-91619355D01*
X183363134Y-91710391D01*
X183374198Y-91819124D01*
X183375204Y-91868625D01*
X183375300Y-91948000D01*
X182739149Y-91948000D01*
X182747626Y-91995625D01*
X182770643Y-92068470D01*
X182809758Y-92126085D01*
X182860947Y-92163898D01*
X182935086Y-92186234D01*
X183015327Y-92186630D01*
X183096327Y-92165823D01*
X183172746Y-92124550D01*
X183178978Y-92120033D01*
X183193722Y-92111370D01*
X183208586Y-92111480D01*
X183229198Y-92122694D01*
X183261184Y-92147340D01*
X183277758Y-92160932D01*
X183350609Y-92221050D01*
X183292728Y-92274253D01*
X183248066Y-92308870D01*
X183196873Y-92339455D01*
X183168491Y-92352283D01*
X183097142Y-92372065D01*
X183016616Y-92383548D01*
X182938129Y-92385670D01*
X182881673Y-92379381D01*
X182794189Y-92351261D01*
X182714799Y-92306722D01*
X182667741Y-92267095D01*
X182614994Y-92196576D01*
X182576320Y-92109770D01*
X182551659Y-92011495D01*
X182540951Y-91906570D01*
X182544135Y-91799812D01*
X182546907Y-91782900D01*
X182740935Y-91782900D01*
X183159400Y-91782900D01*
X183159400Y-91746797D01*
X183149471Y-91697739D01*
X183123728Y-91645846D01*
X183088233Y-91601191D01*
X183057681Y-91577862D01*
X182999292Y-91558205D01*
X182934458Y-91554644D01*
X182873252Y-91566941D01*
X182840603Y-91583042D01*
X182795333Y-91627487D01*
X182762384Y-91689983D01*
X182748386Y-91741625D01*
X182740935Y-91782900D01*
X182546907Y-91782900D01*
X182561150Y-91696039D01*
X182591937Y-91600069D01*
X182636434Y-91516720D01*
X182677784Y-91466369D01*
X182750713Y-91410490D01*
X182834656Y-91374656D01*
X182925129Y-91358790D01*
X183017644Y-91362812D01*
G36*
X185397638Y-91359875D02*
G01*
X185470050Y-91370863D01*
X185537153Y-91386470D01*
X185583463Y-91402608D01*
X185631513Y-91426094D01*
X185674591Y-91451172D01*
X185707166Y-91474218D01*
X185723705Y-91491609D01*
X185724713Y-91495124D01*
X185717053Y-91509428D01*
X185696833Y-91536951D01*
X185668327Y-91571895D01*
X185666546Y-91573985D01*
X185608293Y-91642171D01*
X185537793Y-91602384D01*
X185475163Y-91575654D01*
X185404333Y-91559054D01*
X185333252Y-91553361D01*
X185269870Y-91559351D01*
X185231220Y-91572460D01*
X185191645Y-91603429D01*
X185171080Y-91641871D01*
X185170063Y-91681954D01*
X185189127Y-91717848D01*
X185216006Y-91738039D01*
X185247308Y-91748632D01*
X185293926Y-91758069D01*
X185345789Y-91764313D01*
X185345997Y-91764329D01*
X185451510Y-91775029D01*
X185535195Y-91789940D01*
X185600474Y-91810528D01*
X185650770Y-91838261D01*
X185689505Y-91874605D01*
X185720102Y-91921027D01*
X185722538Y-91925682D01*
X185745173Y-91990737D01*
X185753981Y-92064710D01*
X185748622Y-92137406D01*
X185731432Y-92193261D01*
X185688115Y-92256159D01*
X185625065Y-92308476D01*
X185546261Y-92348742D01*
X185455678Y-92375490D01*
X185357293Y-92387250D01*
X185255084Y-92382552D01*
X185229500Y-92378652D01*
X185179581Y-92366251D01*
X185121642Y-92346586D01*
X185079040Y-92328766D01*
X185032583Y-92304704D01*
X184986116Y-92276759D01*
X184944970Y-92248633D01*
X184914479Y-92224026D01*
X184899975Y-92206641D01*
X184899460Y-92204107D01*
X184908412Y-92192204D01*
X184931868Y-92168673D01*
X184964984Y-92138340D01*
X184969192Y-92134634D01*
X185038765Y-92073618D01*
X185095893Y-92112923D01*
X185173238Y-92157031D01*
X185252124Y-92181489D01*
X185342350Y-92189291D01*
X185345804Y-92189300D01*
X185428156Y-92183322D01*
X185488434Y-92165224D01*
X185527017Y-92134758D01*
X185544285Y-92091676D01*
X185544585Y-92059793D01*
X185536943Y-92028723D01*
X185518830Y-92005234D01*
X185486872Y-91987757D01*
X185437695Y-91974726D01*
X185367923Y-91964572D01*
X185331506Y-91960772D01*
X185228003Y-91947031D01*
X185146226Y-91926979D01*
X185082938Y-91899008D01*
X185034903Y-91861506D01*
X184998884Y-91812864D01*
X184986803Y-91789250D01*
X184972071Y-91743732D01*
X184963746Y-91691717D01*
X184963078Y-91676423D01*
X184973081Y-91585658D01*
X185003925Y-91509383D01*
X185055540Y-91447670D01*
X185127857Y-91400588D01*
X185220806Y-91368210D01*
X185275695Y-91357449D01*
X185329620Y-91354929D01*
X185397638Y-91359875D01*
G37*
X185397638Y-91359875D02*
X185470050Y-91370863D01*
X185537153Y-91386470D01*
X185583463Y-91402608D01*
X185631513Y-91426094D01*
X185674591Y-91451172D01*
X185707166Y-91474218D01*
X185723705Y-91491609D01*
X185724713Y-91495124D01*
X185717053Y-91509428D01*
X185696833Y-91536951D01*
X185668327Y-91571895D01*
X185666546Y-91573985D01*
X185608293Y-91642171D01*
X185537793Y-91602384D01*
X185475163Y-91575654D01*
X185404333Y-91559054D01*
X185333252Y-91553361D01*
X185269870Y-91559351D01*
X185231220Y-91572460D01*
X185191645Y-91603429D01*
X185171080Y-91641871D01*
X185170063Y-91681954D01*
X185189127Y-91717848D01*
X185216006Y-91738039D01*
X185247308Y-91748632D01*
X185293926Y-91758069D01*
X185345789Y-91764313D01*
X185345997Y-91764329D01*
X185451510Y-91775029D01*
X185535195Y-91789940D01*
X185600474Y-91810528D01*
X185650770Y-91838261D01*
X185689505Y-91874605D01*
X185720102Y-91921027D01*
X185722538Y-91925682D01*
X185745173Y-91990737D01*
X185753981Y-92064710D01*
X185748622Y-92137406D01*
X185731432Y-92193261D01*
X185688115Y-92256159D01*
X185625065Y-92308476D01*
X185546261Y-92348742D01*
X185455678Y-92375490D01*
X185357293Y-92387250D01*
X185255084Y-92382552D01*
X185229500Y-92378652D01*
X185179581Y-92366251D01*
X185121642Y-92346586D01*
X185079040Y-92328766D01*
X185032583Y-92304704D01*
X184986116Y-92276759D01*
X184944970Y-92248633D01*
X184914479Y-92224026D01*
X184899975Y-92206641D01*
X184899460Y-92204107D01*
X184908412Y-92192204D01*
X184931868Y-92168673D01*
X184964984Y-92138340D01*
X184969192Y-92134634D01*
X185038765Y-92073618D01*
X185095893Y-92112923D01*
X185173238Y-92157031D01*
X185252124Y-92181489D01*
X185342350Y-92189291D01*
X185345804Y-92189300D01*
X185428156Y-92183322D01*
X185488434Y-92165224D01*
X185527017Y-92134758D01*
X185544285Y-92091676D01*
X185544585Y-92059793D01*
X185536943Y-92028723D01*
X185518830Y-92005234D01*
X185486872Y-91987757D01*
X185437695Y-91974726D01*
X185367923Y-91964572D01*
X185331506Y-91960772D01*
X185228003Y-91947031D01*
X185146226Y-91926979D01*
X185082938Y-91899008D01*
X185034903Y-91861506D01*
X184998884Y-91812864D01*
X184986803Y-91789250D01*
X184972071Y-91743732D01*
X184963746Y-91691717D01*
X184963078Y-91676423D01*
X184973081Y-91585658D01*
X185003925Y-91509383D01*
X185055540Y-91447670D01*
X185127857Y-91400588D01*
X185220806Y-91368210D01*
X185275695Y-91357449D01*
X185329620Y-91354929D01*
X185397638Y-91359875D01*
G36*
X186357972Y-91362019D02*
G01*
X186445837Y-91387445D01*
X186527557Y-91432865D01*
X186593249Y-91491814D01*
X186629597Y-91536186D01*
X186656526Y-91580259D01*
X186675329Y-91628892D01*
X186687298Y-91686948D01*
X186693726Y-91759288D01*
X186695905Y-91850773D01*
X186695935Y-91878150D01*
X186695342Y-91955134D01*
X186693542Y-92012244D01*
X186689926Y-92054999D01*
X186683883Y-92088917D01*
X186674803Y-92119519D01*
X186666956Y-92140314D01*
X186629494Y-92207308D01*
X186574687Y-92271354D01*
X186510134Y-92324696D01*
X186457808Y-92353920D01*
X186387428Y-92374974D01*
X186305673Y-92384918D01*
X186224565Y-92382530D01*
X186204679Y-92379671D01*
X186111052Y-92351178D01*
X186028412Y-92301403D01*
X185960477Y-92233207D01*
X185913781Y-92155822D01*
X185895332Y-92097692D01*
X185882479Y-92021567D01*
X185875284Y-91934240D01*
X185874272Y-91871315D01*
X186080678Y-91871315D01*
X186083585Y-91963996D01*
X186093014Y-92035087D01*
X186110632Y-92087927D01*
X186138102Y-92125857D01*
X186177090Y-92152218D01*
X186229258Y-92170350D01*
X186229741Y-92170473D01*
X186303972Y-92178302D01*
X186371099Y-92163230D01*
X186409617Y-92141190D01*
X186442223Y-92112934D01*
X186465337Y-92081364D01*
X186480458Y-92041638D01*
X186489089Y-91988916D01*
X186492730Y-91918357D01*
X186493150Y-91871800D01*
X186492624Y-91802732D01*
X186490578Y-91753571D01*
X186486309Y-91718839D01*
X186479112Y-91693057D01*
X186468284Y-91670744D01*
X186467063Y-91668643D01*
X186421301Y-91612640D01*
X186362961Y-91578672D01*
X186292502Y-91567004D01*
X186291048Y-91567000D01*
X186217654Y-91576445D01*
X186160164Y-91605288D01*
X186117228Y-91654283D01*
X186108975Y-91669055D01*
X186096227Y-91697110D01*
X186087912Y-91725981D01*
X186083143Y-91761996D01*
X186081035Y-91811485D01*
X186080678Y-91871315D01*
X185874272Y-91871315D01*
X185873808Y-91842507D01*
X185878114Y-91753161D01*
X185888264Y-91672997D01*
X185904319Y-91608810D01*
X185908688Y-91597417D01*
X185955816Y-91514850D01*
X186018973Y-91448856D01*
X186094462Y-91400006D01*
X186178589Y-91368870D01*
X186267658Y-91356018D01*
X186357972Y-91362019D01*
G37*
X186357972Y-91362019D02*
X186445837Y-91387445D01*
X186527557Y-91432865D01*
X186593249Y-91491814D01*
X186629597Y-91536186D01*
X186656526Y-91580259D01*
X186675329Y-91628892D01*
X186687298Y-91686948D01*
X186693726Y-91759288D01*
X186695905Y-91850773D01*
X186695935Y-91878150D01*
X186695342Y-91955134D01*
X186693542Y-92012244D01*
X186689926Y-92054999D01*
X186683883Y-92088917D01*
X186674803Y-92119519D01*
X186666956Y-92140314D01*
X186629494Y-92207308D01*
X186574687Y-92271354D01*
X186510134Y-92324696D01*
X186457808Y-92353920D01*
X186387428Y-92374974D01*
X186305673Y-92384918D01*
X186224565Y-92382530D01*
X186204679Y-92379671D01*
X186111052Y-92351178D01*
X186028412Y-92301403D01*
X185960477Y-92233207D01*
X185913781Y-92155822D01*
X185895332Y-92097692D01*
X185882479Y-92021567D01*
X185875284Y-91934240D01*
X185874272Y-91871315D01*
X186080678Y-91871315D01*
X186083585Y-91963996D01*
X186093014Y-92035087D01*
X186110632Y-92087927D01*
X186138102Y-92125857D01*
X186177090Y-92152218D01*
X186229258Y-92170350D01*
X186229741Y-92170473D01*
X186303972Y-92178302D01*
X186371099Y-92163230D01*
X186409617Y-92141190D01*
X186442223Y-92112934D01*
X186465337Y-92081364D01*
X186480458Y-92041638D01*
X186489089Y-91988916D01*
X186492730Y-91918357D01*
X186493150Y-91871800D01*
X186492624Y-91802732D01*
X186490578Y-91753571D01*
X186486309Y-91718839D01*
X186479112Y-91693057D01*
X186468284Y-91670744D01*
X186467063Y-91668643D01*
X186421301Y-91612640D01*
X186362961Y-91578672D01*
X186292502Y-91567004D01*
X186291048Y-91567000D01*
X186217654Y-91576445D01*
X186160164Y-91605288D01*
X186117228Y-91654283D01*
X186108975Y-91669055D01*
X186096227Y-91697110D01*
X186087912Y-91725981D01*
X186083143Y-91761996D01*
X186081035Y-91811485D01*
X186080678Y-91871315D01*
X185874272Y-91871315D01*
X185873808Y-91842507D01*
X185878114Y-91753161D01*
X185888264Y-91672997D01*
X185904319Y-91608810D01*
X185908688Y-91597417D01*
X185955816Y-91514850D01*
X186018973Y-91448856D01*
X186094462Y-91400006D01*
X186178589Y-91368870D01*
X186267658Y-91356018D01*
X186357972Y-91362019D01*
G36*
X187086298Y-91711642D02*
G01*
X187087507Y-91815312D01*
X187088802Y-91896674D01*
X187090426Y-91958818D01*
X187092618Y-92004834D01*
X187095620Y-92037813D01*
X187099673Y-92060847D01*
X187105018Y-92077026D01*
X187111895Y-92089440D01*
X187116234Y-92095537D01*
X187159209Y-92142651D01*
X187205187Y-92168881D01*
X187261821Y-92178309D01*
X187271743Y-92178527D01*
X187342195Y-92169809D01*
X187397286Y-92141517D01*
X187439376Y-92092273D01*
X187448825Y-92075193D01*
X187457542Y-92056956D01*
X187464280Y-92038603D01*
X187469294Y-92016721D01*
X187472837Y-91987896D01*
X187475164Y-91948715D01*
X187476529Y-91895762D01*
X187477186Y-91825626D01*
X187477389Y-91734893D01*
X187477400Y-91691309D01*
X187477400Y-91363800D01*
X187680600Y-91363800D01*
X187680600Y-92379800D01*
X187477400Y-92379800D01*
X187477400Y-92279917D01*
X187414322Y-92322365D01*
X187331129Y-92365571D01*
X187244940Y-92386645D01*
X187160358Y-92384609D01*
X187140850Y-92380583D01*
X187052924Y-92346720D01*
X186979475Y-92292289D01*
X186922080Y-92218604D01*
X186903471Y-92182950D01*
X186895093Y-92163884D01*
X186888493Y-92145192D01*
X186883457Y-92123695D01*
X186879773Y-92096216D01*
X186877230Y-92059576D01*
X186875615Y-92010598D01*
X186874716Y-91946104D01*
X186874321Y-91862916D01*
X186874218Y-91757856D01*
X186874215Y-91744800D01*
X186874150Y-91370150D01*
X186978348Y-91366470D01*
X187082546Y-91362791D01*
X187086298Y-91711642D01*
G37*
X187086298Y-91711642D02*
X187087507Y-91815312D01*
X187088802Y-91896674D01*
X187090426Y-91958818D01*
X187092618Y-92004834D01*
X187095620Y-92037813D01*
X187099673Y-92060847D01*
X187105018Y-92077026D01*
X187111895Y-92089440D01*
X187116234Y-92095537D01*
X187159209Y-92142651D01*
X187205187Y-92168881D01*
X187261821Y-92178309D01*
X187271743Y-92178527D01*
X187342195Y-92169809D01*
X187397286Y-92141517D01*
X187439376Y-92092273D01*
X187448825Y-92075193D01*
X187457542Y-92056956D01*
X187464280Y-92038603D01*
X187469294Y-92016721D01*
X187472837Y-91987896D01*
X187475164Y-91948715D01*
X187476529Y-91895762D01*
X187477186Y-91825626D01*
X187477389Y-91734893D01*
X187477400Y-91691309D01*
X187477400Y-91363800D01*
X187680600Y-91363800D01*
X187680600Y-92379800D01*
X187477400Y-92379800D01*
X187477400Y-92279917D01*
X187414322Y-92322365D01*
X187331129Y-92365571D01*
X187244940Y-92386645D01*
X187160358Y-92384609D01*
X187140850Y-92380583D01*
X187052924Y-92346720D01*
X186979475Y-92292289D01*
X186922080Y-92218604D01*
X186903471Y-92182950D01*
X186895093Y-92163884D01*
X186888493Y-92145192D01*
X186883457Y-92123695D01*
X186879773Y-92096216D01*
X186877230Y-92059576D01*
X186875615Y-92010598D01*
X186874716Y-91946104D01*
X186874321Y-91862916D01*
X186874218Y-91757856D01*
X186874215Y-91744800D01*
X186874150Y-91370150D01*
X186978348Y-91366470D01*
X187082546Y-91362791D01*
X187086298Y-91711642D01*
G36*
X189047261Y-91355773D02*
G01*
X189095323Y-91364154D01*
X189115778Y-91369172D01*
X189198448Y-91398513D01*
X189275814Y-91440900D01*
X189338384Y-91491025D01*
X189343946Y-91496773D01*
X189363284Y-91519134D01*
X189366066Y-91533796D01*
X189353308Y-91551400D01*
X189349563Y-91555566D01*
X189324232Y-91580413D01*
X189290175Y-91610099D01*
X189278512Y-91619563D01*
X189231775Y-91656628D01*
X189173251Y-91615376D01*
X189134656Y-91591238D01*
X189098188Y-91577691D01*
X189052357Y-91571076D01*
X189029489Y-91569586D01*
X188948287Y-91573426D01*
X188883642Y-91595395D01*
X188833130Y-91636745D01*
X188799336Y-91688385D01*
X188783726Y-91723036D01*
X188774159Y-91756753D01*
X188769234Y-91797597D01*
X188767552Y-91853628D01*
X188767472Y-91871800D01*
X188768488Y-91934284D01*
X188772586Y-91979392D01*
X188781054Y-92015084D01*
X188795183Y-92049320D01*
X188796743Y-92052533D01*
X188838082Y-92110307D01*
X188894342Y-92151108D01*
X188960837Y-92174112D01*
X189032883Y-92178497D01*
X189105794Y-92163437D01*
X189174886Y-92128109D01*
X189184924Y-92120788D01*
X189230541Y-92085994D01*
X189277895Y-92123548D01*
X189312364Y-92152521D01*
X189342058Y-92180177D01*
X189349443Y-92187900D01*
X189365643Y-92208324D01*
X189364530Y-92223145D01*
X189349443Y-92241578D01*
X189299057Y-92285997D01*
X189233313Y-92327694D01*
X189162049Y-92360738D01*
X189138053Y-92369027D01*
X189080562Y-92384174D01*
X189029305Y-92389929D01*
X188973048Y-92386854D01*
X188924331Y-92379688D01*
X188847311Y-92357148D01*
X188769533Y-92318156D01*
X188702267Y-92268633D01*
X188689258Y-92256163D01*
X188634553Y-92183623D01*
X188593853Y-92093732D01*
X188568303Y-91991045D01*
X188559047Y-91880113D01*
X188566748Y-91768746D01*
X188593223Y-91653634D01*
X188636469Y-91557543D01*
X188696754Y-91480190D01*
X188774343Y-91421289D01*
X188869504Y-91380556D01*
X188946946Y-91362662D01*
X189002407Y-91355453D01*
X189047261Y-91355773D01*
G37*
X189047261Y-91355773D02*
X189095323Y-91364154D01*
X189115778Y-91369172D01*
X189198448Y-91398513D01*
X189275814Y-91440900D01*
X189338384Y-91491025D01*
X189343946Y-91496773D01*
X189363284Y-91519134D01*
X189366066Y-91533796D01*
X189353308Y-91551400D01*
X189349563Y-91555566D01*
X189324232Y-91580413D01*
X189290175Y-91610099D01*
X189278512Y-91619563D01*
X189231775Y-91656628D01*
X189173251Y-91615376D01*
X189134656Y-91591238D01*
X189098188Y-91577691D01*
X189052357Y-91571076D01*
X189029489Y-91569586D01*
X188948287Y-91573426D01*
X188883642Y-91595395D01*
X188833130Y-91636745D01*
X188799336Y-91688385D01*
X188783726Y-91723036D01*
X188774159Y-91756753D01*
X188769234Y-91797597D01*
X188767552Y-91853628D01*
X188767472Y-91871800D01*
X188768488Y-91934284D01*
X188772586Y-91979392D01*
X188781054Y-92015084D01*
X188795183Y-92049320D01*
X188796743Y-92052533D01*
X188838082Y-92110307D01*
X188894342Y-92151108D01*
X188960837Y-92174112D01*
X189032883Y-92178497D01*
X189105794Y-92163437D01*
X189174886Y-92128109D01*
X189184924Y-92120788D01*
X189230541Y-92085994D01*
X189277895Y-92123548D01*
X189312364Y-92152521D01*
X189342058Y-92180177D01*
X189349443Y-92187900D01*
X189365643Y-92208324D01*
X189364530Y-92223145D01*
X189349443Y-92241578D01*
X189299057Y-92285997D01*
X189233313Y-92327694D01*
X189162049Y-92360738D01*
X189138053Y-92369027D01*
X189080562Y-92384174D01*
X189029305Y-92389929D01*
X188973048Y-92386854D01*
X188924331Y-92379688D01*
X188847311Y-92357148D01*
X188769533Y-92318156D01*
X188702267Y-92268633D01*
X188689258Y-92256163D01*
X188634553Y-92183623D01*
X188593853Y-92093732D01*
X188568303Y-91991045D01*
X188559047Y-91880113D01*
X188566748Y-91768746D01*
X188593223Y-91653634D01*
X188636469Y-91557543D01*
X188696754Y-91480190D01*
X188774343Y-91421289D01*
X188869504Y-91380556D01*
X188946946Y-91362662D01*
X189002407Y-91355453D01*
X189047261Y-91355773D01*
G36*
X189962629Y-91373304D02*
G01*
X190053681Y-91413766D01*
X190130065Y-91471449D01*
X190178278Y-91522811D01*
X190212856Y-91576401D01*
X190235952Y-91637916D01*
X190249722Y-91713054D01*
X190256234Y-91805125D01*
X190261441Y-91948000D01*
X189636400Y-91948000D01*
X189636400Y-91983409D01*
X189644917Y-92026772D01*
X189666830Y-92076906D01*
X189696680Y-92123563D01*
X189728304Y-92155983D01*
X189767926Y-92173874D01*
X189822563Y-92184847D01*
X189882557Y-92188010D01*
X189938248Y-92182469D01*
X189958279Y-92177250D01*
X189999210Y-92159794D01*
X190042201Y-92135875D01*
X190049415Y-92131149D01*
X190095380Y-92099957D01*
X190164340Y-92158871D01*
X190198276Y-92189197D01*
X190222894Y-92213740D01*
X190233237Y-92227528D01*
X190233300Y-92228018D01*
X190224315Y-92241548D01*
X190201604Y-92263924D01*
X190188437Y-92275230D01*
X190096346Y-92335146D01*
X189993825Y-92373433D01*
X189885450Y-92388950D01*
X189775800Y-92380560D01*
X189769750Y-92379367D01*
X189671499Y-92347605D01*
X189588736Y-92295903D01*
X189522203Y-92225005D01*
X189472646Y-92135653D01*
X189447042Y-92056887D01*
X189438330Y-92002870D01*
X189433326Y-91933081D01*
X189432101Y-91856888D01*
X189434727Y-91783658D01*
X189438689Y-91746797D01*
X189636400Y-91746797D01*
X189636400Y-91782900D01*
X190058326Y-91782900D01*
X190049603Y-91735275D01*
X190025642Y-91662256D01*
X189984836Y-91606589D01*
X189929253Y-91570120D01*
X189860963Y-91554698D01*
X189847048Y-91554300D01*
X189789140Y-91560493D01*
X189739944Y-91576904D01*
X189738118Y-91577862D01*
X189699226Y-91609885D01*
X189665357Y-91656997D01*
X189642574Y-91709130D01*
X189636400Y-91746797D01*
X189438689Y-91746797D01*
X189441273Y-91722758D01*
X189444389Y-91706592D01*
X189479152Y-91598837D01*
X189530209Y-91510031D01*
X189597106Y-91440660D01*
X189679387Y-91391211D01*
X189765920Y-91364199D01*
X189865717Y-91356489D01*
X189962629Y-91373304D01*
G37*
X189962629Y-91373304D02*
X190053681Y-91413766D01*
X190130065Y-91471449D01*
X190178278Y-91522811D01*
X190212856Y-91576401D01*
X190235952Y-91637916D01*
X190249722Y-91713054D01*
X190256234Y-91805125D01*
X190261441Y-91948000D01*
X189636400Y-91948000D01*
X189636400Y-91983409D01*
X189644917Y-92026772D01*
X189666830Y-92076906D01*
X189696680Y-92123563D01*
X189728304Y-92155983D01*
X189767926Y-92173874D01*
X189822563Y-92184847D01*
X189882557Y-92188010D01*
X189938248Y-92182469D01*
X189958279Y-92177250D01*
X189999210Y-92159794D01*
X190042201Y-92135875D01*
X190049415Y-92131149D01*
X190095380Y-92099957D01*
X190164340Y-92158871D01*
X190198276Y-92189197D01*
X190222894Y-92213740D01*
X190233237Y-92227528D01*
X190233300Y-92228018D01*
X190224315Y-92241548D01*
X190201604Y-92263924D01*
X190188437Y-92275230D01*
X190096346Y-92335146D01*
X189993825Y-92373433D01*
X189885450Y-92388950D01*
X189775800Y-92380560D01*
X189769750Y-92379367D01*
X189671499Y-92347605D01*
X189588736Y-92295903D01*
X189522203Y-92225005D01*
X189472646Y-92135653D01*
X189447042Y-92056887D01*
X189438330Y-92002870D01*
X189433326Y-91933081D01*
X189432101Y-91856888D01*
X189434727Y-91783658D01*
X189438689Y-91746797D01*
X189636400Y-91746797D01*
X189636400Y-91782900D01*
X190058326Y-91782900D01*
X190049603Y-91735275D01*
X190025642Y-91662256D01*
X189984836Y-91606589D01*
X189929253Y-91570120D01*
X189860963Y-91554698D01*
X189847048Y-91554300D01*
X189789140Y-91560493D01*
X189739944Y-91576904D01*
X189738118Y-91577862D01*
X189699226Y-91609885D01*
X189665357Y-91656997D01*
X189642574Y-91709130D01*
X189636400Y-91746797D01*
X189438689Y-91746797D01*
X189441273Y-91722758D01*
X189444389Y-91706592D01*
X189479152Y-91598837D01*
X189530209Y-91510031D01*
X189597106Y-91440660D01*
X189679387Y-91391211D01*
X189765920Y-91364199D01*
X189865717Y-91356489D01*
X189962629Y-91373304D01*
G36*
X184067918Y-91363971D02*
G01*
X184140361Y-91384753D01*
X184156350Y-91392282D01*
X184227215Y-91437717D01*
X184279934Y-91494275D01*
X184317594Y-91560650D01*
X184325975Y-91579812D01*
X184332630Y-91598930D01*
X184337797Y-91621166D01*
X184341716Y-91649684D01*
X184344626Y-91687646D01*
X184346767Y-91738216D01*
X184348377Y-91804556D01*
X184349696Y-91889829D01*
X184350964Y-91997199D01*
X184351022Y-92002504D01*
X184355195Y-92380859D01*
X184249422Y-92377154D01*
X184143650Y-92373450D01*
X184137300Y-92030550D01*
X184135228Y-91926721D01*
X184133144Y-91845150D01*
X184130798Y-91782693D01*
X184127942Y-91736210D01*
X184124327Y-91702557D01*
X184119703Y-91678594D01*
X184113823Y-91661179D01*
X184107003Y-91648096D01*
X184066759Y-91601572D01*
X184013188Y-91575007D01*
X183947384Y-91567000D01*
X183878988Y-91574701D01*
X183826606Y-91599429D01*
X183785462Y-91643616D01*
X183779751Y-91652417D01*
X183770814Y-91667601D01*
X183763822Y-91683142D01*
X183758490Y-91702291D01*
X183754533Y-91728299D01*
X183751668Y-91764416D01*
X183749609Y-91813892D01*
X183748073Y-91879978D01*
X183746776Y-91965925D01*
X183745853Y-92040075D01*
X183741756Y-92379800D01*
X183540400Y-92379800D01*
X183540400Y-91363800D01*
X183743600Y-91363800D01*
X183743600Y-91414600D01*
X183746238Y-91450809D01*
X183755897Y-91463135D01*
X183775193Y-91452579D01*
X183794099Y-91433969D01*
X183846671Y-91395053D01*
X183914328Y-91369897D01*
X183990325Y-91359277D01*
X184067918Y-91363971D01*
G37*
X184067918Y-91363971D02*
X184140361Y-91384753D01*
X184156350Y-91392282D01*
X184227215Y-91437717D01*
X184279934Y-91494275D01*
X184317594Y-91560650D01*
X184325975Y-91579812D01*
X184332630Y-91598930D01*
X184337797Y-91621166D01*
X184341716Y-91649684D01*
X184344626Y-91687646D01*
X184346767Y-91738216D01*
X184348377Y-91804556D01*
X184349696Y-91889829D01*
X184350964Y-91997199D01*
X184351022Y-92002504D01*
X184355195Y-92380859D01*
X184249422Y-92377154D01*
X184143650Y-92373450D01*
X184137300Y-92030550D01*
X184135228Y-91926721D01*
X184133144Y-91845150D01*
X184130798Y-91782693D01*
X184127942Y-91736210D01*
X184124327Y-91702557D01*
X184119703Y-91678594D01*
X184113823Y-91661179D01*
X184107003Y-91648096D01*
X184066759Y-91601572D01*
X184013188Y-91575007D01*
X183947384Y-91567000D01*
X183878988Y-91574701D01*
X183826606Y-91599429D01*
X183785462Y-91643616D01*
X183779751Y-91652417D01*
X183770814Y-91667601D01*
X183763822Y-91683142D01*
X183758490Y-91702291D01*
X183754533Y-91728299D01*
X183751668Y-91764416D01*
X183749609Y-91813892D01*
X183748073Y-91879978D01*
X183746776Y-91965925D01*
X183745853Y-92040075D01*
X183741756Y-92379800D01*
X183540400Y-92379800D01*
X183540400Y-91363800D01*
X183743600Y-91363800D01*
X183743600Y-91414600D01*
X183746238Y-91450809D01*
X183755897Y-91463135D01*
X183775193Y-91452579D01*
X183794099Y-91433969D01*
X183846671Y-91395053D01*
X183914328Y-91369897D01*
X183990325Y-91359277D01*
X184067918Y-91363971D01*
G36*
X188408935Y-91361134D02*
G01*
X188484888Y-91377606D01*
X188540704Y-91403664D01*
X188582476Y-91429480D01*
X188557693Y-91463315D01*
X188535048Y-91492306D01*
X188503985Y-91529787D01*
X188484129Y-91552860D01*
X188435349Y-91608570D01*
X188395155Y-91587785D01*
X188344496Y-91571617D01*
X188286213Y-91567727D01*
X188231138Y-91575957D01*
X188197425Y-91590656D01*
X188175261Y-91605751D01*
X188157693Y-91620540D01*
X188144125Y-91638059D01*
X188133962Y-91661342D01*
X188126608Y-91693425D01*
X188121470Y-91737342D01*
X188117950Y-91796130D01*
X188115454Y-91872824D01*
X188113388Y-91970457D01*
X188112400Y-92024200D01*
X188106050Y-92373450D01*
X188001275Y-92377138D01*
X187896500Y-92380827D01*
X187896500Y-91362772D01*
X188106050Y-91370150D01*
X188112400Y-91419873D01*
X188117433Y-91450372D01*
X188123748Y-91459322D01*
X188134459Y-91450509D01*
X188136052Y-91448602D01*
X188187258Y-91405106D01*
X188253932Y-91375571D01*
X188329887Y-91360685D01*
X188408935Y-91361134D01*
G37*
X188408935Y-91361134D02*
X188484888Y-91377606D01*
X188540704Y-91403664D01*
X188582476Y-91429480D01*
X188557693Y-91463315D01*
X188535048Y-91492306D01*
X188503985Y-91529787D01*
X188484129Y-91552860D01*
X188435349Y-91608570D01*
X188395155Y-91587785D01*
X188344496Y-91571617D01*
X188286213Y-91567727D01*
X188231138Y-91575957D01*
X188197425Y-91590656D01*
X188175261Y-91605751D01*
X188157693Y-91620540D01*
X188144125Y-91638059D01*
X188133962Y-91661342D01*
X188126608Y-91693425D01*
X188121470Y-91737342D01*
X188117950Y-91796130D01*
X188115454Y-91872824D01*
X188113388Y-91970457D01*
X188112400Y-92024200D01*
X188106050Y-92373450D01*
X188001275Y-92377138D01*
X187896500Y-92380827D01*
X187896500Y-91362772D01*
X188106050Y-91370150D01*
X188112400Y-91419873D01*
X188117433Y-91450372D01*
X188123748Y-91459322D01*
X188134459Y-91450509D01*
X188136052Y-91448602D01*
X188187258Y-91405106D01*
X188253932Y-91375571D01*
X188329887Y-91360685D01*
X188408935Y-91361134D01*
G36*
X185552345Y-83820043D02*
G01*
X185655336Y-83820251D01*
X185737718Y-83820737D01*
X185801885Y-83821617D01*
X185850232Y-83823005D01*
X185885156Y-83825016D01*
X185909050Y-83827765D01*
X185924310Y-83831366D01*
X185933332Y-83835934D01*
X185938510Y-83841585D01*
X185940284Y-83844622D01*
X185945503Y-83862307D01*
X185954698Y-83902093D01*
X185967282Y-83961095D01*
X185982666Y-84036428D01*
X186000263Y-84125206D01*
X186019486Y-84224543D01*
X186039746Y-84331554D01*
X186043091Y-84349447D01*
X186063503Y-84457042D01*
X186083114Y-84557077D01*
X186101322Y-84646727D01*
X186117526Y-84723170D01*
X186131125Y-84783582D01*
X186141518Y-84825138D01*
X186148103Y-84845016D01*
X186148819Y-84846054D01*
X186165662Y-84856109D01*
X186202431Y-84873777D01*
X186255355Y-84897514D01*
X186320669Y-84925776D01*
X186394604Y-84957019D01*
X186473393Y-84989700D01*
X186553267Y-85022273D01*
X186630460Y-85053196D01*
X186701204Y-85080924D01*
X186761731Y-85103913D01*
X186808273Y-85120619D01*
X186837063Y-85129498D01*
X186842962Y-85130522D01*
X186860997Y-85125031D01*
X186894904Y-85107379D01*
X186945516Y-85077038D01*
X187013664Y-85033485D01*
X187100180Y-84976192D01*
X187205897Y-84904636D01*
X187267302Y-84862600D01*
X187373687Y-84789547D01*
X187461124Y-84729603D01*
X187531616Y-84681519D01*
X187587167Y-84644045D01*
X187629781Y-84615933D01*
X187661461Y-84595934D01*
X187684211Y-84582799D01*
X187700036Y-84575279D01*
X187710939Y-84572125D01*
X187718924Y-84572087D01*
X187725995Y-84573918D01*
X187728941Y-84574869D01*
X187745172Y-84586110D01*
X187776101Y-84613079D01*
X187819339Y-84653345D01*
X187872501Y-84704480D01*
X187933198Y-84764052D01*
X187999043Y-84829632D01*
X188067650Y-84898789D01*
X188136630Y-84969094D01*
X188203597Y-85038116D01*
X188266162Y-85103425D01*
X188321940Y-85162591D01*
X188368541Y-85213184D01*
X188403580Y-85252774D01*
X188424669Y-85278931D01*
X188429900Y-85288398D01*
X188422912Y-85304400D01*
X188403003Y-85338797D01*
X188371755Y-85389130D01*
X188330750Y-85452941D01*
X188281571Y-85527773D01*
X188225799Y-85611168D01*
X188165017Y-85700667D01*
X188156850Y-85712594D01*
X188074873Y-85833078D01*
X188007290Y-85934346D01*
X187954246Y-86016163D01*
X187915891Y-86078298D01*
X187892370Y-86120519D01*
X187883832Y-86142592D01*
X187883800Y-86143334D01*
X187888810Y-86165823D01*
X187902790Y-86207146D01*
X187924162Y-86263663D01*
X187951348Y-86331729D01*
X187982771Y-86407703D01*
X188016854Y-86487943D01*
X188052018Y-86568806D01*
X188086687Y-86646649D01*
X188119282Y-86717830D01*
X188148226Y-86778706D01*
X188171942Y-86825636D01*
X188188852Y-86854977D01*
X188195436Y-86862883D01*
X188213601Y-86869111D01*
X188253764Y-86879172D01*
X188312918Y-86892432D01*
X188388056Y-86908257D01*
X188476173Y-86926013D01*
X188574261Y-86945065D01*
X188671686Y-86963369D01*
X188776460Y-86982924D01*
X188874182Y-87001511D01*
X188961825Y-87018528D01*
X189036362Y-87033372D01*
X189094764Y-87045441D01*
X189134006Y-87054134D01*
X189150625Y-87058648D01*
X189179200Y-87070655D01*
X189179200Y-87577568D01*
X189179136Y-87704754D01*
X189178879Y-87808886D01*
X189178327Y-87892312D01*
X189177378Y-87957378D01*
X189175933Y-88006431D01*
X189173890Y-88041818D01*
X189171148Y-88065885D01*
X189167606Y-88080979D01*
X189163163Y-88089446D01*
X189157718Y-88093634D01*
X189156975Y-88093968D01*
X189139730Y-88098427D01*
X189100459Y-88106932D01*
X189042109Y-88118896D01*
X188967628Y-88133731D01*
X188879962Y-88150850D01*
X188782059Y-88169667D01*
X188678294Y-88189326D01*
X188551155Y-88213502D01*
X188447187Y-88233882D01*
X188364515Y-88250895D01*
X188301264Y-88264966D01*
X188255559Y-88276523D01*
X188225524Y-88285993D01*
X188209284Y-88293803D01*
X188205996Y-88296863D01*
X188197406Y-88313806D01*
X188180781Y-88351240D01*
X188157431Y-88406042D01*
X188128666Y-88475084D01*
X188095798Y-88555242D01*
X188060137Y-88643390D01*
X188048267Y-88672980D01*
X188001560Y-88791092D01*
X187964947Y-88886928D01*
X187938115Y-88961382D01*
X187920751Y-89015349D01*
X187912541Y-89049723D01*
X187911990Y-89062140D01*
X187920337Y-89080438D01*
X187941554Y-89116918D01*
X187973950Y-89168951D01*
X188015833Y-89233909D01*
X188065511Y-89309162D01*
X188121292Y-89392083D01*
X188173750Y-89468822D01*
X188233134Y-89555659D01*
X188287648Y-89636534D01*
X188335655Y-89708927D01*
X188375515Y-89770316D01*
X188405589Y-89818181D01*
X188424238Y-89850000D01*
X188429899Y-89862825D01*
X188421170Y-89876396D01*
X188396273Y-89905724D01*
X188357150Y-89948753D01*
X188305741Y-90003426D01*
X188243984Y-90067687D01*
X188173821Y-90139479D01*
X188097192Y-90216747D01*
X188076503Y-90237424D01*
X187984561Y-90328879D01*
X187908756Y-90403594D01*
X187847496Y-90463017D01*
X187799189Y-90508596D01*
X187762242Y-90541779D01*
X187735063Y-90564015D01*
X187716059Y-90576751D01*
X187703638Y-90581435D01*
X187698678Y-90580981D01*
X187682761Y-90571873D01*
X187648519Y-90550044D01*
X187598528Y-90517209D01*
X187535363Y-90475083D01*
X187461596Y-90425381D01*
X187379804Y-90369819D01*
X187307232Y-90320184D01*
X187220807Y-90261364D01*
X187140226Y-90207420D01*
X187068055Y-90160001D01*
X187006861Y-90120758D01*
X186959212Y-90091340D01*
X186927675Y-90073397D01*
X186915492Y-90068400D01*
X186895943Y-90074186D01*
X186858798Y-90090108D01*
X186808691Y-90114007D01*
X186750253Y-90143724D01*
X186723709Y-90157757D01*
X186663301Y-90189027D01*
X186609350Y-90215017D01*
X186566433Y-90233667D01*
X186539125Y-90242918D01*
X186533253Y-90243482D01*
X186526366Y-90237646D01*
X186515549Y-90220851D01*
X186500224Y-90191787D01*
X186479814Y-90149145D01*
X186453742Y-90091615D01*
X186421430Y-90017886D01*
X186382302Y-89926649D01*
X186356327Y-89865200D01*
X187331350Y-89865200D01*
X187332148Y-89929306D01*
X187335224Y-89974788D01*
X187341594Y-90008391D01*
X187352277Y-90036860D01*
X187359394Y-90050978D01*
X187401578Y-90110031D01*
X187459496Y-90164953D01*
X187524146Y-90208035D01*
X187562632Y-90225065D01*
X187614428Y-90236466D01*
X187681016Y-90242130D01*
X187753835Y-90242249D01*
X187824323Y-90237010D01*
X187883919Y-90226605D01*
X187912375Y-90217327D01*
X187960000Y-90196696D01*
X187960000Y-90029872D01*
X187893325Y-90063969D01*
X187829550Y-90088049D01*
X187762333Y-90099173D01*
X187699060Y-90097091D01*
X187647115Y-90081552D01*
X187632843Y-90072788D01*
X187580741Y-90020055D01*
X187545993Y-89954918D01*
X187536134Y-89916695D01*
X187533861Y-89832965D01*
X187553842Y-89757076D01*
X187594783Y-89692494D01*
X187632843Y-89657611D01*
X187679012Y-89637253D01*
X187739123Y-89630440D01*
X187805790Y-89636921D01*
X187871626Y-89656448D01*
X187893325Y-89666430D01*
X187960000Y-89700527D01*
X187960000Y-89533703D01*
X187912375Y-89513214D01*
X187858037Y-89497624D01*
X187788202Y-89488494D01*
X187712004Y-89486082D01*
X187638576Y-89490650D01*
X187577054Y-89502456D01*
X187573384Y-89503575D01*
X187499677Y-89537776D01*
X187431168Y-89589549D01*
X187376216Y-89652024D01*
X187359394Y-89679421D01*
X187346226Y-89707837D01*
X187337870Y-89738082D01*
X187333308Y-89776901D01*
X187331520Y-89831040D01*
X187331350Y-89865200D01*
X186356327Y-89865200D01*
X186335780Y-89816593D01*
X186281288Y-89686409D01*
X186218248Y-89534786D01*
X186174478Y-89429102D01*
X186118228Y-89292776D01*
X186064937Y-89162945D01*
X186015394Y-89041573D01*
X185970387Y-88930627D01*
X185930705Y-88832068D01*
X185897137Y-88747863D01*
X185870471Y-88679976D01*
X185851497Y-88630371D01*
X185841002Y-88601012D01*
X185839100Y-88593797D01*
X185850187Y-88570586D01*
X185880453Y-88543108D01*
X185893075Y-88534465D01*
X185929207Y-88510221D01*
X185976752Y-88477028D01*
X186026776Y-88441147D01*
X186038371Y-88432674D01*
X186161767Y-88327037D01*
X186265477Y-88206937D01*
X186348827Y-88074758D01*
X186404720Y-87947500D01*
X188404500Y-87947500D01*
X188624256Y-87947500D01*
X188704603Y-87947319D01*
X188764200Y-87946424D01*
X188807696Y-87944289D01*
X188839741Y-87940385D01*
X188864985Y-87934184D01*
X188888076Y-87925159D01*
X188908817Y-87915206D01*
X188963228Y-87878984D01*
X188996860Y-87832809D01*
X189012321Y-87772243D01*
X189014052Y-87736030D01*
X189005521Y-87675304D01*
X188982340Y-87623028D01*
X188947984Y-87586049D01*
X188933852Y-87577938D01*
X188904345Y-87564494D01*
X188946522Y-87522317D01*
X188971977Y-87493573D01*
X188984501Y-87466470D01*
X188988472Y-87429561D01*
X188988652Y-87412195D01*
X188978590Y-87339476D01*
X188948618Y-87282330D01*
X188898887Y-87241044D01*
X188897186Y-87240104D01*
X188877619Y-87231506D01*
X188852184Y-87225070D01*
X188816818Y-87220383D01*
X188767453Y-87217034D01*
X188700025Y-87214613D01*
X188629925Y-87213059D01*
X188404500Y-87208843D01*
X188404500Y-87947500D01*
X186404720Y-87947500D01*
X186411141Y-87932883D01*
X186451745Y-87783693D01*
X186469963Y-87629573D01*
X186465121Y-87472903D01*
X186436544Y-87316068D01*
X186392416Y-87182740D01*
X186352667Y-87095644D01*
X186305961Y-87017177D01*
X186247619Y-86940587D01*
X186172962Y-86859126D01*
X186156600Y-86842594D01*
X186044054Y-86742532D01*
X185926831Y-86664402D01*
X185799157Y-86604757D01*
X185705750Y-86573668D01*
X185614953Y-86554764D01*
X185508960Y-86544315D01*
X185396524Y-86542320D01*
X185286400Y-86548780D01*
X185187342Y-86563695D01*
X185146950Y-86573668D01*
X184997331Y-86629447D01*
X184859163Y-86706192D01*
X184734505Y-86801701D01*
X184625417Y-86913774D01*
X184533962Y-87040208D01*
X184462198Y-87178802D01*
X184412187Y-87327354D01*
X184402692Y-87368833D01*
X184382320Y-87528414D01*
X184386360Y-87686713D01*
X184413850Y-87841246D01*
X184463829Y-87989532D01*
X184535338Y-88129087D01*
X184627415Y-88257429D01*
X184739100Y-88372075D01*
X184814328Y-88432674D01*
X184863599Y-88468261D01*
X184912576Y-88502689D01*
X184952324Y-88529700D01*
X184959625Y-88534465D01*
X184994941Y-88562263D01*
X185012476Y-88587332D01*
X185013600Y-88593797D01*
X185008848Y-88609402D01*
X184995121Y-88646489D01*
X184973205Y-88703096D01*
X184943891Y-88777257D01*
X184907966Y-88867008D01*
X184866219Y-88970384D01*
X184819440Y-89085422D01*
X184768416Y-89210156D01*
X184713938Y-89342622D01*
X184678221Y-89429102D01*
X184609574Y-89594718D01*
X184549834Y-89738081D01*
X184498423Y-89860500D01*
X184454765Y-89963287D01*
X184418282Y-90047750D01*
X184388397Y-90115201D01*
X184364533Y-90166948D01*
X184346114Y-90204302D01*
X184332561Y-90228573D01*
X184323298Y-90241070D01*
X184319446Y-90243482D01*
X184300415Y-90238996D01*
X184263771Y-90224209D01*
X184214089Y-90201180D01*
X184155945Y-90171969D01*
X184128990Y-90157757D01*
X184068393Y-90126202D01*
X184014135Y-90099536D01*
X183970848Y-90079919D01*
X183943162Y-90069508D01*
X183937207Y-90068400D01*
X183921252Y-90075383D01*
X183887021Y-90095232D01*
X183837081Y-90126299D01*
X183773998Y-90166932D01*
X183700340Y-90215482D01*
X183618673Y-90270299D01*
X183545467Y-90320184D01*
X183458946Y-90379325D01*
X183378301Y-90434037D01*
X183306108Y-90482606D01*
X183244939Y-90523316D01*
X183197371Y-90554453D01*
X183165978Y-90574300D01*
X183154021Y-90580981D01*
X183144788Y-90580437D01*
X183129929Y-90572711D01*
X183107852Y-90556355D01*
X183076963Y-90529921D01*
X183035670Y-90491961D01*
X182982382Y-90441027D01*
X182915504Y-90375671D01*
X182833446Y-90294445D01*
X182776196Y-90237424D01*
X182698206Y-90159073D01*
X182626180Y-90085663D01*
X182562057Y-90019252D01*
X182507778Y-89961895D01*
X182465283Y-89915649D01*
X182436511Y-89882571D01*
X182423403Y-89864716D01*
X182422800Y-89862825D01*
X182429794Y-89847560D01*
X182449685Y-89813987D01*
X182480833Y-89764625D01*
X182514294Y-89713220D01*
X182841900Y-89713220D01*
X182848877Y-89775480D01*
X182871304Y-89825941D01*
X182911424Y-89866623D01*
X182971481Y-89899545D01*
X183053718Y-89926725D01*
X183088763Y-89935396D01*
X183148811Y-89950438D01*
X183188489Y-89963918D01*
X183212525Y-89978163D01*
X183225650Y-89995499D01*
X183229093Y-90004406D01*
X183228892Y-90040995D01*
X183206235Y-90072360D01*
X183166510Y-90093549D01*
X183115413Y-90100538D01*
X183050361Y-90094740D01*
X182978650Y-90077274D01*
X182922202Y-90056014D01*
X182887962Y-90041250D01*
X182864732Y-90031950D01*
X182859335Y-90030300D01*
X182855597Y-90041612D01*
X182854125Y-90070257D01*
X182854611Y-90108301D01*
X182856746Y-90147808D01*
X182860225Y-90180841D01*
X182864738Y-90199466D01*
X182865948Y-90200915D01*
X182911957Y-90219764D01*
X182975832Y-90233240D01*
X183050573Y-90241152D01*
X183129180Y-90243305D01*
X183204653Y-90239510D01*
X183269992Y-90229572D01*
X183318150Y-90213327D01*
X183372861Y-90171320D01*
X183408637Y-90112828D01*
X183424901Y-90038915D01*
X183425891Y-90013794D01*
X183420935Y-89949181D01*
X183403756Y-89898213D01*
X183371505Y-89858052D01*
X183321332Y-89825857D01*
X183250387Y-89798792D01*
X183194510Y-89783288D01*
X183140946Y-89769453D01*
X183095165Y-89757009D01*
X183063879Y-89747809D01*
X183055606Y-89744939D01*
X183029969Y-89725000D01*
X183024478Y-89698569D01*
X183036734Y-89670848D01*
X183064335Y-89647041D01*
X183104882Y-89632349D01*
X183107791Y-89631852D01*
X183147695Y-89630642D01*
X183202400Y-89635448D01*
X183262418Y-89644847D01*
X183318263Y-89657420D01*
X183353075Y-89668613D01*
X183365038Y-89670691D01*
X183371753Y-89661726D01*
X183374683Y-89636838D01*
X183375300Y-89594656D01*
X183375300Y-89511894D01*
X183284387Y-89496560D01*
X183224435Y-89489609D01*
X183154307Y-89486072D01*
X183089083Y-89486705D01*
X183088503Y-89486735D01*
X183030166Y-89491266D01*
X182988842Y-89498933D01*
X182956167Y-89511815D01*
X182933751Y-89525189D01*
X182882769Y-89572532D01*
X182852332Y-89633982D01*
X182841909Y-89710628D01*
X182841900Y-89713220D01*
X182514294Y-89713220D01*
X182521600Y-89701997D01*
X182570346Y-89628623D01*
X182625433Y-89547023D01*
X182678949Y-89468822D01*
X182738681Y-89381351D01*
X182793789Y-89299248D01*
X182842583Y-89225142D01*
X182883368Y-89161661D01*
X182914455Y-89111435D01*
X182934150Y-89077092D01*
X182940709Y-89062140D01*
X182938390Y-89040252D01*
X182927124Y-88999363D01*
X182906598Y-88938579D01*
X182876499Y-88857005D01*
X182836513Y-88753748D01*
X182804432Y-88672980D01*
X182768150Y-88582924D01*
X182734239Y-88499850D01*
X182704009Y-88426885D01*
X182678771Y-88367153D01*
X182659835Y-88323781D01*
X182648514Y-88299894D01*
X182646703Y-88296863D01*
X182636013Y-88289657D01*
X182612364Y-88280980D01*
X182573881Y-88270407D01*
X182518690Y-88257510D01*
X182444914Y-88241863D01*
X182350679Y-88223038D01*
X182234109Y-88200608D01*
X182174405Y-88189326D01*
X182069290Y-88169410D01*
X181971503Y-88150611D01*
X181883993Y-88133518D01*
X181809705Y-88118717D01*
X181751589Y-88106795D01*
X181712590Y-88098340D01*
X181695725Y-88093968D01*
X181690149Y-88090144D01*
X181685589Y-88082329D01*
X181681941Y-88068176D01*
X181679106Y-88045338D01*
X181676983Y-88011469D01*
X181675469Y-87964221D01*
X181675203Y-87947500D01*
X181825900Y-87947500D01*
X182016400Y-87947500D01*
X182016400Y-87693500D01*
X182121175Y-87693429D01*
X182204158Y-87690336D01*
X182267960Y-87680250D01*
X182318176Y-87661764D01*
X182360402Y-87633473D01*
X182360632Y-87633279D01*
X182404921Y-87581772D01*
X182429392Y-87517215D01*
X182435500Y-87452199D01*
X182426470Y-87374749D01*
X182398595Y-87312696D01*
X182360632Y-87271120D01*
X182331742Y-87250020D01*
X182299490Y-87234356D01*
X182259703Y-87223375D01*
X182208206Y-87216328D01*
X182140823Y-87212466D01*
X182053380Y-87211036D01*
X182025925Y-87210970D01*
X181825900Y-87210900D01*
X181825900Y-87947500D01*
X181675203Y-87947500D01*
X181674466Y-87901249D01*
X181673870Y-87820205D01*
X181673582Y-87718744D01*
X181673500Y-87594517D01*
X181673500Y-87070655D01*
X181702075Y-87058648D01*
X181720873Y-87053620D01*
X181761636Y-87044657D01*
X181821336Y-87032361D01*
X181896946Y-87017336D01*
X181985438Y-87000182D01*
X182083786Y-86981503D01*
X182181013Y-86963369D01*
X182285672Y-86943682D01*
X182383151Y-86924701D01*
X182470445Y-86907062D01*
X182544547Y-86891398D01*
X182602451Y-86878344D01*
X182641150Y-86868534D01*
X182657263Y-86862883D01*
X182668916Y-86846897D01*
X182688398Y-86810960D01*
X182714131Y-86758713D01*
X182744538Y-86693800D01*
X182778042Y-86619862D01*
X182813064Y-86540543D01*
X182848028Y-86459484D01*
X182881356Y-86380328D01*
X182911469Y-86306718D01*
X182936792Y-86242296D01*
X182955746Y-86190704D01*
X182966753Y-86155585D01*
X182968900Y-86143334D01*
X182961354Y-86122597D01*
X182938817Y-86081697D01*
X182901435Y-86020868D01*
X182849355Y-85940341D01*
X182782726Y-85840349D01*
X182701694Y-85721124D01*
X182695850Y-85712594D01*
X182634534Y-85622483D01*
X182578023Y-85538158D01*
X182527899Y-85462077D01*
X182485745Y-85396698D01*
X182453143Y-85344478D01*
X182431674Y-85307876D01*
X182422921Y-85289349D01*
X182422800Y-85288398D01*
X182431491Y-85274269D01*
X182455976Y-85244831D01*
X182493865Y-85202515D01*
X182542772Y-85149750D01*
X182600310Y-85088967D01*
X182664090Y-85022596D01*
X182722064Y-84963000D01*
X182918100Y-84963000D01*
X182918100Y-85699600D01*
X183108600Y-85699600D01*
X183108600Y-85651313D01*
X187439300Y-85651313D01*
X187658375Y-85646344D01*
X187740094Y-85644197D01*
X187801039Y-85641628D01*
X187845833Y-85638074D01*
X187879100Y-85632971D01*
X187905464Y-85625754D01*
X187929551Y-85615861D01*
X187936790Y-85612401D01*
X188011346Y-85564907D01*
X188072589Y-85503803D01*
X188107079Y-85450247D01*
X188122343Y-85402010D01*
X188130980Y-85337966D01*
X188132997Y-85266828D01*
X188128399Y-85197307D01*
X188117192Y-85138115D01*
X188106853Y-85110276D01*
X188060189Y-85041263D01*
X187996461Y-84982121D01*
X187935735Y-84945855D01*
X187910721Y-84935800D01*
X187883152Y-84928365D01*
X187848428Y-84923027D01*
X187801952Y-84919267D01*
X187739126Y-84916564D01*
X187658375Y-84914464D01*
X187439300Y-84909686D01*
X187439300Y-85651313D01*
X183108600Y-85651313D01*
X183108600Y-85394800D01*
X183413400Y-85394800D01*
X183413400Y-85255100D01*
X183108600Y-85255100D01*
X183108600Y-85102700D01*
X183438800Y-85102700D01*
X183438800Y-84963000D01*
X182918100Y-84963000D01*
X182722064Y-84963000D01*
X182731727Y-84953067D01*
X182800832Y-84882810D01*
X182869019Y-84814256D01*
X182933899Y-84749834D01*
X182993086Y-84691974D01*
X183044192Y-84643107D01*
X183084831Y-84605662D01*
X183112614Y-84582070D01*
X183123758Y-84574869D01*
X183131199Y-84572672D01*
X183138916Y-84571973D01*
X183148915Y-84574020D01*
X183163199Y-84580063D01*
X183183772Y-84591349D01*
X183212640Y-84609128D01*
X183251805Y-84634649D01*
X183303272Y-84669159D01*
X183369046Y-84713908D01*
X183451131Y-84770145D01*
X183551531Y-84839118D01*
X183586787Y-84863349D01*
X183702484Y-84942350D01*
X183798553Y-85006797D01*
X183875812Y-85057206D01*
X183935079Y-85094095D01*
X183977171Y-85117980D01*
X184002905Y-85129377D01*
X184009727Y-85130562D01*
X184029973Y-85125445D01*
X184069569Y-85111848D01*
X184124740Y-85091314D01*
X184191713Y-85065391D01*
X184266713Y-85035624D01*
X184345968Y-85003557D01*
X184425704Y-84970737D01*
X184502147Y-84938710D01*
X184571522Y-84909019D01*
X184630057Y-84883212D01*
X184673978Y-84862833D01*
X184699511Y-84849428D01*
X184703768Y-84846327D01*
X184709719Y-84830462D01*
X184719565Y-84792425D01*
X184732702Y-84735044D01*
X184748529Y-84661145D01*
X184766442Y-84573554D01*
X184785838Y-84475100D01*
X184806116Y-84368609D01*
X184809654Y-84349660D01*
X184829975Y-84241684D01*
X184849363Y-84140905D01*
X184867231Y-84050213D01*
X184882991Y-83972495D01*
X184883011Y-83972400D01*
X185051700Y-83972400D01*
X185051700Y-84620100D01*
X185203513Y-84620100D01*
X185206981Y-84395300D01*
X185210450Y-84170501D01*
X185280838Y-84328625D01*
X185351226Y-84486750D01*
X185476073Y-84486750D01*
X185546461Y-84328625D01*
X185616850Y-84170501D01*
X185620318Y-84395300D01*
X185623786Y-84620100D01*
X185775600Y-84620100D01*
X185775600Y-83972400D01*
X185669520Y-83972399D01*
X185563441Y-83972399D01*
X185496362Y-84121624D01*
X185470357Y-84179269D01*
X185447624Y-84229273D01*
X185430442Y-84266651D01*
X185421091Y-84286416D01*
X185420612Y-84287349D01*
X185412458Y-84282945D01*
X185396247Y-84257537D01*
X185373394Y-84213689D01*
X185345317Y-84153967D01*
X185338210Y-84138124D01*
X185264480Y-83972400D01*
X185051700Y-83972400D01*
X184883011Y-83972400D01*
X184896057Y-83910639D01*
X184905840Y-83867534D01*
X184911754Y-83846068D01*
X184912302Y-83844835D01*
X184916491Y-83838588D01*
X184923315Y-83833487D01*
X184935171Y-83829415D01*
X184954455Y-83826256D01*
X184983563Y-83823895D01*
X185024892Y-83822217D01*
X185080837Y-83821104D01*
X185153796Y-83820443D01*
X185246163Y-83820116D01*
X185360336Y-83820008D01*
X185426349Y-83820000D01*
X185552345Y-83820043D01*
G37*
X185552345Y-83820043D02*
X185655336Y-83820251D01*
X185737718Y-83820737D01*
X185801885Y-83821617D01*
X185850232Y-83823005D01*
X185885156Y-83825016D01*
X185909050Y-83827765D01*
X185924310Y-83831366D01*
X185933332Y-83835934D01*
X185938510Y-83841585D01*
X185940284Y-83844622D01*
X185945503Y-83862307D01*
X185954698Y-83902093D01*
X185967282Y-83961095D01*
X185982666Y-84036428D01*
X186000263Y-84125206D01*
X186019486Y-84224543D01*
X186039746Y-84331554D01*
X186043091Y-84349447D01*
X186063503Y-84457042D01*
X186083114Y-84557077D01*
X186101322Y-84646727D01*
X186117526Y-84723170D01*
X186131125Y-84783582D01*
X186141518Y-84825138D01*
X186148103Y-84845016D01*
X186148819Y-84846054D01*
X186165662Y-84856109D01*
X186202431Y-84873777D01*
X186255355Y-84897514D01*
X186320669Y-84925776D01*
X186394604Y-84957019D01*
X186473393Y-84989700D01*
X186553267Y-85022273D01*
X186630460Y-85053196D01*
X186701204Y-85080924D01*
X186761731Y-85103913D01*
X186808273Y-85120619D01*
X186837063Y-85129498D01*
X186842962Y-85130522D01*
X186860997Y-85125031D01*
X186894904Y-85107379D01*
X186945516Y-85077038D01*
X187013664Y-85033485D01*
X187100180Y-84976192D01*
X187205897Y-84904636D01*
X187267302Y-84862600D01*
X187373687Y-84789547D01*
X187461124Y-84729603D01*
X187531616Y-84681519D01*
X187587167Y-84644045D01*
X187629781Y-84615933D01*
X187661461Y-84595934D01*
X187684211Y-84582799D01*
X187700036Y-84575279D01*
X187710939Y-84572125D01*
X187718924Y-84572087D01*
X187725995Y-84573918D01*
X187728941Y-84574869D01*
X187745172Y-84586110D01*
X187776101Y-84613079D01*
X187819339Y-84653345D01*
X187872501Y-84704480D01*
X187933198Y-84764052D01*
X187999043Y-84829632D01*
X188067650Y-84898789D01*
X188136630Y-84969094D01*
X188203597Y-85038116D01*
X188266162Y-85103425D01*
X188321940Y-85162591D01*
X188368541Y-85213184D01*
X188403580Y-85252774D01*
X188424669Y-85278931D01*
X188429900Y-85288398D01*
X188422912Y-85304400D01*
X188403003Y-85338797D01*
X188371755Y-85389130D01*
X188330750Y-85452941D01*
X188281571Y-85527773D01*
X188225799Y-85611168D01*
X188165017Y-85700667D01*
X188156850Y-85712594D01*
X188074873Y-85833078D01*
X188007290Y-85934346D01*
X187954246Y-86016163D01*
X187915891Y-86078298D01*
X187892370Y-86120519D01*
X187883832Y-86142592D01*
X187883800Y-86143334D01*
X187888810Y-86165823D01*
X187902790Y-86207146D01*
X187924162Y-86263663D01*
X187951348Y-86331729D01*
X187982771Y-86407703D01*
X188016854Y-86487943D01*
X188052018Y-86568806D01*
X188086687Y-86646649D01*
X188119282Y-86717830D01*
X188148226Y-86778706D01*
X188171942Y-86825636D01*
X188188852Y-86854977D01*
X188195436Y-86862883D01*
X188213601Y-86869111D01*
X188253764Y-86879172D01*
X188312918Y-86892432D01*
X188388056Y-86908257D01*
X188476173Y-86926013D01*
X188574261Y-86945065D01*
X188671686Y-86963369D01*
X188776460Y-86982924D01*
X188874182Y-87001511D01*
X188961825Y-87018528D01*
X189036362Y-87033372D01*
X189094764Y-87045441D01*
X189134006Y-87054134D01*
X189150625Y-87058648D01*
X189179200Y-87070655D01*
X189179200Y-87577568D01*
X189179136Y-87704754D01*
X189178879Y-87808886D01*
X189178327Y-87892312D01*
X189177378Y-87957378D01*
X189175933Y-88006431D01*
X189173890Y-88041818D01*
X189171148Y-88065885D01*
X189167606Y-88080979D01*
X189163163Y-88089446D01*
X189157718Y-88093634D01*
X189156975Y-88093968D01*
X189139730Y-88098427D01*
X189100459Y-88106932D01*
X189042109Y-88118896D01*
X188967628Y-88133731D01*
X188879962Y-88150850D01*
X188782059Y-88169667D01*
X188678294Y-88189326D01*
X188551155Y-88213502D01*
X188447187Y-88233882D01*
X188364515Y-88250895D01*
X188301264Y-88264966D01*
X188255559Y-88276523D01*
X188225524Y-88285993D01*
X188209284Y-88293803D01*
X188205996Y-88296863D01*
X188197406Y-88313806D01*
X188180781Y-88351240D01*
X188157431Y-88406042D01*
X188128666Y-88475084D01*
X188095798Y-88555242D01*
X188060137Y-88643390D01*
X188048267Y-88672980D01*
X188001560Y-88791092D01*
X187964947Y-88886928D01*
X187938115Y-88961382D01*
X187920751Y-89015349D01*
X187912541Y-89049723D01*
X187911990Y-89062140D01*
X187920337Y-89080438D01*
X187941554Y-89116918D01*
X187973950Y-89168951D01*
X188015833Y-89233909D01*
X188065511Y-89309162D01*
X188121292Y-89392083D01*
X188173750Y-89468822D01*
X188233134Y-89555659D01*
X188287648Y-89636534D01*
X188335655Y-89708927D01*
X188375515Y-89770316D01*
X188405589Y-89818181D01*
X188424238Y-89850000D01*
X188429899Y-89862825D01*
X188421170Y-89876396D01*
X188396273Y-89905724D01*
X188357150Y-89948753D01*
X188305741Y-90003426D01*
X188243984Y-90067687D01*
X188173821Y-90139479D01*
X188097192Y-90216747D01*
X188076503Y-90237424D01*
X187984561Y-90328879D01*
X187908756Y-90403594D01*
X187847496Y-90463017D01*
X187799189Y-90508596D01*
X187762242Y-90541779D01*
X187735063Y-90564015D01*
X187716059Y-90576751D01*
X187703638Y-90581435D01*
X187698678Y-90580981D01*
X187682761Y-90571873D01*
X187648519Y-90550044D01*
X187598528Y-90517209D01*
X187535363Y-90475083D01*
X187461596Y-90425381D01*
X187379804Y-90369819D01*
X187307232Y-90320184D01*
X187220807Y-90261364D01*
X187140226Y-90207420D01*
X187068055Y-90160001D01*
X187006861Y-90120758D01*
X186959212Y-90091340D01*
X186927675Y-90073397D01*
X186915492Y-90068400D01*
X186895943Y-90074186D01*
X186858798Y-90090108D01*
X186808691Y-90114007D01*
X186750253Y-90143724D01*
X186723709Y-90157757D01*
X186663301Y-90189027D01*
X186609350Y-90215017D01*
X186566433Y-90233667D01*
X186539125Y-90242918D01*
X186533253Y-90243482D01*
X186526366Y-90237646D01*
X186515549Y-90220851D01*
X186500224Y-90191787D01*
X186479814Y-90149145D01*
X186453742Y-90091615D01*
X186421430Y-90017886D01*
X186382302Y-89926649D01*
X186356327Y-89865200D01*
X187331350Y-89865200D01*
X187332148Y-89929306D01*
X187335224Y-89974788D01*
X187341594Y-90008391D01*
X187352277Y-90036860D01*
X187359394Y-90050978D01*
X187401578Y-90110031D01*
X187459496Y-90164953D01*
X187524146Y-90208035D01*
X187562632Y-90225065D01*
X187614428Y-90236466D01*
X187681016Y-90242130D01*
X187753835Y-90242249D01*
X187824323Y-90237010D01*
X187883919Y-90226605D01*
X187912375Y-90217327D01*
X187960000Y-90196696D01*
X187960000Y-90029872D01*
X187893325Y-90063969D01*
X187829550Y-90088049D01*
X187762333Y-90099173D01*
X187699060Y-90097091D01*
X187647115Y-90081552D01*
X187632843Y-90072788D01*
X187580741Y-90020055D01*
X187545993Y-89954918D01*
X187536134Y-89916695D01*
X187533861Y-89832965D01*
X187553842Y-89757076D01*
X187594783Y-89692494D01*
X187632843Y-89657611D01*
X187679012Y-89637253D01*
X187739123Y-89630440D01*
X187805790Y-89636921D01*
X187871626Y-89656448D01*
X187893325Y-89666430D01*
X187960000Y-89700527D01*
X187960000Y-89533703D01*
X187912375Y-89513214D01*
X187858037Y-89497624D01*
X187788202Y-89488494D01*
X187712004Y-89486082D01*
X187638576Y-89490650D01*
X187577054Y-89502456D01*
X187573384Y-89503575D01*
X187499677Y-89537776D01*
X187431168Y-89589549D01*
X187376216Y-89652024D01*
X187359394Y-89679421D01*
X187346226Y-89707837D01*
X187337870Y-89738082D01*
X187333308Y-89776901D01*
X187331520Y-89831040D01*
X187331350Y-89865200D01*
X186356327Y-89865200D01*
X186335780Y-89816593D01*
X186281288Y-89686409D01*
X186218248Y-89534786D01*
X186174478Y-89429102D01*
X186118228Y-89292776D01*
X186064937Y-89162945D01*
X186015394Y-89041573D01*
X185970387Y-88930627D01*
X185930705Y-88832068D01*
X185897137Y-88747863D01*
X185870471Y-88679976D01*
X185851497Y-88630371D01*
X185841002Y-88601012D01*
X185839100Y-88593797D01*
X185850187Y-88570586D01*
X185880453Y-88543108D01*
X185893075Y-88534465D01*
X185929207Y-88510221D01*
X185976752Y-88477028D01*
X186026776Y-88441147D01*
X186038371Y-88432674D01*
X186161767Y-88327037D01*
X186265477Y-88206937D01*
X186348827Y-88074758D01*
X186404720Y-87947500D01*
X188404500Y-87947500D01*
X188624256Y-87947500D01*
X188704603Y-87947319D01*
X188764200Y-87946424D01*
X188807696Y-87944289D01*
X188839741Y-87940385D01*
X188864985Y-87934184D01*
X188888076Y-87925159D01*
X188908817Y-87915206D01*
X188963228Y-87878984D01*
X188996860Y-87832809D01*
X189012321Y-87772243D01*
X189014052Y-87736030D01*
X189005521Y-87675304D01*
X188982340Y-87623028D01*
X188947984Y-87586049D01*
X188933852Y-87577938D01*
X188904345Y-87564494D01*
X188946522Y-87522317D01*
X188971977Y-87493573D01*
X188984501Y-87466470D01*
X188988472Y-87429561D01*
X188988652Y-87412195D01*
X188978590Y-87339476D01*
X188948618Y-87282330D01*
X188898887Y-87241044D01*
X188897186Y-87240104D01*
X188877619Y-87231506D01*
X188852184Y-87225070D01*
X188816818Y-87220383D01*
X188767453Y-87217034D01*
X188700025Y-87214613D01*
X188629925Y-87213059D01*
X188404500Y-87208843D01*
X188404500Y-87947500D01*
X186404720Y-87947500D01*
X186411141Y-87932883D01*
X186451745Y-87783693D01*
X186469963Y-87629573D01*
X186465121Y-87472903D01*
X186436544Y-87316068D01*
X186392416Y-87182740D01*
X186352667Y-87095644D01*
X186305961Y-87017177D01*
X186247619Y-86940587D01*
X186172962Y-86859126D01*
X186156600Y-86842594D01*
X186044054Y-86742532D01*
X185926831Y-86664402D01*
X185799157Y-86604757D01*
X185705750Y-86573668D01*
X185614953Y-86554764D01*
X185508960Y-86544315D01*
X185396524Y-86542320D01*
X185286400Y-86548780D01*
X185187342Y-86563695D01*
X185146950Y-86573668D01*
X184997331Y-86629447D01*
X184859163Y-86706192D01*
X184734505Y-86801701D01*
X184625417Y-86913774D01*
X184533962Y-87040208D01*
X184462198Y-87178802D01*
X184412187Y-87327354D01*
X184402692Y-87368833D01*
X184382320Y-87528414D01*
X184386360Y-87686713D01*
X184413850Y-87841246D01*
X184463829Y-87989532D01*
X184535338Y-88129087D01*
X184627415Y-88257429D01*
X184739100Y-88372075D01*
X184814328Y-88432674D01*
X184863599Y-88468261D01*
X184912576Y-88502689D01*
X184952324Y-88529700D01*
X184959625Y-88534465D01*
X184994941Y-88562263D01*
X185012476Y-88587332D01*
X185013600Y-88593797D01*
X185008848Y-88609402D01*
X184995121Y-88646489D01*
X184973205Y-88703096D01*
X184943891Y-88777257D01*
X184907966Y-88867008D01*
X184866219Y-88970384D01*
X184819440Y-89085422D01*
X184768416Y-89210156D01*
X184713938Y-89342622D01*
X184678221Y-89429102D01*
X184609574Y-89594718D01*
X184549834Y-89738081D01*
X184498423Y-89860500D01*
X184454765Y-89963287D01*
X184418282Y-90047750D01*
X184388397Y-90115201D01*
X184364533Y-90166948D01*
X184346114Y-90204302D01*
X184332561Y-90228573D01*
X184323298Y-90241070D01*
X184319446Y-90243482D01*
X184300415Y-90238996D01*
X184263771Y-90224209D01*
X184214089Y-90201180D01*
X184155945Y-90171969D01*
X184128990Y-90157757D01*
X184068393Y-90126202D01*
X184014135Y-90099536D01*
X183970848Y-90079919D01*
X183943162Y-90069508D01*
X183937207Y-90068400D01*
X183921252Y-90075383D01*
X183887021Y-90095232D01*
X183837081Y-90126299D01*
X183773998Y-90166932D01*
X183700340Y-90215482D01*
X183618673Y-90270299D01*
X183545467Y-90320184D01*
X183458946Y-90379325D01*
X183378301Y-90434037D01*
X183306108Y-90482606D01*
X183244939Y-90523316D01*
X183197371Y-90554453D01*
X183165978Y-90574300D01*
X183154021Y-90580981D01*
X183144788Y-90580437D01*
X183129929Y-90572711D01*
X183107852Y-90556355D01*
X183076963Y-90529921D01*
X183035670Y-90491961D01*
X182982382Y-90441027D01*
X182915504Y-90375671D01*
X182833446Y-90294445D01*
X182776196Y-90237424D01*
X182698206Y-90159073D01*
X182626180Y-90085663D01*
X182562057Y-90019252D01*
X182507778Y-89961895D01*
X182465283Y-89915649D01*
X182436511Y-89882571D01*
X182423403Y-89864716D01*
X182422800Y-89862825D01*
X182429794Y-89847560D01*
X182449685Y-89813987D01*
X182480833Y-89764625D01*
X182514294Y-89713220D01*
X182841900Y-89713220D01*
X182848877Y-89775480D01*
X182871304Y-89825941D01*
X182911424Y-89866623D01*
X182971481Y-89899545D01*
X183053718Y-89926725D01*
X183088763Y-89935396D01*
X183148811Y-89950438D01*
X183188489Y-89963918D01*
X183212525Y-89978163D01*
X183225650Y-89995499D01*
X183229093Y-90004406D01*
X183228892Y-90040995D01*
X183206235Y-90072360D01*
X183166510Y-90093549D01*
X183115413Y-90100538D01*
X183050361Y-90094740D01*
X182978650Y-90077274D01*
X182922202Y-90056014D01*
X182887962Y-90041250D01*
X182864732Y-90031950D01*
X182859335Y-90030300D01*
X182855597Y-90041612D01*
X182854125Y-90070257D01*
X182854611Y-90108301D01*
X182856746Y-90147808D01*
X182860225Y-90180841D01*
X182864738Y-90199466D01*
X182865948Y-90200915D01*
X182911957Y-90219764D01*
X182975832Y-90233240D01*
X183050573Y-90241152D01*
X183129180Y-90243305D01*
X183204653Y-90239510D01*
X183269992Y-90229572D01*
X183318150Y-90213327D01*
X183372861Y-90171320D01*
X183408637Y-90112828D01*
X183424901Y-90038915D01*
X183425891Y-90013794D01*
X183420935Y-89949181D01*
X183403756Y-89898213D01*
X183371505Y-89858052D01*
X183321332Y-89825857D01*
X183250387Y-89798792D01*
X183194510Y-89783288D01*
X183140946Y-89769453D01*
X183095165Y-89757009D01*
X183063879Y-89747809D01*
X183055606Y-89744939D01*
X183029969Y-89725000D01*
X183024478Y-89698569D01*
X183036734Y-89670848D01*
X183064335Y-89647041D01*
X183104882Y-89632349D01*
X183107791Y-89631852D01*
X183147695Y-89630642D01*
X183202400Y-89635448D01*
X183262418Y-89644847D01*
X183318263Y-89657420D01*
X183353075Y-89668613D01*
X183365038Y-89670691D01*
X183371753Y-89661726D01*
X183374683Y-89636838D01*
X183375300Y-89594656D01*
X183375300Y-89511894D01*
X183284387Y-89496560D01*
X183224435Y-89489609D01*
X183154307Y-89486072D01*
X183089083Y-89486705D01*
X183088503Y-89486735D01*
X183030166Y-89491266D01*
X182988842Y-89498933D01*
X182956167Y-89511815D01*
X182933751Y-89525189D01*
X182882769Y-89572532D01*
X182852332Y-89633982D01*
X182841909Y-89710628D01*
X182841900Y-89713220D01*
X182514294Y-89713220D01*
X182521600Y-89701997D01*
X182570346Y-89628623D01*
X182625433Y-89547023D01*
X182678949Y-89468822D01*
X182738681Y-89381351D01*
X182793789Y-89299248D01*
X182842583Y-89225142D01*
X182883368Y-89161661D01*
X182914455Y-89111435D01*
X182934150Y-89077092D01*
X182940709Y-89062140D01*
X182938390Y-89040252D01*
X182927124Y-88999363D01*
X182906598Y-88938579D01*
X182876499Y-88857005D01*
X182836513Y-88753748D01*
X182804432Y-88672980D01*
X182768150Y-88582924D01*
X182734239Y-88499850D01*
X182704009Y-88426885D01*
X182678771Y-88367153D01*
X182659835Y-88323781D01*
X182648514Y-88299894D01*
X182646703Y-88296863D01*
X182636013Y-88289657D01*
X182612364Y-88280980D01*
X182573881Y-88270407D01*
X182518690Y-88257510D01*
X182444914Y-88241863D01*
X182350679Y-88223038D01*
X182234109Y-88200608D01*
X182174405Y-88189326D01*
X182069290Y-88169410D01*
X181971503Y-88150611D01*
X181883993Y-88133518D01*
X181809705Y-88118717D01*
X181751589Y-88106795D01*
X181712590Y-88098340D01*
X181695725Y-88093968D01*
X181690149Y-88090144D01*
X181685589Y-88082329D01*
X181681941Y-88068176D01*
X181679106Y-88045338D01*
X181676983Y-88011469D01*
X181675469Y-87964221D01*
X181675203Y-87947500D01*
X181825900Y-87947500D01*
X182016400Y-87947500D01*
X182016400Y-87693500D01*
X182121175Y-87693429D01*
X182204158Y-87690336D01*
X182267960Y-87680250D01*
X182318176Y-87661764D01*
X182360402Y-87633473D01*
X182360632Y-87633279D01*
X182404921Y-87581772D01*
X182429392Y-87517215D01*
X182435500Y-87452199D01*
X182426470Y-87374749D01*
X182398595Y-87312696D01*
X182360632Y-87271120D01*
X182331742Y-87250020D01*
X182299490Y-87234356D01*
X182259703Y-87223375D01*
X182208206Y-87216328D01*
X182140823Y-87212466D01*
X182053380Y-87211036D01*
X182025925Y-87210970D01*
X181825900Y-87210900D01*
X181825900Y-87947500D01*
X181675203Y-87947500D01*
X181674466Y-87901249D01*
X181673870Y-87820205D01*
X181673582Y-87718744D01*
X181673500Y-87594517D01*
X181673500Y-87070655D01*
X181702075Y-87058648D01*
X181720873Y-87053620D01*
X181761636Y-87044657D01*
X181821336Y-87032361D01*
X181896946Y-87017336D01*
X181985438Y-87000182D01*
X182083786Y-86981503D01*
X182181013Y-86963369D01*
X182285672Y-86943682D01*
X182383151Y-86924701D01*
X182470445Y-86907062D01*
X182544547Y-86891398D01*
X182602451Y-86878344D01*
X182641150Y-86868534D01*
X182657263Y-86862883D01*
X182668916Y-86846897D01*
X182688398Y-86810960D01*
X182714131Y-86758713D01*
X182744538Y-86693800D01*
X182778042Y-86619862D01*
X182813064Y-86540543D01*
X182848028Y-86459484D01*
X182881356Y-86380328D01*
X182911469Y-86306718D01*
X182936792Y-86242296D01*
X182955746Y-86190704D01*
X182966753Y-86155585D01*
X182968900Y-86143334D01*
X182961354Y-86122597D01*
X182938817Y-86081697D01*
X182901435Y-86020868D01*
X182849355Y-85940341D01*
X182782726Y-85840349D01*
X182701694Y-85721124D01*
X182695850Y-85712594D01*
X182634534Y-85622483D01*
X182578023Y-85538158D01*
X182527899Y-85462077D01*
X182485745Y-85396698D01*
X182453143Y-85344478D01*
X182431674Y-85307876D01*
X182422921Y-85289349D01*
X182422800Y-85288398D01*
X182431491Y-85274269D01*
X182455976Y-85244831D01*
X182493865Y-85202515D01*
X182542772Y-85149750D01*
X182600310Y-85088967D01*
X182664090Y-85022596D01*
X182722064Y-84963000D01*
X182918100Y-84963000D01*
X182918100Y-85699600D01*
X183108600Y-85699600D01*
X183108600Y-85651313D01*
X187439300Y-85651313D01*
X187658375Y-85646344D01*
X187740094Y-85644197D01*
X187801039Y-85641628D01*
X187845833Y-85638074D01*
X187879100Y-85632971D01*
X187905464Y-85625754D01*
X187929551Y-85615861D01*
X187936790Y-85612401D01*
X188011346Y-85564907D01*
X188072589Y-85503803D01*
X188107079Y-85450247D01*
X188122343Y-85402010D01*
X188130980Y-85337966D01*
X188132997Y-85266828D01*
X188128399Y-85197307D01*
X188117192Y-85138115D01*
X188106853Y-85110276D01*
X188060189Y-85041263D01*
X187996461Y-84982121D01*
X187935735Y-84945855D01*
X187910721Y-84935800D01*
X187883152Y-84928365D01*
X187848428Y-84923027D01*
X187801952Y-84919267D01*
X187739126Y-84916564D01*
X187658375Y-84914464D01*
X187439300Y-84909686D01*
X187439300Y-85651313D01*
X183108600Y-85651313D01*
X183108600Y-85394800D01*
X183413400Y-85394800D01*
X183413400Y-85255100D01*
X183108600Y-85255100D01*
X183108600Y-85102700D01*
X183438800Y-85102700D01*
X183438800Y-84963000D01*
X182918100Y-84963000D01*
X182722064Y-84963000D01*
X182731727Y-84953067D01*
X182800832Y-84882810D01*
X182869019Y-84814256D01*
X182933899Y-84749834D01*
X182993086Y-84691974D01*
X183044192Y-84643107D01*
X183084831Y-84605662D01*
X183112614Y-84582070D01*
X183123758Y-84574869D01*
X183131199Y-84572672D01*
X183138916Y-84571973D01*
X183148915Y-84574020D01*
X183163199Y-84580063D01*
X183183772Y-84591349D01*
X183212640Y-84609128D01*
X183251805Y-84634649D01*
X183303272Y-84669159D01*
X183369046Y-84713908D01*
X183451131Y-84770145D01*
X183551531Y-84839118D01*
X183586787Y-84863349D01*
X183702484Y-84942350D01*
X183798553Y-85006797D01*
X183875812Y-85057206D01*
X183935079Y-85094095D01*
X183977171Y-85117980D01*
X184002905Y-85129377D01*
X184009727Y-85130562D01*
X184029973Y-85125445D01*
X184069569Y-85111848D01*
X184124740Y-85091314D01*
X184191713Y-85065391D01*
X184266713Y-85035624D01*
X184345968Y-85003557D01*
X184425704Y-84970737D01*
X184502147Y-84938710D01*
X184571522Y-84909019D01*
X184630057Y-84883212D01*
X184673978Y-84862833D01*
X184699511Y-84849428D01*
X184703768Y-84846327D01*
X184709719Y-84830462D01*
X184719565Y-84792425D01*
X184732702Y-84735044D01*
X184748529Y-84661145D01*
X184766442Y-84573554D01*
X184785838Y-84475100D01*
X184806116Y-84368609D01*
X184809654Y-84349660D01*
X184829975Y-84241684D01*
X184849363Y-84140905D01*
X184867231Y-84050213D01*
X184882991Y-83972495D01*
X184883011Y-83972400D01*
X185051700Y-83972400D01*
X185051700Y-84620100D01*
X185203513Y-84620100D01*
X185206981Y-84395300D01*
X185210450Y-84170501D01*
X185280838Y-84328625D01*
X185351226Y-84486750D01*
X185476073Y-84486750D01*
X185546461Y-84328625D01*
X185616850Y-84170501D01*
X185620318Y-84395300D01*
X185623786Y-84620100D01*
X185775600Y-84620100D01*
X185775600Y-83972400D01*
X185669520Y-83972399D01*
X185563441Y-83972399D01*
X185496362Y-84121624D01*
X185470357Y-84179269D01*
X185447624Y-84229273D01*
X185430442Y-84266651D01*
X185421091Y-84286416D01*
X185420612Y-84287349D01*
X185412458Y-84282945D01*
X185396247Y-84257537D01*
X185373394Y-84213689D01*
X185345317Y-84153967D01*
X185338210Y-84138124D01*
X185264480Y-83972400D01*
X185051700Y-83972400D01*
X184883011Y-83972400D01*
X184896057Y-83910639D01*
X184905840Y-83867534D01*
X184911754Y-83846068D01*
X184912302Y-83844835D01*
X184916491Y-83838588D01*
X184923315Y-83833487D01*
X184935171Y-83829415D01*
X184954455Y-83826256D01*
X184983563Y-83823895D01*
X185024892Y-83822217D01*
X185080837Y-83821104D01*
X185153796Y-83820443D01*
X185246163Y-83820116D01*
X185360336Y-83820008D01*
X185426349Y-83820000D01*
X185552345Y-83820043D01*
G36*
X182141133Y-87357227D02*
G01*
X182189257Y-87377211D01*
X182216371Y-87410701D01*
X182218018Y-87415021D01*
X182225505Y-87465378D01*
X182210525Y-87505620D01*
X182174418Y-87534475D01*
X182118530Y-87550667D01*
X182071654Y-87553800D01*
X182016400Y-87553800D01*
X182016400Y-87350600D01*
X182071654Y-87350600D01*
X182141133Y-87357227D01*
G37*
X182141133Y-87357227D02*
X182189257Y-87377211D01*
X182216371Y-87410701D01*
X182218018Y-87415021D01*
X182225505Y-87465378D01*
X182210525Y-87505620D01*
X182174418Y-87534475D01*
X182118530Y-87550667D01*
X182071654Y-87553800D01*
X182016400Y-87553800D01*
X182016400Y-87350600D01*
X182071654Y-87350600D01*
X182141133Y-87357227D01*
G36*
X188685004Y-87633026D02*
G01*
X188745752Y-87640499D01*
X188785201Y-87654317D01*
X188807188Y-87677183D01*
X188815553Y-87711801D01*
X188815980Y-87725250D01*
X188811038Y-87764031D01*
X188793656Y-87790229D01*
X188759995Y-87806546D01*
X188706216Y-87815685D01*
X188685004Y-87817473D01*
X188595000Y-87823912D01*
X188595000Y-87626587D01*
X188685004Y-87633026D01*
G37*
X188685004Y-87633026D02*
X188745752Y-87640499D01*
X188785201Y-87654317D01*
X188807188Y-87677183D01*
X188815553Y-87711801D01*
X188815980Y-87725250D01*
X188811038Y-87764031D01*
X188793656Y-87790229D01*
X188759995Y-87806546D01*
X188706216Y-87815685D01*
X188685004Y-87817473D01*
X188595000Y-87823912D01*
X188595000Y-87626587D01*
X188685004Y-87633026D01*
G36*
X188673088Y-87340495D02*
G01*
X188721414Y-87346092D01*
X188752064Y-87355987D01*
X188772704Y-87372800D01*
X188774688Y-87375178D01*
X188791826Y-87401493D01*
X188798200Y-87420450D01*
X188790742Y-87441493D01*
X188774688Y-87465721D01*
X188754680Y-87483451D01*
X188725504Y-87493978D01*
X188679493Y-87499919D01*
X188673088Y-87500404D01*
X188595000Y-87506052D01*
X188595000Y-87334847D01*
X188673088Y-87340495D01*
G37*
X188673088Y-87340495D02*
X188721414Y-87346092D01*
X188752064Y-87355987D01*
X188772704Y-87372800D01*
X188774688Y-87375178D01*
X188791826Y-87401493D01*
X188798200Y-87420450D01*
X188790742Y-87441493D01*
X188774688Y-87465721D01*
X188754680Y-87483451D01*
X188725504Y-87493978D01*
X188679493Y-87499919D01*
X188673088Y-87500404D01*
X188595000Y-87506052D01*
X188595000Y-87334847D01*
X188673088Y-87340495D01*
G36*
X187707084Y-85056359D02*
G01*
X187790608Y-85072225D01*
X187852900Y-85100986D01*
X187895386Y-85144056D01*
X187919490Y-85202848D01*
X187926662Y-85274137D01*
X187918695Y-85353528D01*
X187893900Y-85414874D01*
X187850930Y-85459594D01*
X187788443Y-85489109D01*
X187708534Y-85504489D01*
X187629800Y-85512718D01*
X187629800Y-85048281D01*
X187707084Y-85056359D01*
G37*
X187707084Y-85056359D02*
X187790608Y-85072225D01*
X187852900Y-85100986D01*
X187895386Y-85144056D01*
X187919490Y-85202848D01*
X187926662Y-85274137D01*
X187918695Y-85353528D01*
X187893900Y-85414874D01*
X187850930Y-85459594D01*
X187788443Y-85489109D01*
X187708534Y-85504489D01*
X187629800Y-85512718D01*
X187629800Y-85048281D01*
X187707084Y-85056359D01*
D13*
%TO.C,K1*%
X131160000Y-36830000D02*
X131160000Y-36830000D01*
X131260000Y-36830000D02*
X131260000Y-36830000D01*
X131160000Y-36830000D02*
X131160000Y-36830000D01*
X157560000Y-39080000D02*
X157560000Y-39080000D01*
X157560000Y-49730000D02*
X157560000Y-39080000D01*
X157560000Y-49730000D02*
X157560000Y-49730000D01*
X157560000Y-39080000D02*
X157560000Y-49730000D01*
X157560000Y-23930000D02*
X157560000Y-23930000D01*
X157560000Y-34580000D02*
X157560000Y-23930000D01*
X157560000Y-34580000D02*
X157560000Y-34580000D01*
X157560000Y-23930000D02*
X157560000Y-34580000D01*
X157560000Y-23930000D02*
X131760000Y-23930000D01*
X157560000Y-23930000D02*
X157560000Y-23930000D01*
X131760000Y-23930000D02*
X157560000Y-23930000D01*
X131760000Y-23930000D02*
X131760000Y-23930000D01*
X131760000Y-49730000D02*
X131760000Y-49730000D01*
X131760000Y-23930000D02*
X131760000Y-49730000D01*
X131760000Y-23930000D02*
X131760000Y-23930000D01*
X131760000Y-49730000D02*
X131760000Y-23930000D01*
X131760000Y-49730000D02*
X157560000Y-49730000D01*
X131760000Y-49730000D02*
X131760000Y-49730000D01*
X157560000Y-49730000D02*
X131760000Y-49730000D01*
X157560000Y-49730000D02*
X157560000Y-49730000D01*
X131260000Y-36830000D02*
G75*
G02*
X131160000Y-36830000I-50000J0D01*
G01*
X131160000Y-36830000D02*
G75*
G02*
X131260000Y-36830000I50000J0D01*
G01*
X131260000Y-36830000D02*
G75*
G02*
X131160000Y-36830000I-50000J0D01*
G01*
D14*
%TO.C,F5*%
X163815000Y-88260000D02*
X157050000Y-88260000D01*
X163815000Y-68450000D02*
X163815000Y-88260000D01*
X157050000Y-68450000D02*
X163815000Y-68450000D01*
X157050000Y-88260000D02*
X157050000Y-68450000D01*
%TO.C,F4*%
X144765000Y-88260000D02*
X138000000Y-88260000D01*
X144765000Y-68450000D02*
X144765000Y-88260000D01*
X138000000Y-68450000D02*
X144765000Y-68450000D01*
X138000000Y-88260000D02*
X138000000Y-68450000D01*
%TO.C,F3*%
X121905000Y-88260000D02*
X115140000Y-88260000D01*
X121905000Y-68450000D02*
X121905000Y-88260000D01*
X115140000Y-68450000D02*
X121905000Y-68450000D01*
X115140000Y-88260000D02*
X115140000Y-68450000D01*
%TO.C,F2*%
X102855000Y-88260000D02*
X96090000Y-88260000D01*
X102855000Y-68450000D02*
X102855000Y-88260000D01*
X96090000Y-68450000D02*
X102855000Y-68450000D01*
X96090000Y-88260000D02*
X96090000Y-68450000D01*
%TO.C,F1*%
X106685000Y-39990000D02*
X106685000Y-33225000D01*
X126495000Y-39990000D02*
X106685000Y-39990000D01*
X126495000Y-33225000D02*
X126495000Y-39990000D01*
X106685000Y-33225000D02*
X126495000Y-33225000D01*
D15*
%TO.C,R8*%
X125830000Y-52610000D02*
X123090000Y-52610000D01*
X123090000Y-52610000D02*
X123090000Y-59150000D01*
X123090000Y-59150000D02*
X125830000Y-59150000D01*
X125830000Y-59150000D02*
X125830000Y-52610000D01*
X124460000Y-51840000D02*
X124460000Y-52610000D01*
X124460000Y-59920000D02*
X124460000Y-59150000D01*
%TO.C,J5*%
X103645000Y-112230000D02*
X95745000Y-112230000D01*
X103645000Y-96380000D02*
X95745000Y-96380000D01*
X95745000Y-96380000D02*
X95745000Y-112230000D01*
X103645000Y-96380000D02*
X103645000Y-112230000D01*
%TO.C,J4*%
X122695000Y-112230000D02*
X114795000Y-112230000D01*
X122695000Y-96380000D02*
X114795000Y-96380000D01*
X114795000Y-96380000D02*
X114795000Y-112230000D01*
X122695000Y-96380000D02*
X122695000Y-112230000D01*
%TO.C,J3*%
X145555000Y-112230000D02*
X137655000Y-112230000D01*
X145555000Y-96380000D02*
X137655000Y-96380000D01*
X137655000Y-96380000D02*
X137655000Y-112230000D01*
X145555000Y-96380000D02*
X145555000Y-112230000D01*
%TO.C,J2*%
X164605000Y-112230000D02*
X156705000Y-112230000D01*
X164605000Y-96380000D02*
X156705000Y-96380000D01*
X156705000Y-96380000D02*
X156705000Y-112230000D01*
X164605000Y-96380000D02*
X164605000Y-112230000D01*
%TO.C,J1*%
X102375000Y-50635000D02*
X94475000Y-50635000D01*
X102375000Y-34785000D02*
X94475000Y-34785000D01*
X94475000Y-34785000D02*
X94475000Y-50635000D01*
X102375000Y-34785000D02*
X102375000Y-50635000D01*
%TO.C,C5*%
X180170000Y-36980000D02*
X180170000Y-44220000D01*
X175430000Y-36980000D02*
X175430000Y-44220000D01*
X180170000Y-36980000D02*
X175430000Y-36980000D01*
X180170000Y-44220000D02*
X175430000Y-44220000D01*
%TO.C,D1*%
X164425000Y-34410000D02*
X174665000Y-34410000D01*
X164425000Y-18520000D02*
X174665000Y-18520000D01*
X164425000Y-18520000D02*
X164425000Y-34410000D01*
X174665000Y-18520000D02*
X174665000Y-34410000D01*
X167005000Y-34410000D02*
X167005000Y-36950000D01*
X169545000Y-34410000D02*
X169545000Y-36950000D01*
X172085000Y-34410000D02*
X172085000Y-36950000D01*
%TO.C,R9*%
X187860000Y-50260000D02*
X190600000Y-50260000D01*
X190600000Y-50260000D02*
X190600000Y-43720000D01*
X190600000Y-43720000D02*
X187860000Y-43720000D01*
X187860000Y-43720000D02*
X187860000Y-50260000D01*
X189230000Y-51030000D02*
X189230000Y-50260000D01*
X189230000Y-42950000D02*
X189230000Y-43720000D01*
%TO.C,R7*%
X106580000Y-99790000D02*
X109320000Y-99790000D01*
X109320000Y-99790000D02*
X109320000Y-93250000D01*
X109320000Y-93250000D02*
X106580000Y-93250000D01*
X106580000Y-93250000D02*
X106580000Y-99790000D01*
X107950000Y-100560000D02*
X107950000Y-99790000D01*
X107950000Y-92480000D02*
X107950000Y-93250000D01*
%TO.C,R6*%
X125630000Y-99790000D02*
X128370000Y-99790000D01*
X128370000Y-99790000D02*
X128370000Y-93250000D01*
X128370000Y-93250000D02*
X125630000Y-93250000D01*
X125630000Y-93250000D02*
X125630000Y-99790000D01*
X127000000Y-100560000D02*
X127000000Y-99790000D01*
X127000000Y-92480000D02*
X127000000Y-93250000D01*
%TO.C,R5*%
X148490000Y-99790000D02*
X151230000Y-99790000D01*
X151230000Y-99790000D02*
X151230000Y-93250000D01*
X151230000Y-93250000D02*
X148490000Y-93250000D01*
X148490000Y-93250000D02*
X148490000Y-99790000D01*
X149860000Y-100560000D02*
X149860000Y-99790000D01*
X149860000Y-92480000D02*
X149860000Y-93250000D01*
%TO.C,R4*%
X167540000Y-99790000D02*
X170280000Y-99790000D01*
X170280000Y-99790000D02*
X170280000Y-93250000D01*
X170280000Y-93250000D02*
X167540000Y-93250000D01*
X167540000Y-93250000D02*
X167540000Y-99790000D01*
X168910000Y-100560000D02*
X168910000Y-99790000D01*
X168910000Y-92480000D02*
X168910000Y-93250000D01*
%TO.C,R3*%
X159480000Y-62330000D02*
X159480000Y-59590000D01*
X159480000Y-59590000D02*
X152940000Y-59590000D01*
X152940000Y-59590000D02*
X152940000Y-62330000D01*
X152940000Y-62330000D02*
X159480000Y-62330000D01*
X160250000Y-60960000D02*
X159480000Y-60960000D01*
X152170000Y-60960000D02*
X152940000Y-60960000D01*
%TO.C,R2*%
X185955000Y-64865000D02*
X188695000Y-64865000D01*
X188695000Y-64865000D02*
X188695000Y-58325000D01*
X188695000Y-58325000D02*
X185955000Y-58325000D01*
X185955000Y-58325000D02*
X185955000Y-64865000D01*
X187325000Y-65635000D02*
X187325000Y-64865000D01*
X187325000Y-57555000D02*
X187325000Y-58325000D01*
%TO.C,R1*%
X195045000Y-69120000D02*
X192305000Y-69120000D01*
X192305000Y-69120000D02*
X192305000Y-75660000D01*
X192305000Y-75660000D02*
X195045000Y-75660000D01*
X195045000Y-75660000D02*
X195045000Y-69120000D01*
X193675000Y-68350000D02*
X193675000Y-69120000D01*
X193675000Y-76430000D02*
X193675000Y-75660000D01*
%TO.C,D15*%
X134580000Y-60960000D02*
G75*
G03*
X134580000Y-60960000I-2500000J0D01*
G01*
X134640000Y-62505000D02*
X134640000Y-59415000D01*
X129090000Y-60960462D02*
G75*
G02*
X134640000Y-59415170I2990000J462D01*
G01*
X129090000Y-60959538D02*
G75*
G03*
X134640000Y-62504830I2990000J-462D01*
G01*
%TO.C,D14*%
X134990000Y-55530000D02*
X134990000Y-53690000D01*
X134990000Y-53690000D02*
X131710000Y-53690000D01*
X131710000Y-53690000D02*
X131710000Y-55530000D01*
X131710000Y-55530000D02*
X134990000Y-55530000D01*
X136170000Y-54610000D02*
X134990000Y-54610000D01*
X130530000Y-54610000D02*
X131710000Y-54610000D01*
X134414000Y-55530000D02*
X134414000Y-53690000D01*
X134294000Y-55530000D02*
X134294000Y-53690000D01*
X134534000Y-55530000D02*
X134534000Y-53690000D01*
%TO.C,D13*%
X167270000Y-52420000D02*
X167270000Y-54260000D01*
X167270000Y-54260000D02*
X170550000Y-54260000D01*
X170550000Y-54260000D02*
X170550000Y-52420000D01*
X170550000Y-52420000D02*
X167270000Y-52420000D01*
X166090000Y-53340000D02*
X167270000Y-53340000D01*
X171730000Y-53340000D02*
X170550000Y-53340000D01*
X167846000Y-52420000D02*
X167846000Y-54260000D01*
X167966000Y-52420000D02*
X167966000Y-54260000D01*
X167726000Y-52420000D02*
X167726000Y-54260000D01*
%TO.C,D12*%
X167270000Y-54960000D02*
X167270000Y-56800000D01*
X167270000Y-56800000D02*
X170550000Y-56800000D01*
X170550000Y-56800000D02*
X170550000Y-54960000D01*
X170550000Y-54960000D02*
X167270000Y-54960000D01*
X166090000Y-55880000D02*
X167270000Y-55880000D01*
X171730000Y-55880000D02*
X170550000Y-55880000D01*
X167846000Y-54960000D02*
X167846000Y-56800000D01*
X167966000Y-54960000D02*
X167966000Y-56800000D01*
X167726000Y-54960000D02*
X167726000Y-56800000D01*
%TO.C,D11*%
X160940000Y-49160000D02*
X159100000Y-49160000D01*
X159100000Y-49160000D02*
X159100000Y-52440000D01*
X159100000Y-52440000D02*
X160940000Y-52440000D01*
X160940000Y-52440000D02*
X160940000Y-49160000D01*
X160020000Y-47980000D02*
X160020000Y-49160000D01*
X160020000Y-53620000D02*
X160020000Y-52440000D01*
X160940000Y-49736000D02*
X159100000Y-49736000D01*
X160940000Y-49856000D02*
X159100000Y-49856000D01*
X160940000Y-49616000D02*
X159100000Y-49616000D01*
%TO.C,D10*%
X110450000Y-86360000D02*
G75*
G03*
X110450000Y-86360000I-2500000J0D01*
G01*
X109495000Y-83800000D02*
X106405000Y-83800000D01*
X107950462Y-89350000D02*
G75*
G02*
X106405170Y-83800000I-462J2990000D01*
G01*
X107949538Y-89350000D02*
G75*
G03*
X109494830Y-83800000I462J2990000D01*
G01*
%TO.C,D9*%
X129500000Y-86360000D02*
G75*
G03*
X129500000Y-86360000I-2500000J0D01*
G01*
X128545000Y-83800000D02*
X125455000Y-83800000D01*
X127000462Y-89350000D02*
G75*
G02*
X125455170Y-83800000I-462J2990000D01*
G01*
X126999538Y-89350000D02*
G75*
G03*
X128544830Y-83800000I462J2990000D01*
G01*
%TO.C,D8*%
X152360000Y-86360000D02*
G75*
G03*
X152360000Y-86360000I-2500000J0D01*
G01*
X151405000Y-83800000D02*
X148315000Y-83800000D01*
X149860462Y-89350000D02*
G75*
G02*
X148315170Y-83800000I-462J2990000D01*
G01*
X149859538Y-89350000D02*
G75*
G03*
X151404830Y-83800000I462J2990000D01*
G01*
%TO.C,D7*%
X171410000Y-86360000D02*
G75*
G03*
X171410000Y-86360000I-2500000J0D01*
G01*
X170455000Y-83800000D02*
X167365000Y-83800000D01*
X168910462Y-89350000D02*
G75*
G02*
X167365170Y-83800000I-462J2990000D01*
G01*
X168909538Y-89350000D02*
G75*
G03*
X170454830Y-83800000I462J2990000D01*
G01*
%TO.C,D6*%
X143470000Y-60960000D02*
G75*
G03*
X143470000Y-60960000I-2500000J0D01*
G01*
X138410000Y-59415000D02*
X138410000Y-62505000D01*
X143960000Y-60959538D02*
G75*
G02*
X138410000Y-62504830I-2990000J-462D01*
G01*
X143960000Y-60960462D02*
G75*
G03*
X138410000Y-59415170I-2990000J462D01*
G01*
%TO.C,D5*%
X183110000Y-63960000D02*
X177570000Y-63960000D01*
X177570000Y-63960000D02*
X177570000Y-73200000D01*
X177570000Y-73200000D02*
X183110000Y-73200000D01*
X183110000Y-73200000D02*
X183110000Y-63960000D01*
X180340000Y-62500000D02*
X180340000Y-63960000D01*
X180340000Y-74660000D02*
X180340000Y-73200000D01*
X183110000Y-65430000D02*
X177570000Y-65430000D01*
X183110000Y-65550000D02*
X177570000Y-65550000D01*
X183110000Y-65310000D02*
X177570000Y-65310000D01*
%TO.C,D4*%
X174220000Y-63960000D02*
X168680000Y-63960000D01*
X168680000Y-63960000D02*
X168680000Y-73200000D01*
X168680000Y-73200000D02*
X174220000Y-73200000D01*
X174220000Y-73200000D02*
X174220000Y-63960000D01*
X171450000Y-62500000D02*
X171450000Y-63960000D01*
X171450000Y-74660000D02*
X171450000Y-73200000D01*
X174220000Y-65430000D02*
X168680000Y-65430000D01*
X174220000Y-65550000D02*
X168680000Y-65550000D01*
X174220000Y-65310000D02*
X168680000Y-65310000D01*
%TO.C,D3*%
X186185000Y-76380000D02*
X185855000Y-76380000D01*
X185855000Y-76380000D02*
X185855000Y-70940000D01*
X185855000Y-70940000D02*
X186185000Y-70940000D01*
X188465000Y-76380000D02*
X188795000Y-76380000D01*
X188795000Y-76380000D02*
X188795000Y-70940000D01*
X188795000Y-70940000D02*
X188465000Y-70940000D01*
X185855000Y-75480000D02*
X188795000Y-75480000D01*
X185855000Y-75360000D02*
X188795000Y-75360000D01*
X185855000Y-75600000D02*
X188795000Y-75600000D01*
%TO.C,D2*%
X180935000Y-34410000D02*
X191175000Y-34410000D01*
X180935000Y-18520000D02*
X191175000Y-18520000D01*
X180935000Y-18520000D02*
X180935000Y-34410000D01*
X191175000Y-18520000D02*
X191175000Y-34410000D01*
X183515000Y-34410000D02*
X183515000Y-36950000D01*
X186055000Y-34410000D02*
X186055000Y-36950000D01*
X188595000Y-34410000D02*
X188595000Y-36950000D01*
%TO.C,C4*%
X182415000Y-53190000D02*
X182415000Y-45950000D01*
X187155000Y-53190000D02*
X187155000Y-45950000D01*
X182415000Y-53190000D02*
X187155000Y-53190000D01*
X182415000Y-45950000D02*
X187155000Y-45950000D01*
%TO.C,C3*%
X196680000Y-45235000D02*
X196680000Y-52475000D01*
X191940000Y-45235000D02*
X191940000Y-52475000D01*
X196680000Y-45235000D02*
X191940000Y-45235000D01*
X196680000Y-52475000D02*
X191940000Y-52475000D01*
%TO.C,C2*%
X196680000Y-36980000D02*
X196680000Y-44220000D01*
X191940000Y-36980000D02*
X191940000Y-44220000D01*
X196680000Y-36980000D02*
X191940000Y-36980000D01*
X196680000Y-44220000D02*
X191940000Y-44220000D01*
%TO.C,C1*%
X195660000Y-58150000D02*
G75*
G03*
X195660000Y-58150000I-2620000J0D01*
G01*
X192000000Y-58150000D02*
X190460000Y-58150000D01*
X195620000Y-58150000D02*
X194080000Y-58150000D01*
X192000000Y-58190000D02*
X190460000Y-58190000D01*
X195620000Y-58190000D02*
X194080000Y-58190000D01*
X195619000Y-58230000D02*
X194080000Y-58230000D01*
X192000000Y-58230000D02*
X190461000Y-58230000D01*
X195618000Y-58270000D02*
X194080000Y-58270000D01*
X192000000Y-58270000D02*
X190462000Y-58270000D01*
X195616000Y-58310000D02*
X194080000Y-58310000D01*
X192000000Y-58310000D02*
X190464000Y-58310000D01*
X195613000Y-58350000D02*
X194080000Y-58350000D01*
X192000000Y-58350000D02*
X190467000Y-58350000D01*
X195609000Y-58390000D02*
X194080000Y-58390000D01*
X192000000Y-58390000D02*
X190471000Y-58390000D01*
X195605000Y-58430000D02*
X194080000Y-58430000D01*
X192000000Y-58430000D02*
X190475000Y-58430000D01*
X195601000Y-58470000D02*
X194080000Y-58470000D01*
X192000000Y-58470000D02*
X190479000Y-58470000D01*
X195596000Y-58510000D02*
X194080000Y-58510000D01*
X192000000Y-58510000D02*
X190484000Y-58510000D01*
X195590000Y-58550000D02*
X194080000Y-58550000D01*
X192000000Y-58550000D02*
X190490000Y-58550000D01*
X195583000Y-58590000D02*
X194080000Y-58590000D01*
X192000000Y-58590000D02*
X190497000Y-58590000D01*
X195576000Y-58630000D02*
X194080000Y-58630000D01*
X192000000Y-58630000D02*
X190504000Y-58630000D01*
X195568000Y-58670000D02*
X194080000Y-58670000D01*
X192000000Y-58670000D02*
X190512000Y-58670000D01*
X195560000Y-58710000D02*
X194080000Y-58710000D01*
X192000000Y-58710000D02*
X190520000Y-58710000D01*
X195551000Y-58750000D02*
X194080000Y-58750000D01*
X192000000Y-58750000D02*
X190529000Y-58750000D01*
X195541000Y-58790000D02*
X194080000Y-58790000D01*
X192000000Y-58790000D02*
X190539000Y-58790000D01*
X195531000Y-58830000D02*
X194080000Y-58830000D01*
X192000000Y-58830000D02*
X190549000Y-58830000D01*
X195520000Y-58871000D02*
X194080000Y-58871000D01*
X192000000Y-58871000D02*
X190560000Y-58871000D01*
X195508000Y-58911000D02*
X194080000Y-58911000D01*
X192000000Y-58911000D02*
X190572000Y-58911000D01*
X195495000Y-58951000D02*
X194080000Y-58951000D01*
X192000000Y-58951000D02*
X190585000Y-58951000D01*
X195482000Y-58991000D02*
X194080000Y-58991000D01*
X192000000Y-58991000D02*
X190598000Y-58991000D01*
X195468000Y-59031000D02*
X194080000Y-59031000D01*
X192000000Y-59031000D02*
X190612000Y-59031000D01*
X195454000Y-59071000D02*
X194080000Y-59071000D01*
X192000000Y-59071000D02*
X190626000Y-59071000D01*
X195438000Y-59111000D02*
X194080000Y-59111000D01*
X192000000Y-59111000D02*
X190642000Y-59111000D01*
X195422000Y-59151000D02*
X194080000Y-59151000D01*
X192000000Y-59151000D02*
X190658000Y-59151000D01*
X195405000Y-59191000D02*
X194080000Y-59191000D01*
X192000000Y-59191000D02*
X190675000Y-59191000D01*
X195388000Y-59231000D02*
X194080000Y-59231000D01*
X192000000Y-59231000D02*
X190692000Y-59231000D01*
X195369000Y-59271000D02*
X194080000Y-59271000D01*
X192000000Y-59271000D02*
X190711000Y-59271000D01*
X195350000Y-59311000D02*
X194080000Y-59311000D01*
X192000000Y-59311000D02*
X190730000Y-59311000D01*
X195330000Y-59351000D02*
X194080000Y-59351000D01*
X192000000Y-59351000D02*
X190750000Y-59351000D01*
X195308000Y-59391000D02*
X194080000Y-59391000D01*
X192000000Y-59391000D02*
X190772000Y-59391000D01*
X195287000Y-59431000D02*
X194080000Y-59431000D01*
X192000000Y-59431000D02*
X190793000Y-59431000D01*
X195264000Y-59471000D02*
X194080000Y-59471000D01*
X192000000Y-59471000D02*
X190816000Y-59471000D01*
X195240000Y-59511000D02*
X194080000Y-59511000D01*
X192000000Y-59511000D02*
X190840000Y-59511000D01*
X195215000Y-59551000D02*
X194080000Y-59551000D01*
X192000000Y-59551000D02*
X190865000Y-59551000D01*
X195189000Y-59591000D02*
X194080000Y-59591000D01*
X192000000Y-59591000D02*
X190891000Y-59591000D01*
X195162000Y-59631000D02*
X194080000Y-59631000D01*
X192000000Y-59631000D02*
X190918000Y-59631000D01*
X195135000Y-59671000D02*
X194080000Y-59671000D01*
X192000000Y-59671000D02*
X190945000Y-59671000D01*
X195105000Y-59711000D02*
X194080000Y-59711000D01*
X192000000Y-59711000D02*
X190975000Y-59711000D01*
X195075000Y-59751000D02*
X194080000Y-59751000D01*
X192000000Y-59751000D02*
X191005000Y-59751000D01*
X195044000Y-59791000D02*
X194080000Y-59791000D01*
X192000000Y-59791000D02*
X191036000Y-59791000D01*
X195011000Y-59831000D02*
X194080000Y-59831000D01*
X192000000Y-59831000D02*
X191069000Y-59831000D01*
X194977000Y-59871000D02*
X194080000Y-59871000D01*
X192000000Y-59871000D02*
X191103000Y-59871000D01*
X194941000Y-59911000D02*
X194080000Y-59911000D01*
X192000000Y-59911000D02*
X191139000Y-59911000D01*
X194904000Y-59951000D02*
X194080000Y-59951000D01*
X192000000Y-59951000D02*
X191176000Y-59951000D01*
X194866000Y-59991000D02*
X194080000Y-59991000D01*
X192000000Y-59991000D02*
X191214000Y-59991000D01*
X194825000Y-60031000D02*
X194080000Y-60031000D01*
X192000000Y-60031000D02*
X191255000Y-60031000D01*
X194783000Y-60071000D02*
X194080000Y-60071000D01*
X192000000Y-60071000D02*
X191297000Y-60071000D01*
X194739000Y-60111000D02*
X194080000Y-60111000D01*
X192000000Y-60111000D02*
X191341000Y-60111000D01*
X194693000Y-60151000D02*
X194080000Y-60151000D01*
X192000000Y-60151000D02*
X191387000Y-60151000D01*
X194645000Y-60191000D02*
X191435000Y-60191000D01*
X194594000Y-60231000D02*
X191486000Y-60231000D01*
X194540000Y-60271000D02*
X191540000Y-60271000D01*
X194483000Y-60311000D02*
X191597000Y-60311000D01*
X194423000Y-60351000D02*
X191657000Y-60351000D01*
X194359000Y-60391000D02*
X191721000Y-60391000D01*
X194291000Y-60431000D02*
X191789000Y-60431000D01*
X194218000Y-60471000D02*
X191862000Y-60471000D01*
X194138000Y-60511000D02*
X191942000Y-60511000D01*
X194051000Y-60551000D02*
X192029000Y-60551000D01*
X193955000Y-60591000D02*
X192125000Y-60591000D01*
X193845000Y-60631000D02*
X192235000Y-60631000D01*
X193717000Y-60671000D02*
X192363000Y-60671000D01*
X193558000Y-60711000D02*
X192522000Y-60711000D01*
X193324000Y-60751000D02*
X192756000Y-60751000D01*
X194515000Y-55345225D02*
X194515000Y-55845225D01*
X194765000Y-55595225D02*
X194265000Y-55595225D01*
%TO.C,K1*%
D16*
X145234523Y-37767380D02*
X143964523Y-37767380D01*
X145234523Y-37041666D02*
X144508809Y-37585952D01*
X143964523Y-37041666D02*
X144690238Y-37767380D01*
X145234523Y-35832142D02*
X145234523Y-36557857D01*
X145234523Y-36195000D02*
X143964523Y-36195000D01*
X144145952Y-36315952D01*
X144266904Y-36436904D01*
X144327380Y-36557857D01*
%TO.C,F5*%
X160342285Y-78778333D02*
X160342285Y-79201666D01*
X161007523Y-79201666D02*
X159737523Y-79201666D01*
X159737523Y-78596904D01*
X159737523Y-77508333D02*
X159737523Y-78113095D01*
X160342285Y-78173571D01*
X160281809Y-78113095D01*
X160221333Y-77992142D01*
X160221333Y-77689761D01*
X160281809Y-77568809D01*
X160342285Y-77508333D01*
X160463238Y-77447857D01*
X160765619Y-77447857D01*
X160886571Y-77508333D01*
X160947047Y-77568809D01*
X161007523Y-77689761D01*
X161007523Y-77992142D01*
X160947047Y-78113095D01*
X160886571Y-78173571D01*
%TO.C,F4*%
X141292285Y-78778333D02*
X141292285Y-79201666D01*
X141957523Y-79201666D02*
X140687523Y-79201666D01*
X140687523Y-78596904D01*
X141110857Y-77568809D02*
X141957523Y-77568809D01*
X140627047Y-77871190D02*
X141534190Y-78173571D01*
X141534190Y-77387380D01*
%TO.C,F3*%
X118432285Y-78778333D02*
X118432285Y-79201666D01*
X119097523Y-79201666D02*
X117827523Y-79201666D01*
X117827523Y-78596904D01*
X117827523Y-78234047D02*
X117827523Y-77447857D01*
X118311333Y-77871190D01*
X118311333Y-77689761D01*
X118371809Y-77568809D01*
X118432285Y-77508333D01*
X118553238Y-77447857D01*
X118855619Y-77447857D01*
X118976571Y-77508333D01*
X119037047Y-77568809D01*
X119097523Y-77689761D01*
X119097523Y-78052619D01*
X119037047Y-78173571D01*
X118976571Y-78234047D01*
%TO.C,F2*%
X99382285Y-78778333D02*
X99382285Y-79201666D01*
X100047523Y-79201666D02*
X98777523Y-79201666D01*
X98777523Y-78596904D01*
X98898476Y-78173571D02*
X98838000Y-78113095D01*
X98777523Y-77992142D01*
X98777523Y-77689761D01*
X98838000Y-77568809D01*
X98898476Y-77508333D01*
X99019428Y-77447857D01*
X99140380Y-77447857D01*
X99321809Y-77508333D01*
X100047523Y-78234047D01*
X100047523Y-77447857D01*
%TO.C,F1*%
X116166666Y-36517285D02*
X115743333Y-36517285D01*
X115743333Y-37182523D02*
X115743333Y-35912523D01*
X116348095Y-35912523D01*
X117497142Y-37182523D02*
X116771428Y-37182523D01*
X117134285Y-37182523D02*
X117134285Y-35912523D01*
X117013333Y-36093952D01*
X116892380Y-36214904D01*
X116771428Y-36275380D01*
%TO.C,R8*%
D11*
X127282380Y-56046666D02*
X126806190Y-56380000D01*
X127282380Y-56618095D02*
X126282380Y-56618095D01*
X126282380Y-56237142D01*
X126330000Y-56141904D01*
X126377619Y-56094285D01*
X126472857Y-56046666D01*
X126615714Y-56046666D01*
X126710952Y-56094285D01*
X126758571Y-56141904D01*
X126806190Y-56237142D01*
X126806190Y-56618095D01*
X126710952Y-55475238D02*
X126663333Y-55570476D01*
X126615714Y-55618095D01*
X126520476Y-55665714D01*
X126472857Y-55665714D01*
X126377619Y-55618095D01*
X126330000Y-55570476D01*
X126282380Y-55475238D01*
X126282380Y-55284761D01*
X126330000Y-55189523D01*
X126377619Y-55141904D01*
X126472857Y-55094285D01*
X126520476Y-55094285D01*
X126615714Y-55141904D01*
X126663333Y-55189523D01*
X126710952Y-55284761D01*
X126710952Y-55475238D01*
X126758571Y-55570476D01*
X126806190Y-55618095D01*
X126901428Y-55665714D01*
X127091904Y-55665714D01*
X127187142Y-55618095D01*
X127234761Y-55570476D01*
X127282380Y-55475238D01*
X127282380Y-55284761D01*
X127234761Y-55189523D01*
X127187142Y-55141904D01*
X127091904Y-55094285D01*
X126901428Y-55094285D01*
X126806190Y-55141904D01*
X126758571Y-55189523D01*
X126710952Y-55284761D01*
%TO.C,J8*%
X107616666Y-53837380D02*
X107616666Y-54551666D01*
X107569047Y-54694523D01*
X107473809Y-54789761D01*
X107330952Y-54837380D01*
X107235714Y-54837380D01*
X108235714Y-54265952D02*
X108140476Y-54218333D01*
X108092857Y-54170714D01*
X108045238Y-54075476D01*
X108045238Y-54027857D01*
X108092857Y-53932619D01*
X108140476Y-53885000D01*
X108235714Y-53837380D01*
X108426190Y-53837380D01*
X108521428Y-53885000D01*
X108569047Y-53932619D01*
X108616666Y-54027857D01*
X108616666Y-54075476D01*
X108569047Y-54170714D01*
X108521428Y-54218333D01*
X108426190Y-54265952D01*
X108235714Y-54265952D01*
X108140476Y-54313571D01*
X108092857Y-54361190D01*
X108045238Y-54456428D01*
X108045238Y-54646904D01*
X108092857Y-54742142D01*
X108140476Y-54789761D01*
X108235714Y-54837380D01*
X108426190Y-54837380D01*
X108521428Y-54789761D01*
X108569047Y-54742142D01*
X108616666Y-54646904D01*
X108616666Y-54456428D01*
X108569047Y-54361190D01*
X108521428Y-54313571D01*
X108426190Y-54265952D01*
%TO.C,J7*%
X98091666Y-53837380D02*
X98091666Y-54551666D01*
X98044047Y-54694523D01*
X97948809Y-54789761D01*
X97805952Y-54837380D01*
X97710714Y-54837380D01*
X98472619Y-53837380D02*
X99139285Y-53837380D01*
X98710714Y-54837380D01*
%TO.C,J6*%
X127301666Y-45172380D02*
X127301666Y-45886666D01*
X127254047Y-46029523D01*
X127158809Y-46124761D01*
X127015952Y-46172380D01*
X126920714Y-46172380D01*
X128206428Y-45172380D02*
X128015952Y-45172380D01*
X127920714Y-45220000D01*
X127873095Y-45267619D01*
X127777857Y-45410476D01*
X127730238Y-45600952D01*
X127730238Y-45981904D01*
X127777857Y-46077142D01*
X127825476Y-46124761D01*
X127920714Y-46172380D01*
X128111190Y-46172380D01*
X128206428Y-46124761D01*
X128254047Y-46077142D01*
X128301666Y-45981904D01*
X128301666Y-45743809D01*
X128254047Y-45648571D01*
X128206428Y-45600952D01*
X128111190Y-45553333D01*
X127920714Y-45553333D01*
X127825476Y-45600952D01*
X127777857Y-45648571D01*
X127730238Y-45743809D01*
%TO.C,J5*%
X104227380Y-104600333D02*
X104941666Y-104600333D01*
X105084523Y-104647952D01*
X105179761Y-104743190D01*
X105227380Y-104886047D01*
X105227380Y-104981285D01*
X104227380Y-103647952D02*
X104227380Y-104124142D01*
X104703571Y-104171761D01*
X104655952Y-104124142D01*
X104608333Y-104028904D01*
X104608333Y-103790809D01*
X104655952Y-103695571D01*
X104703571Y-103647952D01*
X104798809Y-103600333D01*
X105036904Y-103600333D01*
X105132142Y-103647952D01*
X105179761Y-103695571D01*
X105227380Y-103790809D01*
X105227380Y-104028904D01*
X105179761Y-104124142D01*
X105132142Y-104171761D01*
%TO.C,J4*%
X123277380Y-104600333D02*
X123991666Y-104600333D01*
X124134523Y-104647952D01*
X124229761Y-104743190D01*
X124277380Y-104886047D01*
X124277380Y-104981285D01*
X123610714Y-103695571D02*
X124277380Y-103695571D01*
X123229761Y-103933666D02*
X123944047Y-104171761D01*
X123944047Y-103552714D01*
%TO.C,J3*%
X146137380Y-104600333D02*
X146851666Y-104600333D01*
X146994523Y-104647952D01*
X147089761Y-104743190D01*
X147137380Y-104886047D01*
X147137380Y-104981285D01*
X146137380Y-104219380D02*
X146137380Y-103600333D01*
X146518333Y-103933666D01*
X146518333Y-103790809D01*
X146565952Y-103695571D01*
X146613571Y-103647952D01*
X146708809Y-103600333D01*
X146946904Y-103600333D01*
X147042142Y-103647952D01*
X147089761Y-103695571D01*
X147137380Y-103790809D01*
X147137380Y-104076523D01*
X147089761Y-104171761D01*
X147042142Y-104219380D01*
%TO.C,J2*%
X165187380Y-104600333D02*
X165901666Y-104600333D01*
X166044523Y-104647952D01*
X166139761Y-104743190D01*
X166187380Y-104886047D01*
X166187380Y-104981285D01*
X165282619Y-104171761D02*
X165235000Y-104124142D01*
X165187380Y-104028904D01*
X165187380Y-103790809D01*
X165235000Y-103695571D01*
X165282619Y-103647952D01*
X165377857Y-103600333D01*
X165473095Y-103600333D01*
X165615952Y-103647952D01*
X166187380Y-104219380D01*
X166187380Y-103600333D01*
%TO.C,J1*%
X102957380Y-43005333D02*
X103671666Y-43005333D01*
X103814523Y-43052952D01*
X103909761Y-43148190D01*
X103957380Y-43291047D01*
X103957380Y-43386285D01*
X103957380Y-42005333D02*
X103957380Y-42576761D01*
X103957380Y-42291047D02*
X102957380Y-42291047D01*
X103100238Y-42386285D01*
X103195476Y-42481523D01*
X103243095Y-42576761D01*
%TO.C,C5*%
X181657142Y-40766666D02*
X181704761Y-40814285D01*
X181752380Y-40957142D01*
X181752380Y-41052380D01*
X181704761Y-41195238D01*
X181609523Y-41290476D01*
X181514285Y-41338095D01*
X181323809Y-41385714D01*
X181180952Y-41385714D01*
X180990476Y-41338095D01*
X180895238Y-41290476D01*
X180800000Y-41195238D01*
X180752380Y-41052380D01*
X180752380Y-40957142D01*
X180800000Y-40814285D01*
X180847619Y-40766666D01*
X180752380Y-39861904D02*
X180752380Y-40338095D01*
X181228571Y-40385714D01*
X181180952Y-40338095D01*
X181133333Y-40242857D01*
X181133333Y-40004761D01*
X181180952Y-39909523D01*
X181228571Y-39861904D01*
X181323809Y-39814285D01*
X181561904Y-39814285D01*
X181657142Y-39861904D01*
X181704761Y-39909523D01*
X181752380Y-40004761D01*
X181752380Y-40242857D01*
X181704761Y-40338095D01*
X181657142Y-40385714D01*
%TO.C,D1*%
X168806904Y-17972380D02*
X168806904Y-16972380D01*
X169045000Y-16972380D01*
X169187857Y-17020000D01*
X169283095Y-17115238D01*
X169330714Y-17210476D01*
X169378333Y-17400952D01*
X169378333Y-17543809D01*
X169330714Y-17734285D01*
X169283095Y-17829523D01*
X169187857Y-17924761D01*
X169045000Y-17972380D01*
X168806904Y-17972380D01*
X170330714Y-17972380D02*
X169759285Y-17972380D01*
X170045000Y-17972380D02*
X170045000Y-16972380D01*
X169949761Y-17115238D01*
X169854523Y-17210476D01*
X169759285Y-17258095D01*
%TO.C,SW1*%
X142176666Y-52474761D02*
X142319523Y-52522380D01*
X142557619Y-52522380D01*
X142652857Y-52474761D01*
X142700476Y-52427142D01*
X142748095Y-52331904D01*
X142748095Y-52236666D01*
X142700476Y-52141428D01*
X142652857Y-52093809D01*
X142557619Y-52046190D01*
X142367142Y-51998571D01*
X142271904Y-51950952D01*
X142224285Y-51903333D01*
X142176666Y-51808095D01*
X142176666Y-51712857D01*
X142224285Y-51617619D01*
X142271904Y-51570000D01*
X142367142Y-51522380D01*
X142605238Y-51522380D01*
X142748095Y-51570000D01*
X143081428Y-51522380D02*
X143319523Y-52522380D01*
X143510000Y-51808095D01*
X143700476Y-52522380D01*
X143938571Y-51522380D01*
X144843333Y-52522380D02*
X144271904Y-52522380D01*
X144557619Y-52522380D02*
X144557619Y-51522380D01*
X144462380Y-51665238D01*
X144367142Y-51760476D01*
X144271904Y-51808095D01*
%TO.C,R9*%
X187142380Y-44616666D02*
X186666190Y-44950000D01*
X187142380Y-45188095D02*
X186142380Y-45188095D01*
X186142380Y-44807142D01*
X186190000Y-44711904D01*
X186237619Y-44664285D01*
X186332857Y-44616666D01*
X186475714Y-44616666D01*
X186570952Y-44664285D01*
X186618571Y-44711904D01*
X186666190Y-44807142D01*
X186666190Y-45188095D01*
X187142380Y-44140476D02*
X187142380Y-43950000D01*
X187094761Y-43854761D01*
X187047142Y-43807142D01*
X186904285Y-43711904D01*
X186713809Y-43664285D01*
X186332857Y-43664285D01*
X186237619Y-43711904D01*
X186190000Y-43759523D01*
X186142380Y-43854761D01*
X186142380Y-44045238D01*
X186190000Y-44140476D01*
X186237619Y-44188095D01*
X186332857Y-44235714D01*
X186570952Y-44235714D01*
X186666190Y-44188095D01*
X186713809Y-44140476D01*
X186761428Y-44045238D01*
X186761428Y-43854761D01*
X186713809Y-43759523D01*
X186666190Y-43711904D01*
X186570952Y-43664285D01*
%TO.C,R7*%
X110942380Y-96686666D02*
X110466190Y-97020000D01*
X110942380Y-97258095D02*
X109942380Y-97258095D01*
X109942380Y-96877142D01*
X109990000Y-96781904D01*
X110037619Y-96734285D01*
X110132857Y-96686666D01*
X110275714Y-96686666D01*
X110370952Y-96734285D01*
X110418571Y-96781904D01*
X110466190Y-96877142D01*
X110466190Y-97258095D01*
X109942380Y-96353333D02*
X109942380Y-95686666D01*
X110942380Y-96115238D01*
%TO.C,R6*%
X129992380Y-96686666D02*
X129516190Y-97020000D01*
X129992380Y-97258095D02*
X128992380Y-97258095D01*
X128992380Y-96877142D01*
X129040000Y-96781904D01*
X129087619Y-96734285D01*
X129182857Y-96686666D01*
X129325714Y-96686666D01*
X129420952Y-96734285D01*
X129468571Y-96781904D01*
X129516190Y-96877142D01*
X129516190Y-97258095D01*
X128992380Y-95829523D02*
X128992380Y-96020000D01*
X129040000Y-96115238D01*
X129087619Y-96162857D01*
X129230476Y-96258095D01*
X129420952Y-96305714D01*
X129801904Y-96305714D01*
X129897142Y-96258095D01*
X129944761Y-96210476D01*
X129992380Y-96115238D01*
X129992380Y-95924761D01*
X129944761Y-95829523D01*
X129897142Y-95781904D01*
X129801904Y-95734285D01*
X129563809Y-95734285D01*
X129468571Y-95781904D01*
X129420952Y-95829523D01*
X129373333Y-95924761D01*
X129373333Y-96115238D01*
X129420952Y-96210476D01*
X129468571Y-96258095D01*
X129563809Y-96305714D01*
%TO.C,R5*%
X152852380Y-96686666D02*
X152376190Y-97020000D01*
X152852380Y-97258095D02*
X151852380Y-97258095D01*
X151852380Y-96877142D01*
X151900000Y-96781904D01*
X151947619Y-96734285D01*
X152042857Y-96686666D01*
X152185714Y-96686666D01*
X152280952Y-96734285D01*
X152328571Y-96781904D01*
X152376190Y-96877142D01*
X152376190Y-97258095D01*
X151852380Y-95781904D02*
X151852380Y-96258095D01*
X152328571Y-96305714D01*
X152280952Y-96258095D01*
X152233333Y-96162857D01*
X152233333Y-95924761D01*
X152280952Y-95829523D01*
X152328571Y-95781904D01*
X152423809Y-95734285D01*
X152661904Y-95734285D01*
X152757142Y-95781904D01*
X152804761Y-95829523D01*
X152852380Y-95924761D01*
X152852380Y-96162857D01*
X152804761Y-96258095D01*
X152757142Y-96305714D01*
%TO.C,R4*%
X171902380Y-96686666D02*
X171426190Y-97020000D01*
X171902380Y-97258095D02*
X170902380Y-97258095D01*
X170902380Y-96877142D01*
X170950000Y-96781904D01*
X170997619Y-96734285D01*
X171092857Y-96686666D01*
X171235714Y-96686666D01*
X171330952Y-96734285D01*
X171378571Y-96781904D01*
X171426190Y-96877142D01*
X171426190Y-97258095D01*
X171235714Y-95829523D02*
X171902380Y-95829523D01*
X170854761Y-96067619D02*
X171569047Y-96305714D01*
X171569047Y-95686666D01*
%TO.C,R3*%
X156043333Y-63782380D02*
X155710000Y-63306190D01*
X155471904Y-63782380D02*
X155471904Y-62782380D01*
X155852857Y-62782380D01*
X155948095Y-62830000D01*
X155995714Y-62877619D01*
X156043333Y-62972857D01*
X156043333Y-63115714D01*
X155995714Y-63210952D01*
X155948095Y-63258571D01*
X155852857Y-63306190D01*
X155471904Y-63306190D01*
X156376666Y-62782380D02*
X156995714Y-62782380D01*
X156662380Y-63163333D01*
X156805238Y-63163333D01*
X156900476Y-63210952D01*
X156948095Y-63258571D01*
X156995714Y-63353809D01*
X156995714Y-63591904D01*
X156948095Y-63687142D01*
X156900476Y-63734761D01*
X156805238Y-63782380D01*
X156519523Y-63782380D01*
X156424285Y-63734761D01*
X156376666Y-63687142D01*
%TO.C,R2*%
X185407380Y-61761666D02*
X184931190Y-62095000D01*
X185407380Y-62333095D02*
X184407380Y-62333095D01*
X184407380Y-61952142D01*
X184455000Y-61856904D01*
X184502619Y-61809285D01*
X184597857Y-61761666D01*
X184740714Y-61761666D01*
X184835952Y-61809285D01*
X184883571Y-61856904D01*
X184931190Y-61952142D01*
X184931190Y-62333095D01*
X184502619Y-61380714D02*
X184455000Y-61333095D01*
X184407380Y-61237857D01*
X184407380Y-60999761D01*
X184455000Y-60904523D01*
X184502619Y-60856904D01*
X184597857Y-60809285D01*
X184693095Y-60809285D01*
X184835952Y-60856904D01*
X185407380Y-61428333D01*
X185407380Y-60809285D01*
%TO.C,R1*%
X196497380Y-72556666D02*
X196021190Y-72890000D01*
X196497380Y-73128095D02*
X195497380Y-73128095D01*
X195497380Y-72747142D01*
X195545000Y-72651904D01*
X195592619Y-72604285D01*
X195687857Y-72556666D01*
X195830714Y-72556666D01*
X195925952Y-72604285D01*
X195973571Y-72651904D01*
X196021190Y-72747142D01*
X196021190Y-73128095D01*
X196497380Y-71604285D02*
X196497380Y-72175714D01*
X196497380Y-71890000D02*
X195497380Y-71890000D01*
X195640238Y-71985238D01*
X195735476Y-72080476D01*
X195783095Y-72175714D01*
%TO.C,D15*%
X130865714Y-65372380D02*
X130865714Y-64372380D01*
X131103809Y-64372380D01*
X131246666Y-64420000D01*
X131341904Y-64515238D01*
X131389523Y-64610476D01*
X131437142Y-64800952D01*
X131437142Y-64943809D01*
X131389523Y-65134285D01*
X131341904Y-65229523D01*
X131246666Y-65324761D01*
X131103809Y-65372380D01*
X130865714Y-65372380D01*
X132389523Y-65372380D02*
X131818095Y-65372380D01*
X132103809Y-65372380D02*
X132103809Y-64372380D01*
X132008571Y-64515238D01*
X131913333Y-64610476D01*
X131818095Y-64658095D01*
X133294285Y-64372380D02*
X132818095Y-64372380D01*
X132770476Y-64848571D01*
X132818095Y-64800952D01*
X132913333Y-64753333D01*
X133151428Y-64753333D01*
X133246666Y-64800952D01*
X133294285Y-64848571D01*
X133341904Y-64943809D01*
X133341904Y-65181904D01*
X133294285Y-65277142D01*
X133246666Y-65324761D01*
X133151428Y-65372380D01*
X132913333Y-65372380D01*
X132818095Y-65324761D01*
X132770476Y-65277142D01*
%TO.C,D14*%
X132135714Y-56982380D02*
X132135714Y-55982380D01*
X132373809Y-55982380D01*
X132516666Y-56030000D01*
X132611904Y-56125238D01*
X132659523Y-56220476D01*
X132707142Y-56410952D01*
X132707142Y-56553809D01*
X132659523Y-56744285D01*
X132611904Y-56839523D01*
X132516666Y-56934761D01*
X132373809Y-56982380D01*
X132135714Y-56982380D01*
X133659523Y-56982380D02*
X133088095Y-56982380D01*
X133373809Y-56982380D02*
X133373809Y-55982380D01*
X133278571Y-56125238D01*
X133183333Y-56220476D01*
X133088095Y-56268095D01*
X134516666Y-56315714D02*
X134516666Y-56982380D01*
X134278571Y-55934761D02*
X134040476Y-56649047D01*
X134659523Y-56649047D01*
%TO.C,D13*%
X167695714Y-51872380D02*
X167695714Y-50872380D01*
X167933809Y-50872380D01*
X168076666Y-50920000D01*
X168171904Y-51015238D01*
X168219523Y-51110476D01*
X168267142Y-51300952D01*
X168267142Y-51443809D01*
X168219523Y-51634285D01*
X168171904Y-51729523D01*
X168076666Y-51824761D01*
X167933809Y-51872380D01*
X167695714Y-51872380D01*
X169219523Y-51872380D02*
X168648095Y-51872380D01*
X168933809Y-51872380D02*
X168933809Y-50872380D01*
X168838571Y-51015238D01*
X168743333Y-51110476D01*
X168648095Y-51158095D01*
X169552857Y-50872380D02*
X170171904Y-50872380D01*
X169838571Y-51253333D01*
X169981428Y-51253333D01*
X170076666Y-51300952D01*
X170124285Y-51348571D01*
X170171904Y-51443809D01*
X170171904Y-51681904D01*
X170124285Y-51777142D01*
X170076666Y-51824761D01*
X169981428Y-51872380D01*
X169695714Y-51872380D01*
X169600476Y-51824761D01*
X169552857Y-51777142D01*
%TO.C,D12*%
X167695714Y-58237380D02*
X167695714Y-57237380D01*
X167933809Y-57237380D01*
X168076666Y-57285000D01*
X168171904Y-57380238D01*
X168219523Y-57475476D01*
X168267142Y-57665952D01*
X168267142Y-57808809D01*
X168219523Y-57999285D01*
X168171904Y-58094523D01*
X168076666Y-58189761D01*
X167933809Y-58237380D01*
X167695714Y-58237380D01*
X169219523Y-58237380D02*
X168648095Y-58237380D01*
X168933809Y-58237380D02*
X168933809Y-57237380D01*
X168838571Y-57380238D01*
X168743333Y-57475476D01*
X168648095Y-57523095D01*
X169600476Y-57332619D02*
X169648095Y-57285000D01*
X169743333Y-57237380D01*
X169981428Y-57237380D01*
X170076666Y-57285000D01*
X170124285Y-57332619D01*
X170171904Y-57427857D01*
X170171904Y-57523095D01*
X170124285Y-57665952D01*
X169552857Y-58237380D01*
X170171904Y-58237380D01*
%TO.C,D11*%
X162392380Y-52014285D02*
X161392380Y-52014285D01*
X161392380Y-51776190D01*
X161440000Y-51633333D01*
X161535238Y-51538095D01*
X161630476Y-51490476D01*
X161820952Y-51442857D01*
X161963809Y-51442857D01*
X162154285Y-51490476D01*
X162249523Y-51538095D01*
X162344761Y-51633333D01*
X162392380Y-51776190D01*
X162392380Y-52014285D01*
X162392380Y-50490476D02*
X162392380Y-51061904D01*
X162392380Y-50776190D02*
X161392380Y-50776190D01*
X161535238Y-50871428D01*
X161630476Y-50966666D01*
X161678095Y-51061904D01*
X162392380Y-49538095D02*
X162392380Y-50109523D01*
X162392380Y-49823809D02*
X161392380Y-49823809D01*
X161535238Y-49919047D01*
X161630476Y-50014285D01*
X161678095Y-50109523D01*
%TO.C,D10*%
X112362380Y-87574285D02*
X111362380Y-87574285D01*
X111362380Y-87336190D01*
X111410000Y-87193333D01*
X111505238Y-87098095D01*
X111600476Y-87050476D01*
X111790952Y-87002857D01*
X111933809Y-87002857D01*
X112124285Y-87050476D01*
X112219523Y-87098095D01*
X112314761Y-87193333D01*
X112362380Y-87336190D01*
X112362380Y-87574285D01*
X112362380Y-86050476D02*
X112362380Y-86621904D01*
X112362380Y-86336190D02*
X111362380Y-86336190D01*
X111505238Y-86431428D01*
X111600476Y-86526666D01*
X111648095Y-86621904D01*
X111362380Y-85431428D02*
X111362380Y-85336190D01*
X111410000Y-85240952D01*
X111457619Y-85193333D01*
X111552857Y-85145714D01*
X111743333Y-85098095D01*
X111981428Y-85098095D01*
X112171904Y-85145714D01*
X112267142Y-85193333D01*
X112314761Y-85240952D01*
X112362380Y-85336190D01*
X112362380Y-85431428D01*
X112314761Y-85526666D01*
X112267142Y-85574285D01*
X112171904Y-85621904D01*
X111981428Y-85669523D01*
X111743333Y-85669523D01*
X111552857Y-85621904D01*
X111457619Y-85574285D01*
X111410000Y-85526666D01*
X111362380Y-85431428D01*
%TO.C,D9*%
X131412380Y-87098095D02*
X130412380Y-87098095D01*
X130412380Y-86860000D01*
X130460000Y-86717142D01*
X130555238Y-86621904D01*
X130650476Y-86574285D01*
X130840952Y-86526666D01*
X130983809Y-86526666D01*
X131174285Y-86574285D01*
X131269523Y-86621904D01*
X131364761Y-86717142D01*
X131412380Y-86860000D01*
X131412380Y-87098095D01*
X131412380Y-86050476D02*
X131412380Y-85860000D01*
X131364761Y-85764761D01*
X131317142Y-85717142D01*
X131174285Y-85621904D01*
X130983809Y-85574285D01*
X130602857Y-85574285D01*
X130507619Y-85621904D01*
X130460000Y-85669523D01*
X130412380Y-85764761D01*
X130412380Y-85955238D01*
X130460000Y-86050476D01*
X130507619Y-86098095D01*
X130602857Y-86145714D01*
X130840952Y-86145714D01*
X130936190Y-86098095D01*
X130983809Y-86050476D01*
X131031428Y-85955238D01*
X131031428Y-85764761D01*
X130983809Y-85669523D01*
X130936190Y-85621904D01*
X130840952Y-85574285D01*
%TO.C,D8*%
X154272380Y-87098095D02*
X153272380Y-87098095D01*
X153272380Y-86860000D01*
X153320000Y-86717142D01*
X153415238Y-86621904D01*
X153510476Y-86574285D01*
X153700952Y-86526666D01*
X153843809Y-86526666D01*
X154034285Y-86574285D01*
X154129523Y-86621904D01*
X154224761Y-86717142D01*
X154272380Y-86860000D01*
X154272380Y-87098095D01*
X153700952Y-85955238D02*
X153653333Y-86050476D01*
X153605714Y-86098095D01*
X153510476Y-86145714D01*
X153462857Y-86145714D01*
X153367619Y-86098095D01*
X153320000Y-86050476D01*
X153272380Y-85955238D01*
X153272380Y-85764761D01*
X153320000Y-85669523D01*
X153367619Y-85621904D01*
X153462857Y-85574285D01*
X153510476Y-85574285D01*
X153605714Y-85621904D01*
X153653333Y-85669523D01*
X153700952Y-85764761D01*
X153700952Y-85955238D01*
X153748571Y-86050476D01*
X153796190Y-86098095D01*
X153891428Y-86145714D01*
X154081904Y-86145714D01*
X154177142Y-86098095D01*
X154224761Y-86050476D01*
X154272380Y-85955238D01*
X154272380Y-85764761D01*
X154224761Y-85669523D01*
X154177142Y-85621904D01*
X154081904Y-85574285D01*
X153891428Y-85574285D01*
X153796190Y-85621904D01*
X153748571Y-85669523D01*
X153700952Y-85764761D01*
%TO.C,D7*%
X173322380Y-87098095D02*
X172322380Y-87098095D01*
X172322380Y-86860000D01*
X172370000Y-86717142D01*
X172465238Y-86621904D01*
X172560476Y-86574285D01*
X172750952Y-86526666D01*
X172893809Y-86526666D01*
X173084285Y-86574285D01*
X173179523Y-86621904D01*
X173274761Y-86717142D01*
X173322380Y-86860000D01*
X173322380Y-87098095D01*
X172322380Y-86193333D02*
X172322380Y-85526666D01*
X173322380Y-85955238D01*
%TO.C,D6*%
X140231904Y-65222380D02*
X140231904Y-64222380D01*
X140470000Y-64222380D01*
X140612857Y-64270000D01*
X140708095Y-64365238D01*
X140755714Y-64460476D01*
X140803333Y-64650952D01*
X140803333Y-64793809D01*
X140755714Y-64984285D01*
X140708095Y-65079523D01*
X140612857Y-65174761D01*
X140470000Y-65222380D01*
X140231904Y-65222380D01*
X141660476Y-64222380D02*
X141470000Y-64222380D01*
X141374761Y-64270000D01*
X141327142Y-64317619D01*
X141231904Y-64460476D01*
X141184285Y-64650952D01*
X141184285Y-65031904D01*
X141231904Y-65127142D01*
X141279523Y-65174761D01*
X141374761Y-65222380D01*
X141565238Y-65222380D01*
X141660476Y-65174761D01*
X141708095Y-65127142D01*
X141755714Y-65031904D01*
X141755714Y-64793809D01*
X141708095Y-64698571D01*
X141660476Y-64650952D01*
X141565238Y-64603333D01*
X141374761Y-64603333D01*
X141279523Y-64650952D01*
X141231904Y-64698571D01*
X141184285Y-64793809D01*
%TO.C,D5*%
X184562380Y-69318095D02*
X183562380Y-69318095D01*
X183562380Y-69080000D01*
X183610000Y-68937142D01*
X183705238Y-68841904D01*
X183800476Y-68794285D01*
X183990952Y-68746666D01*
X184133809Y-68746666D01*
X184324285Y-68794285D01*
X184419523Y-68841904D01*
X184514761Y-68937142D01*
X184562380Y-69080000D01*
X184562380Y-69318095D01*
X183562380Y-67841904D02*
X183562380Y-68318095D01*
X184038571Y-68365714D01*
X183990952Y-68318095D01*
X183943333Y-68222857D01*
X183943333Y-67984761D01*
X183990952Y-67889523D01*
X184038571Y-67841904D01*
X184133809Y-67794285D01*
X184371904Y-67794285D01*
X184467142Y-67841904D01*
X184514761Y-67889523D01*
X184562380Y-67984761D01*
X184562380Y-68222857D01*
X184514761Y-68318095D01*
X184467142Y-68365714D01*
%TO.C,D4*%
X175672380Y-69318095D02*
X174672380Y-69318095D01*
X174672380Y-69080000D01*
X174720000Y-68937142D01*
X174815238Y-68841904D01*
X174910476Y-68794285D01*
X175100952Y-68746666D01*
X175243809Y-68746666D01*
X175434285Y-68794285D01*
X175529523Y-68841904D01*
X175624761Y-68937142D01*
X175672380Y-69080000D01*
X175672380Y-69318095D01*
X175005714Y-67889523D02*
X175672380Y-67889523D01*
X174624761Y-68127619D02*
X175339047Y-68365714D01*
X175339047Y-67746666D01*
%TO.C,D3*%
X185307380Y-74398095D02*
X184307380Y-74398095D01*
X184307380Y-74160000D01*
X184355000Y-74017142D01*
X184450238Y-73921904D01*
X184545476Y-73874285D01*
X184735952Y-73826666D01*
X184878809Y-73826666D01*
X185069285Y-73874285D01*
X185164523Y-73921904D01*
X185259761Y-74017142D01*
X185307380Y-74160000D01*
X185307380Y-74398095D01*
X184307380Y-73493333D02*
X184307380Y-72874285D01*
X184688333Y-73207619D01*
X184688333Y-73064761D01*
X184735952Y-72969523D01*
X184783571Y-72921904D01*
X184878809Y-72874285D01*
X185116904Y-72874285D01*
X185212142Y-72921904D01*
X185259761Y-72969523D01*
X185307380Y-73064761D01*
X185307380Y-73350476D01*
X185259761Y-73445714D01*
X185212142Y-73493333D01*
X185877380Y-77731904D02*
X184877380Y-77731904D01*
X185877380Y-77160476D02*
X185305952Y-77589047D01*
X184877380Y-77160476D02*
X185448809Y-77731904D01*
%TO.C,D2*%
X185316904Y-17972380D02*
X185316904Y-16972380D01*
X185555000Y-16972380D01*
X185697857Y-17020000D01*
X185793095Y-17115238D01*
X185840714Y-17210476D01*
X185888333Y-17400952D01*
X185888333Y-17543809D01*
X185840714Y-17734285D01*
X185793095Y-17829523D01*
X185697857Y-17924761D01*
X185555000Y-17972380D01*
X185316904Y-17972380D01*
X186269285Y-17067619D02*
X186316904Y-17020000D01*
X186412142Y-16972380D01*
X186650238Y-16972380D01*
X186745476Y-17020000D01*
X186793095Y-17067619D01*
X186840714Y-17162857D01*
X186840714Y-17258095D01*
X186793095Y-17400952D01*
X186221666Y-17972380D01*
X186840714Y-17972380D01*
%TO.C,C4*%
X181642142Y-49736666D02*
X181689761Y-49784285D01*
X181737380Y-49927142D01*
X181737380Y-50022380D01*
X181689761Y-50165238D01*
X181594523Y-50260476D01*
X181499285Y-50308095D01*
X181308809Y-50355714D01*
X181165952Y-50355714D01*
X180975476Y-50308095D01*
X180880238Y-50260476D01*
X180785000Y-50165238D01*
X180737380Y-50022380D01*
X180737380Y-49927142D01*
X180785000Y-49784285D01*
X180832619Y-49736666D01*
X181070714Y-48879523D02*
X181737380Y-48879523D01*
X180689761Y-49117619D02*
X181404047Y-49355714D01*
X181404047Y-48736666D01*
%TO.C,C3*%
X198167142Y-49021666D02*
X198214761Y-49069285D01*
X198262380Y-49212142D01*
X198262380Y-49307380D01*
X198214761Y-49450238D01*
X198119523Y-49545476D01*
X198024285Y-49593095D01*
X197833809Y-49640714D01*
X197690952Y-49640714D01*
X197500476Y-49593095D01*
X197405238Y-49545476D01*
X197310000Y-49450238D01*
X197262380Y-49307380D01*
X197262380Y-49212142D01*
X197310000Y-49069285D01*
X197357619Y-49021666D01*
X197262380Y-48688333D02*
X197262380Y-48069285D01*
X197643333Y-48402619D01*
X197643333Y-48259761D01*
X197690952Y-48164523D01*
X197738571Y-48116904D01*
X197833809Y-48069285D01*
X198071904Y-48069285D01*
X198167142Y-48116904D01*
X198214761Y-48164523D01*
X198262380Y-48259761D01*
X198262380Y-48545476D01*
X198214761Y-48640714D01*
X198167142Y-48688333D01*
%TO.C,C2*%
X198167142Y-40766666D02*
X198214761Y-40814285D01*
X198262380Y-40957142D01*
X198262380Y-41052380D01*
X198214761Y-41195238D01*
X198119523Y-41290476D01*
X198024285Y-41338095D01*
X197833809Y-41385714D01*
X197690952Y-41385714D01*
X197500476Y-41338095D01*
X197405238Y-41290476D01*
X197310000Y-41195238D01*
X197262380Y-41052380D01*
X197262380Y-40957142D01*
X197310000Y-40814285D01*
X197357619Y-40766666D01*
X197357619Y-40385714D02*
X197310000Y-40338095D01*
X197262380Y-40242857D01*
X197262380Y-40004761D01*
X197310000Y-39909523D01*
X197357619Y-39861904D01*
X197452857Y-39814285D01*
X197548095Y-39814285D01*
X197690952Y-39861904D01*
X198262380Y-40433333D01*
X198262380Y-39814285D01*
%TO.C,C1*%
X197147142Y-58316666D02*
X197194761Y-58364285D01*
X197242380Y-58507142D01*
X197242380Y-58602380D01*
X197194761Y-58745238D01*
X197099523Y-58840476D01*
X197004285Y-58888095D01*
X196813809Y-58935714D01*
X196670952Y-58935714D01*
X196480476Y-58888095D01*
X196385238Y-58840476D01*
X196290000Y-58745238D01*
X196242380Y-58602380D01*
X196242380Y-58507142D01*
X196290000Y-58364285D01*
X196337619Y-58316666D01*
X197242380Y-57364285D02*
X197242380Y-57935714D01*
X197242380Y-57650000D02*
X196242380Y-57650000D01*
X196385238Y-57745238D01*
X196480476Y-57840476D01*
X196528095Y-57935714D01*
%TD*%
M02*
