%TF.GenerationSoftware,KiCad,Pcbnew,(5.1.9)-1*%
%TF.CreationDate,2021-04-24T16:44:34+01:00*%
%TF.ProjectId,PowerPole,506f7765-7250-46f6-9c65-2e6b69636164,rev?*%
%TF.SameCoordinates,Original*%
%TF.FileFunction,Copper,L2,Bot*%
%TF.FilePolarity,Positive*%
%FSLAX46Y46*%
G04 Gerber Fmt 4.6, Leading zero omitted, Abs format (unit mm)*
G04 Created by KiCad (PCBNEW (5.1.9)-1) date 2021-04-24 16:44:34*
%MOMM*%
%LPD*%
G01*
G04 APERTURE LIST*
%TA.AperFunction,ComponentPad*%
%ADD10C,4.428000*%
%TD*%
%TA.AperFunction,ComponentPad*%
%ADD11C,2.400000*%
%TD*%
%TA.AperFunction,ComponentPad*%
%ADD12O,1.600000X1.600000*%
%TD*%
%TA.AperFunction,ComponentPad*%
%ADD13C,1.600000*%
%TD*%
%TA.AperFunction,ComponentPad*%
%ADD14O,6.000000X5.500000*%
%TD*%
%TA.AperFunction,ComponentPad*%
%ADD15O,1.905000X2.000000*%
%TD*%
%TA.AperFunction,ComponentPad*%
%ADD16R,1.905000X2.000000*%
%TD*%
%TA.AperFunction,ComponentPad*%
%ADD17O,3.500000X3.500000*%
%TD*%
%TA.AperFunction,ComponentPad*%
%ADD18C,1.800000*%
%TD*%
%TA.AperFunction,ComponentPad*%
%ADD19R,1.800000X1.800000*%
%TD*%
%TA.AperFunction,ComponentPad*%
%ADD20O,1.500000X1.500000*%
%TD*%
%TA.AperFunction,ComponentPad*%
%ADD21R,1.500000X1.500000*%
%TD*%
%TA.AperFunction,ComponentPad*%
%ADD22O,2.600000X2.600000*%
%TD*%
%TA.AperFunction,ComponentPad*%
%ADD23R,2.600000X2.600000*%
%TD*%
%TA.AperFunction,ComponentPad*%
%ADD24O,1.800000X1.800000*%
%TD*%
%TA.AperFunction,ComponentPad*%
%ADD25R,1.600000X1.600000*%
%TD*%
%TA.AperFunction,Conductor*%
%ADD26C,0.250000*%
%TD*%
%TA.AperFunction,Conductor*%
%ADD27C,10.000000*%
%TD*%
%TA.AperFunction,Conductor*%
%ADD28C,0.254000*%
%TD*%
%TA.AperFunction,Conductor*%
%ADD29C,0.100000*%
%TD*%
G04 APERTURE END LIST*
D10*
%TO.P,K1,87*%
%TO.N,/Vout*%
X155060000Y-36830000D03*
%TO.P,K1,86*%
%TO.N,Net-(D11-Pad1)*%
X146660000Y-45230000D03*
%TO.P,K1,85*%
%TO.N,/GND*%
X146660000Y-28430000D03*
%TO.P,K1,30*%
%TO.N,Net-(D14-Pad2)*%
X137160000Y-36830000D03*
%TD*%
D11*
%TO.P,F5,4*%
%TO.N,/Vout*%
X158750000Y-71620000D03*
%TO.P,F5,3*%
X162150000Y-71620000D03*
%TO.P,F5,2*%
%TO.N,Net-(F5-Pad1)*%
X162150000Y-85090000D03*
%TO.P,F5,1*%
X158750000Y-85090000D03*
%TD*%
%TO.P,F4,4*%
%TO.N,/Vout*%
X139700000Y-71620000D03*
%TO.P,F4,3*%
X143100000Y-71620000D03*
%TO.P,F4,2*%
%TO.N,Net-(F4-Pad1)*%
X143100000Y-85090000D03*
%TO.P,F4,1*%
X139700000Y-85090000D03*
%TD*%
%TO.P,F3,4*%
%TO.N,/Vout*%
X116840000Y-71620000D03*
%TO.P,F3,3*%
X120240000Y-71620000D03*
%TO.P,F3,2*%
%TO.N,Net-(F3-Pad1)*%
X120240000Y-85090000D03*
%TO.P,F3,1*%
X116840000Y-85090000D03*
%TD*%
%TO.P,F2,4*%
%TO.N,/Vout*%
X97790000Y-71620000D03*
%TO.P,F2,3*%
X101190000Y-71620000D03*
%TO.P,F2,2*%
%TO.N,Net-(F2-Pad1)*%
X101190000Y-85090000D03*
%TO.P,F2,1*%
X97790000Y-85090000D03*
%TD*%
%TO.P,F1,4*%
%TO.N,Net-(D14-Pad2)*%
X123325000Y-34925000D03*
%TO.P,F1,3*%
X123325000Y-38325000D03*
%TO.P,F1,2*%
%TO.N,Net-(F1-Pad1)*%
X109855000Y-38325000D03*
%TO.P,F1,1*%
X109855000Y-34925000D03*
%TD*%
D12*
%TO.P,R8,2*%
%TO.N,Net-(D15-Pad2)*%
X124460000Y-60960000D03*
D13*
%TO.P,R8,1*%
%TO.N,Net-(D14-Pad2)*%
X124460000Y-50800000D03*
%TD*%
%TO.P,J8,1*%
%TO.N,/GND*%
%TA.AperFunction,ComponentPad*%
G36*
G01*
X105750000Y-59734200D02*
X105750000Y-55835800D01*
G75*
G02*
X106000800Y-55585000I250800J0D01*
G01*
X109899200Y-55585000D01*
G75*
G02*
X110150000Y-55835800I0J-250800D01*
G01*
X110150000Y-59734200D01*
G75*
G02*
X109899200Y-59985000I-250800J0D01*
G01*
X106000800Y-59985000D01*
G75*
G02*
X105750000Y-59734200I0J250800D01*
G01*
G37*
%TD.AperFunction*%
%TD*%
%TO.P,J7,1*%
%TO.N,Net-(J1-Pad2)*%
%TA.AperFunction,ComponentPad*%
G36*
G01*
X96225000Y-59734200D02*
X96225000Y-55835800D01*
G75*
G02*
X96475800Y-55585000I250800J0D01*
G01*
X100374200Y-55585000D01*
G75*
G02*
X100625000Y-55835800I0J-250800D01*
G01*
X100625000Y-59734200D01*
G75*
G02*
X100374200Y-59985000I-250800J0D01*
G01*
X96475800Y-59985000D01*
G75*
G02*
X96225000Y-59734200I0J250800D01*
G01*
G37*
%TD.AperFunction*%
%TD*%
%TO.P,J6,1*%
%TO.N,Net-(D14-Pad2)*%
%TA.AperFunction,ComponentPad*%
G36*
G01*
X123410000Y-46520001D02*
X123410000Y-44919999D01*
G75*
G02*
X123659999Y-44670000I249999J0D01*
G01*
X125260001Y-44670000D01*
G75*
G02*
X125510000Y-44919999I0J-249999D01*
G01*
X125510000Y-46520001D01*
G75*
G02*
X125260001Y-46770000I-249999J0D01*
G01*
X123659999Y-46770000D01*
G75*
G02*
X123410000Y-46520001I0J249999D01*
G01*
G37*
%TD.AperFunction*%
%TD*%
D14*
%TO.P,J5,2*%
%TO.N,/GND*%
X99695000Y-108230000D03*
%TO.P,J5,1*%
%TO.N,Net-(F2-Pad1)*%
X99695000Y-100330000D03*
%TD*%
%TO.P,J4,2*%
%TO.N,/GND*%
X118745000Y-108230000D03*
%TO.P,J4,1*%
%TO.N,Net-(F3-Pad1)*%
X118745000Y-100330000D03*
%TD*%
%TO.P,J3,2*%
%TO.N,/GND*%
X141605000Y-108230000D03*
%TO.P,J3,1*%
%TO.N,Net-(F4-Pad1)*%
X141605000Y-100330000D03*
%TD*%
%TO.P,J2,2*%
%TO.N,/GND*%
X160655000Y-108230000D03*
%TO.P,J2,1*%
%TO.N,Net-(F5-Pad1)*%
X160655000Y-100330000D03*
%TD*%
%TO.P,J1,2*%
%TO.N,Net-(J1-Pad2)*%
X98425000Y-46635000D03*
%TO.P,J1,1*%
%TO.N,Net-(F1-Pad1)*%
X98425000Y-38735000D03*
%TD*%
D13*
%TO.P,C5,2*%
%TO.N,/GND*%
X177800000Y-43100000D03*
%TO.P,C5,1*%
%TO.N,Net-(C1-Pad1)*%
X177800000Y-38100000D03*
%TD*%
D15*
%TO.P,D1,3*%
%TO.N,Net-(C1-Pad1)*%
X172085000Y-38100000D03*
%TO.P,D1,2*%
%TO.N,/Vout*%
X169545000Y-38100000D03*
D16*
%TO.P,D1,1*%
%TO.N,/GND*%
X167005000Y-38100000D03*
D17*
%TO.P,D1,*%
%TO.N,*%
X169545000Y-21440000D03*
%TD*%
D13*
%TO.P,SW1,2*%
%TO.N,Net-(D11-Pad2)*%
X144570000Y-54610000D03*
%TO.P,SW1,1*%
%TO.N,Net-(D14-Pad1)*%
%TA.AperFunction,ComponentPad*%
G36*
G01*
X140170000Y-55160000D02*
X140170000Y-54060000D01*
G75*
G02*
X140420000Y-53810000I250000J0D01*
G01*
X141520000Y-53810000D01*
G75*
G02*
X141770000Y-54060000I0J-250000D01*
G01*
X141770000Y-55160000D01*
G75*
G02*
X141520000Y-55410000I-250000J0D01*
G01*
X140420000Y-55410000D01*
G75*
G02*
X140170000Y-55160000I0J250000D01*
G01*
G37*
%TD.AperFunction*%
%TD*%
D12*
%TO.P,R9,2*%
%TO.N,Net-(C1-Pad1)*%
X189230000Y-41910000D03*
D13*
%TO.P,R9,1*%
X189230000Y-52070000D03*
%TD*%
D12*
%TO.P,R7,2*%
%TO.N,Net-(D10-Pad2)*%
X107950000Y-91440000D03*
D13*
%TO.P,R7,1*%
%TO.N,Net-(F2-Pad1)*%
X107950000Y-101600000D03*
%TD*%
D12*
%TO.P,R6,2*%
%TO.N,Net-(D9-Pad2)*%
X127000000Y-91440000D03*
D13*
%TO.P,R6,1*%
%TO.N,Net-(F3-Pad1)*%
X127000000Y-101600000D03*
%TD*%
D12*
%TO.P,R5,2*%
%TO.N,Net-(D8-Pad2)*%
X149860000Y-91440000D03*
D13*
%TO.P,R5,1*%
%TO.N,Net-(F4-Pad1)*%
X149860000Y-101600000D03*
%TD*%
D12*
%TO.P,R4,2*%
%TO.N,Net-(D7-Pad2)*%
X168910000Y-91440000D03*
D13*
%TO.P,R4,1*%
%TO.N,Net-(F5-Pad1)*%
X168910000Y-101600000D03*
%TD*%
D12*
%TO.P,R3,2*%
%TO.N,Net-(D6-Pad2)*%
X151130000Y-60960000D03*
D13*
%TO.P,R3,1*%
%TO.N,/Vout*%
X161290000Y-60960000D03*
%TD*%
D12*
%TO.P,R2,2*%
%TO.N,Net-(C1-Pad1)*%
X187325000Y-56515000D03*
D13*
%TO.P,R2,1*%
%TO.N,Net-(D3-Pad2)*%
X187325000Y-66675000D03*
%TD*%
D12*
%TO.P,R1,2*%
%TO.N,/GND*%
X193675000Y-77470000D03*
D13*
%TO.P,R1,1*%
%TO.N,Net-(C1-Pad1)*%
X193675000Y-67310000D03*
%TD*%
D18*
%TO.P,D15,2*%
%TO.N,Net-(D15-Pad2)*%
X130810000Y-60960000D03*
D19*
%TO.P,D15,1*%
%TO.N,/GND*%
X133350000Y-60960000D03*
%TD*%
D20*
%TO.P,D14,2*%
%TO.N,Net-(D14-Pad2)*%
X129540000Y-54610000D03*
D21*
%TO.P,D14,1*%
%TO.N,Net-(D14-Pad1)*%
X137160000Y-54610000D03*
%TD*%
D20*
%TO.P,D13,2*%
%TO.N,/GND*%
X172720000Y-53340000D03*
D21*
%TO.P,D13,1*%
%TO.N,Net-(D11-Pad1)*%
X165100000Y-53340000D03*
%TD*%
D20*
%TO.P,D12,2*%
%TO.N,/Vout*%
X172720000Y-55880000D03*
D21*
%TO.P,D12,1*%
%TO.N,Net-(D11-Pad2)*%
X165100000Y-55880000D03*
%TD*%
D20*
%TO.P,D11,2*%
%TO.N,Net-(D11-Pad2)*%
X160020000Y-54610000D03*
D21*
%TO.P,D11,1*%
%TO.N,Net-(D11-Pad1)*%
X160020000Y-46990000D03*
%TD*%
D18*
%TO.P,D10,2*%
%TO.N,Net-(D10-Pad2)*%
X107950000Y-87630000D03*
D19*
%TO.P,D10,1*%
%TO.N,/GND*%
X107950000Y-85090000D03*
%TD*%
D18*
%TO.P,D9,2*%
%TO.N,Net-(D9-Pad2)*%
X127000000Y-87630000D03*
D19*
%TO.P,D9,1*%
%TO.N,/GND*%
X127000000Y-85090000D03*
%TD*%
D18*
%TO.P,D8,2*%
%TO.N,Net-(D8-Pad2)*%
X149860000Y-87630000D03*
D19*
%TO.P,D8,1*%
%TO.N,/GND*%
X149860000Y-85090000D03*
%TD*%
D18*
%TO.P,D7,2*%
%TO.N,Net-(D7-Pad2)*%
X168910000Y-87630000D03*
D19*
%TO.P,D7,1*%
%TO.N,/GND*%
X168910000Y-85090000D03*
%TD*%
D18*
%TO.P,D6,2*%
%TO.N,Net-(D6-Pad2)*%
X142240000Y-60960000D03*
D19*
%TO.P,D6,1*%
%TO.N,/GND*%
X139700000Y-60960000D03*
%TD*%
D22*
%TO.P,D5,2*%
%TO.N,/GND*%
X180340000Y-76200000D03*
D23*
%TO.P,D5,1*%
%TO.N,/Vout*%
X180340000Y-60960000D03*
%TD*%
D22*
%TO.P,D4,2*%
%TO.N,/GND*%
X171450000Y-76200000D03*
D23*
%TO.P,D4,1*%
%TO.N,/Vout*%
X171450000Y-60960000D03*
%TD*%
D24*
%TO.P,D3,2*%
%TO.N,Net-(D3-Pad2)*%
X187325000Y-69850000D03*
D19*
%TO.P,D3,1*%
%TO.N,/Vout*%
X187325000Y-77470000D03*
%TD*%
D15*
%TO.P,D2,3*%
%TO.N,Net-(C1-Pad1)*%
X188595000Y-38100000D03*
%TO.P,D2,2*%
%TO.N,/Vout*%
X186055000Y-38100000D03*
D16*
%TO.P,D2,1*%
%TO.N,/GND*%
X183515000Y-38100000D03*
D17*
%TO.P,D2,*%
%TO.N,*%
X186055000Y-21440000D03*
%TD*%
D13*
%TO.P,C4,2*%
%TO.N,/GND*%
X184785000Y-47070000D03*
%TO.P,C4,1*%
%TO.N,Net-(C1-Pad1)*%
X184785000Y-52070000D03*
%TD*%
%TO.P,C3,2*%
%TO.N,/GND*%
X194310000Y-51355000D03*
%TO.P,C3,1*%
%TO.N,Net-(C1-Pad1)*%
X194310000Y-46355000D03*
%TD*%
%TO.P,C2,2*%
%TO.N,/GND*%
X194310000Y-43100000D03*
%TO.P,C2,1*%
%TO.N,Net-(C1-Pad1)*%
X194310000Y-38100000D03*
%TD*%
%TO.P,C1,2*%
%TO.N,/GND*%
X193040000Y-59150000D03*
D25*
%TO.P,C1,1*%
%TO.N,Net-(C1-Pad1)*%
X193040000Y-57150000D03*
%TD*%
D26*
%TO.N,Net-(D6-Pad2)*%
X142240000Y-60960000D02*
X151130000Y-60960000D01*
%TO.N,Net-(D11-Pad2)*%
X144570000Y-54610000D02*
X160020000Y-54610000D01*
X161290000Y-55880000D02*
X160020000Y-54610000D01*
X165100000Y-55880000D02*
X161290000Y-55880000D01*
%TO.N,Net-(D11-Pad1)*%
X158260000Y-45230000D02*
X160020000Y-46990000D01*
X146660000Y-45230000D02*
X158260000Y-45230000D01*
X160020000Y-48260000D02*
X165100000Y-53340000D01*
X160020000Y-46990000D02*
X160020000Y-48260000D01*
D27*
%TO.N,Net-(D14-Pad2)*%
X136000000Y-36830000D02*
X124460000Y-36830000D01*
%TO.N,Net-(F1-Pad1)*%
X98425000Y-36195000D02*
X109855000Y-36195000D01*
X98425000Y-37500000D02*
X98425000Y-37000000D01*
%TO.N,Net-(F2-Pad1)*%
X99695000Y-99000000D02*
X99695000Y-87630000D01*
%TO.N,Net-(F3-Pad1)*%
X118745000Y-99000000D02*
X118745000Y-87630000D01*
%TO.N,Net-(F4-Pad1)*%
X141605000Y-99000000D02*
X141605000Y-87630000D01*
%TO.N,Net-(F5-Pad1)*%
X160655000Y-99000000D02*
X160655000Y-87630000D01*
%TO.N,Net-(J1-Pad2)*%
X98425000Y-57150000D02*
X98425000Y-48150000D01*
%TD*%
D28*
%TO.N,/GND*%
X195261639Y-16881801D02*
X194881801Y-17261639D01*
X194583364Y-17708281D01*
X194377797Y-18204563D01*
X194273000Y-18731414D01*
X194273000Y-19268586D01*
X194377797Y-19795437D01*
X194583364Y-20291719D01*
X194881801Y-20738361D01*
X195261639Y-21118199D01*
X195708281Y-21416636D01*
X196204563Y-21622203D01*
X196731414Y-21727000D01*
X197268586Y-21727000D01*
X197795437Y-21622203D01*
X198291719Y-21416636D01*
X198738361Y-21118199D01*
X199118199Y-20738361D01*
X199263000Y-20521651D01*
X199263000Y-112478349D01*
X199118199Y-112261639D01*
X198738361Y-111881801D01*
X198291719Y-111583364D01*
X197795437Y-111377797D01*
X197268586Y-111273000D01*
X196731414Y-111273000D01*
X196204563Y-111377797D01*
X195708281Y-111583364D01*
X195261639Y-111881801D01*
X194881801Y-112261639D01*
X194583364Y-112708281D01*
X194377797Y-113204563D01*
X194273000Y-113731414D01*
X194273000Y-114268586D01*
X194377797Y-114795437D01*
X194583364Y-115291719D01*
X194881801Y-115738361D01*
X195261639Y-116118199D01*
X195708281Y-116416636D01*
X196204563Y-116622203D01*
X196661031Y-116713000D01*
X91338969Y-116713000D01*
X91795437Y-116622203D01*
X92291719Y-116416636D01*
X92738361Y-116118199D01*
X93118199Y-115738361D01*
X93416636Y-115291719D01*
X93622203Y-114795437D01*
X93727000Y-114268586D01*
X93727000Y-113731414D01*
X93622203Y-113204563D01*
X93416636Y-112708281D01*
X93118199Y-112261639D01*
X92738361Y-111881801D01*
X92291719Y-111583364D01*
X91795437Y-111377797D01*
X91268586Y-111273000D01*
X90731414Y-111273000D01*
X90204563Y-111377797D01*
X89708281Y-111583364D01*
X89261639Y-111881801D01*
X89027000Y-112116440D01*
X89027000Y-99300990D01*
X93568000Y-99300990D01*
X93656653Y-100201101D01*
X94007002Y-101356045D01*
X94575937Y-102420448D01*
X95341595Y-103353405D01*
X96274551Y-104119063D01*
X97338954Y-104687998D01*
X98493898Y-105038347D01*
X99695000Y-105156645D01*
X100896101Y-105038347D01*
X102051045Y-104687998D01*
X103115448Y-104119063D01*
X104048405Y-103353405D01*
X104814063Y-102420449D01*
X105354048Y-101410207D01*
X106023000Y-101410207D01*
X106023000Y-101789793D01*
X106097053Y-102162085D01*
X106242315Y-102512777D01*
X106453201Y-102828391D01*
X106721609Y-103096799D01*
X107037223Y-103307685D01*
X107387915Y-103452947D01*
X107760207Y-103527000D01*
X108139793Y-103527000D01*
X108512085Y-103452947D01*
X108862777Y-103307685D01*
X109178391Y-103096799D01*
X109446799Y-102828391D01*
X109657685Y-102512777D01*
X109802947Y-102162085D01*
X109877000Y-101789793D01*
X109877000Y-101410207D01*
X109802947Y-101037915D01*
X109657685Y-100687223D01*
X109446799Y-100371609D01*
X109178391Y-100103201D01*
X108862777Y-99892315D01*
X108512085Y-99747053D01*
X108139793Y-99673000D01*
X107760207Y-99673000D01*
X107387915Y-99747053D01*
X107037223Y-99892315D01*
X106721609Y-100103201D01*
X106453201Y-100371609D01*
X106242315Y-100687223D01*
X106097053Y-101037915D01*
X106023000Y-101410207D01*
X105354048Y-101410207D01*
X105382998Y-101356046D01*
X105733347Y-100201102D01*
X105822000Y-99300991D01*
X105822000Y-99300990D01*
X112618000Y-99300990D01*
X112706653Y-100201101D01*
X113057002Y-101356045D01*
X113625937Y-102420448D01*
X114391595Y-103353405D01*
X115324551Y-104119063D01*
X116388954Y-104687998D01*
X117543898Y-105038347D01*
X118745000Y-105156645D01*
X119946101Y-105038347D01*
X121101045Y-104687998D01*
X122165448Y-104119063D01*
X123098405Y-103353405D01*
X123864063Y-102420449D01*
X124404048Y-101410207D01*
X125073000Y-101410207D01*
X125073000Y-101789793D01*
X125147053Y-102162085D01*
X125292315Y-102512777D01*
X125503201Y-102828391D01*
X125771609Y-103096799D01*
X126087223Y-103307685D01*
X126437915Y-103452947D01*
X126810207Y-103527000D01*
X127189793Y-103527000D01*
X127562085Y-103452947D01*
X127912777Y-103307685D01*
X128228391Y-103096799D01*
X128496799Y-102828391D01*
X128707685Y-102512777D01*
X128852947Y-102162085D01*
X128927000Y-101789793D01*
X128927000Y-101410207D01*
X128852947Y-101037915D01*
X128707685Y-100687223D01*
X128496799Y-100371609D01*
X128228391Y-100103201D01*
X127912777Y-99892315D01*
X127562085Y-99747053D01*
X127189793Y-99673000D01*
X126810207Y-99673000D01*
X126437915Y-99747053D01*
X126087223Y-99892315D01*
X125771609Y-100103201D01*
X125503201Y-100371609D01*
X125292315Y-100687223D01*
X125147053Y-101037915D01*
X125073000Y-101410207D01*
X124404048Y-101410207D01*
X124432998Y-101356046D01*
X124783347Y-100201102D01*
X124872000Y-99300991D01*
X124872000Y-99300990D01*
X135478000Y-99300990D01*
X135566653Y-100201101D01*
X135917002Y-101356045D01*
X136485937Y-102420448D01*
X137251595Y-103353405D01*
X138184551Y-104119063D01*
X139248954Y-104687998D01*
X140403898Y-105038347D01*
X141605000Y-105156645D01*
X142806101Y-105038347D01*
X143961045Y-104687998D01*
X145025448Y-104119063D01*
X145958405Y-103353405D01*
X146724063Y-102420449D01*
X147264048Y-101410207D01*
X147933000Y-101410207D01*
X147933000Y-101789793D01*
X148007053Y-102162085D01*
X148152315Y-102512777D01*
X148363201Y-102828391D01*
X148631609Y-103096799D01*
X148947223Y-103307685D01*
X149297915Y-103452947D01*
X149670207Y-103527000D01*
X150049793Y-103527000D01*
X150422085Y-103452947D01*
X150772777Y-103307685D01*
X151088391Y-103096799D01*
X151356799Y-102828391D01*
X151567685Y-102512777D01*
X151712947Y-102162085D01*
X151787000Y-101789793D01*
X151787000Y-101410207D01*
X151712947Y-101037915D01*
X151567685Y-100687223D01*
X151356799Y-100371609D01*
X151088391Y-100103201D01*
X150772777Y-99892315D01*
X150422085Y-99747053D01*
X150049793Y-99673000D01*
X149670207Y-99673000D01*
X149297915Y-99747053D01*
X148947223Y-99892315D01*
X148631609Y-100103201D01*
X148363201Y-100371609D01*
X148152315Y-100687223D01*
X148007053Y-101037915D01*
X147933000Y-101410207D01*
X147264048Y-101410207D01*
X147292998Y-101356046D01*
X147643347Y-100201102D01*
X147732000Y-99300991D01*
X147732000Y-99300990D01*
X154528000Y-99300990D01*
X154616653Y-100201101D01*
X154967002Y-101356045D01*
X155535937Y-102420448D01*
X156301595Y-103353405D01*
X157234551Y-104119063D01*
X158298954Y-104687998D01*
X159453898Y-105038347D01*
X160655000Y-105156645D01*
X161856101Y-105038347D01*
X163011045Y-104687998D01*
X164075448Y-104119063D01*
X165008405Y-103353405D01*
X165774063Y-102420449D01*
X166314048Y-101410207D01*
X166983000Y-101410207D01*
X166983000Y-101789793D01*
X167057053Y-102162085D01*
X167202315Y-102512777D01*
X167413201Y-102828391D01*
X167681609Y-103096799D01*
X167997223Y-103307685D01*
X168347915Y-103452947D01*
X168720207Y-103527000D01*
X169099793Y-103527000D01*
X169472085Y-103452947D01*
X169822777Y-103307685D01*
X170138391Y-103096799D01*
X170406799Y-102828391D01*
X170617685Y-102512777D01*
X170762947Y-102162085D01*
X170837000Y-101789793D01*
X170837000Y-101410207D01*
X170762947Y-101037915D01*
X170617685Y-100687223D01*
X170406799Y-100371609D01*
X170138391Y-100103201D01*
X169822777Y-99892315D01*
X169472085Y-99747053D01*
X169099793Y-99673000D01*
X168720207Y-99673000D01*
X168347915Y-99747053D01*
X167997223Y-99892315D01*
X167681609Y-100103201D01*
X167413201Y-100371609D01*
X167202315Y-100687223D01*
X167057053Y-101037915D01*
X166983000Y-101410207D01*
X166314048Y-101410207D01*
X166342998Y-101356046D01*
X166693347Y-100201102D01*
X166782000Y-99300991D01*
X166782000Y-87430358D01*
X166883000Y-87430358D01*
X166883000Y-87829642D01*
X166960896Y-88221254D01*
X167113696Y-88590145D01*
X167335526Y-88922137D01*
X167617863Y-89204474D01*
X167949855Y-89426304D01*
X168318746Y-89579104D01*
X168353312Y-89585980D01*
X168347915Y-89587053D01*
X167997223Y-89732315D01*
X167681609Y-89943201D01*
X167413201Y-90211609D01*
X167202315Y-90527223D01*
X167057053Y-90877915D01*
X166983000Y-91250207D01*
X166983000Y-91629793D01*
X167057053Y-92002085D01*
X167202315Y-92352777D01*
X167413201Y-92668391D01*
X167681609Y-92936799D01*
X167997223Y-93147685D01*
X168347915Y-93292947D01*
X168720207Y-93367000D01*
X169099793Y-93367000D01*
X169472085Y-93292947D01*
X169822777Y-93147685D01*
X170138391Y-92936799D01*
X170406799Y-92668391D01*
X170617685Y-92352777D01*
X170762947Y-92002085D01*
X170837000Y-91629793D01*
X170837000Y-91250207D01*
X170762947Y-90877915D01*
X170617685Y-90527223D01*
X170406799Y-90211609D01*
X170138391Y-89943201D01*
X169822777Y-89732315D01*
X169472085Y-89587053D01*
X169466688Y-89585980D01*
X169501254Y-89579104D01*
X169870145Y-89426304D01*
X170202137Y-89204474D01*
X170484474Y-88922137D01*
X170706304Y-88590145D01*
X170859104Y-88221254D01*
X170937000Y-87829642D01*
X170937000Y-87430358D01*
X170859104Y-87038746D01*
X170706304Y-86669855D01*
X170484474Y-86337863D01*
X170392984Y-86246373D01*
X170399502Y-86234180D01*
X170435812Y-86114482D01*
X170448072Y-85990000D01*
X170445000Y-85375750D01*
X170286250Y-85217000D01*
X169037000Y-85217000D01*
X169037000Y-85237000D01*
X168783000Y-85237000D01*
X168783000Y-85217000D01*
X167533750Y-85217000D01*
X167375000Y-85375750D01*
X167371928Y-85990000D01*
X167384188Y-86114482D01*
X167420498Y-86234180D01*
X167427016Y-86246373D01*
X167335526Y-86337863D01*
X167113696Y-86669855D01*
X166960896Y-87038746D01*
X166883000Y-87430358D01*
X166782000Y-87430358D01*
X166782000Y-87329009D01*
X166693347Y-86428898D01*
X166342998Y-85273954D01*
X165774063Y-84209551D01*
X165758018Y-84190000D01*
X167371928Y-84190000D01*
X167375000Y-84804250D01*
X167533750Y-84963000D01*
X168783000Y-84963000D01*
X168783000Y-83713750D01*
X169037000Y-83713750D01*
X169037000Y-84963000D01*
X170286250Y-84963000D01*
X170445000Y-84804250D01*
X170448072Y-84190000D01*
X170435812Y-84065518D01*
X170399502Y-83945820D01*
X170340537Y-83835506D01*
X170261185Y-83738815D01*
X170164494Y-83659463D01*
X170054180Y-83600498D01*
X169934482Y-83564188D01*
X169810000Y-83551928D01*
X169195750Y-83555000D01*
X169037000Y-83713750D01*
X168783000Y-83713750D01*
X168624250Y-83555000D01*
X168010000Y-83551928D01*
X167885518Y-83564188D01*
X167765820Y-83600498D01*
X167655506Y-83659463D01*
X167558815Y-83738815D01*
X167479463Y-83835506D01*
X167420498Y-83945820D01*
X167384188Y-84065518D01*
X167371928Y-84190000D01*
X165758018Y-84190000D01*
X165008405Y-83276595D01*
X164075449Y-82510937D01*
X163011046Y-81942002D01*
X161856102Y-81591653D01*
X160655000Y-81473355D01*
X159453899Y-81591653D01*
X158298955Y-81942002D01*
X157234552Y-82510937D01*
X156301596Y-83276595D01*
X155535938Y-84209551D01*
X154967003Y-85273954D01*
X154616654Y-86428898D01*
X154528001Y-87329009D01*
X154528000Y-99300990D01*
X147732000Y-99300990D01*
X147732000Y-87430358D01*
X147833000Y-87430358D01*
X147833000Y-87829642D01*
X147910896Y-88221254D01*
X148063696Y-88590145D01*
X148285526Y-88922137D01*
X148567863Y-89204474D01*
X148899855Y-89426304D01*
X149268746Y-89579104D01*
X149303312Y-89585980D01*
X149297915Y-89587053D01*
X148947223Y-89732315D01*
X148631609Y-89943201D01*
X148363201Y-90211609D01*
X148152315Y-90527223D01*
X148007053Y-90877915D01*
X147933000Y-91250207D01*
X147933000Y-91629793D01*
X148007053Y-92002085D01*
X148152315Y-92352777D01*
X148363201Y-92668391D01*
X148631609Y-92936799D01*
X148947223Y-93147685D01*
X149297915Y-93292947D01*
X149670207Y-93367000D01*
X150049793Y-93367000D01*
X150422085Y-93292947D01*
X150772777Y-93147685D01*
X151088391Y-92936799D01*
X151356799Y-92668391D01*
X151567685Y-92352777D01*
X151712947Y-92002085D01*
X151787000Y-91629793D01*
X151787000Y-91250207D01*
X151712947Y-90877915D01*
X151567685Y-90527223D01*
X151356799Y-90211609D01*
X151088391Y-89943201D01*
X150772777Y-89732315D01*
X150422085Y-89587053D01*
X150416688Y-89585980D01*
X150451254Y-89579104D01*
X150820145Y-89426304D01*
X151152137Y-89204474D01*
X151434474Y-88922137D01*
X151656304Y-88590145D01*
X151809104Y-88221254D01*
X151887000Y-87829642D01*
X151887000Y-87430358D01*
X151809104Y-87038746D01*
X151656304Y-86669855D01*
X151434474Y-86337863D01*
X151342984Y-86246373D01*
X151349502Y-86234180D01*
X151385812Y-86114482D01*
X151398072Y-85990000D01*
X151395000Y-85375750D01*
X151236250Y-85217000D01*
X149987000Y-85217000D01*
X149987000Y-85237000D01*
X149733000Y-85237000D01*
X149733000Y-85217000D01*
X148483750Y-85217000D01*
X148325000Y-85375750D01*
X148321928Y-85990000D01*
X148334188Y-86114482D01*
X148370498Y-86234180D01*
X148377016Y-86246373D01*
X148285526Y-86337863D01*
X148063696Y-86669855D01*
X147910896Y-87038746D01*
X147833000Y-87430358D01*
X147732000Y-87430358D01*
X147732000Y-87329009D01*
X147643347Y-86428898D01*
X147292998Y-85273954D01*
X146724063Y-84209551D01*
X146708018Y-84190000D01*
X148321928Y-84190000D01*
X148325000Y-84804250D01*
X148483750Y-84963000D01*
X149733000Y-84963000D01*
X149733000Y-83713750D01*
X149987000Y-83713750D01*
X149987000Y-84963000D01*
X151236250Y-84963000D01*
X151395000Y-84804250D01*
X151398072Y-84190000D01*
X151385812Y-84065518D01*
X151349502Y-83945820D01*
X151290537Y-83835506D01*
X151211185Y-83738815D01*
X151114494Y-83659463D01*
X151004180Y-83600498D01*
X150884482Y-83564188D01*
X150760000Y-83551928D01*
X150145750Y-83555000D01*
X149987000Y-83713750D01*
X149733000Y-83713750D01*
X149574250Y-83555000D01*
X148960000Y-83551928D01*
X148835518Y-83564188D01*
X148715820Y-83600498D01*
X148605506Y-83659463D01*
X148508815Y-83738815D01*
X148429463Y-83835506D01*
X148370498Y-83945820D01*
X148334188Y-84065518D01*
X148321928Y-84190000D01*
X146708018Y-84190000D01*
X145958405Y-83276595D01*
X145025449Y-82510937D01*
X143961046Y-81942002D01*
X142806102Y-81591653D01*
X141605000Y-81473355D01*
X140403899Y-81591653D01*
X139248955Y-81942002D01*
X138184552Y-82510937D01*
X137251596Y-83276595D01*
X136485938Y-84209551D01*
X135917003Y-85273954D01*
X135566654Y-86428898D01*
X135478001Y-87329009D01*
X135478000Y-99300990D01*
X124872000Y-99300990D01*
X124872000Y-87430358D01*
X124973000Y-87430358D01*
X124973000Y-87829642D01*
X125050896Y-88221254D01*
X125203696Y-88590145D01*
X125425526Y-88922137D01*
X125707863Y-89204474D01*
X126039855Y-89426304D01*
X126408746Y-89579104D01*
X126443312Y-89585980D01*
X126437915Y-89587053D01*
X126087223Y-89732315D01*
X125771609Y-89943201D01*
X125503201Y-90211609D01*
X125292315Y-90527223D01*
X125147053Y-90877915D01*
X125073000Y-91250207D01*
X125073000Y-91629793D01*
X125147053Y-92002085D01*
X125292315Y-92352777D01*
X125503201Y-92668391D01*
X125771609Y-92936799D01*
X126087223Y-93147685D01*
X126437915Y-93292947D01*
X126810207Y-93367000D01*
X127189793Y-93367000D01*
X127562085Y-93292947D01*
X127912777Y-93147685D01*
X128228391Y-92936799D01*
X128496799Y-92668391D01*
X128707685Y-92352777D01*
X128852947Y-92002085D01*
X128927000Y-91629793D01*
X128927000Y-91250207D01*
X128852947Y-90877915D01*
X128707685Y-90527223D01*
X128496799Y-90211609D01*
X128228391Y-89943201D01*
X127912777Y-89732315D01*
X127562085Y-89587053D01*
X127556688Y-89585980D01*
X127591254Y-89579104D01*
X127960145Y-89426304D01*
X128292137Y-89204474D01*
X128574474Y-88922137D01*
X128796304Y-88590145D01*
X128949104Y-88221254D01*
X129027000Y-87829642D01*
X129027000Y-87430358D01*
X128949104Y-87038746D01*
X128796304Y-86669855D01*
X128574474Y-86337863D01*
X128482984Y-86246373D01*
X128489502Y-86234180D01*
X128525812Y-86114482D01*
X128538072Y-85990000D01*
X128535000Y-85375750D01*
X128376250Y-85217000D01*
X127127000Y-85217000D01*
X127127000Y-85237000D01*
X126873000Y-85237000D01*
X126873000Y-85217000D01*
X125623750Y-85217000D01*
X125465000Y-85375750D01*
X125461928Y-85990000D01*
X125474188Y-86114482D01*
X125510498Y-86234180D01*
X125517016Y-86246373D01*
X125425526Y-86337863D01*
X125203696Y-86669855D01*
X125050896Y-87038746D01*
X124973000Y-87430358D01*
X124872000Y-87430358D01*
X124872000Y-87329009D01*
X124783347Y-86428898D01*
X124432998Y-85273954D01*
X123864063Y-84209551D01*
X123848018Y-84190000D01*
X125461928Y-84190000D01*
X125465000Y-84804250D01*
X125623750Y-84963000D01*
X126873000Y-84963000D01*
X126873000Y-83713750D01*
X127127000Y-83713750D01*
X127127000Y-84963000D01*
X128376250Y-84963000D01*
X128535000Y-84804250D01*
X128538072Y-84190000D01*
X128525812Y-84065518D01*
X128489502Y-83945820D01*
X128430537Y-83835506D01*
X128351185Y-83738815D01*
X128254494Y-83659463D01*
X128144180Y-83600498D01*
X128024482Y-83564188D01*
X127900000Y-83551928D01*
X127285750Y-83555000D01*
X127127000Y-83713750D01*
X126873000Y-83713750D01*
X126714250Y-83555000D01*
X126100000Y-83551928D01*
X125975518Y-83564188D01*
X125855820Y-83600498D01*
X125745506Y-83659463D01*
X125648815Y-83738815D01*
X125569463Y-83835506D01*
X125510498Y-83945820D01*
X125474188Y-84065518D01*
X125461928Y-84190000D01*
X123848018Y-84190000D01*
X123098405Y-83276595D01*
X122165449Y-82510937D01*
X121101046Y-81942002D01*
X119946102Y-81591653D01*
X118745000Y-81473355D01*
X117543899Y-81591653D01*
X116388955Y-81942002D01*
X115324552Y-82510937D01*
X114391596Y-83276595D01*
X113625938Y-84209551D01*
X113057003Y-85273954D01*
X112706654Y-86428898D01*
X112618001Y-87329009D01*
X112618000Y-99300990D01*
X105822000Y-99300990D01*
X105822000Y-87430358D01*
X105923000Y-87430358D01*
X105923000Y-87829642D01*
X106000896Y-88221254D01*
X106153696Y-88590145D01*
X106375526Y-88922137D01*
X106657863Y-89204474D01*
X106989855Y-89426304D01*
X107358746Y-89579104D01*
X107393312Y-89585980D01*
X107387915Y-89587053D01*
X107037223Y-89732315D01*
X106721609Y-89943201D01*
X106453201Y-90211609D01*
X106242315Y-90527223D01*
X106097053Y-90877915D01*
X106023000Y-91250207D01*
X106023000Y-91629793D01*
X106097053Y-92002085D01*
X106242315Y-92352777D01*
X106453201Y-92668391D01*
X106721609Y-92936799D01*
X107037223Y-93147685D01*
X107387915Y-93292947D01*
X107760207Y-93367000D01*
X108139793Y-93367000D01*
X108512085Y-93292947D01*
X108862777Y-93147685D01*
X109178391Y-92936799D01*
X109446799Y-92668391D01*
X109657685Y-92352777D01*
X109802947Y-92002085D01*
X109877000Y-91629793D01*
X109877000Y-91250207D01*
X109802947Y-90877915D01*
X109657685Y-90527223D01*
X109446799Y-90211609D01*
X109178391Y-89943201D01*
X108862777Y-89732315D01*
X108512085Y-89587053D01*
X108506688Y-89585980D01*
X108541254Y-89579104D01*
X108910145Y-89426304D01*
X109242137Y-89204474D01*
X109524474Y-88922137D01*
X109746304Y-88590145D01*
X109899104Y-88221254D01*
X109977000Y-87829642D01*
X109977000Y-87430358D01*
X109899104Y-87038746D01*
X109746304Y-86669855D01*
X109524474Y-86337863D01*
X109432984Y-86246373D01*
X109439502Y-86234180D01*
X109475812Y-86114482D01*
X109488072Y-85990000D01*
X109485000Y-85375750D01*
X109326250Y-85217000D01*
X108077000Y-85217000D01*
X108077000Y-85237000D01*
X107823000Y-85237000D01*
X107823000Y-85217000D01*
X106573750Y-85217000D01*
X106415000Y-85375750D01*
X106411928Y-85990000D01*
X106424188Y-86114482D01*
X106460498Y-86234180D01*
X106467016Y-86246373D01*
X106375526Y-86337863D01*
X106153696Y-86669855D01*
X106000896Y-87038746D01*
X105923000Y-87430358D01*
X105822000Y-87430358D01*
X105822000Y-87329009D01*
X105733347Y-86428898D01*
X105382998Y-85273954D01*
X104814063Y-84209551D01*
X104798018Y-84190000D01*
X106411928Y-84190000D01*
X106415000Y-84804250D01*
X106573750Y-84963000D01*
X107823000Y-84963000D01*
X107823000Y-83713750D01*
X108077000Y-83713750D01*
X108077000Y-84963000D01*
X109326250Y-84963000D01*
X109485000Y-84804250D01*
X109488072Y-84190000D01*
X109475812Y-84065518D01*
X109439502Y-83945820D01*
X109380537Y-83835506D01*
X109301185Y-83738815D01*
X109204494Y-83659463D01*
X109094180Y-83600498D01*
X108974482Y-83564188D01*
X108850000Y-83551928D01*
X108235750Y-83555000D01*
X108077000Y-83713750D01*
X107823000Y-83713750D01*
X107664250Y-83555000D01*
X107050000Y-83551928D01*
X106925518Y-83564188D01*
X106805820Y-83600498D01*
X106695506Y-83659463D01*
X106598815Y-83738815D01*
X106519463Y-83835506D01*
X106460498Y-83945820D01*
X106424188Y-84065518D01*
X106411928Y-84190000D01*
X104798018Y-84190000D01*
X104048405Y-83276595D01*
X103115449Y-82510937D01*
X102051046Y-81942002D01*
X100896102Y-81591653D01*
X99695000Y-81473355D01*
X98493899Y-81591653D01*
X97338955Y-81942002D01*
X96274552Y-82510937D01*
X95341596Y-83276595D01*
X94575938Y-84209551D01*
X94007003Y-85273954D01*
X93656654Y-86428898D01*
X93568001Y-87329009D01*
X93568000Y-99300990D01*
X89027000Y-99300990D01*
X89027000Y-76570000D01*
X185292547Y-76570000D01*
X185292547Y-78370000D01*
X185314307Y-78590931D01*
X185378750Y-78803371D01*
X185483400Y-78999157D01*
X185624235Y-79170765D01*
X185795843Y-79311600D01*
X185991629Y-79416250D01*
X186204069Y-79480693D01*
X186425000Y-79502453D01*
X188225000Y-79502453D01*
X188445931Y-79480693D01*
X188658371Y-79416250D01*
X188854157Y-79311600D01*
X189025765Y-79170765D01*
X189166600Y-78999157D01*
X189271250Y-78803371D01*
X189335693Y-78590931D01*
X189357453Y-78370000D01*
X189357453Y-77819040D01*
X192283091Y-77819040D01*
X192377930Y-78083881D01*
X192522615Y-78325131D01*
X192711586Y-78533519D01*
X192937580Y-78701037D01*
X193191913Y-78821246D01*
X193325961Y-78861904D01*
X193548000Y-78739915D01*
X193548000Y-77597000D01*
X193802000Y-77597000D01*
X193802000Y-78739915D01*
X194024039Y-78861904D01*
X194158087Y-78821246D01*
X194412420Y-78701037D01*
X194638414Y-78533519D01*
X194827385Y-78325131D01*
X194972070Y-78083881D01*
X195066909Y-77819040D01*
X194945624Y-77597000D01*
X193802000Y-77597000D01*
X193548000Y-77597000D01*
X192404376Y-77597000D01*
X192283091Y-77819040D01*
X189357453Y-77819040D01*
X189357453Y-77120960D01*
X192283091Y-77120960D01*
X192404376Y-77343000D01*
X193548000Y-77343000D01*
X193548000Y-76200085D01*
X193802000Y-76200085D01*
X193802000Y-77343000D01*
X194945624Y-77343000D01*
X195066909Y-77120960D01*
X194972070Y-76856119D01*
X194827385Y-76614869D01*
X194638414Y-76406481D01*
X194412420Y-76238963D01*
X194158087Y-76118754D01*
X194024039Y-76078096D01*
X193802000Y-76200085D01*
X193548000Y-76200085D01*
X193325961Y-76078096D01*
X193191913Y-76118754D01*
X192937580Y-76238963D01*
X192711586Y-76406481D01*
X192522615Y-76614869D01*
X192377930Y-76856119D01*
X192283091Y-77120960D01*
X189357453Y-77120960D01*
X189357453Y-76570000D01*
X189335693Y-76349069D01*
X189271250Y-76136629D01*
X189166600Y-75940843D01*
X189025765Y-75769235D01*
X188854157Y-75628400D01*
X188658371Y-75523750D01*
X188445931Y-75459307D01*
X188225000Y-75437547D01*
X186425000Y-75437547D01*
X186204069Y-75459307D01*
X185991629Y-75523750D01*
X185795843Y-75628400D01*
X185624235Y-75769235D01*
X185483400Y-75940843D01*
X185378750Y-76136629D01*
X185314307Y-76349069D01*
X185292547Y-76570000D01*
X89027000Y-76570000D01*
X89027000Y-71390811D01*
X95463000Y-71390811D01*
X95463000Y-71849189D01*
X95552426Y-72298761D01*
X95727840Y-72722248D01*
X95982501Y-73103376D01*
X96306624Y-73427499D01*
X96687752Y-73682160D01*
X97111239Y-73857574D01*
X97560811Y-73947000D01*
X98019189Y-73947000D01*
X98468761Y-73857574D01*
X98892248Y-73682160D01*
X99273376Y-73427499D01*
X99490000Y-73210875D01*
X99706624Y-73427499D01*
X100087752Y-73682160D01*
X100511239Y-73857574D01*
X100960811Y-73947000D01*
X101419189Y-73947000D01*
X101868761Y-73857574D01*
X102292248Y-73682160D01*
X102673376Y-73427499D01*
X102997499Y-73103376D01*
X103252160Y-72722248D01*
X103427574Y-72298761D01*
X103517000Y-71849189D01*
X103517000Y-71390811D01*
X114513000Y-71390811D01*
X114513000Y-71849189D01*
X114602426Y-72298761D01*
X114777840Y-72722248D01*
X115032501Y-73103376D01*
X115356624Y-73427499D01*
X115737752Y-73682160D01*
X116161239Y-73857574D01*
X116610811Y-73947000D01*
X117069189Y-73947000D01*
X117518761Y-73857574D01*
X117942248Y-73682160D01*
X118323376Y-73427499D01*
X118540000Y-73210875D01*
X118756624Y-73427499D01*
X119137752Y-73682160D01*
X119561239Y-73857574D01*
X120010811Y-73947000D01*
X120469189Y-73947000D01*
X120918761Y-73857574D01*
X121342248Y-73682160D01*
X121723376Y-73427499D01*
X122047499Y-73103376D01*
X122302160Y-72722248D01*
X122477574Y-72298761D01*
X122567000Y-71849189D01*
X122567000Y-71390811D01*
X137373000Y-71390811D01*
X137373000Y-71849189D01*
X137462426Y-72298761D01*
X137637840Y-72722248D01*
X137892501Y-73103376D01*
X138216624Y-73427499D01*
X138597752Y-73682160D01*
X139021239Y-73857574D01*
X139470811Y-73947000D01*
X139929189Y-73947000D01*
X140378761Y-73857574D01*
X140802248Y-73682160D01*
X141183376Y-73427499D01*
X141400000Y-73210875D01*
X141616624Y-73427499D01*
X141997752Y-73682160D01*
X142421239Y-73857574D01*
X142870811Y-73947000D01*
X143329189Y-73947000D01*
X143778761Y-73857574D01*
X144202248Y-73682160D01*
X144583376Y-73427499D01*
X144907499Y-73103376D01*
X145162160Y-72722248D01*
X145337574Y-72298761D01*
X145427000Y-71849189D01*
X145427000Y-71390811D01*
X156423000Y-71390811D01*
X156423000Y-71849189D01*
X156512426Y-72298761D01*
X156687840Y-72722248D01*
X156942501Y-73103376D01*
X157266624Y-73427499D01*
X157647752Y-73682160D01*
X158071239Y-73857574D01*
X158520811Y-73947000D01*
X158979189Y-73947000D01*
X159428761Y-73857574D01*
X159852248Y-73682160D01*
X160233376Y-73427499D01*
X160450000Y-73210875D01*
X160666624Y-73427499D01*
X161047752Y-73682160D01*
X161471239Y-73857574D01*
X161920811Y-73947000D01*
X162379189Y-73947000D01*
X162828761Y-73857574D01*
X163252248Y-73682160D01*
X163633376Y-73427499D01*
X163957499Y-73103376D01*
X164212160Y-72722248D01*
X164387574Y-72298761D01*
X164477000Y-71849189D01*
X164477000Y-71390811D01*
X164387574Y-70941239D01*
X164212160Y-70517752D01*
X163957499Y-70136624D01*
X163633376Y-69812501D01*
X163390712Y-69650358D01*
X185298000Y-69650358D01*
X185298000Y-70049642D01*
X185375896Y-70441254D01*
X185528696Y-70810145D01*
X185750526Y-71142137D01*
X186032863Y-71424474D01*
X186364855Y-71646304D01*
X186733746Y-71799104D01*
X187125358Y-71877000D01*
X187524642Y-71877000D01*
X187916254Y-71799104D01*
X188285145Y-71646304D01*
X188617137Y-71424474D01*
X188899474Y-71142137D01*
X189121304Y-70810145D01*
X189274104Y-70441254D01*
X189352000Y-70049642D01*
X189352000Y-69650358D01*
X189274104Y-69258746D01*
X189121304Y-68889855D01*
X188899474Y-68557863D01*
X188617137Y-68275526D01*
X188507645Y-68202366D01*
X188553391Y-68171799D01*
X188821799Y-67903391D01*
X189032685Y-67587777D01*
X189177947Y-67237085D01*
X189201195Y-67120207D01*
X191748000Y-67120207D01*
X191748000Y-67499793D01*
X191822053Y-67872085D01*
X191967315Y-68222777D01*
X192178201Y-68538391D01*
X192446609Y-68806799D01*
X192762223Y-69017685D01*
X193112915Y-69162947D01*
X193485207Y-69237000D01*
X193864793Y-69237000D01*
X194237085Y-69162947D01*
X194587777Y-69017685D01*
X194903391Y-68806799D01*
X195171799Y-68538391D01*
X195382685Y-68222777D01*
X195527947Y-67872085D01*
X195602000Y-67499793D01*
X195602000Y-67120207D01*
X195527947Y-66747915D01*
X195382685Y-66397223D01*
X195171799Y-66081609D01*
X194903391Y-65813201D01*
X194587777Y-65602315D01*
X194237085Y-65457053D01*
X193864793Y-65383000D01*
X193485207Y-65383000D01*
X193112915Y-65457053D01*
X192762223Y-65602315D01*
X192446609Y-65813201D01*
X192178201Y-66081609D01*
X191967315Y-66397223D01*
X191822053Y-66747915D01*
X191748000Y-67120207D01*
X189201195Y-67120207D01*
X189252000Y-66864793D01*
X189252000Y-66485207D01*
X189177947Y-66112915D01*
X189032685Y-65762223D01*
X188821799Y-65446609D01*
X188553391Y-65178201D01*
X188237777Y-64967315D01*
X187887085Y-64822053D01*
X187514793Y-64748000D01*
X187135207Y-64748000D01*
X186762915Y-64822053D01*
X186412223Y-64967315D01*
X186096609Y-65178201D01*
X185828201Y-65446609D01*
X185617315Y-65762223D01*
X185472053Y-66112915D01*
X185398000Y-66485207D01*
X185398000Y-66864793D01*
X185472053Y-67237085D01*
X185617315Y-67587777D01*
X185828201Y-67903391D01*
X186096609Y-68171799D01*
X186142355Y-68202366D01*
X186032863Y-68275526D01*
X185750526Y-68557863D01*
X185528696Y-68889855D01*
X185375896Y-69258746D01*
X185298000Y-69650358D01*
X163390712Y-69650358D01*
X163252248Y-69557840D01*
X162828761Y-69382426D01*
X162379189Y-69293000D01*
X161920811Y-69293000D01*
X161471239Y-69382426D01*
X161047752Y-69557840D01*
X160666624Y-69812501D01*
X160450000Y-70029125D01*
X160233376Y-69812501D01*
X159852248Y-69557840D01*
X159428761Y-69382426D01*
X158979189Y-69293000D01*
X158520811Y-69293000D01*
X158071239Y-69382426D01*
X157647752Y-69557840D01*
X157266624Y-69812501D01*
X156942501Y-70136624D01*
X156687840Y-70517752D01*
X156512426Y-70941239D01*
X156423000Y-71390811D01*
X145427000Y-71390811D01*
X145337574Y-70941239D01*
X145162160Y-70517752D01*
X144907499Y-70136624D01*
X144583376Y-69812501D01*
X144202248Y-69557840D01*
X143778761Y-69382426D01*
X143329189Y-69293000D01*
X142870811Y-69293000D01*
X142421239Y-69382426D01*
X141997752Y-69557840D01*
X141616624Y-69812501D01*
X141400000Y-70029125D01*
X141183376Y-69812501D01*
X140802248Y-69557840D01*
X140378761Y-69382426D01*
X139929189Y-69293000D01*
X139470811Y-69293000D01*
X139021239Y-69382426D01*
X138597752Y-69557840D01*
X138216624Y-69812501D01*
X137892501Y-70136624D01*
X137637840Y-70517752D01*
X137462426Y-70941239D01*
X137373000Y-71390811D01*
X122567000Y-71390811D01*
X122477574Y-70941239D01*
X122302160Y-70517752D01*
X122047499Y-70136624D01*
X121723376Y-69812501D01*
X121342248Y-69557840D01*
X120918761Y-69382426D01*
X120469189Y-69293000D01*
X120010811Y-69293000D01*
X119561239Y-69382426D01*
X119137752Y-69557840D01*
X118756624Y-69812501D01*
X118540000Y-70029125D01*
X118323376Y-69812501D01*
X117942248Y-69557840D01*
X117518761Y-69382426D01*
X117069189Y-69293000D01*
X116610811Y-69293000D01*
X116161239Y-69382426D01*
X115737752Y-69557840D01*
X115356624Y-69812501D01*
X115032501Y-70136624D01*
X114777840Y-70517752D01*
X114602426Y-70941239D01*
X114513000Y-71390811D01*
X103517000Y-71390811D01*
X103427574Y-70941239D01*
X103252160Y-70517752D01*
X102997499Y-70136624D01*
X102673376Y-69812501D01*
X102292248Y-69557840D01*
X101868761Y-69382426D01*
X101419189Y-69293000D01*
X100960811Y-69293000D01*
X100511239Y-69382426D01*
X100087752Y-69557840D01*
X99706624Y-69812501D01*
X99490000Y-70029125D01*
X99273376Y-69812501D01*
X98892248Y-69557840D01*
X98468761Y-69382426D01*
X98019189Y-69293000D01*
X97560811Y-69293000D01*
X97111239Y-69382426D01*
X96687752Y-69557840D01*
X96306624Y-69812501D01*
X95982501Y-70136624D01*
X95727840Y-70517752D01*
X95552426Y-70941239D01*
X95463000Y-71390811D01*
X89027000Y-71390811D01*
X89027000Y-36195000D01*
X92268355Y-36195000D01*
X92307998Y-36597500D01*
X92298000Y-36699009D01*
X92298000Y-37800990D01*
X92386653Y-38701101D01*
X92737002Y-39856045D01*
X93305937Y-40920448D01*
X94071595Y-41853405D01*
X95004551Y-42619063D01*
X95389833Y-42825000D01*
X95004552Y-43030937D01*
X94071596Y-43796595D01*
X93305938Y-44729551D01*
X92737003Y-45793954D01*
X92386654Y-46948898D01*
X92298001Y-47849009D01*
X92298000Y-57450990D01*
X92386653Y-58351101D01*
X92737002Y-59506045D01*
X93305937Y-60570448D01*
X94071595Y-61503405D01*
X95004551Y-62269063D01*
X96068954Y-62837998D01*
X97223898Y-63188347D01*
X98425000Y-63306645D01*
X99626101Y-63188347D01*
X100781045Y-62837998D01*
X101845448Y-62269063D01*
X102778405Y-61503405D01*
X103380125Y-60770207D01*
X122533000Y-60770207D01*
X122533000Y-61149793D01*
X122607053Y-61522085D01*
X122752315Y-61872777D01*
X122963201Y-62188391D01*
X123231609Y-62456799D01*
X123547223Y-62667685D01*
X123897915Y-62812947D01*
X124270207Y-62887000D01*
X124649793Y-62887000D01*
X125022085Y-62812947D01*
X125372777Y-62667685D01*
X125688391Y-62456799D01*
X125956799Y-62188391D01*
X126167685Y-61872777D01*
X126312947Y-61522085D01*
X126387000Y-61149793D01*
X126387000Y-60770207D01*
X126385041Y-60760358D01*
X128783000Y-60760358D01*
X128783000Y-61159642D01*
X128860896Y-61551254D01*
X129013696Y-61920145D01*
X129235526Y-62252137D01*
X129517863Y-62534474D01*
X129849855Y-62756304D01*
X130218746Y-62909104D01*
X130610358Y-62987000D01*
X131009642Y-62987000D01*
X131401254Y-62909104D01*
X131770145Y-62756304D01*
X132102137Y-62534474D01*
X132193627Y-62442984D01*
X132205820Y-62449502D01*
X132325518Y-62485812D01*
X132450000Y-62498072D01*
X133064250Y-62495000D01*
X133223000Y-62336250D01*
X133223000Y-61087000D01*
X133477000Y-61087000D01*
X133477000Y-62336250D01*
X133635750Y-62495000D01*
X134250000Y-62498072D01*
X134374482Y-62485812D01*
X134494180Y-62449502D01*
X134604494Y-62390537D01*
X134701185Y-62311185D01*
X134780537Y-62214494D01*
X134839502Y-62104180D01*
X134875812Y-61984482D01*
X134888072Y-61860000D01*
X138161928Y-61860000D01*
X138174188Y-61984482D01*
X138210498Y-62104180D01*
X138269463Y-62214494D01*
X138348815Y-62311185D01*
X138445506Y-62390537D01*
X138555820Y-62449502D01*
X138675518Y-62485812D01*
X138800000Y-62498072D01*
X139414250Y-62495000D01*
X139573000Y-62336250D01*
X139573000Y-61087000D01*
X138323750Y-61087000D01*
X138165000Y-61245750D01*
X138161928Y-61860000D01*
X134888072Y-61860000D01*
X134885000Y-61245750D01*
X134726250Y-61087000D01*
X133477000Y-61087000D01*
X133223000Y-61087000D01*
X133203000Y-61087000D01*
X133203000Y-60833000D01*
X133223000Y-60833000D01*
X133223000Y-59583750D01*
X133477000Y-59583750D01*
X133477000Y-60833000D01*
X134726250Y-60833000D01*
X134885000Y-60674250D01*
X134888072Y-60060000D01*
X138161928Y-60060000D01*
X138165000Y-60674250D01*
X138323750Y-60833000D01*
X139573000Y-60833000D01*
X139573000Y-59583750D01*
X139827000Y-59583750D01*
X139827000Y-60833000D01*
X139847000Y-60833000D01*
X139847000Y-61087000D01*
X139827000Y-61087000D01*
X139827000Y-62336250D01*
X139985750Y-62495000D01*
X140600000Y-62498072D01*
X140724482Y-62485812D01*
X140844180Y-62449502D01*
X140856373Y-62442984D01*
X140947863Y-62534474D01*
X141279855Y-62756304D01*
X141648746Y-62909104D01*
X142040358Y-62987000D01*
X142439642Y-62987000D01*
X142831254Y-62909104D01*
X143200145Y-62756304D01*
X143532137Y-62534474D01*
X143814474Y-62252137D01*
X143841293Y-62212000D01*
X149656810Y-62212000D01*
X149901609Y-62456799D01*
X150217223Y-62667685D01*
X150567915Y-62812947D01*
X150940207Y-62887000D01*
X151319793Y-62887000D01*
X151692085Y-62812947D01*
X152042777Y-62667685D01*
X152358391Y-62456799D01*
X152626799Y-62188391D01*
X152837685Y-61872777D01*
X152982947Y-61522085D01*
X153057000Y-61149793D01*
X153057000Y-60770207D01*
X159363000Y-60770207D01*
X159363000Y-61149793D01*
X159437053Y-61522085D01*
X159582315Y-61872777D01*
X159793201Y-62188391D01*
X160061609Y-62456799D01*
X160377223Y-62667685D01*
X160727915Y-62812947D01*
X161100207Y-62887000D01*
X161479793Y-62887000D01*
X161852085Y-62812947D01*
X162202777Y-62667685D01*
X162518391Y-62456799D01*
X162786799Y-62188391D01*
X162997685Y-61872777D01*
X163142947Y-61522085D01*
X163217000Y-61149793D01*
X163217000Y-60770207D01*
X163142947Y-60397915D01*
X162997685Y-60047223D01*
X162786799Y-59731609D01*
X162715190Y-59660000D01*
X169017547Y-59660000D01*
X169017547Y-62260000D01*
X169039307Y-62480931D01*
X169103750Y-62693371D01*
X169208400Y-62889157D01*
X169349235Y-63060765D01*
X169520843Y-63201600D01*
X169716629Y-63306250D01*
X169929069Y-63370693D01*
X170150000Y-63392453D01*
X172750000Y-63392453D01*
X172970931Y-63370693D01*
X173183371Y-63306250D01*
X173379157Y-63201600D01*
X173550765Y-63060765D01*
X173691600Y-62889157D01*
X173796250Y-62693371D01*
X173860693Y-62480931D01*
X173882453Y-62260000D01*
X173882453Y-59660000D01*
X177907547Y-59660000D01*
X177907547Y-62260000D01*
X177929307Y-62480931D01*
X177993750Y-62693371D01*
X178098400Y-62889157D01*
X178239235Y-63060765D01*
X178410843Y-63201600D01*
X178606629Y-63306250D01*
X178819069Y-63370693D01*
X179040000Y-63392453D01*
X181640000Y-63392453D01*
X181860931Y-63370693D01*
X182073371Y-63306250D01*
X182269157Y-63201600D01*
X182440765Y-63060765D01*
X182581600Y-62889157D01*
X182686250Y-62693371D01*
X182750693Y-62480931D01*
X182772453Y-62260000D01*
X182772453Y-60142702D01*
X192226903Y-60142702D01*
X192298486Y-60386671D01*
X192553996Y-60507571D01*
X192828184Y-60576300D01*
X193110512Y-60590217D01*
X193390130Y-60548787D01*
X193656292Y-60453603D01*
X193781514Y-60386671D01*
X193853097Y-60142702D01*
X193040000Y-59329605D01*
X192226903Y-60142702D01*
X182772453Y-60142702D01*
X182772453Y-59660000D01*
X182750693Y-59439069D01*
X182686250Y-59226629D01*
X182581600Y-59030843D01*
X182440765Y-58859235D01*
X182269157Y-58718400D01*
X182073371Y-58613750D01*
X181860931Y-58549307D01*
X181640000Y-58527547D01*
X179040000Y-58527547D01*
X178819069Y-58549307D01*
X178606629Y-58613750D01*
X178410843Y-58718400D01*
X178239235Y-58859235D01*
X178098400Y-59030843D01*
X177993750Y-59226629D01*
X177929307Y-59439069D01*
X177907547Y-59660000D01*
X173882453Y-59660000D01*
X173860693Y-59439069D01*
X173796250Y-59226629D01*
X173691600Y-59030843D01*
X173550765Y-58859235D01*
X173379157Y-58718400D01*
X173183371Y-58613750D01*
X172970931Y-58549307D01*
X172750000Y-58527547D01*
X170150000Y-58527547D01*
X169929069Y-58549307D01*
X169716629Y-58613750D01*
X169520843Y-58718400D01*
X169349235Y-58859235D01*
X169208400Y-59030843D01*
X169103750Y-59226629D01*
X169039307Y-59439069D01*
X169017547Y-59660000D01*
X162715190Y-59660000D01*
X162518391Y-59463201D01*
X162202777Y-59252315D01*
X161852085Y-59107053D01*
X161479793Y-59033000D01*
X161100207Y-59033000D01*
X160727915Y-59107053D01*
X160377223Y-59252315D01*
X160061609Y-59463201D01*
X159793201Y-59731609D01*
X159582315Y-60047223D01*
X159437053Y-60397915D01*
X159363000Y-60770207D01*
X153057000Y-60770207D01*
X152982947Y-60397915D01*
X152837685Y-60047223D01*
X152626799Y-59731609D01*
X152358391Y-59463201D01*
X152042777Y-59252315D01*
X151692085Y-59107053D01*
X151319793Y-59033000D01*
X150940207Y-59033000D01*
X150567915Y-59107053D01*
X150217223Y-59252315D01*
X149901609Y-59463201D01*
X149656810Y-59708000D01*
X143841293Y-59708000D01*
X143814474Y-59667863D01*
X143532137Y-59385526D01*
X143200145Y-59163696D01*
X142831254Y-59010896D01*
X142439642Y-58933000D01*
X142040358Y-58933000D01*
X141648746Y-59010896D01*
X141279855Y-59163696D01*
X140947863Y-59385526D01*
X140856373Y-59477016D01*
X140844180Y-59470498D01*
X140724482Y-59434188D01*
X140600000Y-59421928D01*
X139985750Y-59425000D01*
X139827000Y-59583750D01*
X139573000Y-59583750D01*
X139414250Y-59425000D01*
X138800000Y-59421928D01*
X138675518Y-59434188D01*
X138555820Y-59470498D01*
X138445506Y-59529463D01*
X138348815Y-59608815D01*
X138269463Y-59705506D01*
X138210498Y-59815820D01*
X138174188Y-59935518D01*
X138161928Y-60060000D01*
X134888072Y-60060000D01*
X134875812Y-59935518D01*
X134839502Y-59815820D01*
X134780537Y-59705506D01*
X134701185Y-59608815D01*
X134604494Y-59529463D01*
X134494180Y-59470498D01*
X134374482Y-59434188D01*
X134250000Y-59421928D01*
X133635750Y-59425000D01*
X133477000Y-59583750D01*
X133223000Y-59583750D01*
X133064250Y-59425000D01*
X132450000Y-59421928D01*
X132325518Y-59434188D01*
X132205820Y-59470498D01*
X132193627Y-59477016D01*
X132102137Y-59385526D01*
X131770145Y-59163696D01*
X131401254Y-59010896D01*
X131009642Y-58933000D01*
X130610358Y-58933000D01*
X130218746Y-59010896D01*
X129849855Y-59163696D01*
X129517863Y-59385526D01*
X129235526Y-59667863D01*
X129013696Y-59999855D01*
X128860896Y-60368746D01*
X128783000Y-60760358D01*
X126385041Y-60760358D01*
X126312947Y-60397915D01*
X126167685Y-60047223D01*
X125956799Y-59731609D01*
X125688391Y-59463201D01*
X125372777Y-59252315D01*
X125022085Y-59107053D01*
X124649793Y-59033000D01*
X124270207Y-59033000D01*
X123897915Y-59107053D01*
X123547223Y-59252315D01*
X123231609Y-59463201D01*
X122963201Y-59731609D01*
X122752315Y-60047223D01*
X122607053Y-60397915D01*
X122533000Y-60770207D01*
X103380125Y-60770207D01*
X103544063Y-60570449D01*
X104112998Y-59506046D01*
X104463347Y-58351102D01*
X104552000Y-57450991D01*
X104552000Y-54425132D01*
X127663000Y-54425132D01*
X127663000Y-54794868D01*
X127735132Y-55157501D01*
X127876624Y-55499093D01*
X128082039Y-55806518D01*
X128343482Y-56067961D01*
X128650907Y-56273376D01*
X128992499Y-56414868D01*
X129355132Y-56487000D01*
X129724868Y-56487000D01*
X130087501Y-56414868D01*
X130429093Y-56273376D01*
X130736518Y-56067961D01*
X130997961Y-55806518D01*
X131203376Y-55499093D01*
X131344868Y-55157501D01*
X131417000Y-54794868D01*
X131417000Y-54425132D01*
X131344868Y-54062499D01*
X131260991Y-53860000D01*
X135277547Y-53860000D01*
X135277547Y-55360000D01*
X135299307Y-55580931D01*
X135363750Y-55793371D01*
X135468400Y-55989157D01*
X135609235Y-56160765D01*
X135780843Y-56301600D01*
X135976629Y-56406250D01*
X136189069Y-56470693D01*
X136410000Y-56492453D01*
X137910000Y-56492453D01*
X138130931Y-56470693D01*
X138343371Y-56406250D01*
X138539157Y-56301600D01*
X138710765Y-56160765D01*
X138851600Y-55989157D01*
X138956250Y-55793371D01*
X139020693Y-55580931D01*
X139042453Y-55360000D01*
X139042453Y-55209812D01*
X139064110Y-55429703D01*
X139142780Y-55689042D01*
X139270532Y-55928050D01*
X139442458Y-56137542D01*
X139651950Y-56309468D01*
X139890958Y-56437220D01*
X140150297Y-56515890D01*
X140420000Y-56542453D01*
X141520000Y-56542453D01*
X141789703Y-56515890D01*
X142049042Y-56437220D01*
X142288050Y-56309468D01*
X142497542Y-56137542D01*
X142669468Y-55928050D01*
X142797220Y-55689042D01*
X142853853Y-55502348D01*
X142862315Y-55522777D01*
X143073201Y-55838391D01*
X143341609Y-56106799D01*
X143657223Y-56317685D01*
X144007915Y-56462947D01*
X144380207Y-56537000D01*
X144759793Y-56537000D01*
X145132085Y-56462947D01*
X145482777Y-56317685D01*
X145798391Y-56106799D01*
X146043190Y-55862000D01*
X158617521Y-55862000D01*
X158823482Y-56067961D01*
X159130907Y-56273376D01*
X159472499Y-56414868D01*
X159835132Y-56487000D01*
X160126404Y-56487000D01*
X160361217Y-56721813D01*
X160400419Y-56769581D01*
X160448187Y-56808783D01*
X160591060Y-56926036D01*
X160808562Y-57042293D01*
X161044565Y-57113884D01*
X161228502Y-57132000D01*
X161228503Y-57132000D01*
X161289999Y-57138057D01*
X161351495Y-57132000D01*
X163340433Y-57132000D01*
X163408400Y-57259157D01*
X163549235Y-57430765D01*
X163720843Y-57571600D01*
X163916629Y-57676250D01*
X164129069Y-57740693D01*
X164350000Y-57762453D01*
X165850000Y-57762453D01*
X166070931Y-57740693D01*
X166283371Y-57676250D01*
X166479157Y-57571600D01*
X166650765Y-57430765D01*
X166791600Y-57259157D01*
X166896250Y-57063371D01*
X166960693Y-56850931D01*
X166982453Y-56630000D01*
X166982453Y-55695132D01*
X170843000Y-55695132D01*
X170843000Y-56064868D01*
X170915132Y-56427501D01*
X171056624Y-56769093D01*
X171262039Y-57076518D01*
X171523482Y-57337961D01*
X171830907Y-57543376D01*
X172172499Y-57684868D01*
X172535132Y-57757000D01*
X172904868Y-57757000D01*
X173267501Y-57684868D01*
X173609093Y-57543376D01*
X173916518Y-57337961D01*
X174177961Y-57076518D01*
X174383376Y-56769093D01*
X174524868Y-56427501D01*
X174545215Y-56325207D01*
X185398000Y-56325207D01*
X185398000Y-56704793D01*
X185472053Y-57077085D01*
X185617315Y-57427777D01*
X185828201Y-57743391D01*
X186096609Y-58011799D01*
X186412223Y-58222685D01*
X186762915Y-58367947D01*
X187135207Y-58442000D01*
X187514793Y-58442000D01*
X187887085Y-58367947D01*
X188237777Y-58222685D01*
X188553391Y-58011799D01*
X188821799Y-57743391D01*
X189032685Y-57427777D01*
X189177947Y-57077085D01*
X189252000Y-56704793D01*
X189252000Y-56350000D01*
X191107547Y-56350000D01*
X191107547Y-57950000D01*
X191129307Y-58170931D01*
X191193750Y-58383371D01*
X191298400Y-58579157D01*
X191439235Y-58750765D01*
X191610843Y-58891600D01*
X191623660Y-58898451D01*
X191613700Y-58938184D01*
X191599783Y-59220512D01*
X191641213Y-59500130D01*
X191736397Y-59766292D01*
X191803329Y-59891514D01*
X192047298Y-59963097D01*
X192860395Y-59150000D01*
X192846253Y-59135858D01*
X192899657Y-59082453D01*
X193180343Y-59082453D01*
X193233748Y-59135858D01*
X193219605Y-59150000D01*
X194032702Y-59963097D01*
X194276671Y-59891514D01*
X194397571Y-59636004D01*
X194466300Y-59361816D01*
X194480217Y-59079488D01*
X194453610Y-58899910D01*
X194469157Y-58891600D01*
X194640765Y-58750765D01*
X194781600Y-58579157D01*
X194886250Y-58383371D01*
X194950693Y-58170931D01*
X194972453Y-57950000D01*
X194972453Y-56350000D01*
X194950693Y-56129069D01*
X194886250Y-55916629D01*
X194781600Y-55720843D01*
X194640765Y-55549235D01*
X194469157Y-55408400D01*
X194273371Y-55303750D01*
X194060931Y-55239307D01*
X193840000Y-55217547D01*
X192240000Y-55217547D01*
X192019069Y-55239307D01*
X191806629Y-55303750D01*
X191610843Y-55408400D01*
X191439235Y-55549235D01*
X191298400Y-55720843D01*
X191193750Y-55916629D01*
X191129307Y-56129069D01*
X191107547Y-56350000D01*
X189252000Y-56350000D01*
X189252000Y-56325207D01*
X189177947Y-55952915D01*
X189032685Y-55602223D01*
X188821799Y-55286609D01*
X188553391Y-55018201D01*
X188237777Y-54807315D01*
X187887085Y-54662053D01*
X187514793Y-54588000D01*
X187135207Y-54588000D01*
X186762915Y-54662053D01*
X186412223Y-54807315D01*
X186096609Y-55018201D01*
X185828201Y-55286609D01*
X185617315Y-55602223D01*
X185472053Y-55952915D01*
X185398000Y-56325207D01*
X174545215Y-56325207D01*
X174597000Y-56064868D01*
X174597000Y-55695132D01*
X174524868Y-55332499D01*
X174383376Y-54990907D01*
X174177961Y-54683482D01*
X173916518Y-54422039D01*
X173721701Y-54291866D01*
X173749440Y-54266549D01*
X173910420Y-54047912D01*
X174025653Y-53802070D01*
X174062318Y-53681185D01*
X173939656Y-53467000D01*
X172847000Y-53467000D01*
X172847000Y-53487000D01*
X172593000Y-53487000D01*
X172593000Y-53467000D01*
X171500344Y-53467000D01*
X171377682Y-53681185D01*
X171414347Y-53802070D01*
X171529580Y-54047912D01*
X171690560Y-54266549D01*
X171718299Y-54291866D01*
X171523482Y-54422039D01*
X171262039Y-54683482D01*
X171056624Y-54990907D01*
X170915132Y-55332499D01*
X170843000Y-55695132D01*
X166982453Y-55695132D01*
X166982453Y-55130000D01*
X166960693Y-54909069D01*
X166896250Y-54696629D01*
X166849946Y-54610000D01*
X166896250Y-54523371D01*
X166960693Y-54310931D01*
X166982453Y-54090000D01*
X166982453Y-52998815D01*
X171377682Y-52998815D01*
X171500344Y-53213000D01*
X172593000Y-53213000D01*
X172593000Y-52119580D01*
X172847000Y-52119580D01*
X172847000Y-53213000D01*
X173939656Y-53213000D01*
X174062318Y-52998815D01*
X174025653Y-52877930D01*
X173910420Y-52632088D01*
X173749440Y-52413451D01*
X173548899Y-52230421D01*
X173316504Y-52090031D01*
X173061186Y-51997677D01*
X172847000Y-52119580D01*
X172593000Y-52119580D01*
X172378814Y-51997677D01*
X172123496Y-52090031D01*
X171891101Y-52230421D01*
X171690560Y-52413451D01*
X171529580Y-52632088D01*
X171414347Y-52877930D01*
X171377682Y-52998815D01*
X166982453Y-52998815D01*
X166982453Y-52590000D01*
X166960693Y-52369069D01*
X166896250Y-52156629D01*
X166791600Y-51960843D01*
X166725424Y-51880207D01*
X182858000Y-51880207D01*
X182858000Y-52259793D01*
X182932053Y-52632085D01*
X183077315Y-52982777D01*
X183288201Y-53298391D01*
X183556609Y-53566799D01*
X183872223Y-53777685D01*
X184222915Y-53922947D01*
X184595207Y-53997000D01*
X184974793Y-53997000D01*
X185347085Y-53922947D01*
X185697777Y-53777685D01*
X186013391Y-53566799D01*
X186281799Y-53298391D01*
X186492685Y-52982777D01*
X186637947Y-52632085D01*
X186712000Y-52259793D01*
X186712000Y-51880207D01*
X187303000Y-51880207D01*
X187303000Y-52259793D01*
X187377053Y-52632085D01*
X187522315Y-52982777D01*
X187733201Y-53298391D01*
X188001609Y-53566799D01*
X188317223Y-53777685D01*
X188667915Y-53922947D01*
X189040207Y-53997000D01*
X189419793Y-53997000D01*
X189792085Y-53922947D01*
X190142777Y-53777685D01*
X190458391Y-53566799D01*
X190726799Y-53298391D01*
X190937685Y-52982777D01*
X191082947Y-52632085D01*
X191139513Y-52347702D01*
X193496903Y-52347702D01*
X193568486Y-52591671D01*
X193823996Y-52712571D01*
X194098184Y-52781300D01*
X194380512Y-52795217D01*
X194660130Y-52753787D01*
X194926292Y-52658603D01*
X195051514Y-52591671D01*
X195123097Y-52347702D01*
X194310000Y-51534605D01*
X193496903Y-52347702D01*
X191139513Y-52347702D01*
X191157000Y-52259793D01*
X191157000Y-51880207D01*
X191082947Y-51507915D01*
X191048815Y-51425512D01*
X192869783Y-51425512D01*
X192911213Y-51705130D01*
X193006397Y-51971292D01*
X193073329Y-52096514D01*
X193317298Y-52168097D01*
X194130395Y-51355000D01*
X194489605Y-51355000D01*
X195302702Y-52168097D01*
X195546671Y-52096514D01*
X195667571Y-51841004D01*
X195736300Y-51566816D01*
X195750217Y-51284488D01*
X195708787Y-51004870D01*
X195613603Y-50738708D01*
X195546671Y-50613486D01*
X195302702Y-50541903D01*
X194489605Y-51355000D01*
X194130395Y-51355000D01*
X193317298Y-50541903D01*
X193073329Y-50613486D01*
X192952429Y-50868996D01*
X192883700Y-51143184D01*
X192869783Y-51425512D01*
X191048815Y-51425512D01*
X190937685Y-51157223D01*
X190726799Y-50841609D01*
X190458391Y-50573201D01*
X190142777Y-50362315D01*
X190142736Y-50362298D01*
X193496903Y-50362298D01*
X194310000Y-51175395D01*
X195123097Y-50362298D01*
X195051514Y-50118329D01*
X194796004Y-49997429D01*
X194521816Y-49928700D01*
X194239488Y-49914783D01*
X193959870Y-49956213D01*
X193693708Y-50051397D01*
X193568486Y-50118329D01*
X193496903Y-50362298D01*
X190142736Y-50362298D01*
X189792085Y-50217053D01*
X189419793Y-50143000D01*
X189040207Y-50143000D01*
X188667915Y-50217053D01*
X188317223Y-50362315D01*
X188001609Y-50573201D01*
X187733201Y-50841609D01*
X187522315Y-51157223D01*
X187377053Y-51507915D01*
X187303000Y-51880207D01*
X186712000Y-51880207D01*
X186637947Y-51507915D01*
X186492685Y-51157223D01*
X186281799Y-50841609D01*
X186013391Y-50573201D01*
X185697777Y-50362315D01*
X185347085Y-50217053D01*
X184974793Y-50143000D01*
X184595207Y-50143000D01*
X184222915Y-50217053D01*
X183872223Y-50362315D01*
X183556609Y-50573201D01*
X183288201Y-50841609D01*
X183077315Y-51157223D01*
X182932053Y-51507915D01*
X182858000Y-51880207D01*
X166725424Y-51880207D01*
X166650765Y-51789235D01*
X166479157Y-51648400D01*
X166283371Y-51543750D01*
X166070931Y-51479307D01*
X165850000Y-51457547D01*
X164988142Y-51457547D01*
X161777138Y-48246543D01*
X161816250Y-48173371D01*
X161849821Y-48062702D01*
X183971903Y-48062702D01*
X184043486Y-48306671D01*
X184298996Y-48427571D01*
X184573184Y-48496300D01*
X184855512Y-48510217D01*
X185135130Y-48468787D01*
X185401292Y-48373603D01*
X185526514Y-48306671D01*
X185598097Y-48062702D01*
X184785000Y-47249605D01*
X183971903Y-48062702D01*
X161849821Y-48062702D01*
X161880693Y-47960931D01*
X161902453Y-47740000D01*
X161902453Y-47140512D01*
X183344783Y-47140512D01*
X183386213Y-47420130D01*
X183481397Y-47686292D01*
X183548329Y-47811514D01*
X183792298Y-47883097D01*
X184605395Y-47070000D01*
X184964605Y-47070000D01*
X185777702Y-47883097D01*
X186021671Y-47811514D01*
X186142571Y-47556004D01*
X186211300Y-47281816D01*
X186225217Y-46999488D01*
X186183787Y-46719870D01*
X186088603Y-46453708D01*
X186021671Y-46328486D01*
X185777702Y-46256903D01*
X184964605Y-47070000D01*
X184605395Y-47070000D01*
X183792298Y-46256903D01*
X183548329Y-46328486D01*
X183427429Y-46583996D01*
X183358700Y-46858184D01*
X183344783Y-47140512D01*
X161902453Y-47140512D01*
X161902453Y-46240000D01*
X161886429Y-46077298D01*
X183971903Y-46077298D01*
X184785000Y-46890395D01*
X185510188Y-46165207D01*
X192383000Y-46165207D01*
X192383000Y-46544793D01*
X192457053Y-46917085D01*
X192602315Y-47267777D01*
X192813201Y-47583391D01*
X193081609Y-47851799D01*
X193397223Y-48062685D01*
X193747915Y-48207947D01*
X194120207Y-48282000D01*
X194499793Y-48282000D01*
X194872085Y-48207947D01*
X195222777Y-48062685D01*
X195538391Y-47851799D01*
X195806799Y-47583391D01*
X196017685Y-47267777D01*
X196162947Y-46917085D01*
X196237000Y-46544793D01*
X196237000Y-46165207D01*
X196162947Y-45792915D01*
X196017685Y-45442223D01*
X195806799Y-45126609D01*
X195538391Y-44858201D01*
X195222777Y-44647315D01*
X194872085Y-44502053D01*
X194730017Y-44473794D01*
X194926292Y-44403603D01*
X195051514Y-44336671D01*
X195123097Y-44092702D01*
X194310000Y-43279605D01*
X193496903Y-44092702D01*
X193568486Y-44336671D01*
X193823996Y-44457571D01*
X193889277Y-44473935D01*
X193747915Y-44502053D01*
X193397223Y-44647315D01*
X193081609Y-44858201D01*
X192813201Y-45126609D01*
X192602315Y-45442223D01*
X192457053Y-45792915D01*
X192383000Y-46165207D01*
X185510188Y-46165207D01*
X185598097Y-46077298D01*
X185526514Y-45833329D01*
X185271004Y-45712429D01*
X184996816Y-45643700D01*
X184714488Y-45629783D01*
X184434870Y-45671213D01*
X184168708Y-45766397D01*
X184043486Y-45833329D01*
X183971903Y-46077298D01*
X161886429Y-46077298D01*
X161880693Y-46019069D01*
X161816250Y-45806629D01*
X161711600Y-45610843D01*
X161570765Y-45439235D01*
X161399157Y-45298400D01*
X161203371Y-45193750D01*
X160990931Y-45129307D01*
X160770000Y-45107547D01*
X159908142Y-45107547D01*
X159188787Y-44388192D01*
X159149581Y-44340419D01*
X158958939Y-44183964D01*
X158788201Y-44092702D01*
X176986903Y-44092702D01*
X177058486Y-44336671D01*
X177313996Y-44457571D01*
X177588184Y-44526300D01*
X177870512Y-44540217D01*
X178150130Y-44498787D01*
X178416292Y-44403603D01*
X178541514Y-44336671D01*
X178613097Y-44092702D01*
X177800000Y-43279605D01*
X176986903Y-44092702D01*
X158788201Y-44092702D01*
X158741438Y-44067707D01*
X158505435Y-43996116D01*
X158321498Y-43978000D01*
X158321496Y-43978000D01*
X158260000Y-43971943D01*
X158198504Y-43978000D01*
X149757678Y-43978000D01*
X149620756Y-43647443D01*
X149302081Y-43170512D01*
X176359783Y-43170512D01*
X176401213Y-43450130D01*
X176496397Y-43716292D01*
X176563329Y-43841514D01*
X176807298Y-43913097D01*
X177620395Y-43100000D01*
X177979605Y-43100000D01*
X178792702Y-43913097D01*
X179036671Y-43841514D01*
X179157571Y-43586004D01*
X179226300Y-43311816D01*
X179240217Y-43029488D01*
X179198787Y-42749870D01*
X179103603Y-42483708D01*
X179036671Y-42358486D01*
X178792702Y-42286903D01*
X177979605Y-43100000D01*
X177620395Y-43100000D01*
X176807298Y-42286903D01*
X176563329Y-42358486D01*
X176442429Y-42613996D01*
X176373700Y-42888184D01*
X176359783Y-43170512D01*
X149302081Y-43170512D01*
X149255124Y-43100236D01*
X148789764Y-42634876D01*
X148242557Y-42269244D01*
X147851586Y-42107298D01*
X176986903Y-42107298D01*
X177800000Y-42920395D01*
X178613097Y-42107298D01*
X178541514Y-41863329D01*
X178286004Y-41742429D01*
X178011816Y-41673700D01*
X177729488Y-41659783D01*
X177449870Y-41701213D01*
X177183708Y-41796397D01*
X177058486Y-41863329D01*
X176986903Y-42107298D01*
X147851586Y-42107298D01*
X147634534Y-42017392D01*
X146989060Y-41889000D01*
X146330940Y-41889000D01*
X145685466Y-42017392D01*
X145077443Y-42269244D01*
X144530236Y-42634876D01*
X144064876Y-43100236D01*
X143699244Y-43647443D01*
X143447392Y-44255466D01*
X143319000Y-44900940D01*
X143319000Y-45559060D01*
X143447392Y-46204534D01*
X143699244Y-46812557D01*
X144064876Y-47359764D01*
X144530236Y-47825124D01*
X145077443Y-48190756D01*
X145685466Y-48442608D01*
X146330940Y-48571000D01*
X146989060Y-48571000D01*
X147634534Y-48442608D01*
X148242557Y-48190756D01*
X148789764Y-47825124D01*
X149255124Y-47359764D01*
X149620756Y-46812557D01*
X149757678Y-46482000D01*
X157741405Y-46482000D01*
X158137547Y-46878142D01*
X158137547Y-47740000D01*
X158159307Y-47960931D01*
X158223750Y-48173371D01*
X158328400Y-48369157D01*
X158469235Y-48540765D01*
X158640843Y-48681600D01*
X158836629Y-48786250D01*
X158890375Y-48802554D01*
X158967612Y-48947053D01*
X158973965Y-48958939D01*
X159130420Y-49149581D01*
X159178188Y-49188783D01*
X163217547Y-53228142D01*
X163217547Y-54090000D01*
X163239307Y-54310931D01*
X163303750Y-54523371D01*
X163350054Y-54610000D01*
X163340433Y-54628000D01*
X161897000Y-54628000D01*
X161897000Y-54425132D01*
X161824868Y-54062499D01*
X161683376Y-53720907D01*
X161477961Y-53413482D01*
X161216518Y-53152039D01*
X160909093Y-52946624D01*
X160567501Y-52805132D01*
X160204868Y-52733000D01*
X159835132Y-52733000D01*
X159472499Y-52805132D01*
X159130907Y-52946624D01*
X158823482Y-53152039D01*
X158617521Y-53358000D01*
X146043190Y-53358000D01*
X145798391Y-53113201D01*
X145482777Y-52902315D01*
X145132085Y-52757053D01*
X144759793Y-52683000D01*
X144380207Y-52683000D01*
X144007915Y-52757053D01*
X143657223Y-52902315D01*
X143341609Y-53113201D01*
X143073201Y-53381609D01*
X142862315Y-53697223D01*
X142853853Y-53717652D01*
X142797220Y-53530958D01*
X142669468Y-53291950D01*
X142497542Y-53082458D01*
X142288050Y-52910532D01*
X142049042Y-52782780D01*
X141789703Y-52704110D01*
X141520000Y-52677547D01*
X140420000Y-52677547D01*
X140150297Y-52704110D01*
X139890958Y-52782780D01*
X139651950Y-52910532D01*
X139442458Y-53082458D01*
X139270532Y-53291950D01*
X139142780Y-53530958D01*
X139064110Y-53790297D01*
X139042453Y-54010188D01*
X139042453Y-53860000D01*
X139020693Y-53639069D01*
X138956250Y-53426629D01*
X138851600Y-53230843D01*
X138710765Y-53059235D01*
X138539157Y-52918400D01*
X138343371Y-52813750D01*
X138130931Y-52749307D01*
X137910000Y-52727547D01*
X136410000Y-52727547D01*
X136189069Y-52749307D01*
X135976629Y-52813750D01*
X135780843Y-52918400D01*
X135609235Y-53059235D01*
X135468400Y-53230843D01*
X135363750Y-53426629D01*
X135299307Y-53639069D01*
X135277547Y-53860000D01*
X131260991Y-53860000D01*
X131203376Y-53720907D01*
X130997961Y-53413482D01*
X130736518Y-53152039D01*
X130429093Y-52946624D01*
X130087501Y-52805132D01*
X129724868Y-52733000D01*
X129355132Y-52733000D01*
X128992499Y-52805132D01*
X128650907Y-52946624D01*
X128343482Y-53152039D01*
X128082039Y-53413482D01*
X127876624Y-53720907D01*
X127735132Y-54062499D01*
X127663000Y-54425132D01*
X104552000Y-54425132D01*
X104552000Y-50610207D01*
X122533000Y-50610207D01*
X122533000Y-50989793D01*
X122607053Y-51362085D01*
X122752315Y-51712777D01*
X122963201Y-52028391D01*
X123231609Y-52296799D01*
X123547223Y-52507685D01*
X123897915Y-52652947D01*
X124270207Y-52727000D01*
X124649793Y-52727000D01*
X125022085Y-52652947D01*
X125372777Y-52507685D01*
X125688391Y-52296799D01*
X125956799Y-52028391D01*
X126167685Y-51712777D01*
X126312947Y-51362085D01*
X126387000Y-50989793D01*
X126387000Y-50610207D01*
X126312947Y-50237915D01*
X126167685Y-49887223D01*
X125956799Y-49571609D01*
X125688391Y-49303201D01*
X125372777Y-49092315D01*
X125022085Y-48947053D01*
X124649793Y-48873000D01*
X124270207Y-48873000D01*
X123897915Y-48947053D01*
X123547223Y-49092315D01*
X123231609Y-49303201D01*
X122963201Y-49571609D01*
X122752315Y-49887223D01*
X122607053Y-50237915D01*
X122533000Y-50610207D01*
X104552000Y-50610207D01*
X104552000Y-47849009D01*
X104463347Y-46948898D01*
X104112998Y-45793954D01*
X103645860Y-44919999D01*
X122277547Y-44919999D01*
X122277547Y-46520001D01*
X122304110Y-46789704D01*
X122382780Y-47049042D01*
X122510532Y-47288050D01*
X122682458Y-47497542D01*
X122891950Y-47669468D01*
X123130958Y-47797220D01*
X123390296Y-47875890D01*
X123659999Y-47902453D01*
X125260001Y-47902453D01*
X125529704Y-47875890D01*
X125789042Y-47797220D01*
X126028050Y-47669468D01*
X126237542Y-47497542D01*
X126409468Y-47288050D01*
X126537220Y-47049042D01*
X126615890Y-46789704D01*
X126642453Y-46520001D01*
X126642453Y-44919999D01*
X126615890Y-44650296D01*
X126537220Y-44390958D01*
X126409468Y-44151950D01*
X126237542Y-43942458D01*
X126028050Y-43770532D01*
X125789042Y-43642780D01*
X125529704Y-43564110D01*
X125260001Y-43537547D01*
X123659999Y-43537547D01*
X123390296Y-43564110D01*
X123130958Y-43642780D01*
X122891950Y-43770532D01*
X122682458Y-43942458D01*
X122510532Y-44151950D01*
X122382780Y-44390958D01*
X122304110Y-44650296D01*
X122277547Y-44919999D01*
X103645860Y-44919999D01*
X103544063Y-44729551D01*
X102778405Y-43796595D01*
X101845449Y-43030937D01*
X101460167Y-42825000D01*
X101845448Y-42619063D01*
X102207420Y-42322000D01*
X110155991Y-42322000D01*
X111056102Y-42233347D01*
X112211046Y-41882998D01*
X113275449Y-41314063D01*
X114208405Y-40548405D01*
X114974063Y-39615449D01*
X115542998Y-38551046D01*
X115893347Y-37396102D01*
X115949103Y-36830000D01*
X118303355Y-36830000D01*
X118421653Y-38031102D01*
X118772002Y-39186046D01*
X119340937Y-40250449D01*
X120106595Y-41183405D01*
X121039551Y-41949063D01*
X122103954Y-42517998D01*
X123258898Y-42868347D01*
X124159009Y-42957000D01*
X136300991Y-42957000D01*
X137201102Y-42868347D01*
X138356046Y-42517998D01*
X139420449Y-41949063D01*
X140353405Y-41183405D01*
X141119063Y-40250449D01*
X141687998Y-39186046D01*
X142038347Y-38031102D01*
X142156645Y-36830000D01*
X142124236Y-36500940D01*
X151719000Y-36500940D01*
X151719000Y-37159060D01*
X151847392Y-37804534D01*
X152099244Y-38412557D01*
X152464876Y-38959764D01*
X152930236Y-39425124D01*
X153477443Y-39790756D01*
X154085466Y-40042608D01*
X154730940Y-40171000D01*
X155389060Y-40171000D01*
X156034534Y-40042608D01*
X156642557Y-39790756D01*
X157189764Y-39425124D01*
X157655124Y-38959764D01*
X158020756Y-38412557D01*
X158212209Y-37950349D01*
X167465500Y-37950349D01*
X167465500Y-38249652D01*
X167495589Y-38555153D01*
X167614497Y-38947140D01*
X167807594Y-39308398D01*
X168067457Y-39625043D01*
X168384102Y-39884906D01*
X168745361Y-40078003D01*
X169137348Y-40196911D01*
X169545000Y-40237061D01*
X169952653Y-40196911D01*
X170344640Y-40078003D01*
X170705898Y-39884906D01*
X170815000Y-39795369D01*
X170924102Y-39884906D01*
X171285361Y-40078003D01*
X171677348Y-40196911D01*
X172085000Y-40237061D01*
X172492653Y-40196911D01*
X172884640Y-40078003D01*
X173245898Y-39884906D01*
X173562543Y-39625043D01*
X173822406Y-39308398D01*
X174015503Y-38947139D01*
X174134411Y-38555152D01*
X174164500Y-38249651D01*
X174164500Y-37950348D01*
X174160547Y-37910207D01*
X175873000Y-37910207D01*
X175873000Y-38289793D01*
X175947053Y-38662085D01*
X176092315Y-39012777D01*
X176303201Y-39328391D01*
X176571609Y-39596799D01*
X176887223Y-39807685D01*
X177237915Y-39952947D01*
X177610207Y-40027000D01*
X177989793Y-40027000D01*
X178362085Y-39952947D01*
X178712777Y-39807685D01*
X179028391Y-39596799D01*
X179296799Y-39328391D01*
X179507685Y-39012777D01*
X179652947Y-38662085D01*
X179727000Y-38289793D01*
X179727000Y-37950349D01*
X183975500Y-37950349D01*
X183975500Y-38249652D01*
X184005589Y-38555153D01*
X184124497Y-38947140D01*
X184317594Y-39308398D01*
X184577457Y-39625043D01*
X184894102Y-39884906D01*
X185255361Y-40078003D01*
X185647348Y-40196911D01*
X186055000Y-40237061D01*
X186462653Y-40196911D01*
X186854640Y-40078003D01*
X187215898Y-39884906D01*
X187325000Y-39795369D01*
X187434102Y-39884906D01*
X187795361Y-40078003D01*
X188187348Y-40196911D01*
X188307587Y-40208753D01*
X188001609Y-40413201D01*
X187733201Y-40681609D01*
X187522315Y-40997223D01*
X187377053Y-41347915D01*
X187303000Y-41720207D01*
X187303000Y-42099793D01*
X187377053Y-42472085D01*
X187522315Y-42822777D01*
X187733201Y-43138391D01*
X188001609Y-43406799D01*
X188317223Y-43617685D01*
X188667915Y-43762947D01*
X189040207Y-43837000D01*
X189419793Y-43837000D01*
X189792085Y-43762947D01*
X190142777Y-43617685D01*
X190458391Y-43406799D01*
X190694678Y-43170512D01*
X192869783Y-43170512D01*
X192911213Y-43450130D01*
X193006397Y-43716292D01*
X193073329Y-43841514D01*
X193317298Y-43913097D01*
X194130395Y-43100000D01*
X194489605Y-43100000D01*
X195302702Y-43913097D01*
X195546671Y-43841514D01*
X195667571Y-43586004D01*
X195736300Y-43311816D01*
X195750217Y-43029488D01*
X195708787Y-42749870D01*
X195613603Y-42483708D01*
X195546671Y-42358486D01*
X195302702Y-42286903D01*
X194489605Y-43100000D01*
X194130395Y-43100000D01*
X193317298Y-42286903D01*
X193073329Y-42358486D01*
X192952429Y-42613996D01*
X192883700Y-42888184D01*
X192869783Y-43170512D01*
X190694678Y-43170512D01*
X190726799Y-43138391D01*
X190937685Y-42822777D01*
X191082947Y-42472085D01*
X191155507Y-42107298D01*
X193496903Y-42107298D01*
X194310000Y-42920395D01*
X195123097Y-42107298D01*
X195051514Y-41863329D01*
X194796004Y-41742429D01*
X194521816Y-41673700D01*
X194239488Y-41659783D01*
X193959870Y-41701213D01*
X193693708Y-41796397D01*
X193568486Y-41863329D01*
X193496903Y-42107298D01*
X191155507Y-42107298D01*
X191157000Y-42099793D01*
X191157000Y-41720207D01*
X191082947Y-41347915D01*
X190937685Y-40997223D01*
X190726799Y-40681609D01*
X190458391Y-40413201D01*
X190142777Y-40202315D01*
X189792085Y-40057053D01*
X189530995Y-40005119D01*
X189755898Y-39884906D01*
X190072543Y-39625043D01*
X190332406Y-39308398D01*
X190525503Y-38947139D01*
X190644411Y-38555152D01*
X190674500Y-38249651D01*
X190674500Y-37950348D01*
X190670547Y-37910207D01*
X192383000Y-37910207D01*
X192383000Y-38289793D01*
X192457053Y-38662085D01*
X192602315Y-39012777D01*
X192813201Y-39328391D01*
X193081609Y-39596799D01*
X193397223Y-39807685D01*
X193747915Y-39952947D01*
X194120207Y-40027000D01*
X194499793Y-40027000D01*
X194872085Y-39952947D01*
X195222777Y-39807685D01*
X195538391Y-39596799D01*
X195806799Y-39328391D01*
X196017685Y-39012777D01*
X196162947Y-38662085D01*
X196237000Y-38289793D01*
X196237000Y-37910207D01*
X196162947Y-37537915D01*
X196017685Y-37187223D01*
X195806799Y-36871609D01*
X195538391Y-36603201D01*
X195222777Y-36392315D01*
X194872085Y-36247053D01*
X194499793Y-36173000D01*
X194120207Y-36173000D01*
X193747915Y-36247053D01*
X193397223Y-36392315D01*
X193081609Y-36603201D01*
X192813201Y-36871609D01*
X192602315Y-37187223D01*
X192457053Y-37537915D01*
X192383000Y-37910207D01*
X190670547Y-37910207D01*
X190644411Y-37644847D01*
X190525503Y-37252860D01*
X190332406Y-36891602D01*
X190072543Y-36574957D01*
X189755898Y-36315094D01*
X189394639Y-36121997D01*
X189002652Y-36003089D01*
X188595000Y-35962939D01*
X188187347Y-36003089D01*
X187795360Y-36121997D01*
X187434102Y-36315094D01*
X187325000Y-36404631D01*
X187215898Y-36315094D01*
X186854639Y-36121997D01*
X186462652Y-36003089D01*
X186055000Y-35962939D01*
X185647347Y-36003089D01*
X185255360Y-36121997D01*
X184894102Y-36315094D01*
X184577457Y-36574957D01*
X184317594Y-36891602D01*
X184124497Y-37252861D01*
X184005589Y-37644848D01*
X183975500Y-37950349D01*
X179727000Y-37950349D01*
X179727000Y-37910207D01*
X179652947Y-37537915D01*
X179507685Y-37187223D01*
X179296799Y-36871609D01*
X179028391Y-36603201D01*
X178712777Y-36392315D01*
X178362085Y-36247053D01*
X177989793Y-36173000D01*
X177610207Y-36173000D01*
X177237915Y-36247053D01*
X176887223Y-36392315D01*
X176571609Y-36603201D01*
X176303201Y-36871609D01*
X176092315Y-37187223D01*
X175947053Y-37537915D01*
X175873000Y-37910207D01*
X174160547Y-37910207D01*
X174134411Y-37644847D01*
X174015503Y-37252860D01*
X173822406Y-36891602D01*
X173562543Y-36574957D01*
X173245898Y-36315094D01*
X172884639Y-36121997D01*
X172492652Y-36003089D01*
X172085000Y-35962939D01*
X171677347Y-36003089D01*
X171285360Y-36121997D01*
X170924102Y-36315094D01*
X170815000Y-36404631D01*
X170705898Y-36315094D01*
X170344639Y-36121997D01*
X169952652Y-36003089D01*
X169545000Y-35962939D01*
X169137347Y-36003089D01*
X168745360Y-36121997D01*
X168384102Y-36315094D01*
X168067457Y-36574957D01*
X167807594Y-36891602D01*
X167614497Y-37252861D01*
X167495589Y-37644848D01*
X167465500Y-37950349D01*
X158212209Y-37950349D01*
X158272608Y-37804534D01*
X158401000Y-37159060D01*
X158401000Y-36500940D01*
X158272608Y-35855466D01*
X158020756Y-35247443D01*
X157655124Y-34700236D01*
X157189764Y-34234876D01*
X156642557Y-33869244D01*
X156034534Y-33617392D01*
X155389060Y-33489000D01*
X154730940Y-33489000D01*
X154085466Y-33617392D01*
X153477443Y-33869244D01*
X152930236Y-34234876D01*
X152464876Y-34700236D01*
X152099244Y-35247443D01*
X151847392Y-35855466D01*
X151719000Y-36500940D01*
X142124236Y-36500940D01*
X142038347Y-35628898D01*
X141687998Y-34473954D01*
X141119063Y-33409551D01*
X140353405Y-32476595D01*
X139420449Y-31710937D01*
X138356046Y-31142002D01*
X137201102Y-30791653D01*
X136300991Y-30703000D01*
X124159009Y-30703000D01*
X123258898Y-30791653D01*
X122103954Y-31142002D01*
X121039551Y-31710937D01*
X120106595Y-32476595D01*
X119340937Y-33409551D01*
X118772002Y-34473954D01*
X118421653Y-35628898D01*
X118303355Y-36830000D01*
X115949103Y-36830000D01*
X116011645Y-36195000D01*
X115893347Y-34993898D01*
X115542998Y-33838954D01*
X114974063Y-32774551D01*
X114208405Y-31841595D01*
X113275449Y-31075937D01*
X112211046Y-30507002D01*
X111956328Y-30429734D01*
X144839871Y-30429734D01*
X145081699Y-30818411D01*
X145577982Y-31080429D01*
X146115845Y-31240593D01*
X146674621Y-31292748D01*
X147232834Y-31234889D01*
X147769034Y-31069240D01*
X148238301Y-30818411D01*
X148480129Y-30429734D01*
X146660000Y-28609605D01*
X144839871Y-30429734D01*
X111956328Y-30429734D01*
X111056102Y-30156653D01*
X110155991Y-30068000D01*
X98124009Y-30068000D01*
X97223898Y-30156653D01*
X96068954Y-30507002D01*
X95004551Y-31075937D01*
X94071595Y-31841595D01*
X93305937Y-32774551D01*
X92737002Y-33838954D01*
X92386653Y-34993898D01*
X92268355Y-36195000D01*
X89027000Y-36195000D01*
X89027000Y-28444621D01*
X143797252Y-28444621D01*
X143855111Y-29002834D01*
X144020760Y-29539034D01*
X144271589Y-30008301D01*
X144660266Y-30250129D01*
X146480395Y-28430000D01*
X146839605Y-28430000D01*
X148659734Y-30250129D01*
X149048411Y-30008301D01*
X149310429Y-29512018D01*
X149470593Y-28974155D01*
X149522748Y-28415379D01*
X149464889Y-27857166D01*
X149299240Y-27320966D01*
X149048411Y-26851699D01*
X148659734Y-26609871D01*
X146839605Y-28430000D01*
X146480395Y-28430000D01*
X144660266Y-26609871D01*
X144271589Y-26851699D01*
X144009571Y-27347982D01*
X143849407Y-27885845D01*
X143797252Y-28444621D01*
X89027000Y-28444621D01*
X89027000Y-26430266D01*
X144839871Y-26430266D01*
X146660000Y-28250395D01*
X148480129Y-26430266D01*
X148238301Y-26041589D01*
X147742018Y-25779571D01*
X147204155Y-25619407D01*
X146645379Y-25567252D01*
X146087166Y-25625111D01*
X145550966Y-25790760D01*
X145081699Y-26041589D01*
X144839871Y-26430266D01*
X89027000Y-26430266D01*
X89027000Y-20883560D01*
X89261639Y-21118199D01*
X89708281Y-21416636D01*
X90204563Y-21622203D01*
X90731414Y-21727000D01*
X91268586Y-21727000D01*
X91795437Y-21622203D01*
X92291719Y-21416636D01*
X92680830Y-21156640D01*
X166668000Y-21156640D01*
X166668000Y-21723360D01*
X166778561Y-22279190D01*
X166995435Y-22802771D01*
X167310288Y-23273981D01*
X167711019Y-23674712D01*
X168182229Y-23989565D01*
X168705810Y-24206439D01*
X169261640Y-24317000D01*
X169828360Y-24317000D01*
X170384190Y-24206439D01*
X170907771Y-23989565D01*
X171378981Y-23674712D01*
X171779712Y-23273981D01*
X172094565Y-22802771D01*
X172311439Y-22279190D01*
X172422000Y-21723360D01*
X172422000Y-21156640D01*
X183178000Y-21156640D01*
X183178000Y-21723360D01*
X183288561Y-22279190D01*
X183505435Y-22802771D01*
X183820288Y-23273981D01*
X184221019Y-23674712D01*
X184692229Y-23989565D01*
X185215810Y-24206439D01*
X185771640Y-24317000D01*
X186338360Y-24317000D01*
X186894190Y-24206439D01*
X187417771Y-23989565D01*
X187888981Y-23674712D01*
X188289712Y-23273981D01*
X188604565Y-22802771D01*
X188821439Y-22279190D01*
X188932000Y-21723360D01*
X188932000Y-21156640D01*
X188821439Y-20600810D01*
X188604565Y-20077229D01*
X188289712Y-19606019D01*
X187888981Y-19205288D01*
X187417771Y-18890435D01*
X186894190Y-18673561D01*
X186338360Y-18563000D01*
X185771640Y-18563000D01*
X185215810Y-18673561D01*
X184692229Y-18890435D01*
X184221019Y-19205288D01*
X183820288Y-19606019D01*
X183505435Y-20077229D01*
X183288561Y-20600810D01*
X183178000Y-21156640D01*
X172422000Y-21156640D01*
X172311439Y-20600810D01*
X172094565Y-20077229D01*
X171779712Y-19606019D01*
X171378981Y-19205288D01*
X170907771Y-18890435D01*
X170384190Y-18673561D01*
X169828360Y-18563000D01*
X169261640Y-18563000D01*
X168705810Y-18673561D01*
X168182229Y-18890435D01*
X167711019Y-19205288D01*
X167310288Y-19606019D01*
X166995435Y-20077229D01*
X166778561Y-20600810D01*
X166668000Y-21156640D01*
X92680830Y-21156640D01*
X92738361Y-21118199D01*
X93118199Y-20738361D01*
X93416636Y-20291719D01*
X93622203Y-19795437D01*
X93727000Y-19268586D01*
X93727000Y-18731414D01*
X93622203Y-18204563D01*
X93416636Y-17708281D01*
X93118199Y-17261639D01*
X92738361Y-16881801D01*
X92371991Y-16637000D01*
X195628009Y-16637000D01*
X195261639Y-16881801D01*
%TA.AperFunction,Conductor*%
D29*
G36*
X195261639Y-16881801D02*
G01*
X194881801Y-17261639D01*
X194583364Y-17708281D01*
X194377797Y-18204563D01*
X194273000Y-18731414D01*
X194273000Y-19268586D01*
X194377797Y-19795437D01*
X194583364Y-20291719D01*
X194881801Y-20738361D01*
X195261639Y-21118199D01*
X195708281Y-21416636D01*
X196204563Y-21622203D01*
X196731414Y-21727000D01*
X197268586Y-21727000D01*
X197795437Y-21622203D01*
X198291719Y-21416636D01*
X198738361Y-21118199D01*
X199118199Y-20738361D01*
X199263000Y-20521651D01*
X199263000Y-112478349D01*
X199118199Y-112261639D01*
X198738361Y-111881801D01*
X198291719Y-111583364D01*
X197795437Y-111377797D01*
X197268586Y-111273000D01*
X196731414Y-111273000D01*
X196204563Y-111377797D01*
X195708281Y-111583364D01*
X195261639Y-111881801D01*
X194881801Y-112261639D01*
X194583364Y-112708281D01*
X194377797Y-113204563D01*
X194273000Y-113731414D01*
X194273000Y-114268586D01*
X194377797Y-114795437D01*
X194583364Y-115291719D01*
X194881801Y-115738361D01*
X195261639Y-116118199D01*
X195708281Y-116416636D01*
X196204563Y-116622203D01*
X196661031Y-116713000D01*
X91338969Y-116713000D01*
X91795437Y-116622203D01*
X92291719Y-116416636D01*
X92738361Y-116118199D01*
X93118199Y-115738361D01*
X93416636Y-115291719D01*
X93622203Y-114795437D01*
X93727000Y-114268586D01*
X93727000Y-113731414D01*
X93622203Y-113204563D01*
X93416636Y-112708281D01*
X93118199Y-112261639D01*
X92738361Y-111881801D01*
X92291719Y-111583364D01*
X91795437Y-111377797D01*
X91268586Y-111273000D01*
X90731414Y-111273000D01*
X90204563Y-111377797D01*
X89708281Y-111583364D01*
X89261639Y-111881801D01*
X89027000Y-112116440D01*
X89027000Y-99300990D01*
X93568000Y-99300990D01*
X93656653Y-100201101D01*
X94007002Y-101356045D01*
X94575937Y-102420448D01*
X95341595Y-103353405D01*
X96274551Y-104119063D01*
X97338954Y-104687998D01*
X98493898Y-105038347D01*
X99695000Y-105156645D01*
X100896101Y-105038347D01*
X102051045Y-104687998D01*
X103115448Y-104119063D01*
X104048405Y-103353405D01*
X104814063Y-102420449D01*
X105354048Y-101410207D01*
X106023000Y-101410207D01*
X106023000Y-101789793D01*
X106097053Y-102162085D01*
X106242315Y-102512777D01*
X106453201Y-102828391D01*
X106721609Y-103096799D01*
X107037223Y-103307685D01*
X107387915Y-103452947D01*
X107760207Y-103527000D01*
X108139793Y-103527000D01*
X108512085Y-103452947D01*
X108862777Y-103307685D01*
X109178391Y-103096799D01*
X109446799Y-102828391D01*
X109657685Y-102512777D01*
X109802947Y-102162085D01*
X109877000Y-101789793D01*
X109877000Y-101410207D01*
X109802947Y-101037915D01*
X109657685Y-100687223D01*
X109446799Y-100371609D01*
X109178391Y-100103201D01*
X108862777Y-99892315D01*
X108512085Y-99747053D01*
X108139793Y-99673000D01*
X107760207Y-99673000D01*
X107387915Y-99747053D01*
X107037223Y-99892315D01*
X106721609Y-100103201D01*
X106453201Y-100371609D01*
X106242315Y-100687223D01*
X106097053Y-101037915D01*
X106023000Y-101410207D01*
X105354048Y-101410207D01*
X105382998Y-101356046D01*
X105733347Y-100201102D01*
X105822000Y-99300991D01*
X105822000Y-99300990D01*
X112618000Y-99300990D01*
X112706653Y-100201101D01*
X113057002Y-101356045D01*
X113625937Y-102420448D01*
X114391595Y-103353405D01*
X115324551Y-104119063D01*
X116388954Y-104687998D01*
X117543898Y-105038347D01*
X118745000Y-105156645D01*
X119946101Y-105038347D01*
X121101045Y-104687998D01*
X122165448Y-104119063D01*
X123098405Y-103353405D01*
X123864063Y-102420449D01*
X124404048Y-101410207D01*
X125073000Y-101410207D01*
X125073000Y-101789793D01*
X125147053Y-102162085D01*
X125292315Y-102512777D01*
X125503201Y-102828391D01*
X125771609Y-103096799D01*
X126087223Y-103307685D01*
X126437915Y-103452947D01*
X126810207Y-103527000D01*
X127189793Y-103527000D01*
X127562085Y-103452947D01*
X127912777Y-103307685D01*
X128228391Y-103096799D01*
X128496799Y-102828391D01*
X128707685Y-102512777D01*
X128852947Y-102162085D01*
X128927000Y-101789793D01*
X128927000Y-101410207D01*
X128852947Y-101037915D01*
X128707685Y-100687223D01*
X128496799Y-100371609D01*
X128228391Y-100103201D01*
X127912777Y-99892315D01*
X127562085Y-99747053D01*
X127189793Y-99673000D01*
X126810207Y-99673000D01*
X126437915Y-99747053D01*
X126087223Y-99892315D01*
X125771609Y-100103201D01*
X125503201Y-100371609D01*
X125292315Y-100687223D01*
X125147053Y-101037915D01*
X125073000Y-101410207D01*
X124404048Y-101410207D01*
X124432998Y-101356046D01*
X124783347Y-100201102D01*
X124872000Y-99300991D01*
X124872000Y-99300990D01*
X135478000Y-99300990D01*
X135566653Y-100201101D01*
X135917002Y-101356045D01*
X136485937Y-102420448D01*
X137251595Y-103353405D01*
X138184551Y-104119063D01*
X139248954Y-104687998D01*
X140403898Y-105038347D01*
X141605000Y-105156645D01*
X142806101Y-105038347D01*
X143961045Y-104687998D01*
X145025448Y-104119063D01*
X145958405Y-103353405D01*
X146724063Y-102420449D01*
X147264048Y-101410207D01*
X147933000Y-101410207D01*
X147933000Y-101789793D01*
X148007053Y-102162085D01*
X148152315Y-102512777D01*
X148363201Y-102828391D01*
X148631609Y-103096799D01*
X148947223Y-103307685D01*
X149297915Y-103452947D01*
X149670207Y-103527000D01*
X150049793Y-103527000D01*
X150422085Y-103452947D01*
X150772777Y-103307685D01*
X151088391Y-103096799D01*
X151356799Y-102828391D01*
X151567685Y-102512777D01*
X151712947Y-102162085D01*
X151787000Y-101789793D01*
X151787000Y-101410207D01*
X151712947Y-101037915D01*
X151567685Y-100687223D01*
X151356799Y-100371609D01*
X151088391Y-100103201D01*
X150772777Y-99892315D01*
X150422085Y-99747053D01*
X150049793Y-99673000D01*
X149670207Y-99673000D01*
X149297915Y-99747053D01*
X148947223Y-99892315D01*
X148631609Y-100103201D01*
X148363201Y-100371609D01*
X148152315Y-100687223D01*
X148007053Y-101037915D01*
X147933000Y-101410207D01*
X147264048Y-101410207D01*
X147292998Y-101356046D01*
X147643347Y-100201102D01*
X147732000Y-99300991D01*
X147732000Y-99300990D01*
X154528000Y-99300990D01*
X154616653Y-100201101D01*
X154967002Y-101356045D01*
X155535937Y-102420448D01*
X156301595Y-103353405D01*
X157234551Y-104119063D01*
X158298954Y-104687998D01*
X159453898Y-105038347D01*
X160655000Y-105156645D01*
X161856101Y-105038347D01*
X163011045Y-104687998D01*
X164075448Y-104119063D01*
X165008405Y-103353405D01*
X165774063Y-102420449D01*
X166314048Y-101410207D01*
X166983000Y-101410207D01*
X166983000Y-101789793D01*
X167057053Y-102162085D01*
X167202315Y-102512777D01*
X167413201Y-102828391D01*
X167681609Y-103096799D01*
X167997223Y-103307685D01*
X168347915Y-103452947D01*
X168720207Y-103527000D01*
X169099793Y-103527000D01*
X169472085Y-103452947D01*
X169822777Y-103307685D01*
X170138391Y-103096799D01*
X170406799Y-102828391D01*
X170617685Y-102512777D01*
X170762947Y-102162085D01*
X170837000Y-101789793D01*
X170837000Y-101410207D01*
X170762947Y-101037915D01*
X170617685Y-100687223D01*
X170406799Y-100371609D01*
X170138391Y-100103201D01*
X169822777Y-99892315D01*
X169472085Y-99747053D01*
X169099793Y-99673000D01*
X168720207Y-99673000D01*
X168347915Y-99747053D01*
X167997223Y-99892315D01*
X167681609Y-100103201D01*
X167413201Y-100371609D01*
X167202315Y-100687223D01*
X167057053Y-101037915D01*
X166983000Y-101410207D01*
X166314048Y-101410207D01*
X166342998Y-101356046D01*
X166693347Y-100201102D01*
X166782000Y-99300991D01*
X166782000Y-87430358D01*
X166883000Y-87430358D01*
X166883000Y-87829642D01*
X166960896Y-88221254D01*
X167113696Y-88590145D01*
X167335526Y-88922137D01*
X167617863Y-89204474D01*
X167949855Y-89426304D01*
X168318746Y-89579104D01*
X168353312Y-89585980D01*
X168347915Y-89587053D01*
X167997223Y-89732315D01*
X167681609Y-89943201D01*
X167413201Y-90211609D01*
X167202315Y-90527223D01*
X167057053Y-90877915D01*
X166983000Y-91250207D01*
X166983000Y-91629793D01*
X167057053Y-92002085D01*
X167202315Y-92352777D01*
X167413201Y-92668391D01*
X167681609Y-92936799D01*
X167997223Y-93147685D01*
X168347915Y-93292947D01*
X168720207Y-93367000D01*
X169099793Y-93367000D01*
X169472085Y-93292947D01*
X169822777Y-93147685D01*
X170138391Y-92936799D01*
X170406799Y-92668391D01*
X170617685Y-92352777D01*
X170762947Y-92002085D01*
X170837000Y-91629793D01*
X170837000Y-91250207D01*
X170762947Y-90877915D01*
X170617685Y-90527223D01*
X170406799Y-90211609D01*
X170138391Y-89943201D01*
X169822777Y-89732315D01*
X169472085Y-89587053D01*
X169466688Y-89585980D01*
X169501254Y-89579104D01*
X169870145Y-89426304D01*
X170202137Y-89204474D01*
X170484474Y-88922137D01*
X170706304Y-88590145D01*
X170859104Y-88221254D01*
X170937000Y-87829642D01*
X170937000Y-87430358D01*
X170859104Y-87038746D01*
X170706304Y-86669855D01*
X170484474Y-86337863D01*
X170392984Y-86246373D01*
X170399502Y-86234180D01*
X170435812Y-86114482D01*
X170448072Y-85990000D01*
X170445000Y-85375750D01*
X170286250Y-85217000D01*
X169037000Y-85217000D01*
X169037000Y-85237000D01*
X168783000Y-85237000D01*
X168783000Y-85217000D01*
X167533750Y-85217000D01*
X167375000Y-85375750D01*
X167371928Y-85990000D01*
X167384188Y-86114482D01*
X167420498Y-86234180D01*
X167427016Y-86246373D01*
X167335526Y-86337863D01*
X167113696Y-86669855D01*
X166960896Y-87038746D01*
X166883000Y-87430358D01*
X166782000Y-87430358D01*
X166782000Y-87329009D01*
X166693347Y-86428898D01*
X166342998Y-85273954D01*
X165774063Y-84209551D01*
X165758018Y-84190000D01*
X167371928Y-84190000D01*
X167375000Y-84804250D01*
X167533750Y-84963000D01*
X168783000Y-84963000D01*
X168783000Y-83713750D01*
X169037000Y-83713750D01*
X169037000Y-84963000D01*
X170286250Y-84963000D01*
X170445000Y-84804250D01*
X170448072Y-84190000D01*
X170435812Y-84065518D01*
X170399502Y-83945820D01*
X170340537Y-83835506D01*
X170261185Y-83738815D01*
X170164494Y-83659463D01*
X170054180Y-83600498D01*
X169934482Y-83564188D01*
X169810000Y-83551928D01*
X169195750Y-83555000D01*
X169037000Y-83713750D01*
X168783000Y-83713750D01*
X168624250Y-83555000D01*
X168010000Y-83551928D01*
X167885518Y-83564188D01*
X167765820Y-83600498D01*
X167655506Y-83659463D01*
X167558815Y-83738815D01*
X167479463Y-83835506D01*
X167420498Y-83945820D01*
X167384188Y-84065518D01*
X167371928Y-84190000D01*
X165758018Y-84190000D01*
X165008405Y-83276595D01*
X164075449Y-82510937D01*
X163011046Y-81942002D01*
X161856102Y-81591653D01*
X160655000Y-81473355D01*
X159453899Y-81591653D01*
X158298955Y-81942002D01*
X157234552Y-82510937D01*
X156301596Y-83276595D01*
X155535938Y-84209551D01*
X154967003Y-85273954D01*
X154616654Y-86428898D01*
X154528001Y-87329009D01*
X154528000Y-99300990D01*
X147732000Y-99300990D01*
X147732000Y-87430358D01*
X147833000Y-87430358D01*
X147833000Y-87829642D01*
X147910896Y-88221254D01*
X148063696Y-88590145D01*
X148285526Y-88922137D01*
X148567863Y-89204474D01*
X148899855Y-89426304D01*
X149268746Y-89579104D01*
X149303312Y-89585980D01*
X149297915Y-89587053D01*
X148947223Y-89732315D01*
X148631609Y-89943201D01*
X148363201Y-90211609D01*
X148152315Y-90527223D01*
X148007053Y-90877915D01*
X147933000Y-91250207D01*
X147933000Y-91629793D01*
X148007053Y-92002085D01*
X148152315Y-92352777D01*
X148363201Y-92668391D01*
X148631609Y-92936799D01*
X148947223Y-93147685D01*
X149297915Y-93292947D01*
X149670207Y-93367000D01*
X150049793Y-93367000D01*
X150422085Y-93292947D01*
X150772777Y-93147685D01*
X151088391Y-92936799D01*
X151356799Y-92668391D01*
X151567685Y-92352777D01*
X151712947Y-92002085D01*
X151787000Y-91629793D01*
X151787000Y-91250207D01*
X151712947Y-90877915D01*
X151567685Y-90527223D01*
X151356799Y-90211609D01*
X151088391Y-89943201D01*
X150772777Y-89732315D01*
X150422085Y-89587053D01*
X150416688Y-89585980D01*
X150451254Y-89579104D01*
X150820145Y-89426304D01*
X151152137Y-89204474D01*
X151434474Y-88922137D01*
X151656304Y-88590145D01*
X151809104Y-88221254D01*
X151887000Y-87829642D01*
X151887000Y-87430358D01*
X151809104Y-87038746D01*
X151656304Y-86669855D01*
X151434474Y-86337863D01*
X151342984Y-86246373D01*
X151349502Y-86234180D01*
X151385812Y-86114482D01*
X151398072Y-85990000D01*
X151395000Y-85375750D01*
X151236250Y-85217000D01*
X149987000Y-85217000D01*
X149987000Y-85237000D01*
X149733000Y-85237000D01*
X149733000Y-85217000D01*
X148483750Y-85217000D01*
X148325000Y-85375750D01*
X148321928Y-85990000D01*
X148334188Y-86114482D01*
X148370498Y-86234180D01*
X148377016Y-86246373D01*
X148285526Y-86337863D01*
X148063696Y-86669855D01*
X147910896Y-87038746D01*
X147833000Y-87430358D01*
X147732000Y-87430358D01*
X147732000Y-87329009D01*
X147643347Y-86428898D01*
X147292998Y-85273954D01*
X146724063Y-84209551D01*
X146708018Y-84190000D01*
X148321928Y-84190000D01*
X148325000Y-84804250D01*
X148483750Y-84963000D01*
X149733000Y-84963000D01*
X149733000Y-83713750D01*
X149987000Y-83713750D01*
X149987000Y-84963000D01*
X151236250Y-84963000D01*
X151395000Y-84804250D01*
X151398072Y-84190000D01*
X151385812Y-84065518D01*
X151349502Y-83945820D01*
X151290537Y-83835506D01*
X151211185Y-83738815D01*
X151114494Y-83659463D01*
X151004180Y-83600498D01*
X150884482Y-83564188D01*
X150760000Y-83551928D01*
X150145750Y-83555000D01*
X149987000Y-83713750D01*
X149733000Y-83713750D01*
X149574250Y-83555000D01*
X148960000Y-83551928D01*
X148835518Y-83564188D01*
X148715820Y-83600498D01*
X148605506Y-83659463D01*
X148508815Y-83738815D01*
X148429463Y-83835506D01*
X148370498Y-83945820D01*
X148334188Y-84065518D01*
X148321928Y-84190000D01*
X146708018Y-84190000D01*
X145958405Y-83276595D01*
X145025449Y-82510937D01*
X143961046Y-81942002D01*
X142806102Y-81591653D01*
X141605000Y-81473355D01*
X140403899Y-81591653D01*
X139248955Y-81942002D01*
X138184552Y-82510937D01*
X137251596Y-83276595D01*
X136485938Y-84209551D01*
X135917003Y-85273954D01*
X135566654Y-86428898D01*
X135478001Y-87329009D01*
X135478000Y-99300990D01*
X124872000Y-99300990D01*
X124872000Y-87430358D01*
X124973000Y-87430358D01*
X124973000Y-87829642D01*
X125050896Y-88221254D01*
X125203696Y-88590145D01*
X125425526Y-88922137D01*
X125707863Y-89204474D01*
X126039855Y-89426304D01*
X126408746Y-89579104D01*
X126443312Y-89585980D01*
X126437915Y-89587053D01*
X126087223Y-89732315D01*
X125771609Y-89943201D01*
X125503201Y-90211609D01*
X125292315Y-90527223D01*
X125147053Y-90877915D01*
X125073000Y-91250207D01*
X125073000Y-91629793D01*
X125147053Y-92002085D01*
X125292315Y-92352777D01*
X125503201Y-92668391D01*
X125771609Y-92936799D01*
X126087223Y-93147685D01*
X126437915Y-93292947D01*
X126810207Y-93367000D01*
X127189793Y-93367000D01*
X127562085Y-93292947D01*
X127912777Y-93147685D01*
X128228391Y-92936799D01*
X128496799Y-92668391D01*
X128707685Y-92352777D01*
X128852947Y-92002085D01*
X128927000Y-91629793D01*
X128927000Y-91250207D01*
X128852947Y-90877915D01*
X128707685Y-90527223D01*
X128496799Y-90211609D01*
X128228391Y-89943201D01*
X127912777Y-89732315D01*
X127562085Y-89587053D01*
X127556688Y-89585980D01*
X127591254Y-89579104D01*
X127960145Y-89426304D01*
X128292137Y-89204474D01*
X128574474Y-88922137D01*
X128796304Y-88590145D01*
X128949104Y-88221254D01*
X129027000Y-87829642D01*
X129027000Y-87430358D01*
X128949104Y-87038746D01*
X128796304Y-86669855D01*
X128574474Y-86337863D01*
X128482984Y-86246373D01*
X128489502Y-86234180D01*
X128525812Y-86114482D01*
X128538072Y-85990000D01*
X128535000Y-85375750D01*
X128376250Y-85217000D01*
X127127000Y-85217000D01*
X127127000Y-85237000D01*
X126873000Y-85237000D01*
X126873000Y-85217000D01*
X125623750Y-85217000D01*
X125465000Y-85375750D01*
X125461928Y-85990000D01*
X125474188Y-86114482D01*
X125510498Y-86234180D01*
X125517016Y-86246373D01*
X125425526Y-86337863D01*
X125203696Y-86669855D01*
X125050896Y-87038746D01*
X124973000Y-87430358D01*
X124872000Y-87430358D01*
X124872000Y-87329009D01*
X124783347Y-86428898D01*
X124432998Y-85273954D01*
X123864063Y-84209551D01*
X123848018Y-84190000D01*
X125461928Y-84190000D01*
X125465000Y-84804250D01*
X125623750Y-84963000D01*
X126873000Y-84963000D01*
X126873000Y-83713750D01*
X127127000Y-83713750D01*
X127127000Y-84963000D01*
X128376250Y-84963000D01*
X128535000Y-84804250D01*
X128538072Y-84190000D01*
X128525812Y-84065518D01*
X128489502Y-83945820D01*
X128430537Y-83835506D01*
X128351185Y-83738815D01*
X128254494Y-83659463D01*
X128144180Y-83600498D01*
X128024482Y-83564188D01*
X127900000Y-83551928D01*
X127285750Y-83555000D01*
X127127000Y-83713750D01*
X126873000Y-83713750D01*
X126714250Y-83555000D01*
X126100000Y-83551928D01*
X125975518Y-83564188D01*
X125855820Y-83600498D01*
X125745506Y-83659463D01*
X125648815Y-83738815D01*
X125569463Y-83835506D01*
X125510498Y-83945820D01*
X125474188Y-84065518D01*
X125461928Y-84190000D01*
X123848018Y-84190000D01*
X123098405Y-83276595D01*
X122165449Y-82510937D01*
X121101046Y-81942002D01*
X119946102Y-81591653D01*
X118745000Y-81473355D01*
X117543899Y-81591653D01*
X116388955Y-81942002D01*
X115324552Y-82510937D01*
X114391596Y-83276595D01*
X113625938Y-84209551D01*
X113057003Y-85273954D01*
X112706654Y-86428898D01*
X112618001Y-87329009D01*
X112618000Y-99300990D01*
X105822000Y-99300990D01*
X105822000Y-87430358D01*
X105923000Y-87430358D01*
X105923000Y-87829642D01*
X106000896Y-88221254D01*
X106153696Y-88590145D01*
X106375526Y-88922137D01*
X106657863Y-89204474D01*
X106989855Y-89426304D01*
X107358746Y-89579104D01*
X107393312Y-89585980D01*
X107387915Y-89587053D01*
X107037223Y-89732315D01*
X106721609Y-89943201D01*
X106453201Y-90211609D01*
X106242315Y-90527223D01*
X106097053Y-90877915D01*
X106023000Y-91250207D01*
X106023000Y-91629793D01*
X106097053Y-92002085D01*
X106242315Y-92352777D01*
X106453201Y-92668391D01*
X106721609Y-92936799D01*
X107037223Y-93147685D01*
X107387915Y-93292947D01*
X107760207Y-93367000D01*
X108139793Y-93367000D01*
X108512085Y-93292947D01*
X108862777Y-93147685D01*
X109178391Y-92936799D01*
X109446799Y-92668391D01*
X109657685Y-92352777D01*
X109802947Y-92002085D01*
X109877000Y-91629793D01*
X109877000Y-91250207D01*
X109802947Y-90877915D01*
X109657685Y-90527223D01*
X109446799Y-90211609D01*
X109178391Y-89943201D01*
X108862777Y-89732315D01*
X108512085Y-89587053D01*
X108506688Y-89585980D01*
X108541254Y-89579104D01*
X108910145Y-89426304D01*
X109242137Y-89204474D01*
X109524474Y-88922137D01*
X109746304Y-88590145D01*
X109899104Y-88221254D01*
X109977000Y-87829642D01*
X109977000Y-87430358D01*
X109899104Y-87038746D01*
X109746304Y-86669855D01*
X109524474Y-86337863D01*
X109432984Y-86246373D01*
X109439502Y-86234180D01*
X109475812Y-86114482D01*
X109488072Y-85990000D01*
X109485000Y-85375750D01*
X109326250Y-85217000D01*
X108077000Y-85217000D01*
X108077000Y-85237000D01*
X107823000Y-85237000D01*
X107823000Y-85217000D01*
X106573750Y-85217000D01*
X106415000Y-85375750D01*
X106411928Y-85990000D01*
X106424188Y-86114482D01*
X106460498Y-86234180D01*
X106467016Y-86246373D01*
X106375526Y-86337863D01*
X106153696Y-86669855D01*
X106000896Y-87038746D01*
X105923000Y-87430358D01*
X105822000Y-87430358D01*
X105822000Y-87329009D01*
X105733347Y-86428898D01*
X105382998Y-85273954D01*
X104814063Y-84209551D01*
X104798018Y-84190000D01*
X106411928Y-84190000D01*
X106415000Y-84804250D01*
X106573750Y-84963000D01*
X107823000Y-84963000D01*
X107823000Y-83713750D01*
X108077000Y-83713750D01*
X108077000Y-84963000D01*
X109326250Y-84963000D01*
X109485000Y-84804250D01*
X109488072Y-84190000D01*
X109475812Y-84065518D01*
X109439502Y-83945820D01*
X109380537Y-83835506D01*
X109301185Y-83738815D01*
X109204494Y-83659463D01*
X109094180Y-83600498D01*
X108974482Y-83564188D01*
X108850000Y-83551928D01*
X108235750Y-83555000D01*
X108077000Y-83713750D01*
X107823000Y-83713750D01*
X107664250Y-83555000D01*
X107050000Y-83551928D01*
X106925518Y-83564188D01*
X106805820Y-83600498D01*
X106695506Y-83659463D01*
X106598815Y-83738815D01*
X106519463Y-83835506D01*
X106460498Y-83945820D01*
X106424188Y-84065518D01*
X106411928Y-84190000D01*
X104798018Y-84190000D01*
X104048405Y-83276595D01*
X103115449Y-82510937D01*
X102051046Y-81942002D01*
X100896102Y-81591653D01*
X99695000Y-81473355D01*
X98493899Y-81591653D01*
X97338955Y-81942002D01*
X96274552Y-82510937D01*
X95341596Y-83276595D01*
X94575938Y-84209551D01*
X94007003Y-85273954D01*
X93656654Y-86428898D01*
X93568001Y-87329009D01*
X93568000Y-99300990D01*
X89027000Y-99300990D01*
X89027000Y-76570000D01*
X185292547Y-76570000D01*
X185292547Y-78370000D01*
X185314307Y-78590931D01*
X185378750Y-78803371D01*
X185483400Y-78999157D01*
X185624235Y-79170765D01*
X185795843Y-79311600D01*
X185991629Y-79416250D01*
X186204069Y-79480693D01*
X186425000Y-79502453D01*
X188225000Y-79502453D01*
X188445931Y-79480693D01*
X188658371Y-79416250D01*
X188854157Y-79311600D01*
X189025765Y-79170765D01*
X189166600Y-78999157D01*
X189271250Y-78803371D01*
X189335693Y-78590931D01*
X189357453Y-78370000D01*
X189357453Y-77819040D01*
X192283091Y-77819040D01*
X192377930Y-78083881D01*
X192522615Y-78325131D01*
X192711586Y-78533519D01*
X192937580Y-78701037D01*
X193191913Y-78821246D01*
X193325961Y-78861904D01*
X193548000Y-78739915D01*
X193548000Y-77597000D01*
X193802000Y-77597000D01*
X193802000Y-78739915D01*
X194024039Y-78861904D01*
X194158087Y-78821246D01*
X194412420Y-78701037D01*
X194638414Y-78533519D01*
X194827385Y-78325131D01*
X194972070Y-78083881D01*
X195066909Y-77819040D01*
X194945624Y-77597000D01*
X193802000Y-77597000D01*
X193548000Y-77597000D01*
X192404376Y-77597000D01*
X192283091Y-77819040D01*
X189357453Y-77819040D01*
X189357453Y-77120960D01*
X192283091Y-77120960D01*
X192404376Y-77343000D01*
X193548000Y-77343000D01*
X193548000Y-76200085D01*
X193802000Y-76200085D01*
X193802000Y-77343000D01*
X194945624Y-77343000D01*
X195066909Y-77120960D01*
X194972070Y-76856119D01*
X194827385Y-76614869D01*
X194638414Y-76406481D01*
X194412420Y-76238963D01*
X194158087Y-76118754D01*
X194024039Y-76078096D01*
X193802000Y-76200085D01*
X193548000Y-76200085D01*
X193325961Y-76078096D01*
X193191913Y-76118754D01*
X192937580Y-76238963D01*
X192711586Y-76406481D01*
X192522615Y-76614869D01*
X192377930Y-76856119D01*
X192283091Y-77120960D01*
X189357453Y-77120960D01*
X189357453Y-76570000D01*
X189335693Y-76349069D01*
X189271250Y-76136629D01*
X189166600Y-75940843D01*
X189025765Y-75769235D01*
X188854157Y-75628400D01*
X188658371Y-75523750D01*
X188445931Y-75459307D01*
X188225000Y-75437547D01*
X186425000Y-75437547D01*
X186204069Y-75459307D01*
X185991629Y-75523750D01*
X185795843Y-75628400D01*
X185624235Y-75769235D01*
X185483400Y-75940843D01*
X185378750Y-76136629D01*
X185314307Y-76349069D01*
X185292547Y-76570000D01*
X89027000Y-76570000D01*
X89027000Y-71390811D01*
X95463000Y-71390811D01*
X95463000Y-71849189D01*
X95552426Y-72298761D01*
X95727840Y-72722248D01*
X95982501Y-73103376D01*
X96306624Y-73427499D01*
X96687752Y-73682160D01*
X97111239Y-73857574D01*
X97560811Y-73947000D01*
X98019189Y-73947000D01*
X98468761Y-73857574D01*
X98892248Y-73682160D01*
X99273376Y-73427499D01*
X99490000Y-73210875D01*
X99706624Y-73427499D01*
X100087752Y-73682160D01*
X100511239Y-73857574D01*
X100960811Y-73947000D01*
X101419189Y-73947000D01*
X101868761Y-73857574D01*
X102292248Y-73682160D01*
X102673376Y-73427499D01*
X102997499Y-73103376D01*
X103252160Y-72722248D01*
X103427574Y-72298761D01*
X103517000Y-71849189D01*
X103517000Y-71390811D01*
X114513000Y-71390811D01*
X114513000Y-71849189D01*
X114602426Y-72298761D01*
X114777840Y-72722248D01*
X115032501Y-73103376D01*
X115356624Y-73427499D01*
X115737752Y-73682160D01*
X116161239Y-73857574D01*
X116610811Y-73947000D01*
X117069189Y-73947000D01*
X117518761Y-73857574D01*
X117942248Y-73682160D01*
X118323376Y-73427499D01*
X118540000Y-73210875D01*
X118756624Y-73427499D01*
X119137752Y-73682160D01*
X119561239Y-73857574D01*
X120010811Y-73947000D01*
X120469189Y-73947000D01*
X120918761Y-73857574D01*
X121342248Y-73682160D01*
X121723376Y-73427499D01*
X122047499Y-73103376D01*
X122302160Y-72722248D01*
X122477574Y-72298761D01*
X122567000Y-71849189D01*
X122567000Y-71390811D01*
X137373000Y-71390811D01*
X137373000Y-71849189D01*
X137462426Y-72298761D01*
X137637840Y-72722248D01*
X137892501Y-73103376D01*
X138216624Y-73427499D01*
X138597752Y-73682160D01*
X139021239Y-73857574D01*
X139470811Y-73947000D01*
X139929189Y-73947000D01*
X140378761Y-73857574D01*
X140802248Y-73682160D01*
X141183376Y-73427499D01*
X141400000Y-73210875D01*
X141616624Y-73427499D01*
X141997752Y-73682160D01*
X142421239Y-73857574D01*
X142870811Y-73947000D01*
X143329189Y-73947000D01*
X143778761Y-73857574D01*
X144202248Y-73682160D01*
X144583376Y-73427499D01*
X144907499Y-73103376D01*
X145162160Y-72722248D01*
X145337574Y-72298761D01*
X145427000Y-71849189D01*
X145427000Y-71390811D01*
X156423000Y-71390811D01*
X156423000Y-71849189D01*
X156512426Y-72298761D01*
X156687840Y-72722248D01*
X156942501Y-73103376D01*
X157266624Y-73427499D01*
X157647752Y-73682160D01*
X158071239Y-73857574D01*
X158520811Y-73947000D01*
X158979189Y-73947000D01*
X159428761Y-73857574D01*
X159852248Y-73682160D01*
X160233376Y-73427499D01*
X160450000Y-73210875D01*
X160666624Y-73427499D01*
X161047752Y-73682160D01*
X161471239Y-73857574D01*
X161920811Y-73947000D01*
X162379189Y-73947000D01*
X162828761Y-73857574D01*
X163252248Y-73682160D01*
X163633376Y-73427499D01*
X163957499Y-73103376D01*
X164212160Y-72722248D01*
X164387574Y-72298761D01*
X164477000Y-71849189D01*
X164477000Y-71390811D01*
X164387574Y-70941239D01*
X164212160Y-70517752D01*
X163957499Y-70136624D01*
X163633376Y-69812501D01*
X163390712Y-69650358D01*
X185298000Y-69650358D01*
X185298000Y-70049642D01*
X185375896Y-70441254D01*
X185528696Y-70810145D01*
X185750526Y-71142137D01*
X186032863Y-71424474D01*
X186364855Y-71646304D01*
X186733746Y-71799104D01*
X187125358Y-71877000D01*
X187524642Y-71877000D01*
X187916254Y-71799104D01*
X188285145Y-71646304D01*
X188617137Y-71424474D01*
X188899474Y-71142137D01*
X189121304Y-70810145D01*
X189274104Y-70441254D01*
X189352000Y-70049642D01*
X189352000Y-69650358D01*
X189274104Y-69258746D01*
X189121304Y-68889855D01*
X188899474Y-68557863D01*
X188617137Y-68275526D01*
X188507645Y-68202366D01*
X188553391Y-68171799D01*
X188821799Y-67903391D01*
X189032685Y-67587777D01*
X189177947Y-67237085D01*
X189201195Y-67120207D01*
X191748000Y-67120207D01*
X191748000Y-67499793D01*
X191822053Y-67872085D01*
X191967315Y-68222777D01*
X192178201Y-68538391D01*
X192446609Y-68806799D01*
X192762223Y-69017685D01*
X193112915Y-69162947D01*
X193485207Y-69237000D01*
X193864793Y-69237000D01*
X194237085Y-69162947D01*
X194587777Y-69017685D01*
X194903391Y-68806799D01*
X195171799Y-68538391D01*
X195382685Y-68222777D01*
X195527947Y-67872085D01*
X195602000Y-67499793D01*
X195602000Y-67120207D01*
X195527947Y-66747915D01*
X195382685Y-66397223D01*
X195171799Y-66081609D01*
X194903391Y-65813201D01*
X194587777Y-65602315D01*
X194237085Y-65457053D01*
X193864793Y-65383000D01*
X193485207Y-65383000D01*
X193112915Y-65457053D01*
X192762223Y-65602315D01*
X192446609Y-65813201D01*
X192178201Y-66081609D01*
X191967315Y-66397223D01*
X191822053Y-66747915D01*
X191748000Y-67120207D01*
X189201195Y-67120207D01*
X189252000Y-66864793D01*
X189252000Y-66485207D01*
X189177947Y-66112915D01*
X189032685Y-65762223D01*
X188821799Y-65446609D01*
X188553391Y-65178201D01*
X188237777Y-64967315D01*
X187887085Y-64822053D01*
X187514793Y-64748000D01*
X187135207Y-64748000D01*
X186762915Y-64822053D01*
X186412223Y-64967315D01*
X186096609Y-65178201D01*
X185828201Y-65446609D01*
X185617315Y-65762223D01*
X185472053Y-66112915D01*
X185398000Y-66485207D01*
X185398000Y-66864793D01*
X185472053Y-67237085D01*
X185617315Y-67587777D01*
X185828201Y-67903391D01*
X186096609Y-68171799D01*
X186142355Y-68202366D01*
X186032863Y-68275526D01*
X185750526Y-68557863D01*
X185528696Y-68889855D01*
X185375896Y-69258746D01*
X185298000Y-69650358D01*
X163390712Y-69650358D01*
X163252248Y-69557840D01*
X162828761Y-69382426D01*
X162379189Y-69293000D01*
X161920811Y-69293000D01*
X161471239Y-69382426D01*
X161047752Y-69557840D01*
X160666624Y-69812501D01*
X160450000Y-70029125D01*
X160233376Y-69812501D01*
X159852248Y-69557840D01*
X159428761Y-69382426D01*
X158979189Y-69293000D01*
X158520811Y-69293000D01*
X158071239Y-69382426D01*
X157647752Y-69557840D01*
X157266624Y-69812501D01*
X156942501Y-70136624D01*
X156687840Y-70517752D01*
X156512426Y-70941239D01*
X156423000Y-71390811D01*
X145427000Y-71390811D01*
X145337574Y-70941239D01*
X145162160Y-70517752D01*
X144907499Y-70136624D01*
X144583376Y-69812501D01*
X144202248Y-69557840D01*
X143778761Y-69382426D01*
X143329189Y-69293000D01*
X142870811Y-69293000D01*
X142421239Y-69382426D01*
X141997752Y-69557840D01*
X141616624Y-69812501D01*
X141400000Y-70029125D01*
X141183376Y-69812501D01*
X140802248Y-69557840D01*
X140378761Y-69382426D01*
X139929189Y-69293000D01*
X139470811Y-69293000D01*
X139021239Y-69382426D01*
X138597752Y-69557840D01*
X138216624Y-69812501D01*
X137892501Y-70136624D01*
X137637840Y-70517752D01*
X137462426Y-70941239D01*
X137373000Y-71390811D01*
X122567000Y-71390811D01*
X122477574Y-70941239D01*
X122302160Y-70517752D01*
X122047499Y-70136624D01*
X121723376Y-69812501D01*
X121342248Y-69557840D01*
X120918761Y-69382426D01*
X120469189Y-69293000D01*
X120010811Y-69293000D01*
X119561239Y-69382426D01*
X119137752Y-69557840D01*
X118756624Y-69812501D01*
X118540000Y-70029125D01*
X118323376Y-69812501D01*
X117942248Y-69557840D01*
X117518761Y-69382426D01*
X117069189Y-69293000D01*
X116610811Y-69293000D01*
X116161239Y-69382426D01*
X115737752Y-69557840D01*
X115356624Y-69812501D01*
X115032501Y-70136624D01*
X114777840Y-70517752D01*
X114602426Y-70941239D01*
X114513000Y-71390811D01*
X103517000Y-71390811D01*
X103427574Y-70941239D01*
X103252160Y-70517752D01*
X102997499Y-70136624D01*
X102673376Y-69812501D01*
X102292248Y-69557840D01*
X101868761Y-69382426D01*
X101419189Y-69293000D01*
X100960811Y-69293000D01*
X100511239Y-69382426D01*
X100087752Y-69557840D01*
X99706624Y-69812501D01*
X99490000Y-70029125D01*
X99273376Y-69812501D01*
X98892248Y-69557840D01*
X98468761Y-69382426D01*
X98019189Y-69293000D01*
X97560811Y-69293000D01*
X97111239Y-69382426D01*
X96687752Y-69557840D01*
X96306624Y-69812501D01*
X95982501Y-70136624D01*
X95727840Y-70517752D01*
X95552426Y-70941239D01*
X95463000Y-71390811D01*
X89027000Y-71390811D01*
X89027000Y-36195000D01*
X92268355Y-36195000D01*
X92307998Y-36597500D01*
X92298000Y-36699009D01*
X92298000Y-37800990D01*
X92386653Y-38701101D01*
X92737002Y-39856045D01*
X93305937Y-40920448D01*
X94071595Y-41853405D01*
X95004551Y-42619063D01*
X95389833Y-42825000D01*
X95004552Y-43030937D01*
X94071596Y-43796595D01*
X93305938Y-44729551D01*
X92737003Y-45793954D01*
X92386654Y-46948898D01*
X92298001Y-47849009D01*
X92298000Y-57450990D01*
X92386653Y-58351101D01*
X92737002Y-59506045D01*
X93305937Y-60570448D01*
X94071595Y-61503405D01*
X95004551Y-62269063D01*
X96068954Y-62837998D01*
X97223898Y-63188347D01*
X98425000Y-63306645D01*
X99626101Y-63188347D01*
X100781045Y-62837998D01*
X101845448Y-62269063D01*
X102778405Y-61503405D01*
X103380125Y-60770207D01*
X122533000Y-60770207D01*
X122533000Y-61149793D01*
X122607053Y-61522085D01*
X122752315Y-61872777D01*
X122963201Y-62188391D01*
X123231609Y-62456799D01*
X123547223Y-62667685D01*
X123897915Y-62812947D01*
X124270207Y-62887000D01*
X124649793Y-62887000D01*
X125022085Y-62812947D01*
X125372777Y-62667685D01*
X125688391Y-62456799D01*
X125956799Y-62188391D01*
X126167685Y-61872777D01*
X126312947Y-61522085D01*
X126387000Y-61149793D01*
X126387000Y-60770207D01*
X126385041Y-60760358D01*
X128783000Y-60760358D01*
X128783000Y-61159642D01*
X128860896Y-61551254D01*
X129013696Y-61920145D01*
X129235526Y-62252137D01*
X129517863Y-62534474D01*
X129849855Y-62756304D01*
X130218746Y-62909104D01*
X130610358Y-62987000D01*
X131009642Y-62987000D01*
X131401254Y-62909104D01*
X131770145Y-62756304D01*
X132102137Y-62534474D01*
X132193627Y-62442984D01*
X132205820Y-62449502D01*
X132325518Y-62485812D01*
X132450000Y-62498072D01*
X133064250Y-62495000D01*
X133223000Y-62336250D01*
X133223000Y-61087000D01*
X133477000Y-61087000D01*
X133477000Y-62336250D01*
X133635750Y-62495000D01*
X134250000Y-62498072D01*
X134374482Y-62485812D01*
X134494180Y-62449502D01*
X134604494Y-62390537D01*
X134701185Y-62311185D01*
X134780537Y-62214494D01*
X134839502Y-62104180D01*
X134875812Y-61984482D01*
X134888072Y-61860000D01*
X138161928Y-61860000D01*
X138174188Y-61984482D01*
X138210498Y-62104180D01*
X138269463Y-62214494D01*
X138348815Y-62311185D01*
X138445506Y-62390537D01*
X138555820Y-62449502D01*
X138675518Y-62485812D01*
X138800000Y-62498072D01*
X139414250Y-62495000D01*
X139573000Y-62336250D01*
X139573000Y-61087000D01*
X138323750Y-61087000D01*
X138165000Y-61245750D01*
X138161928Y-61860000D01*
X134888072Y-61860000D01*
X134885000Y-61245750D01*
X134726250Y-61087000D01*
X133477000Y-61087000D01*
X133223000Y-61087000D01*
X133203000Y-61087000D01*
X133203000Y-60833000D01*
X133223000Y-60833000D01*
X133223000Y-59583750D01*
X133477000Y-59583750D01*
X133477000Y-60833000D01*
X134726250Y-60833000D01*
X134885000Y-60674250D01*
X134888072Y-60060000D01*
X138161928Y-60060000D01*
X138165000Y-60674250D01*
X138323750Y-60833000D01*
X139573000Y-60833000D01*
X139573000Y-59583750D01*
X139827000Y-59583750D01*
X139827000Y-60833000D01*
X139847000Y-60833000D01*
X139847000Y-61087000D01*
X139827000Y-61087000D01*
X139827000Y-62336250D01*
X139985750Y-62495000D01*
X140600000Y-62498072D01*
X140724482Y-62485812D01*
X140844180Y-62449502D01*
X140856373Y-62442984D01*
X140947863Y-62534474D01*
X141279855Y-62756304D01*
X141648746Y-62909104D01*
X142040358Y-62987000D01*
X142439642Y-62987000D01*
X142831254Y-62909104D01*
X143200145Y-62756304D01*
X143532137Y-62534474D01*
X143814474Y-62252137D01*
X143841293Y-62212000D01*
X149656810Y-62212000D01*
X149901609Y-62456799D01*
X150217223Y-62667685D01*
X150567915Y-62812947D01*
X150940207Y-62887000D01*
X151319793Y-62887000D01*
X151692085Y-62812947D01*
X152042777Y-62667685D01*
X152358391Y-62456799D01*
X152626799Y-62188391D01*
X152837685Y-61872777D01*
X152982947Y-61522085D01*
X153057000Y-61149793D01*
X153057000Y-60770207D01*
X159363000Y-60770207D01*
X159363000Y-61149793D01*
X159437053Y-61522085D01*
X159582315Y-61872777D01*
X159793201Y-62188391D01*
X160061609Y-62456799D01*
X160377223Y-62667685D01*
X160727915Y-62812947D01*
X161100207Y-62887000D01*
X161479793Y-62887000D01*
X161852085Y-62812947D01*
X162202777Y-62667685D01*
X162518391Y-62456799D01*
X162786799Y-62188391D01*
X162997685Y-61872777D01*
X163142947Y-61522085D01*
X163217000Y-61149793D01*
X163217000Y-60770207D01*
X163142947Y-60397915D01*
X162997685Y-60047223D01*
X162786799Y-59731609D01*
X162715190Y-59660000D01*
X169017547Y-59660000D01*
X169017547Y-62260000D01*
X169039307Y-62480931D01*
X169103750Y-62693371D01*
X169208400Y-62889157D01*
X169349235Y-63060765D01*
X169520843Y-63201600D01*
X169716629Y-63306250D01*
X169929069Y-63370693D01*
X170150000Y-63392453D01*
X172750000Y-63392453D01*
X172970931Y-63370693D01*
X173183371Y-63306250D01*
X173379157Y-63201600D01*
X173550765Y-63060765D01*
X173691600Y-62889157D01*
X173796250Y-62693371D01*
X173860693Y-62480931D01*
X173882453Y-62260000D01*
X173882453Y-59660000D01*
X177907547Y-59660000D01*
X177907547Y-62260000D01*
X177929307Y-62480931D01*
X177993750Y-62693371D01*
X178098400Y-62889157D01*
X178239235Y-63060765D01*
X178410843Y-63201600D01*
X178606629Y-63306250D01*
X178819069Y-63370693D01*
X179040000Y-63392453D01*
X181640000Y-63392453D01*
X181860931Y-63370693D01*
X182073371Y-63306250D01*
X182269157Y-63201600D01*
X182440765Y-63060765D01*
X182581600Y-62889157D01*
X182686250Y-62693371D01*
X182750693Y-62480931D01*
X182772453Y-62260000D01*
X182772453Y-60142702D01*
X192226903Y-60142702D01*
X192298486Y-60386671D01*
X192553996Y-60507571D01*
X192828184Y-60576300D01*
X193110512Y-60590217D01*
X193390130Y-60548787D01*
X193656292Y-60453603D01*
X193781514Y-60386671D01*
X193853097Y-60142702D01*
X193040000Y-59329605D01*
X192226903Y-60142702D01*
X182772453Y-60142702D01*
X182772453Y-59660000D01*
X182750693Y-59439069D01*
X182686250Y-59226629D01*
X182581600Y-59030843D01*
X182440765Y-58859235D01*
X182269157Y-58718400D01*
X182073371Y-58613750D01*
X181860931Y-58549307D01*
X181640000Y-58527547D01*
X179040000Y-58527547D01*
X178819069Y-58549307D01*
X178606629Y-58613750D01*
X178410843Y-58718400D01*
X178239235Y-58859235D01*
X178098400Y-59030843D01*
X177993750Y-59226629D01*
X177929307Y-59439069D01*
X177907547Y-59660000D01*
X173882453Y-59660000D01*
X173860693Y-59439069D01*
X173796250Y-59226629D01*
X173691600Y-59030843D01*
X173550765Y-58859235D01*
X173379157Y-58718400D01*
X173183371Y-58613750D01*
X172970931Y-58549307D01*
X172750000Y-58527547D01*
X170150000Y-58527547D01*
X169929069Y-58549307D01*
X169716629Y-58613750D01*
X169520843Y-58718400D01*
X169349235Y-58859235D01*
X169208400Y-59030843D01*
X169103750Y-59226629D01*
X169039307Y-59439069D01*
X169017547Y-59660000D01*
X162715190Y-59660000D01*
X162518391Y-59463201D01*
X162202777Y-59252315D01*
X161852085Y-59107053D01*
X161479793Y-59033000D01*
X161100207Y-59033000D01*
X160727915Y-59107053D01*
X160377223Y-59252315D01*
X160061609Y-59463201D01*
X159793201Y-59731609D01*
X159582315Y-60047223D01*
X159437053Y-60397915D01*
X159363000Y-60770207D01*
X153057000Y-60770207D01*
X152982947Y-60397915D01*
X152837685Y-60047223D01*
X152626799Y-59731609D01*
X152358391Y-59463201D01*
X152042777Y-59252315D01*
X151692085Y-59107053D01*
X151319793Y-59033000D01*
X150940207Y-59033000D01*
X150567915Y-59107053D01*
X150217223Y-59252315D01*
X149901609Y-59463201D01*
X149656810Y-59708000D01*
X143841293Y-59708000D01*
X143814474Y-59667863D01*
X143532137Y-59385526D01*
X143200145Y-59163696D01*
X142831254Y-59010896D01*
X142439642Y-58933000D01*
X142040358Y-58933000D01*
X141648746Y-59010896D01*
X141279855Y-59163696D01*
X140947863Y-59385526D01*
X140856373Y-59477016D01*
X140844180Y-59470498D01*
X140724482Y-59434188D01*
X140600000Y-59421928D01*
X139985750Y-59425000D01*
X139827000Y-59583750D01*
X139573000Y-59583750D01*
X139414250Y-59425000D01*
X138800000Y-59421928D01*
X138675518Y-59434188D01*
X138555820Y-59470498D01*
X138445506Y-59529463D01*
X138348815Y-59608815D01*
X138269463Y-59705506D01*
X138210498Y-59815820D01*
X138174188Y-59935518D01*
X138161928Y-60060000D01*
X134888072Y-60060000D01*
X134875812Y-59935518D01*
X134839502Y-59815820D01*
X134780537Y-59705506D01*
X134701185Y-59608815D01*
X134604494Y-59529463D01*
X134494180Y-59470498D01*
X134374482Y-59434188D01*
X134250000Y-59421928D01*
X133635750Y-59425000D01*
X133477000Y-59583750D01*
X133223000Y-59583750D01*
X133064250Y-59425000D01*
X132450000Y-59421928D01*
X132325518Y-59434188D01*
X132205820Y-59470498D01*
X132193627Y-59477016D01*
X132102137Y-59385526D01*
X131770145Y-59163696D01*
X131401254Y-59010896D01*
X131009642Y-58933000D01*
X130610358Y-58933000D01*
X130218746Y-59010896D01*
X129849855Y-59163696D01*
X129517863Y-59385526D01*
X129235526Y-59667863D01*
X129013696Y-59999855D01*
X128860896Y-60368746D01*
X128783000Y-60760358D01*
X126385041Y-60760358D01*
X126312947Y-60397915D01*
X126167685Y-60047223D01*
X125956799Y-59731609D01*
X125688391Y-59463201D01*
X125372777Y-59252315D01*
X125022085Y-59107053D01*
X124649793Y-59033000D01*
X124270207Y-59033000D01*
X123897915Y-59107053D01*
X123547223Y-59252315D01*
X123231609Y-59463201D01*
X122963201Y-59731609D01*
X122752315Y-60047223D01*
X122607053Y-60397915D01*
X122533000Y-60770207D01*
X103380125Y-60770207D01*
X103544063Y-60570449D01*
X104112998Y-59506046D01*
X104463347Y-58351102D01*
X104552000Y-57450991D01*
X104552000Y-54425132D01*
X127663000Y-54425132D01*
X127663000Y-54794868D01*
X127735132Y-55157501D01*
X127876624Y-55499093D01*
X128082039Y-55806518D01*
X128343482Y-56067961D01*
X128650907Y-56273376D01*
X128992499Y-56414868D01*
X129355132Y-56487000D01*
X129724868Y-56487000D01*
X130087501Y-56414868D01*
X130429093Y-56273376D01*
X130736518Y-56067961D01*
X130997961Y-55806518D01*
X131203376Y-55499093D01*
X131344868Y-55157501D01*
X131417000Y-54794868D01*
X131417000Y-54425132D01*
X131344868Y-54062499D01*
X131260991Y-53860000D01*
X135277547Y-53860000D01*
X135277547Y-55360000D01*
X135299307Y-55580931D01*
X135363750Y-55793371D01*
X135468400Y-55989157D01*
X135609235Y-56160765D01*
X135780843Y-56301600D01*
X135976629Y-56406250D01*
X136189069Y-56470693D01*
X136410000Y-56492453D01*
X137910000Y-56492453D01*
X138130931Y-56470693D01*
X138343371Y-56406250D01*
X138539157Y-56301600D01*
X138710765Y-56160765D01*
X138851600Y-55989157D01*
X138956250Y-55793371D01*
X139020693Y-55580931D01*
X139042453Y-55360000D01*
X139042453Y-55209812D01*
X139064110Y-55429703D01*
X139142780Y-55689042D01*
X139270532Y-55928050D01*
X139442458Y-56137542D01*
X139651950Y-56309468D01*
X139890958Y-56437220D01*
X140150297Y-56515890D01*
X140420000Y-56542453D01*
X141520000Y-56542453D01*
X141789703Y-56515890D01*
X142049042Y-56437220D01*
X142288050Y-56309468D01*
X142497542Y-56137542D01*
X142669468Y-55928050D01*
X142797220Y-55689042D01*
X142853853Y-55502348D01*
X142862315Y-55522777D01*
X143073201Y-55838391D01*
X143341609Y-56106799D01*
X143657223Y-56317685D01*
X144007915Y-56462947D01*
X144380207Y-56537000D01*
X144759793Y-56537000D01*
X145132085Y-56462947D01*
X145482777Y-56317685D01*
X145798391Y-56106799D01*
X146043190Y-55862000D01*
X158617521Y-55862000D01*
X158823482Y-56067961D01*
X159130907Y-56273376D01*
X159472499Y-56414868D01*
X159835132Y-56487000D01*
X160126404Y-56487000D01*
X160361217Y-56721813D01*
X160400419Y-56769581D01*
X160448187Y-56808783D01*
X160591060Y-56926036D01*
X160808562Y-57042293D01*
X161044565Y-57113884D01*
X161228502Y-57132000D01*
X161228503Y-57132000D01*
X161289999Y-57138057D01*
X161351495Y-57132000D01*
X163340433Y-57132000D01*
X163408400Y-57259157D01*
X163549235Y-57430765D01*
X163720843Y-57571600D01*
X163916629Y-57676250D01*
X164129069Y-57740693D01*
X164350000Y-57762453D01*
X165850000Y-57762453D01*
X166070931Y-57740693D01*
X166283371Y-57676250D01*
X166479157Y-57571600D01*
X166650765Y-57430765D01*
X166791600Y-57259157D01*
X166896250Y-57063371D01*
X166960693Y-56850931D01*
X166982453Y-56630000D01*
X166982453Y-55695132D01*
X170843000Y-55695132D01*
X170843000Y-56064868D01*
X170915132Y-56427501D01*
X171056624Y-56769093D01*
X171262039Y-57076518D01*
X171523482Y-57337961D01*
X171830907Y-57543376D01*
X172172499Y-57684868D01*
X172535132Y-57757000D01*
X172904868Y-57757000D01*
X173267501Y-57684868D01*
X173609093Y-57543376D01*
X173916518Y-57337961D01*
X174177961Y-57076518D01*
X174383376Y-56769093D01*
X174524868Y-56427501D01*
X174545215Y-56325207D01*
X185398000Y-56325207D01*
X185398000Y-56704793D01*
X185472053Y-57077085D01*
X185617315Y-57427777D01*
X185828201Y-57743391D01*
X186096609Y-58011799D01*
X186412223Y-58222685D01*
X186762915Y-58367947D01*
X187135207Y-58442000D01*
X187514793Y-58442000D01*
X187887085Y-58367947D01*
X188237777Y-58222685D01*
X188553391Y-58011799D01*
X188821799Y-57743391D01*
X189032685Y-57427777D01*
X189177947Y-57077085D01*
X189252000Y-56704793D01*
X189252000Y-56350000D01*
X191107547Y-56350000D01*
X191107547Y-57950000D01*
X191129307Y-58170931D01*
X191193750Y-58383371D01*
X191298400Y-58579157D01*
X191439235Y-58750765D01*
X191610843Y-58891600D01*
X191623660Y-58898451D01*
X191613700Y-58938184D01*
X191599783Y-59220512D01*
X191641213Y-59500130D01*
X191736397Y-59766292D01*
X191803329Y-59891514D01*
X192047298Y-59963097D01*
X192860395Y-59150000D01*
X192846253Y-59135858D01*
X192899657Y-59082453D01*
X193180343Y-59082453D01*
X193233748Y-59135858D01*
X193219605Y-59150000D01*
X194032702Y-59963097D01*
X194276671Y-59891514D01*
X194397571Y-59636004D01*
X194466300Y-59361816D01*
X194480217Y-59079488D01*
X194453610Y-58899910D01*
X194469157Y-58891600D01*
X194640765Y-58750765D01*
X194781600Y-58579157D01*
X194886250Y-58383371D01*
X194950693Y-58170931D01*
X194972453Y-57950000D01*
X194972453Y-56350000D01*
X194950693Y-56129069D01*
X194886250Y-55916629D01*
X194781600Y-55720843D01*
X194640765Y-55549235D01*
X194469157Y-55408400D01*
X194273371Y-55303750D01*
X194060931Y-55239307D01*
X193840000Y-55217547D01*
X192240000Y-55217547D01*
X192019069Y-55239307D01*
X191806629Y-55303750D01*
X191610843Y-55408400D01*
X191439235Y-55549235D01*
X191298400Y-55720843D01*
X191193750Y-55916629D01*
X191129307Y-56129069D01*
X191107547Y-56350000D01*
X189252000Y-56350000D01*
X189252000Y-56325207D01*
X189177947Y-55952915D01*
X189032685Y-55602223D01*
X188821799Y-55286609D01*
X188553391Y-55018201D01*
X188237777Y-54807315D01*
X187887085Y-54662053D01*
X187514793Y-54588000D01*
X187135207Y-54588000D01*
X186762915Y-54662053D01*
X186412223Y-54807315D01*
X186096609Y-55018201D01*
X185828201Y-55286609D01*
X185617315Y-55602223D01*
X185472053Y-55952915D01*
X185398000Y-56325207D01*
X174545215Y-56325207D01*
X174597000Y-56064868D01*
X174597000Y-55695132D01*
X174524868Y-55332499D01*
X174383376Y-54990907D01*
X174177961Y-54683482D01*
X173916518Y-54422039D01*
X173721701Y-54291866D01*
X173749440Y-54266549D01*
X173910420Y-54047912D01*
X174025653Y-53802070D01*
X174062318Y-53681185D01*
X173939656Y-53467000D01*
X172847000Y-53467000D01*
X172847000Y-53487000D01*
X172593000Y-53487000D01*
X172593000Y-53467000D01*
X171500344Y-53467000D01*
X171377682Y-53681185D01*
X171414347Y-53802070D01*
X171529580Y-54047912D01*
X171690560Y-54266549D01*
X171718299Y-54291866D01*
X171523482Y-54422039D01*
X171262039Y-54683482D01*
X171056624Y-54990907D01*
X170915132Y-55332499D01*
X170843000Y-55695132D01*
X166982453Y-55695132D01*
X166982453Y-55130000D01*
X166960693Y-54909069D01*
X166896250Y-54696629D01*
X166849946Y-54610000D01*
X166896250Y-54523371D01*
X166960693Y-54310931D01*
X166982453Y-54090000D01*
X166982453Y-52998815D01*
X171377682Y-52998815D01*
X171500344Y-53213000D01*
X172593000Y-53213000D01*
X172593000Y-52119580D01*
X172847000Y-52119580D01*
X172847000Y-53213000D01*
X173939656Y-53213000D01*
X174062318Y-52998815D01*
X174025653Y-52877930D01*
X173910420Y-52632088D01*
X173749440Y-52413451D01*
X173548899Y-52230421D01*
X173316504Y-52090031D01*
X173061186Y-51997677D01*
X172847000Y-52119580D01*
X172593000Y-52119580D01*
X172378814Y-51997677D01*
X172123496Y-52090031D01*
X171891101Y-52230421D01*
X171690560Y-52413451D01*
X171529580Y-52632088D01*
X171414347Y-52877930D01*
X171377682Y-52998815D01*
X166982453Y-52998815D01*
X166982453Y-52590000D01*
X166960693Y-52369069D01*
X166896250Y-52156629D01*
X166791600Y-51960843D01*
X166725424Y-51880207D01*
X182858000Y-51880207D01*
X182858000Y-52259793D01*
X182932053Y-52632085D01*
X183077315Y-52982777D01*
X183288201Y-53298391D01*
X183556609Y-53566799D01*
X183872223Y-53777685D01*
X184222915Y-53922947D01*
X184595207Y-53997000D01*
X184974793Y-53997000D01*
X185347085Y-53922947D01*
X185697777Y-53777685D01*
X186013391Y-53566799D01*
X186281799Y-53298391D01*
X186492685Y-52982777D01*
X186637947Y-52632085D01*
X186712000Y-52259793D01*
X186712000Y-51880207D01*
X187303000Y-51880207D01*
X187303000Y-52259793D01*
X187377053Y-52632085D01*
X187522315Y-52982777D01*
X187733201Y-53298391D01*
X188001609Y-53566799D01*
X188317223Y-53777685D01*
X188667915Y-53922947D01*
X189040207Y-53997000D01*
X189419793Y-53997000D01*
X189792085Y-53922947D01*
X190142777Y-53777685D01*
X190458391Y-53566799D01*
X190726799Y-53298391D01*
X190937685Y-52982777D01*
X191082947Y-52632085D01*
X191139513Y-52347702D01*
X193496903Y-52347702D01*
X193568486Y-52591671D01*
X193823996Y-52712571D01*
X194098184Y-52781300D01*
X194380512Y-52795217D01*
X194660130Y-52753787D01*
X194926292Y-52658603D01*
X195051514Y-52591671D01*
X195123097Y-52347702D01*
X194310000Y-51534605D01*
X193496903Y-52347702D01*
X191139513Y-52347702D01*
X191157000Y-52259793D01*
X191157000Y-51880207D01*
X191082947Y-51507915D01*
X191048815Y-51425512D01*
X192869783Y-51425512D01*
X192911213Y-51705130D01*
X193006397Y-51971292D01*
X193073329Y-52096514D01*
X193317298Y-52168097D01*
X194130395Y-51355000D01*
X194489605Y-51355000D01*
X195302702Y-52168097D01*
X195546671Y-52096514D01*
X195667571Y-51841004D01*
X195736300Y-51566816D01*
X195750217Y-51284488D01*
X195708787Y-51004870D01*
X195613603Y-50738708D01*
X195546671Y-50613486D01*
X195302702Y-50541903D01*
X194489605Y-51355000D01*
X194130395Y-51355000D01*
X193317298Y-50541903D01*
X193073329Y-50613486D01*
X192952429Y-50868996D01*
X192883700Y-51143184D01*
X192869783Y-51425512D01*
X191048815Y-51425512D01*
X190937685Y-51157223D01*
X190726799Y-50841609D01*
X190458391Y-50573201D01*
X190142777Y-50362315D01*
X190142736Y-50362298D01*
X193496903Y-50362298D01*
X194310000Y-51175395D01*
X195123097Y-50362298D01*
X195051514Y-50118329D01*
X194796004Y-49997429D01*
X194521816Y-49928700D01*
X194239488Y-49914783D01*
X193959870Y-49956213D01*
X193693708Y-50051397D01*
X193568486Y-50118329D01*
X193496903Y-50362298D01*
X190142736Y-50362298D01*
X189792085Y-50217053D01*
X189419793Y-50143000D01*
X189040207Y-50143000D01*
X188667915Y-50217053D01*
X188317223Y-50362315D01*
X188001609Y-50573201D01*
X187733201Y-50841609D01*
X187522315Y-51157223D01*
X187377053Y-51507915D01*
X187303000Y-51880207D01*
X186712000Y-51880207D01*
X186637947Y-51507915D01*
X186492685Y-51157223D01*
X186281799Y-50841609D01*
X186013391Y-50573201D01*
X185697777Y-50362315D01*
X185347085Y-50217053D01*
X184974793Y-50143000D01*
X184595207Y-50143000D01*
X184222915Y-50217053D01*
X183872223Y-50362315D01*
X183556609Y-50573201D01*
X183288201Y-50841609D01*
X183077315Y-51157223D01*
X182932053Y-51507915D01*
X182858000Y-51880207D01*
X166725424Y-51880207D01*
X166650765Y-51789235D01*
X166479157Y-51648400D01*
X166283371Y-51543750D01*
X166070931Y-51479307D01*
X165850000Y-51457547D01*
X164988142Y-51457547D01*
X161777138Y-48246543D01*
X161816250Y-48173371D01*
X161849821Y-48062702D01*
X183971903Y-48062702D01*
X184043486Y-48306671D01*
X184298996Y-48427571D01*
X184573184Y-48496300D01*
X184855512Y-48510217D01*
X185135130Y-48468787D01*
X185401292Y-48373603D01*
X185526514Y-48306671D01*
X185598097Y-48062702D01*
X184785000Y-47249605D01*
X183971903Y-48062702D01*
X161849821Y-48062702D01*
X161880693Y-47960931D01*
X161902453Y-47740000D01*
X161902453Y-47140512D01*
X183344783Y-47140512D01*
X183386213Y-47420130D01*
X183481397Y-47686292D01*
X183548329Y-47811514D01*
X183792298Y-47883097D01*
X184605395Y-47070000D01*
X184964605Y-47070000D01*
X185777702Y-47883097D01*
X186021671Y-47811514D01*
X186142571Y-47556004D01*
X186211300Y-47281816D01*
X186225217Y-46999488D01*
X186183787Y-46719870D01*
X186088603Y-46453708D01*
X186021671Y-46328486D01*
X185777702Y-46256903D01*
X184964605Y-47070000D01*
X184605395Y-47070000D01*
X183792298Y-46256903D01*
X183548329Y-46328486D01*
X183427429Y-46583996D01*
X183358700Y-46858184D01*
X183344783Y-47140512D01*
X161902453Y-47140512D01*
X161902453Y-46240000D01*
X161886429Y-46077298D01*
X183971903Y-46077298D01*
X184785000Y-46890395D01*
X185510188Y-46165207D01*
X192383000Y-46165207D01*
X192383000Y-46544793D01*
X192457053Y-46917085D01*
X192602315Y-47267777D01*
X192813201Y-47583391D01*
X193081609Y-47851799D01*
X193397223Y-48062685D01*
X193747915Y-48207947D01*
X194120207Y-48282000D01*
X194499793Y-48282000D01*
X194872085Y-48207947D01*
X195222777Y-48062685D01*
X195538391Y-47851799D01*
X195806799Y-47583391D01*
X196017685Y-47267777D01*
X196162947Y-46917085D01*
X196237000Y-46544793D01*
X196237000Y-46165207D01*
X196162947Y-45792915D01*
X196017685Y-45442223D01*
X195806799Y-45126609D01*
X195538391Y-44858201D01*
X195222777Y-44647315D01*
X194872085Y-44502053D01*
X194730017Y-44473794D01*
X194926292Y-44403603D01*
X195051514Y-44336671D01*
X195123097Y-44092702D01*
X194310000Y-43279605D01*
X193496903Y-44092702D01*
X193568486Y-44336671D01*
X193823996Y-44457571D01*
X193889277Y-44473935D01*
X193747915Y-44502053D01*
X193397223Y-44647315D01*
X193081609Y-44858201D01*
X192813201Y-45126609D01*
X192602315Y-45442223D01*
X192457053Y-45792915D01*
X192383000Y-46165207D01*
X185510188Y-46165207D01*
X185598097Y-46077298D01*
X185526514Y-45833329D01*
X185271004Y-45712429D01*
X184996816Y-45643700D01*
X184714488Y-45629783D01*
X184434870Y-45671213D01*
X184168708Y-45766397D01*
X184043486Y-45833329D01*
X183971903Y-46077298D01*
X161886429Y-46077298D01*
X161880693Y-46019069D01*
X161816250Y-45806629D01*
X161711600Y-45610843D01*
X161570765Y-45439235D01*
X161399157Y-45298400D01*
X161203371Y-45193750D01*
X160990931Y-45129307D01*
X160770000Y-45107547D01*
X159908142Y-45107547D01*
X159188787Y-44388192D01*
X159149581Y-44340419D01*
X158958939Y-44183964D01*
X158788201Y-44092702D01*
X176986903Y-44092702D01*
X177058486Y-44336671D01*
X177313996Y-44457571D01*
X177588184Y-44526300D01*
X177870512Y-44540217D01*
X178150130Y-44498787D01*
X178416292Y-44403603D01*
X178541514Y-44336671D01*
X178613097Y-44092702D01*
X177800000Y-43279605D01*
X176986903Y-44092702D01*
X158788201Y-44092702D01*
X158741438Y-44067707D01*
X158505435Y-43996116D01*
X158321498Y-43978000D01*
X158321496Y-43978000D01*
X158260000Y-43971943D01*
X158198504Y-43978000D01*
X149757678Y-43978000D01*
X149620756Y-43647443D01*
X149302081Y-43170512D01*
X176359783Y-43170512D01*
X176401213Y-43450130D01*
X176496397Y-43716292D01*
X176563329Y-43841514D01*
X176807298Y-43913097D01*
X177620395Y-43100000D01*
X177979605Y-43100000D01*
X178792702Y-43913097D01*
X179036671Y-43841514D01*
X179157571Y-43586004D01*
X179226300Y-43311816D01*
X179240217Y-43029488D01*
X179198787Y-42749870D01*
X179103603Y-42483708D01*
X179036671Y-42358486D01*
X178792702Y-42286903D01*
X177979605Y-43100000D01*
X177620395Y-43100000D01*
X176807298Y-42286903D01*
X176563329Y-42358486D01*
X176442429Y-42613996D01*
X176373700Y-42888184D01*
X176359783Y-43170512D01*
X149302081Y-43170512D01*
X149255124Y-43100236D01*
X148789764Y-42634876D01*
X148242557Y-42269244D01*
X147851586Y-42107298D01*
X176986903Y-42107298D01*
X177800000Y-42920395D01*
X178613097Y-42107298D01*
X178541514Y-41863329D01*
X178286004Y-41742429D01*
X178011816Y-41673700D01*
X177729488Y-41659783D01*
X177449870Y-41701213D01*
X177183708Y-41796397D01*
X177058486Y-41863329D01*
X176986903Y-42107298D01*
X147851586Y-42107298D01*
X147634534Y-42017392D01*
X146989060Y-41889000D01*
X146330940Y-41889000D01*
X145685466Y-42017392D01*
X145077443Y-42269244D01*
X144530236Y-42634876D01*
X144064876Y-43100236D01*
X143699244Y-43647443D01*
X143447392Y-44255466D01*
X143319000Y-44900940D01*
X143319000Y-45559060D01*
X143447392Y-46204534D01*
X143699244Y-46812557D01*
X144064876Y-47359764D01*
X144530236Y-47825124D01*
X145077443Y-48190756D01*
X145685466Y-48442608D01*
X146330940Y-48571000D01*
X146989060Y-48571000D01*
X147634534Y-48442608D01*
X148242557Y-48190756D01*
X148789764Y-47825124D01*
X149255124Y-47359764D01*
X149620756Y-46812557D01*
X149757678Y-46482000D01*
X157741405Y-46482000D01*
X158137547Y-46878142D01*
X158137547Y-47740000D01*
X158159307Y-47960931D01*
X158223750Y-48173371D01*
X158328400Y-48369157D01*
X158469235Y-48540765D01*
X158640843Y-48681600D01*
X158836629Y-48786250D01*
X158890375Y-48802554D01*
X158967612Y-48947053D01*
X158973965Y-48958939D01*
X159130420Y-49149581D01*
X159178188Y-49188783D01*
X163217547Y-53228142D01*
X163217547Y-54090000D01*
X163239307Y-54310931D01*
X163303750Y-54523371D01*
X163350054Y-54610000D01*
X163340433Y-54628000D01*
X161897000Y-54628000D01*
X161897000Y-54425132D01*
X161824868Y-54062499D01*
X161683376Y-53720907D01*
X161477961Y-53413482D01*
X161216518Y-53152039D01*
X160909093Y-52946624D01*
X160567501Y-52805132D01*
X160204868Y-52733000D01*
X159835132Y-52733000D01*
X159472499Y-52805132D01*
X159130907Y-52946624D01*
X158823482Y-53152039D01*
X158617521Y-53358000D01*
X146043190Y-53358000D01*
X145798391Y-53113201D01*
X145482777Y-52902315D01*
X145132085Y-52757053D01*
X144759793Y-52683000D01*
X144380207Y-52683000D01*
X144007915Y-52757053D01*
X143657223Y-52902315D01*
X143341609Y-53113201D01*
X143073201Y-53381609D01*
X142862315Y-53697223D01*
X142853853Y-53717652D01*
X142797220Y-53530958D01*
X142669468Y-53291950D01*
X142497542Y-53082458D01*
X142288050Y-52910532D01*
X142049042Y-52782780D01*
X141789703Y-52704110D01*
X141520000Y-52677547D01*
X140420000Y-52677547D01*
X140150297Y-52704110D01*
X139890958Y-52782780D01*
X139651950Y-52910532D01*
X139442458Y-53082458D01*
X139270532Y-53291950D01*
X139142780Y-53530958D01*
X139064110Y-53790297D01*
X139042453Y-54010188D01*
X139042453Y-53860000D01*
X139020693Y-53639069D01*
X138956250Y-53426629D01*
X138851600Y-53230843D01*
X138710765Y-53059235D01*
X138539157Y-52918400D01*
X138343371Y-52813750D01*
X138130931Y-52749307D01*
X137910000Y-52727547D01*
X136410000Y-52727547D01*
X136189069Y-52749307D01*
X135976629Y-52813750D01*
X135780843Y-52918400D01*
X135609235Y-53059235D01*
X135468400Y-53230843D01*
X135363750Y-53426629D01*
X135299307Y-53639069D01*
X135277547Y-53860000D01*
X131260991Y-53860000D01*
X131203376Y-53720907D01*
X130997961Y-53413482D01*
X130736518Y-53152039D01*
X130429093Y-52946624D01*
X130087501Y-52805132D01*
X129724868Y-52733000D01*
X129355132Y-52733000D01*
X128992499Y-52805132D01*
X128650907Y-52946624D01*
X128343482Y-53152039D01*
X128082039Y-53413482D01*
X127876624Y-53720907D01*
X127735132Y-54062499D01*
X127663000Y-54425132D01*
X104552000Y-54425132D01*
X104552000Y-50610207D01*
X122533000Y-50610207D01*
X122533000Y-50989793D01*
X122607053Y-51362085D01*
X122752315Y-51712777D01*
X122963201Y-52028391D01*
X123231609Y-52296799D01*
X123547223Y-52507685D01*
X123897915Y-52652947D01*
X124270207Y-52727000D01*
X124649793Y-52727000D01*
X125022085Y-52652947D01*
X125372777Y-52507685D01*
X125688391Y-52296799D01*
X125956799Y-52028391D01*
X126167685Y-51712777D01*
X126312947Y-51362085D01*
X126387000Y-50989793D01*
X126387000Y-50610207D01*
X126312947Y-50237915D01*
X126167685Y-49887223D01*
X125956799Y-49571609D01*
X125688391Y-49303201D01*
X125372777Y-49092315D01*
X125022085Y-48947053D01*
X124649793Y-48873000D01*
X124270207Y-48873000D01*
X123897915Y-48947053D01*
X123547223Y-49092315D01*
X123231609Y-49303201D01*
X122963201Y-49571609D01*
X122752315Y-49887223D01*
X122607053Y-50237915D01*
X122533000Y-50610207D01*
X104552000Y-50610207D01*
X104552000Y-47849009D01*
X104463347Y-46948898D01*
X104112998Y-45793954D01*
X103645860Y-44919999D01*
X122277547Y-44919999D01*
X122277547Y-46520001D01*
X122304110Y-46789704D01*
X122382780Y-47049042D01*
X122510532Y-47288050D01*
X122682458Y-47497542D01*
X122891950Y-47669468D01*
X123130958Y-47797220D01*
X123390296Y-47875890D01*
X123659999Y-47902453D01*
X125260001Y-47902453D01*
X125529704Y-47875890D01*
X125789042Y-47797220D01*
X126028050Y-47669468D01*
X126237542Y-47497542D01*
X126409468Y-47288050D01*
X126537220Y-47049042D01*
X126615890Y-46789704D01*
X126642453Y-46520001D01*
X126642453Y-44919999D01*
X126615890Y-44650296D01*
X126537220Y-44390958D01*
X126409468Y-44151950D01*
X126237542Y-43942458D01*
X126028050Y-43770532D01*
X125789042Y-43642780D01*
X125529704Y-43564110D01*
X125260001Y-43537547D01*
X123659999Y-43537547D01*
X123390296Y-43564110D01*
X123130958Y-43642780D01*
X122891950Y-43770532D01*
X122682458Y-43942458D01*
X122510532Y-44151950D01*
X122382780Y-44390958D01*
X122304110Y-44650296D01*
X122277547Y-44919999D01*
X103645860Y-44919999D01*
X103544063Y-44729551D01*
X102778405Y-43796595D01*
X101845449Y-43030937D01*
X101460167Y-42825000D01*
X101845448Y-42619063D01*
X102207420Y-42322000D01*
X110155991Y-42322000D01*
X111056102Y-42233347D01*
X112211046Y-41882998D01*
X113275449Y-41314063D01*
X114208405Y-40548405D01*
X114974063Y-39615449D01*
X115542998Y-38551046D01*
X115893347Y-37396102D01*
X115949103Y-36830000D01*
X118303355Y-36830000D01*
X118421653Y-38031102D01*
X118772002Y-39186046D01*
X119340937Y-40250449D01*
X120106595Y-41183405D01*
X121039551Y-41949063D01*
X122103954Y-42517998D01*
X123258898Y-42868347D01*
X124159009Y-42957000D01*
X136300991Y-42957000D01*
X137201102Y-42868347D01*
X138356046Y-42517998D01*
X139420449Y-41949063D01*
X140353405Y-41183405D01*
X141119063Y-40250449D01*
X141687998Y-39186046D01*
X142038347Y-38031102D01*
X142156645Y-36830000D01*
X142124236Y-36500940D01*
X151719000Y-36500940D01*
X151719000Y-37159060D01*
X151847392Y-37804534D01*
X152099244Y-38412557D01*
X152464876Y-38959764D01*
X152930236Y-39425124D01*
X153477443Y-39790756D01*
X154085466Y-40042608D01*
X154730940Y-40171000D01*
X155389060Y-40171000D01*
X156034534Y-40042608D01*
X156642557Y-39790756D01*
X157189764Y-39425124D01*
X157655124Y-38959764D01*
X158020756Y-38412557D01*
X158212209Y-37950349D01*
X167465500Y-37950349D01*
X167465500Y-38249652D01*
X167495589Y-38555153D01*
X167614497Y-38947140D01*
X167807594Y-39308398D01*
X168067457Y-39625043D01*
X168384102Y-39884906D01*
X168745361Y-40078003D01*
X169137348Y-40196911D01*
X169545000Y-40237061D01*
X169952653Y-40196911D01*
X170344640Y-40078003D01*
X170705898Y-39884906D01*
X170815000Y-39795369D01*
X170924102Y-39884906D01*
X171285361Y-40078003D01*
X171677348Y-40196911D01*
X172085000Y-40237061D01*
X172492653Y-40196911D01*
X172884640Y-40078003D01*
X173245898Y-39884906D01*
X173562543Y-39625043D01*
X173822406Y-39308398D01*
X174015503Y-38947139D01*
X174134411Y-38555152D01*
X174164500Y-38249651D01*
X174164500Y-37950348D01*
X174160547Y-37910207D01*
X175873000Y-37910207D01*
X175873000Y-38289793D01*
X175947053Y-38662085D01*
X176092315Y-39012777D01*
X176303201Y-39328391D01*
X176571609Y-39596799D01*
X176887223Y-39807685D01*
X177237915Y-39952947D01*
X177610207Y-40027000D01*
X177989793Y-40027000D01*
X178362085Y-39952947D01*
X178712777Y-39807685D01*
X179028391Y-39596799D01*
X179296799Y-39328391D01*
X179507685Y-39012777D01*
X179652947Y-38662085D01*
X179727000Y-38289793D01*
X179727000Y-37950349D01*
X183975500Y-37950349D01*
X183975500Y-38249652D01*
X184005589Y-38555153D01*
X184124497Y-38947140D01*
X184317594Y-39308398D01*
X184577457Y-39625043D01*
X184894102Y-39884906D01*
X185255361Y-40078003D01*
X185647348Y-40196911D01*
X186055000Y-40237061D01*
X186462653Y-40196911D01*
X186854640Y-40078003D01*
X187215898Y-39884906D01*
X187325000Y-39795369D01*
X187434102Y-39884906D01*
X187795361Y-40078003D01*
X188187348Y-40196911D01*
X188307587Y-40208753D01*
X188001609Y-40413201D01*
X187733201Y-40681609D01*
X187522315Y-40997223D01*
X187377053Y-41347915D01*
X187303000Y-41720207D01*
X187303000Y-42099793D01*
X187377053Y-42472085D01*
X187522315Y-42822777D01*
X187733201Y-43138391D01*
X188001609Y-43406799D01*
X188317223Y-43617685D01*
X188667915Y-43762947D01*
X189040207Y-43837000D01*
X189419793Y-43837000D01*
X189792085Y-43762947D01*
X190142777Y-43617685D01*
X190458391Y-43406799D01*
X190694678Y-43170512D01*
X192869783Y-43170512D01*
X192911213Y-43450130D01*
X193006397Y-43716292D01*
X193073329Y-43841514D01*
X193317298Y-43913097D01*
X194130395Y-43100000D01*
X194489605Y-43100000D01*
X195302702Y-43913097D01*
X195546671Y-43841514D01*
X195667571Y-43586004D01*
X195736300Y-43311816D01*
X195750217Y-43029488D01*
X195708787Y-42749870D01*
X195613603Y-42483708D01*
X195546671Y-42358486D01*
X195302702Y-42286903D01*
X194489605Y-43100000D01*
X194130395Y-43100000D01*
X193317298Y-42286903D01*
X193073329Y-42358486D01*
X192952429Y-42613996D01*
X192883700Y-42888184D01*
X192869783Y-43170512D01*
X190694678Y-43170512D01*
X190726799Y-43138391D01*
X190937685Y-42822777D01*
X191082947Y-42472085D01*
X191155507Y-42107298D01*
X193496903Y-42107298D01*
X194310000Y-42920395D01*
X195123097Y-42107298D01*
X195051514Y-41863329D01*
X194796004Y-41742429D01*
X194521816Y-41673700D01*
X194239488Y-41659783D01*
X193959870Y-41701213D01*
X193693708Y-41796397D01*
X193568486Y-41863329D01*
X193496903Y-42107298D01*
X191155507Y-42107298D01*
X191157000Y-42099793D01*
X191157000Y-41720207D01*
X191082947Y-41347915D01*
X190937685Y-40997223D01*
X190726799Y-40681609D01*
X190458391Y-40413201D01*
X190142777Y-40202315D01*
X189792085Y-40057053D01*
X189530995Y-40005119D01*
X189755898Y-39884906D01*
X190072543Y-39625043D01*
X190332406Y-39308398D01*
X190525503Y-38947139D01*
X190644411Y-38555152D01*
X190674500Y-38249651D01*
X190674500Y-37950348D01*
X190670547Y-37910207D01*
X192383000Y-37910207D01*
X192383000Y-38289793D01*
X192457053Y-38662085D01*
X192602315Y-39012777D01*
X192813201Y-39328391D01*
X193081609Y-39596799D01*
X193397223Y-39807685D01*
X193747915Y-39952947D01*
X194120207Y-40027000D01*
X194499793Y-40027000D01*
X194872085Y-39952947D01*
X195222777Y-39807685D01*
X195538391Y-39596799D01*
X195806799Y-39328391D01*
X196017685Y-39012777D01*
X196162947Y-38662085D01*
X196237000Y-38289793D01*
X196237000Y-37910207D01*
X196162947Y-37537915D01*
X196017685Y-37187223D01*
X195806799Y-36871609D01*
X195538391Y-36603201D01*
X195222777Y-36392315D01*
X194872085Y-36247053D01*
X194499793Y-36173000D01*
X194120207Y-36173000D01*
X193747915Y-36247053D01*
X193397223Y-36392315D01*
X193081609Y-36603201D01*
X192813201Y-36871609D01*
X192602315Y-37187223D01*
X192457053Y-37537915D01*
X192383000Y-37910207D01*
X190670547Y-37910207D01*
X190644411Y-37644847D01*
X190525503Y-37252860D01*
X190332406Y-36891602D01*
X190072543Y-36574957D01*
X189755898Y-36315094D01*
X189394639Y-36121997D01*
X189002652Y-36003089D01*
X188595000Y-35962939D01*
X188187347Y-36003089D01*
X187795360Y-36121997D01*
X187434102Y-36315094D01*
X187325000Y-36404631D01*
X187215898Y-36315094D01*
X186854639Y-36121997D01*
X186462652Y-36003089D01*
X186055000Y-35962939D01*
X185647347Y-36003089D01*
X185255360Y-36121997D01*
X184894102Y-36315094D01*
X184577457Y-36574957D01*
X184317594Y-36891602D01*
X184124497Y-37252861D01*
X184005589Y-37644848D01*
X183975500Y-37950349D01*
X179727000Y-37950349D01*
X179727000Y-37910207D01*
X179652947Y-37537915D01*
X179507685Y-37187223D01*
X179296799Y-36871609D01*
X179028391Y-36603201D01*
X178712777Y-36392315D01*
X178362085Y-36247053D01*
X177989793Y-36173000D01*
X177610207Y-36173000D01*
X177237915Y-36247053D01*
X176887223Y-36392315D01*
X176571609Y-36603201D01*
X176303201Y-36871609D01*
X176092315Y-37187223D01*
X175947053Y-37537915D01*
X175873000Y-37910207D01*
X174160547Y-37910207D01*
X174134411Y-37644847D01*
X174015503Y-37252860D01*
X173822406Y-36891602D01*
X173562543Y-36574957D01*
X173245898Y-36315094D01*
X172884639Y-36121997D01*
X172492652Y-36003089D01*
X172085000Y-35962939D01*
X171677347Y-36003089D01*
X171285360Y-36121997D01*
X170924102Y-36315094D01*
X170815000Y-36404631D01*
X170705898Y-36315094D01*
X170344639Y-36121997D01*
X169952652Y-36003089D01*
X169545000Y-35962939D01*
X169137347Y-36003089D01*
X168745360Y-36121997D01*
X168384102Y-36315094D01*
X168067457Y-36574957D01*
X167807594Y-36891602D01*
X167614497Y-37252861D01*
X167495589Y-37644848D01*
X167465500Y-37950349D01*
X158212209Y-37950349D01*
X158272608Y-37804534D01*
X158401000Y-37159060D01*
X158401000Y-36500940D01*
X158272608Y-35855466D01*
X158020756Y-35247443D01*
X157655124Y-34700236D01*
X157189764Y-34234876D01*
X156642557Y-33869244D01*
X156034534Y-33617392D01*
X155389060Y-33489000D01*
X154730940Y-33489000D01*
X154085466Y-33617392D01*
X153477443Y-33869244D01*
X152930236Y-34234876D01*
X152464876Y-34700236D01*
X152099244Y-35247443D01*
X151847392Y-35855466D01*
X151719000Y-36500940D01*
X142124236Y-36500940D01*
X142038347Y-35628898D01*
X141687998Y-34473954D01*
X141119063Y-33409551D01*
X140353405Y-32476595D01*
X139420449Y-31710937D01*
X138356046Y-31142002D01*
X137201102Y-30791653D01*
X136300991Y-30703000D01*
X124159009Y-30703000D01*
X123258898Y-30791653D01*
X122103954Y-31142002D01*
X121039551Y-31710937D01*
X120106595Y-32476595D01*
X119340937Y-33409551D01*
X118772002Y-34473954D01*
X118421653Y-35628898D01*
X118303355Y-36830000D01*
X115949103Y-36830000D01*
X116011645Y-36195000D01*
X115893347Y-34993898D01*
X115542998Y-33838954D01*
X114974063Y-32774551D01*
X114208405Y-31841595D01*
X113275449Y-31075937D01*
X112211046Y-30507002D01*
X111956328Y-30429734D01*
X144839871Y-30429734D01*
X145081699Y-30818411D01*
X145577982Y-31080429D01*
X146115845Y-31240593D01*
X146674621Y-31292748D01*
X147232834Y-31234889D01*
X147769034Y-31069240D01*
X148238301Y-30818411D01*
X148480129Y-30429734D01*
X146660000Y-28609605D01*
X144839871Y-30429734D01*
X111956328Y-30429734D01*
X111056102Y-30156653D01*
X110155991Y-30068000D01*
X98124009Y-30068000D01*
X97223898Y-30156653D01*
X96068954Y-30507002D01*
X95004551Y-31075937D01*
X94071595Y-31841595D01*
X93305937Y-32774551D01*
X92737002Y-33838954D01*
X92386653Y-34993898D01*
X92268355Y-36195000D01*
X89027000Y-36195000D01*
X89027000Y-28444621D01*
X143797252Y-28444621D01*
X143855111Y-29002834D01*
X144020760Y-29539034D01*
X144271589Y-30008301D01*
X144660266Y-30250129D01*
X146480395Y-28430000D01*
X146839605Y-28430000D01*
X148659734Y-30250129D01*
X149048411Y-30008301D01*
X149310429Y-29512018D01*
X149470593Y-28974155D01*
X149522748Y-28415379D01*
X149464889Y-27857166D01*
X149299240Y-27320966D01*
X149048411Y-26851699D01*
X148659734Y-26609871D01*
X146839605Y-28430000D01*
X146480395Y-28430000D01*
X144660266Y-26609871D01*
X144271589Y-26851699D01*
X144009571Y-27347982D01*
X143849407Y-27885845D01*
X143797252Y-28444621D01*
X89027000Y-28444621D01*
X89027000Y-26430266D01*
X144839871Y-26430266D01*
X146660000Y-28250395D01*
X148480129Y-26430266D01*
X148238301Y-26041589D01*
X147742018Y-25779571D01*
X147204155Y-25619407D01*
X146645379Y-25567252D01*
X146087166Y-25625111D01*
X145550966Y-25790760D01*
X145081699Y-26041589D01*
X144839871Y-26430266D01*
X89027000Y-26430266D01*
X89027000Y-20883560D01*
X89261639Y-21118199D01*
X89708281Y-21416636D01*
X90204563Y-21622203D01*
X90731414Y-21727000D01*
X91268586Y-21727000D01*
X91795437Y-21622203D01*
X92291719Y-21416636D01*
X92680830Y-21156640D01*
X166668000Y-21156640D01*
X166668000Y-21723360D01*
X166778561Y-22279190D01*
X166995435Y-22802771D01*
X167310288Y-23273981D01*
X167711019Y-23674712D01*
X168182229Y-23989565D01*
X168705810Y-24206439D01*
X169261640Y-24317000D01*
X169828360Y-24317000D01*
X170384190Y-24206439D01*
X170907771Y-23989565D01*
X171378981Y-23674712D01*
X171779712Y-23273981D01*
X172094565Y-22802771D01*
X172311439Y-22279190D01*
X172422000Y-21723360D01*
X172422000Y-21156640D01*
X183178000Y-21156640D01*
X183178000Y-21723360D01*
X183288561Y-22279190D01*
X183505435Y-22802771D01*
X183820288Y-23273981D01*
X184221019Y-23674712D01*
X184692229Y-23989565D01*
X185215810Y-24206439D01*
X185771640Y-24317000D01*
X186338360Y-24317000D01*
X186894190Y-24206439D01*
X187417771Y-23989565D01*
X187888981Y-23674712D01*
X188289712Y-23273981D01*
X188604565Y-22802771D01*
X188821439Y-22279190D01*
X188932000Y-21723360D01*
X188932000Y-21156640D01*
X188821439Y-20600810D01*
X188604565Y-20077229D01*
X188289712Y-19606019D01*
X187888981Y-19205288D01*
X187417771Y-18890435D01*
X186894190Y-18673561D01*
X186338360Y-18563000D01*
X185771640Y-18563000D01*
X185215810Y-18673561D01*
X184692229Y-18890435D01*
X184221019Y-19205288D01*
X183820288Y-19606019D01*
X183505435Y-20077229D01*
X183288561Y-20600810D01*
X183178000Y-21156640D01*
X172422000Y-21156640D01*
X172311439Y-20600810D01*
X172094565Y-20077229D01*
X171779712Y-19606019D01*
X171378981Y-19205288D01*
X170907771Y-18890435D01*
X170384190Y-18673561D01*
X169828360Y-18563000D01*
X169261640Y-18563000D01*
X168705810Y-18673561D01*
X168182229Y-18890435D01*
X167711019Y-19205288D01*
X167310288Y-19606019D01*
X166995435Y-20077229D01*
X166778561Y-20600810D01*
X166668000Y-21156640D01*
X92680830Y-21156640D01*
X92738361Y-21118199D01*
X93118199Y-20738361D01*
X93416636Y-20291719D01*
X93622203Y-19795437D01*
X93727000Y-19268586D01*
X93727000Y-18731414D01*
X93622203Y-18204563D01*
X93416636Y-17708281D01*
X93118199Y-17261639D01*
X92738361Y-16881801D01*
X92371991Y-16637000D01*
X195628009Y-16637000D01*
X195261639Y-16881801D01*
G37*
%TD.AperFunction*%
%TD*%
M02*
