%TF.GenerationSoftware,KiCad,Pcbnew,(5.1.9)-1*%
%TF.CreationDate,2021-04-18T01:25:59+01:00*%
%TF.ProjectId,PowerPole,506f7765-7250-46f6-9c65-2e6b69636164,rev?*%
%TF.SameCoordinates,Original*%
%TF.FileFunction,Legend,Top*%
%TF.FilePolarity,Positive*%
%FSLAX46Y46*%
G04 Gerber Fmt 4.6, Leading zero omitted, Abs format (unit mm)*
G04 Created by KiCad (PCBNEW (5.1.9)-1) date 2021-04-18 01:25:59*
%MOMM*%
%LPD*%
G01*
G04 APERTURE LIST*
%ADD10C,0.200000*%
%ADD11C,0.100000*%
%ADD12C,0.120000*%
%ADD13C,0.254000*%
%ADD14C,0.150000*%
G04 APERTURE END LIST*
D10*
%TO.C,K1*%
X131160000Y-36830000D02*
X131160000Y-36830000D01*
X131260000Y-36830000D02*
X131260000Y-36830000D01*
X131160000Y-36830000D02*
X131160000Y-36830000D01*
X157560000Y-39080000D02*
X157560000Y-39080000D01*
X157560000Y-49730000D02*
X157560000Y-39080000D01*
X157560000Y-49730000D02*
X157560000Y-49730000D01*
X157560000Y-39080000D02*
X157560000Y-49730000D01*
X157560000Y-23930000D02*
X157560000Y-23930000D01*
X157560000Y-34580000D02*
X157560000Y-23930000D01*
X157560000Y-34580000D02*
X157560000Y-34580000D01*
X157560000Y-23930000D02*
X157560000Y-34580000D01*
X157560000Y-23930000D02*
X131760000Y-23930000D01*
X157560000Y-23930000D02*
X157560000Y-23930000D01*
X131760000Y-23930000D02*
X157560000Y-23930000D01*
X131760000Y-23930000D02*
X131760000Y-23930000D01*
X131760000Y-49730000D02*
X131760000Y-49730000D01*
X131760000Y-23930000D02*
X131760000Y-49730000D01*
X131760000Y-23930000D02*
X131760000Y-23930000D01*
X131760000Y-49730000D02*
X131760000Y-23930000D01*
X131760000Y-49730000D02*
X157560000Y-49730000D01*
X131760000Y-49730000D02*
X131760000Y-49730000D01*
X157560000Y-49730000D02*
X131760000Y-49730000D01*
X157560000Y-49730000D02*
X157560000Y-49730000D01*
X131260000Y-36830000D02*
G75*
G02*
X131160000Y-36830000I-50000J0D01*
G01*
X131160000Y-36830000D02*
G75*
G02*
X131260000Y-36830000I50000J0D01*
G01*
X131260000Y-36830000D02*
G75*
G02*
X131160000Y-36830000I-50000J0D01*
G01*
D11*
%TO.C,F5*%
X163815000Y-88260000D02*
X157050000Y-88260000D01*
X163815000Y-68450000D02*
X163815000Y-88260000D01*
X157050000Y-68450000D02*
X163815000Y-68450000D01*
X157050000Y-88260000D02*
X157050000Y-68450000D01*
%TO.C,F4*%
X144765000Y-88260000D02*
X138000000Y-88260000D01*
X144765000Y-68450000D02*
X144765000Y-88260000D01*
X138000000Y-68450000D02*
X144765000Y-68450000D01*
X138000000Y-88260000D02*
X138000000Y-68450000D01*
%TO.C,F3*%
X121905000Y-88260000D02*
X115140000Y-88260000D01*
X121905000Y-68450000D02*
X121905000Y-88260000D01*
X115140000Y-68450000D02*
X121905000Y-68450000D01*
X115140000Y-88260000D02*
X115140000Y-68450000D01*
%TO.C,F2*%
X102855000Y-88260000D02*
X96090000Y-88260000D01*
X102855000Y-68450000D02*
X102855000Y-88260000D01*
X96090000Y-68450000D02*
X102855000Y-68450000D01*
X96090000Y-88260000D02*
X96090000Y-68450000D01*
%TO.C,F1*%
X106685000Y-39990000D02*
X106685000Y-33225000D01*
X126495000Y-39990000D02*
X106685000Y-39990000D01*
X126495000Y-33225000D02*
X126495000Y-39990000D01*
X106685000Y-33225000D02*
X126495000Y-33225000D01*
D12*
%TO.C,R8*%
X125830000Y-52610000D02*
X123090000Y-52610000D01*
X123090000Y-52610000D02*
X123090000Y-59150000D01*
X123090000Y-59150000D02*
X125830000Y-59150000D01*
X125830000Y-59150000D02*
X125830000Y-52610000D01*
X124460000Y-51840000D02*
X124460000Y-52610000D01*
X124460000Y-59920000D02*
X124460000Y-59150000D01*
%TO.C,J5*%
X103645000Y-112230000D02*
X95745000Y-112230000D01*
X103645000Y-96380000D02*
X95745000Y-96380000D01*
X95745000Y-96380000D02*
X95745000Y-112230000D01*
X103645000Y-96380000D02*
X103645000Y-112230000D01*
%TO.C,J4*%
X122695000Y-112230000D02*
X114795000Y-112230000D01*
X122695000Y-96380000D02*
X114795000Y-96380000D01*
X114795000Y-96380000D02*
X114795000Y-112230000D01*
X122695000Y-96380000D02*
X122695000Y-112230000D01*
%TO.C,J3*%
X145555000Y-112230000D02*
X137655000Y-112230000D01*
X145555000Y-96380000D02*
X137655000Y-96380000D01*
X137655000Y-96380000D02*
X137655000Y-112230000D01*
X145555000Y-96380000D02*
X145555000Y-112230000D01*
%TO.C,J2*%
X164605000Y-112230000D02*
X156705000Y-112230000D01*
X164605000Y-96380000D02*
X156705000Y-96380000D01*
X156705000Y-96380000D02*
X156705000Y-112230000D01*
X164605000Y-96380000D02*
X164605000Y-112230000D01*
%TO.C,J1*%
X102375000Y-50635000D02*
X94475000Y-50635000D01*
X102375000Y-34785000D02*
X94475000Y-34785000D01*
X94475000Y-34785000D02*
X94475000Y-50635000D01*
X102375000Y-34785000D02*
X102375000Y-50635000D01*
%TO.C,C5*%
X180170000Y-36980000D02*
X180170000Y-44220000D01*
X175430000Y-36980000D02*
X175430000Y-44220000D01*
X180170000Y-36980000D02*
X175430000Y-36980000D01*
X180170000Y-44220000D02*
X175430000Y-44220000D01*
%TO.C,D1*%
X164425000Y-34410000D02*
X174665000Y-34410000D01*
X164425000Y-18520000D02*
X174665000Y-18520000D01*
X164425000Y-18520000D02*
X164425000Y-34410000D01*
X174665000Y-18520000D02*
X174665000Y-34410000D01*
X167005000Y-34410000D02*
X167005000Y-36950000D01*
X169545000Y-34410000D02*
X169545000Y-36950000D01*
X172085000Y-34410000D02*
X172085000Y-36950000D01*
%TO.C,R9*%
X187860000Y-50260000D02*
X190600000Y-50260000D01*
X190600000Y-50260000D02*
X190600000Y-43720000D01*
X190600000Y-43720000D02*
X187860000Y-43720000D01*
X187860000Y-43720000D02*
X187860000Y-50260000D01*
X189230000Y-51030000D02*
X189230000Y-50260000D01*
X189230000Y-42950000D02*
X189230000Y-43720000D01*
%TO.C,R7*%
X106580000Y-99790000D02*
X109320000Y-99790000D01*
X109320000Y-99790000D02*
X109320000Y-93250000D01*
X109320000Y-93250000D02*
X106580000Y-93250000D01*
X106580000Y-93250000D02*
X106580000Y-99790000D01*
X107950000Y-100560000D02*
X107950000Y-99790000D01*
X107950000Y-92480000D02*
X107950000Y-93250000D01*
%TO.C,R6*%
X125630000Y-99790000D02*
X128370000Y-99790000D01*
X128370000Y-99790000D02*
X128370000Y-93250000D01*
X128370000Y-93250000D02*
X125630000Y-93250000D01*
X125630000Y-93250000D02*
X125630000Y-99790000D01*
X127000000Y-100560000D02*
X127000000Y-99790000D01*
X127000000Y-92480000D02*
X127000000Y-93250000D01*
%TO.C,R5*%
X148490000Y-99790000D02*
X151230000Y-99790000D01*
X151230000Y-99790000D02*
X151230000Y-93250000D01*
X151230000Y-93250000D02*
X148490000Y-93250000D01*
X148490000Y-93250000D02*
X148490000Y-99790000D01*
X149860000Y-100560000D02*
X149860000Y-99790000D01*
X149860000Y-92480000D02*
X149860000Y-93250000D01*
%TO.C,R4*%
X167540000Y-99790000D02*
X170280000Y-99790000D01*
X170280000Y-99790000D02*
X170280000Y-93250000D01*
X170280000Y-93250000D02*
X167540000Y-93250000D01*
X167540000Y-93250000D02*
X167540000Y-99790000D01*
X168910000Y-100560000D02*
X168910000Y-99790000D01*
X168910000Y-92480000D02*
X168910000Y-93250000D01*
%TO.C,R3*%
X159480000Y-62330000D02*
X159480000Y-59590000D01*
X159480000Y-59590000D02*
X152940000Y-59590000D01*
X152940000Y-59590000D02*
X152940000Y-62330000D01*
X152940000Y-62330000D02*
X159480000Y-62330000D01*
X160250000Y-60960000D02*
X159480000Y-60960000D01*
X152170000Y-60960000D02*
X152940000Y-60960000D01*
%TO.C,R2*%
X185955000Y-64865000D02*
X188695000Y-64865000D01*
X188695000Y-64865000D02*
X188695000Y-58325000D01*
X188695000Y-58325000D02*
X185955000Y-58325000D01*
X185955000Y-58325000D02*
X185955000Y-64865000D01*
X187325000Y-65635000D02*
X187325000Y-64865000D01*
X187325000Y-57555000D02*
X187325000Y-58325000D01*
%TO.C,R1*%
X195045000Y-69120000D02*
X192305000Y-69120000D01*
X192305000Y-69120000D02*
X192305000Y-75660000D01*
X192305000Y-75660000D02*
X195045000Y-75660000D01*
X195045000Y-75660000D02*
X195045000Y-69120000D01*
X193675000Y-68350000D02*
X193675000Y-69120000D01*
X193675000Y-76430000D02*
X193675000Y-75660000D01*
%TO.C,D15*%
X134580000Y-60960000D02*
G75*
G03*
X134580000Y-60960000I-2500000J0D01*
G01*
X134640000Y-62505000D02*
X134640000Y-59415000D01*
X129090000Y-60960462D02*
G75*
G02*
X134640000Y-59415170I2990000J462D01*
G01*
X129090000Y-60959538D02*
G75*
G03*
X134640000Y-62504830I2990000J-462D01*
G01*
%TO.C,D14*%
X134990000Y-55530000D02*
X134990000Y-53690000D01*
X134990000Y-53690000D02*
X131710000Y-53690000D01*
X131710000Y-53690000D02*
X131710000Y-55530000D01*
X131710000Y-55530000D02*
X134990000Y-55530000D01*
X136170000Y-54610000D02*
X134990000Y-54610000D01*
X130530000Y-54610000D02*
X131710000Y-54610000D01*
X134414000Y-55530000D02*
X134414000Y-53690000D01*
X134294000Y-55530000D02*
X134294000Y-53690000D01*
X134534000Y-55530000D02*
X134534000Y-53690000D01*
%TO.C,D13*%
X167270000Y-52420000D02*
X167270000Y-54260000D01*
X167270000Y-54260000D02*
X170550000Y-54260000D01*
X170550000Y-54260000D02*
X170550000Y-52420000D01*
X170550000Y-52420000D02*
X167270000Y-52420000D01*
X166090000Y-53340000D02*
X167270000Y-53340000D01*
X171730000Y-53340000D02*
X170550000Y-53340000D01*
X167846000Y-52420000D02*
X167846000Y-54260000D01*
X167966000Y-52420000D02*
X167966000Y-54260000D01*
X167726000Y-52420000D02*
X167726000Y-54260000D01*
%TO.C,D12*%
X167270000Y-54960000D02*
X167270000Y-56800000D01*
X167270000Y-56800000D02*
X170550000Y-56800000D01*
X170550000Y-56800000D02*
X170550000Y-54960000D01*
X170550000Y-54960000D02*
X167270000Y-54960000D01*
X166090000Y-55880000D02*
X167270000Y-55880000D01*
X171730000Y-55880000D02*
X170550000Y-55880000D01*
X167846000Y-54960000D02*
X167846000Y-56800000D01*
X167966000Y-54960000D02*
X167966000Y-56800000D01*
X167726000Y-54960000D02*
X167726000Y-56800000D01*
%TO.C,D11*%
X160940000Y-49160000D02*
X159100000Y-49160000D01*
X159100000Y-49160000D02*
X159100000Y-52440000D01*
X159100000Y-52440000D02*
X160940000Y-52440000D01*
X160940000Y-52440000D02*
X160940000Y-49160000D01*
X160020000Y-47980000D02*
X160020000Y-49160000D01*
X160020000Y-53620000D02*
X160020000Y-52440000D01*
X160940000Y-49736000D02*
X159100000Y-49736000D01*
X160940000Y-49856000D02*
X159100000Y-49856000D01*
X160940000Y-49616000D02*
X159100000Y-49616000D01*
%TO.C,D10*%
X110450000Y-86360000D02*
G75*
G03*
X110450000Y-86360000I-2500000J0D01*
G01*
X109495000Y-83800000D02*
X106405000Y-83800000D01*
X107950462Y-89350000D02*
G75*
G02*
X106405170Y-83800000I-462J2990000D01*
G01*
X107949538Y-89350000D02*
G75*
G03*
X109494830Y-83800000I462J2990000D01*
G01*
%TO.C,D9*%
X129500000Y-86360000D02*
G75*
G03*
X129500000Y-86360000I-2500000J0D01*
G01*
X128545000Y-83800000D02*
X125455000Y-83800000D01*
X127000462Y-89350000D02*
G75*
G02*
X125455170Y-83800000I-462J2990000D01*
G01*
X126999538Y-89350000D02*
G75*
G03*
X128544830Y-83800000I462J2990000D01*
G01*
%TO.C,D8*%
X152360000Y-86360000D02*
G75*
G03*
X152360000Y-86360000I-2500000J0D01*
G01*
X151405000Y-83800000D02*
X148315000Y-83800000D01*
X149860462Y-89350000D02*
G75*
G02*
X148315170Y-83800000I-462J2990000D01*
G01*
X149859538Y-89350000D02*
G75*
G03*
X151404830Y-83800000I462J2990000D01*
G01*
%TO.C,D7*%
X171410000Y-86360000D02*
G75*
G03*
X171410000Y-86360000I-2500000J0D01*
G01*
X170455000Y-83800000D02*
X167365000Y-83800000D01*
X168910462Y-89350000D02*
G75*
G02*
X167365170Y-83800000I-462J2990000D01*
G01*
X168909538Y-89350000D02*
G75*
G03*
X170454830Y-83800000I462J2990000D01*
G01*
%TO.C,D6*%
X143470000Y-60960000D02*
G75*
G03*
X143470000Y-60960000I-2500000J0D01*
G01*
X138410000Y-59415000D02*
X138410000Y-62505000D01*
X143960000Y-60959538D02*
G75*
G02*
X138410000Y-62504830I-2990000J-462D01*
G01*
X143960000Y-60960462D02*
G75*
G03*
X138410000Y-59415170I-2990000J462D01*
G01*
%TO.C,D5*%
X183110000Y-63960000D02*
X177570000Y-63960000D01*
X177570000Y-63960000D02*
X177570000Y-73200000D01*
X177570000Y-73200000D02*
X183110000Y-73200000D01*
X183110000Y-73200000D02*
X183110000Y-63960000D01*
X180340000Y-62500000D02*
X180340000Y-63960000D01*
X180340000Y-74660000D02*
X180340000Y-73200000D01*
X183110000Y-65430000D02*
X177570000Y-65430000D01*
X183110000Y-65550000D02*
X177570000Y-65550000D01*
X183110000Y-65310000D02*
X177570000Y-65310000D01*
%TO.C,D4*%
X174220000Y-63960000D02*
X168680000Y-63960000D01*
X168680000Y-63960000D02*
X168680000Y-73200000D01*
X168680000Y-73200000D02*
X174220000Y-73200000D01*
X174220000Y-73200000D02*
X174220000Y-63960000D01*
X171450000Y-62500000D02*
X171450000Y-63960000D01*
X171450000Y-74660000D02*
X171450000Y-73200000D01*
X174220000Y-65430000D02*
X168680000Y-65430000D01*
X174220000Y-65550000D02*
X168680000Y-65550000D01*
X174220000Y-65310000D02*
X168680000Y-65310000D01*
%TO.C,D3*%
X186185000Y-76380000D02*
X185855000Y-76380000D01*
X185855000Y-76380000D02*
X185855000Y-70940000D01*
X185855000Y-70940000D02*
X186185000Y-70940000D01*
X188465000Y-76380000D02*
X188795000Y-76380000D01*
X188795000Y-76380000D02*
X188795000Y-70940000D01*
X188795000Y-70940000D02*
X188465000Y-70940000D01*
X185855000Y-75480000D02*
X188795000Y-75480000D01*
X185855000Y-75360000D02*
X188795000Y-75360000D01*
X185855000Y-75600000D02*
X188795000Y-75600000D01*
%TO.C,D2*%
X180935000Y-34410000D02*
X191175000Y-34410000D01*
X180935000Y-18520000D02*
X191175000Y-18520000D01*
X180935000Y-18520000D02*
X180935000Y-34410000D01*
X191175000Y-18520000D02*
X191175000Y-34410000D01*
X183515000Y-34410000D02*
X183515000Y-36950000D01*
X186055000Y-34410000D02*
X186055000Y-36950000D01*
X188595000Y-34410000D02*
X188595000Y-36950000D01*
%TO.C,C4*%
X182415000Y-53190000D02*
X182415000Y-45950000D01*
X187155000Y-53190000D02*
X187155000Y-45950000D01*
X182415000Y-53190000D02*
X187155000Y-53190000D01*
X182415000Y-45950000D02*
X187155000Y-45950000D01*
%TO.C,C3*%
X196680000Y-45235000D02*
X196680000Y-52475000D01*
X191940000Y-45235000D02*
X191940000Y-52475000D01*
X196680000Y-45235000D02*
X191940000Y-45235000D01*
X196680000Y-52475000D02*
X191940000Y-52475000D01*
%TO.C,C2*%
X196680000Y-36980000D02*
X196680000Y-44220000D01*
X191940000Y-36980000D02*
X191940000Y-44220000D01*
X196680000Y-36980000D02*
X191940000Y-36980000D01*
X196680000Y-44220000D02*
X191940000Y-44220000D01*
%TO.C,C1*%
X195660000Y-58150000D02*
G75*
G03*
X195660000Y-58150000I-2620000J0D01*
G01*
X192000000Y-58150000D02*
X190460000Y-58150000D01*
X195620000Y-58150000D02*
X194080000Y-58150000D01*
X192000000Y-58190000D02*
X190460000Y-58190000D01*
X195620000Y-58190000D02*
X194080000Y-58190000D01*
X195619000Y-58230000D02*
X194080000Y-58230000D01*
X192000000Y-58230000D02*
X190461000Y-58230000D01*
X195618000Y-58270000D02*
X194080000Y-58270000D01*
X192000000Y-58270000D02*
X190462000Y-58270000D01*
X195616000Y-58310000D02*
X194080000Y-58310000D01*
X192000000Y-58310000D02*
X190464000Y-58310000D01*
X195613000Y-58350000D02*
X194080000Y-58350000D01*
X192000000Y-58350000D02*
X190467000Y-58350000D01*
X195609000Y-58390000D02*
X194080000Y-58390000D01*
X192000000Y-58390000D02*
X190471000Y-58390000D01*
X195605000Y-58430000D02*
X194080000Y-58430000D01*
X192000000Y-58430000D02*
X190475000Y-58430000D01*
X195601000Y-58470000D02*
X194080000Y-58470000D01*
X192000000Y-58470000D02*
X190479000Y-58470000D01*
X195596000Y-58510000D02*
X194080000Y-58510000D01*
X192000000Y-58510000D02*
X190484000Y-58510000D01*
X195590000Y-58550000D02*
X194080000Y-58550000D01*
X192000000Y-58550000D02*
X190490000Y-58550000D01*
X195583000Y-58590000D02*
X194080000Y-58590000D01*
X192000000Y-58590000D02*
X190497000Y-58590000D01*
X195576000Y-58630000D02*
X194080000Y-58630000D01*
X192000000Y-58630000D02*
X190504000Y-58630000D01*
X195568000Y-58670000D02*
X194080000Y-58670000D01*
X192000000Y-58670000D02*
X190512000Y-58670000D01*
X195560000Y-58710000D02*
X194080000Y-58710000D01*
X192000000Y-58710000D02*
X190520000Y-58710000D01*
X195551000Y-58750000D02*
X194080000Y-58750000D01*
X192000000Y-58750000D02*
X190529000Y-58750000D01*
X195541000Y-58790000D02*
X194080000Y-58790000D01*
X192000000Y-58790000D02*
X190539000Y-58790000D01*
X195531000Y-58830000D02*
X194080000Y-58830000D01*
X192000000Y-58830000D02*
X190549000Y-58830000D01*
X195520000Y-58871000D02*
X194080000Y-58871000D01*
X192000000Y-58871000D02*
X190560000Y-58871000D01*
X195508000Y-58911000D02*
X194080000Y-58911000D01*
X192000000Y-58911000D02*
X190572000Y-58911000D01*
X195495000Y-58951000D02*
X194080000Y-58951000D01*
X192000000Y-58951000D02*
X190585000Y-58951000D01*
X195482000Y-58991000D02*
X194080000Y-58991000D01*
X192000000Y-58991000D02*
X190598000Y-58991000D01*
X195468000Y-59031000D02*
X194080000Y-59031000D01*
X192000000Y-59031000D02*
X190612000Y-59031000D01*
X195454000Y-59071000D02*
X194080000Y-59071000D01*
X192000000Y-59071000D02*
X190626000Y-59071000D01*
X195438000Y-59111000D02*
X194080000Y-59111000D01*
X192000000Y-59111000D02*
X190642000Y-59111000D01*
X195422000Y-59151000D02*
X194080000Y-59151000D01*
X192000000Y-59151000D02*
X190658000Y-59151000D01*
X195405000Y-59191000D02*
X194080000Y-59191000D01*
X192000000Y-59191000D02*
X190675000Y-59191000D01*
X195388000Y-59231000D02*
X194080000Y-59231000D01*
X192000000Y-59231000D02*
X190692000Y-59231000D01*
X195369000Y-59271000D02*
X194080000Y-59271000D01*
X192000000Y-59271000D02*
X190711000Y-59271000D01*
X195350000Y-59311000D02*
X194080000Y-59311000D01*
X192000000Y-59311000D02*
X190730000Y-59311000D01*
X195330000Y-59351000D02*
X194080000Y-59351000D01*
X192000000Y-59351000D02*
X190750000Y-59351000D01*
X195308000Y-59391000D02*
X194080000Y-59391000D01*
X192000000Y-59391000D02*
X190772000Y-59391000D01*
X195287000Y-59431000D02*
X194080000Y-59431000D01*
X192000000Y-59431000D02*
X190793000Y-59431000D01*
X195264000Y-59471000D02*
X194080000Y-59471000D01*
X192000000Y-59471000D02*
X190816000Y-59471000D01*
X195240000Y-59511000D02*
X194080000Y-59511000D01*
X192000000Y-59511000D02*
X190840000Y-59511000D01*
X195215000Y-59551000D02*
X194080000Y-59551000D01*
X192000000Y-59551000D02*
X190865000Y-59551000D01*
X195189000Y-59591000D02*
X194080000Y-59591000D01*
X192000000Y-59591000D02*
X190891000Y-59591000D01*
X195162000Y-59631000D02*
X194080000Y-59631000D01*
X192000000Y-59631000D02*
X190918000Y-59631000D01*
X195135000Y-59671000D02*
X194080000Y-59671000D01*
X192000000Y-59671000D02*
X190945000Y-59671000D01*
X195105000Y-59711000D02*
X194080000Y-59711000D01*
X192000000Y-59711000D02*
X190975000Y-59711000D01*
X195075000Y-59751000D02*
X194080000Y-59751000D01*
X192000000Y-59751000D02*
X191005000Y-59751000D01*
X195044000Y-59791000D02*
X194080000Y-59791000D01*
X192000000Y-59791000D02*
X191036000Y-59791000D01*
X195011000Y-59831000D02*
X194080000Y-59831000D01*
X192000000Y-59831000D02*
X191069000Y-59831000D01*
X194977000Y-59871000D02*
X194080000Y-59871000D01*
X192000000Y-59871000D02*
X191103000Y-59871000D01*
X194941000Y-59911000D02*
X194080000Y-59911000D01*
X192000000Y-59911000D02*
X191139000Y-59911000D01*
X194904000Y-59951000D02*
X194080000Y-59951000D01*
X192000000Y-59951000D02*
X191176000Y-59951000D01*
X194866000Y-59991000D02*
X194080000Y-59991000D01*
X192000000Y-59991000D02*
X191214000Y-59991000D01*
X194825000Y-60031000D02*
X194080000Y-60031000D01*
X192000000Y-60031000D02*
X191255000Y-60031000D01*
X194783000Y-60071000D02*
X194080000Y-60071000D01*
X192000000Y-60071000D02*
X191297000Y-60071000D01*
X194739000Y-60111000D02*
X194080000Y-60111000D01*
X192000000Y-60111000D02*
X191341000Y-60111000D01*
X194693000Y-60151000D02*
X194080000Y-60151000D01*
X192000000Y-60151000D02*
X191387000Y-60151000D01*
X194645000Y-60191000D02*
X191435000Y-60191000D01*
X194594000Y-60231000D02*
X191486000Y-60231000D01*
X194540000Y-60271000D02*
X191540000Y-60271000D01*
X194483000Y-60311000D02*
X191597000Y-60311000D01*
X194423000Y-60351000D02*
X191657000Y-60351000D01*
X194359000Y-60391000D02*
X191721000Y-60391000D01*
X194291000Y-60431000D02*
X191789000Y-60431000D01*
X194218000Y-60471000D02*
X191862000Y-60471000D01*
X194138000Y-60511000D02*
X191942000Y-60511000D01*
X194051000Y-60551000D02*
X192029000Y-60551000D01*
X193955000Y-60591000D02*
X192125000Y-60591000D01*
X193845000Y-60631000D02*
X192235000Y-60631000D01*
X193717000Y-60671000D02*
X192363000Y-60671000D01*
X193558000Y-60711000D02*
X192522000Y-60711000D01*
X193324000Y-60751000D02*
X192756000Y-60751000D01*
X194515000Y-55345225D02*
X194515000Y-55845225D01*
X194765000Y-55595225D02*
X194265000Y-55595225D01*
%TO.C,K1*%
D13*
X145234523Y-37767380D02*
X143964523Y-37767380D01*
X145234523Y-37041666D02*
X144508809Y-37585952D01*
X143964523Y-37041666D02*
X144690238Y-37767380D01*
X145234523Y-35832142D02*
X145234523Y-36557857D01*
X145234523Y-36195000D02*
X143964523Y-36195000D01*
X144145952Y-36315952D01*
X144266904Y-36436904D01*
X144327380Y-36557857D01*
%TO.C,F5*%
X160342285Y-78778333D02*
X160342285Y-79201666D01*
X161007523Y-79201666D02*
X159737523Y-79201666D01*
X159737523Y-78596904D01*
X159737523Y-77508333D02*
X159737523Y-78113095D01*
X160342285Y-78173571D01*
X160281809Y-78113095D01*
X160221333Y-77992142D01*
X160221333Y-77689761D01*
X160281809Y-77568809D01*
X160342285Y-77508333D01*
X160463238Y-77447857D01*
X160765619Y-77447857D01*
X160886571Y-77508333D01*
X160947047Y-77568809D01*
X161007523Y-77689761D01*
X161007523Y-77992142D01*
X160947047Y-78113095D01*
X160886571Y-78173571D01*
%TO.C,F4*%
X141292285Y-78778333D02*
X141292285Y-79201666D01*
X141957523Y-79201666D02*
X140687523Y-79201666D01*
X140687523Y-78596904D01*
X141110857Y-77568809D02*
X141957523Y-77568809D01*
X140627047Y-77871190D02*
X141534190Y-78173571D01*
X141534190Y-77387380D01*
%TO.C,F3*%
X118432285Y-78778333D02*
X118432285Y-79201666D01*
X119097523Y-79201666D02*
X117827523Y-79201666D01*
X117827523Y-78596904D01*
X117827523Y-78234047D02*
X117827523Y-77447857D01*
X118311333Y-77871190D01*
X118311333Y-77689761D01*
X118371809Y-77568809D01*
X118432285Y-77508333D01*
X118553238Y-77447857D01*
X118855619Y-77447857D01*
X118976571Y-77508333D01*
X119037047Y-77568809D01*
X119097523Y-77689761D01*
X119097523Y-78052619D01*
X119037047Y-78173571D01*
X118976571Y-78234047D01*
%TO.C,F2*%
X99382285Y-78778333D02*
X99382285Y-79201666D01*
X100047523Y-79201666D02*
X98777523Y-79201666D01*
X98777523Y-78596904D01*
X98898476Y-78173571D02*
X98838000Y-78113095D01*
X98777523Y-77992142D01*
X98777523Y-77689761D01*
X98838000Y-77568809D01*
X98898476Y-77508333D01*
X99019428Y-77447857D01*
X99140380Y-77447857D01*
X99321809Y-77508333D01*
X100047523Y-78234047D01*
X100047523Y-77447857D01*
%TO.C,F1*%
X116166666Y-36517285D02*
X115743333Y-36517285D01*
X115743333Y-37182523D02*
X115743333Y-35912523D01*
X116348095Y-35912523D01*
X117497142Y-37182523D02*
X116771428Y-37182523D01*
X117134285Y-37182523D02*
X117134285Y-35912523D01*
X117013333Y-36093952D01*
X116892380Y-36214904D01*
X116771428Y-36275380D01*
%TO.C,R8*%
D14*
X127282380Y-56046666D02*
X126806190Y-56380000D01*
X127282380Y-56618095D02*
X126282380Y-56618095D01*
X126282380Y-56237142D01*
X126330000Y-56141904D01*
X126377619Y-56094285D01*
X126472857Y-56046666D01*
X126615714Y-56046666D01*
X126710952Y-56094285D01*
X126758571Y-56141904D01*
X126806190Y-56237142D01*
X126806190Y-56618095D01*
X126710952Y-55475238D02*
X126663333Y-55570476D01*
X126615714Y-55618095D01*
X126520476Y-55665714D01*
X126472857Y-55665714D01*
X126377619Y-55618095D01*
X126330000Y-55570476D01*
X126282380Y-55475238D01*
X126282380Y-55284761D01*
X126330000Y-55189523D01*
X126377619Y-55141904D01*
X126472857Y-55094285D01*
X126520476Y-55094285D01*
X126615714Y-55141904D01*
X126663333Y-55189523D01*
X126710952Y-55284761D01*
X126710952Y-55475238D01*
X126758571Y-55570476D01*
X126806190Y-55618095D01*
X126901428Y-55665714D01*
X127091904Y-55665714D01*
X127187142Y-55618095D01*
X127234761Y-55570476D01*
X127282380Y-55475238D01*
X127282380Y-55284761D01*
X127234761Y-55189523D01*
X127187142Y-55141904D01*
X127091904Y-55094285D01*
X126901428Y-55094285D01*
X126806190Y-55141904D01*
X126758571Y-55189523D01*
X126710952Y-55284761D01*
%TO.C,J8*%
X107616666Y-53837380D02*
X107616666Y-54551666D01*
X107569047Y-54694523D01*
X107473809Y-54789761D01*
X107330952Y-54837380D01*
X107235714Y-54837380D01*
X108235714Y-54265952D02*
X108140476Y-54218333D01*
X108092857Y-54170714D01*
X108045238Y-54075476D01*
X108045238Y-54027857D01*
X108092857Y-53932619D01*
X108140476Y-53885000D01*
X108235714Y-53837380D01*
X108426190Y-53837380D01*
X108521428Y-53885000D01*
X108569047Y-53932619D01*
X108616666Y-54027857D01*
X108616666Y-54075476D01*
X108569047Y-54170714D01*
X108521428Y-54218333D01*
X108426190Y-54265952D01*
X108235714Y-54265952D01*
X108140476Y-54313571D01*
X108092857Y-54361190D01*
X108045238Y-54456428D01*
X108045238Y-54646904D01*
X108092857Y-54742142D01*
X108140476Y-54789761D01*
X108235714Y-54837380D01*
X108426190Y-54837380D01*
X108521428Y-54789761D01*
X108569047Y-54742142D01*
X108616666Y-54646904D01*
X108616666Y-54456428D01*
X108569047Y-54361190D01*
X108521428Y-54313571D01*
X108426190Y-54265952D01*
%TO.C,J7*%
X98091666Y-53837380D02*
X98091666Y-54551666D01*
X98044047Y-54694523D01*
X97948809Y-54789761D01*
X97805952Y-54837380D01*
X97710714Y-54837380D01*
X98472619Y-53837380D02*
X99139285Y-53837380D01*
X98710714Y-54837380D01*
%TO.C,J6*%
X124126666Y-42922380D02*
X124126666Y-43636666D01*
X124079047Y-43779523D01*
X123983809Y-43874761D01*
X123840952Y-43922380D01*
X123745714Y-43922380D01*
X125031428Y-42922380D02*
X124840952Y-42922380D01*
X124745714Y-42970000D01*
X124698095Y-43017619D01*
X124602857Y-43160476D01*
X124555238Y-43350952D01*
X124555238Y-43731904D01*
X124602857Y-43827142D01*
X124650476Y-43874761D01*
X124745714Y-43922380D01*
X124936190Y-43922380D01*
X125031428Y-43874761D01*
X125079047Y-43827142D01*
X125126666Y-43731904D01*
X125126666Y-43493809D01*
X125079047Y-43398571D01*
X125031428Y-43350952D01*
X124936190Y-43303333D01*
X124745714Y-43303333D01*
X124650476Y-43350952D01*
X124602857Y-43398571D01*
X124555238Y-43493809D01*
%TO.C,J5*%
X104227380Y-104600333D02*
X104941666Y-104600333D01*
X105084523Y-104647952D01*
X105179761Y-104743190D01*
X105227380Y-104886047D01*
X105227380Y-104981285D01*
X104227380Y-103647952D02*
X104227380Y-104124142D01*
X104703571Y-104171761D01*
X104655952Y-104124142D01*
X104608333Y-104028904D01*
X104608333Y-103790809D01*
X104655952Y-103695571D01*
X104703571Y-103647952D01*
X104798809Y-103600333D01*
X105036904Y-103600333D01*
X105132142Y-103647952D01*
X105179761Y-103695571D01*
X105227380Y-103790809D01*
X105227380Y-104028904D01*
X105179761Y-104124142D01*
X105132142Y-104171761D01*
%TO.C,J4*%
X123277380Y-104600333D02*
X123991666Y-104600333D01*
X124134523Y-104647952D01*
X124229761Y-104743190D01*
X124277380Y-104886047D01*
X124277380Y-104981285D01*
X123610714Y-103695571D02*
X124277380Y-103695571D01*
X123229761Y-103933666D02*
X123944047Y-104171761D01*
X123944047Y-103552714D01*
%TO.C,J3*%
X146137380Y-104600333D02*
X146851666Y-104600333D01*
X146994523Y-104647952D01*
X147089761Y-104743190D01*
X147137380Y-104886047D01*
X147137380Y-104981285D01*
X146137380Y-104219380D02*
X146137380Y-103600333D01*
X146518333Y-103933666D01*
X146518333Y-103790809D01*
X146565952Y-103695571D01*
X146613571Y-103647952D01*
X146708809Y-103600333D01*
X146946904Y-103600333D01*
X147042142Y-103647952D01*
X147089761Y-103695571D01*
X147137380Y-103790809D01*
X147137380Y-104076523D01*
X147089761Y-104171761D01*
X147042142Y-104219380D01*
%TO.C,J2*%
X165187380Y-104600333D02*
X165901666Y-104600333D01*
X166044523Y-104647952D01*
X166139761Y-104743190D01*
X166187380Y-104886047D01*
X166187380Y-104981285D01*
X165282619Y-104171761D02*
X165235000Y-104124142D01*
X165187380Y-104028904D01*
X165187380Y-103790809D01*
X165235000Y-103695571D01*
X165282619Y-103647952D01*
X165377857Y-103600333D01*
X165473095Y-103600333D01*
X165615952Y-103647952D01*
X166187380Y-104219380D01*
X166187380Y-103600333D01*
%TO.C,J1*%
X102957380Y-43005333D02*
X103671666Y-43005333D01*
X103814523Y-43052952D01*
X103909761Y-43148190D01*
X103957380Y-43291047D01*
X103957380Y-43386285D01*
X103957380Y-42005333D02*
X103957380Y-42576761D01*
X103957380Y-42291047D02*
X102957380Y-42291047D01*
X103100238Y-42386285D01*
X103195476Y-42481523D01*
X103243095Y-42576761D01*
%TO.C,C5*%
X181657142Y-40766666D02*
X181704761Y-40814285D01*
X181752380Y-40957142D01*
X181752380Y-41052380D01*
X181704761Y-41195238D01*
X181609523Y-41290476D01*
X181514285Y-41338095D01*
X181323809Y-41385714D01*
X181180952Y-41385714D01*
X180990476Y-41338095D01*
X180895238Y-41290476D01*
X180800000Y-41195238D01*
X180752380Y-41052380D01*
X180752380Y-40957142D01*
X180800000Y-40814285D01*
X180847619Y-40766666D01*
X180752380Y-39861904D02*
X180752380Y-40338095D01*
X181228571Y-40385714D01*
X181180952Y-40338095D01*
X181133333Y-40242857D01*
X181133333Y-40004761D01*
X181180952Y-39909523D01*
X181228571Y-39861904D01*
X181323809Y-39814285D01*
X181561904Y-39814285D01*
X181657142Y-39861904D01*
X181704761Y-39909523D01*
X181752380Y-40004761D01*
X181752380Y-40242857D01*
X181704761Y-40338095D01*
X181657142Y-40385714D01*
%TO.C,D1*%
X168806904Y-17972380D02*
X168806904Y-16972380D01*
X169045000Y-16972380D01*
X169187857Y-17020000D01*
X169283095Y-17115238D01*
X169330714Y-17210476D01*
X169378333Y-17400952D01*
X169378333Y-17543809D01*
X169330714Y-17734285D01*
X169283095Y-17829523D01*
X169187857Y-17924761D01*
X169045000Y-17972380D01*
X168806904Y-17972380D01*
X170330714Y-17972380D02*
X169759285Y-17972380D01*
X170045000Y-17972380D02*
X170045000Y-16972380D01*
X169949761Y-17115238D01*
X169854523Y-17210476D01*
X169759285Y-17258095D01*
%TO.C,SW1*%
X141436666Y-53014761D02*
X141579523Y-53062380D01*
X141817619Y-53062380D01*
X141912857Y-53014761D01*
X141960476Y-52967142D01*
X142008095Y-52871904D01*
X142008095Y-52776666D01*
X141960476Y-52681428D01*
X141912857Y-52633809D01*
X141817619Y-52586190D01*
X141627142Y-52538571D01*
X141531904Y-52490952D01*
X141484285Y-52443333D01*
X141436666Y-52348095D01*
X141436666Y-52252857D01*
X141484285Y-52157619D01*
X141531904Y-52110000D01*
X141627142Y-52062380D01*
X141865238Y-52062380D01*
X142008095Y-52110000D01*
X142341428Y-52062380D02*
X142579523Y-53062380D01*
X142770000Y-52348095D01*
X142960476Y-53062380D01*
X143198571Y-52062380D01*
X144103333Y-53062380D02*
X143531904Y-53062380D01*
X143817619Y-53062380D02*
X143817619Y-52062380D01*
X143722380Y-52205238D01*
X143627142Y-52300476D01*
X143531904Y-52348095D01*
%TO.C,R9*%
X187312380Y-47156666D02*
X186836190Y-47490000D01*
X187312380Y-47728095D02*
X186312380Y-47728095D01*
X186312380Y-47347142D01*
X186360000Y-47251904D01*
X186407619Y-47204285D01*
X186502857Y-47156666D01*
X186645714Y-47156666D01*
X186740952Y-47204285D01*
X186788571Y-47251904D01*
X186836190Y-47347142D01*
X186836190Y-47728095D01*
X187312380Y-46680476D02*
X187312380Y-46490000D01*
X187264761Y-46394761D01*
X187217142Y-46347142D01*
X187074285Y-46251904D01*
X186883809Y-46204285D01*
X186502857Y-46204285D01*
X186407619Y-46251904D01*
X186360000Y-46299523D01*
X186312380Y-46394761D01*
X186312380Y-46585238D01*
X186360000Y-46680476D01*
X186407619Y-46728095D01*
X186502857Y-46775714D01*
X186740952Y-46775714D01*
X186836190Y-46728095D01*
X186883809Y-46680476D01*
X186931428Y-46585238D01*
X186931428Y-46394761D01*
X186883809Y-46299523D01*
X186836190Y-46251904D01*
X186740952Y-46204285D01*
%TO.C,R7*%
X106032380Y-96686666D02*
X105556190Y-97020000D01*
X106032380Y-97258095D02*
X105032380Y-97258095D01*
X105032380Y-96877142D01*
X105080000Y-96781904D01*
X105127619Y-96734285D01*
X105222857Y-96686666D01*
X105365714Y-96686666D01*
X105460952Y-96734285D01*
X105508571Y-96781904D01*
X105556190Y-96877142D01*
X105556190Y-97258095D01*
X105032380Y-96353333D02*
X105032380Y-95686666D01*
X106032380Y-96115238D01*
%TO.C,R6*%
X125082380Y-96686666D02*
X124606190Y-97020000D01*
X125082380Y-97258095D02*
X124082380Y-97258095D01*
X124082380Y-96877142D01*
X124130000Y-96781904D01*
X124177619Y-96734285D01*
X124272857Y-96686666D01*
X124415714Y-96686666D01*
X124510952Y-96734285D01*
X124558571Y-96781904D01*
X124606190Y-96877142D01*
X124606190Y-97258095D01*
X124082380Y-95829523D02*
X124082380Y-96020000D01*
X124130000Y-96115238D01*
X124177619Y-96162857D01*
X124320476Y-96258095D01*
X124510952Y-96305714D01*
X124891904Y-96305714D01*
X124987142Y-96258095D01*
X125034761Y-96210476D01*
X125082380Y-96115238D01*
X125082380Y-95924761D01*
X125034761Y-95829523D01*
X124987142Y-95781904D01*
X124891904Y-95734285D01*
X124653809Y-95734285D01*
X124558571Y-95781904D01*
X124510952Y-95829523D01*
X124463333Y-95924761D01*
X124463333Y-96115238D01*
X124510952Y-96210476D01*
X124558571Y-96258095D01*
X124653809Y-96305714D01*
%TO.C,R5*%
X147942380Y-96686666D02*
X147466190Y-97020000D01*
X147942380Y-97258095D02*
X146942380Y-97258095D01*
X146942380Y-96877142D01*
X146990000Y-96781904D01*
X147037619Y-96734285D01*
X147132857Y-96686666D01*
X147275714Y-96686666D01*
X147370952Y-96734285D01*
X147418571Y-96781904D01*
X147466190Y-96877142D01*
X147466190Y-97258095D01*
X146942380Y-95781904D02*
X146942380Y-96258095D01*
X147418571Y-96305714D01*
X147370952Y-96258095D01*
X147323333Y-96162857D01*
X147323333Y-95924761D01*
X147370952Y-95829523D01*
X147418571Y-95781904D01*
X147513809Y-95734285D01*
X147751904Y-95734285D01*
X147847142Y-95781904D01*
X147894761Y-95829523D01*
X147942380Y-95924761D01*
X147942380Y-96162857D01*
X147894761Y-96258095D01*
X147847142Y-96305714D01*
%TO.C,R4*%
X166992380Y-96686666D02*
X166516190Y-97020000D01*
X166992380Y-97258095D02*
X165992380Y-97258095D01*
X165992380Y-96877142D01*
X166040000Y-96781904D01*
X166087619Y-96734285D01*
X166182857Y-96686666D01*
X166325714Y-96686666D01*
X166420952Y-96734285D01*
X166468571Y-96781904D01*
X166516190Y-96877142D01*
X166516190Y-97258095D01*
X166325714Y-95829523D02*
X166992380Y-95829523D01*
X165944761Y-96067619D02*
X166659047Y-96305714D01*
X166659047Y-95686666D01*
%TO.C,R3*%
X156043333Y-63782380D02*
X155710000Y-63306190D01*
X155471904Y-63782380D02*
X155471904Y-62782380D01*
X155852857Y-62782380D01*
X155948095Y-62830000D01*
X155995714Y-62877619D01*
X156043333Y-62972857D01*
X156043333Y-63115714D01*
X155995714Y-63210952D01*
X155948095Y-63258571D01*
X155852857Y-63306190D01*
X155471904Y-63306190D01*
X156376666Y-62782380D02*
X156995714Y-62782380D01*
X156662380Y-63163333D01*
X156805238Y-63163333D01*
X156900476Y-63210952D01*
X156948095Y-63258571D01*
X156995714Y-63353809D01*
X156995714Y-63591904D01*
X156948095Y-63687142D01*
X156900476Y-63734761D01*
X156805238Y-63782380D01*
X156519523Y-63782380D01*
X156424285Y-63734761D01*
X156376666Y-63687142D01*
%TO.C,R2*%
X185407380Y-61761666D02*
X184931190Y-62095000D01*
X185407380Y-62333095D02*
X184407380Y-62333095D01*
X184407380Y-61952142D01*
X184455000Y-61856904D01*
X184502619Y-61809285D01*
X184597857Y-61761666D01*
X184740714Y-61761666D01*
X184835952Y-61809285D01*
X184883571Y-61856904D01*
X184931190Y-61952142D01*
X184931190Y-62333095D01*
X184502619Y-61380714D02*
X184455000Y-61333095D01*
X184407380Y-61237857D01*
X184407380Y-60999761D01*
X184455000Y-60904523D01*
X184502619Y-60856904D01*
X184597857Y-60809285D01*
X184693095Y-60809285D01*
X184835952Y-60856904D01*
X185407380Y-61428333D01*
X185407380Y-60809285D01*
%TO.C,R1*%
X196497380Y-72556666D02*
X196021190Y-72890000D01*
X196497380Y-73128095D02*
X195497380Y-73128095D01*
X195497380Y-72747142D01*
X195545000Y-72651904D01*
X195592619Y-72604285D01*
X195687857Y-72556666D01*
X195830714Y-72556666D01*
X195925952Y-72604285D01*
X195973571Y-72651904D01*
X196021190Y-72747142D01*
X196021190Y-73128095D01*
X196497380Y-71604285D02*
X196497380Y-72175714D01*
X196497380Y-71890000D02*
X195497380Y-71890000D01*
X195640238Y-71985238D01*
X195735476Y-72080476D01*
X195783095Y-72175714D01*
%TO.C,D15*%
X130865714Y-65372380D02*
X130865714Y-64372380D01*
X131103809Y-64372380D01*
X131246666Y-64420000D01*
X131341904Y-64515238D01*
X131389523Y-64610476D01*
X131437142Y-64800952D01*
X131437142Y-64943809D01*
X131389523Y-65134285D01*
X131341904Y-65229523D01*
X131246666Y-65324761D01*
X131103809Y-65372380D01*
X130865714Y-65372380D01*
X132389523Y-65372380D02*
X131818095Y-65372380D01*
X132103809Y-65372380D02*
X132103809Y-64372380D01*
X132008571Y-64515238D01*
X131913333Y-64610476D01*
X131818095Y-64658095D01*
X133294285Y-64372380D02*
X132818095Y-64372380D01*
X132770476Y-64848571D01*
X132818095Y-64800952D01*
X132913333Y-64753333D01*
X133151428Y-64753333D01*
X133246666Y-64800952D01*
X133294285Y-64848571D01*
X133341904Y-64943809D01*
X133341904Y-65181904D01*
X133294285Y-65277142D01*
X133246666Y-65324761D01*
X133151428Y-65372380D01*
X132913333Y-65372380D01*
X132818095Y-65324761D01*
X132770476Y-65277142D01*
%TO.C,D14*%
X132135714Y-56982380D02*
X132135714Y-55982380D01*
X132373809Y-55982380D01*
X132516666Y-56030000D01*
X132611904Y-56125238D01*
X132659523Y-56220476D01*
X132707142Y-56410952D01*
X132707142Y-56553809D01*
X132659523Y-56744285D01*
X132611904Y-56839523D01*
X132516666Y-56934761D01*
X132373809Y-56982380D01*
X132135714Y-56982380D01*
X133659523Y-56982380D02*
X133088095Y-56982380D01*
X133373809Y-56982380D02*
X133373809Y-55982380D01*
X133278571Y-56125238D01*
X133183333Y-56220476D01*
X133088095Y-56268095D01*
X134516666Y-56315714D02*
X134516666Y-56982380D01*
X134278571Y-55934761D02*
X134040476Y-56649047D01*
X134659523Y-56649047D01*
X136898095Y-56812380D02*
X136898095Y-55812380D01*
X137469523Y-56812380D02*
X137040952Y-56240952D01*
X137469523Y-55812380D02*
X136898095Y-56383809D01*
%TO.C,D13*%
X167695714Y-51872380D02*
X167695714Y-50872380D01*
X167933809Y-50872380D01*
X168076666Y-50920000D01*
X168171904Y-51015238D01*
X168219523Y-51110476D01*
X168267142Y-51300952D01*
X168267142Y-51443809D01*
X168219523Y-51634285D01*
X168171904Y-51729523D01*
X168076666Y-51824761D01*
X167933809Y-51872380D01*
X167695714Y-51872380D01*
X169219523Y-51872380D02*
X168648095Y-51872380D01*
X168933809Y-51872380D02*
X168933809Y-50872380D01*
X168838571Y-51015238D01*
X168743333Y-51110476D01*
X168648095Y-51158095D01*
X169552857Y-50872380D02*
X170171904Y-50872380D01*
X169838571Y-51253333D01*
X169981428Y-51253333D01*
X170076666Y-51300952D01*
X170124285Y-51348571D01*
X170171904Y-51443809D01*
X170171904Y-51681904D01*
X170124285Y-51777142D01*
X170076666Y-51824761D01*
X169981428Y-51872380D01*
X169695714Y-51872380D01*
X169600476Y-51824761D01*
X169552857Y-51777142D01*
X164838095Y-52042380D02*
X164838095Y-51042380D01*
X165409523Y-52042380D02*
X164980952Y-51470952D01*
X165409523Y-51042380D02*
X164838095Y-51613809D01*
%TO.C,D12*%
X167695714Y-54412380D02*
X167695714Y-53412380D01*
X167933809Y-53412380D01*
X168076666Y-53460000D01*
X168171904Y-53555238D01*
X168219523Y-53650476D01*
X168267142Y-53840952D01*
X168267142Y-53983809D01*
X168219523Y-54174285D01*
X168171904Y-54269523D01*
X168076666Y-54364761D01*
X167933809Y-54412380D01*
X167695714Y-54412380D01*
X169219523Y-54412380D02*
X168648095Y-54412380D01*
X168933809Y-54412380D02*
X168933809Y-53412380D01*
X168838571Y-53555238D01*
X168743333Y-53650476D01*
X168648095Y-53698095D01*
X169600476Y-53507619D02*
X169648095Y-53460000D01*
X169743333Y-53412380D01*
X169981428Y-53412380D01*
X170076666Y-53460000D01*
X170124285Y-53507619D01*
X170171904Y-53602857D01*
X170171904Y-53698095D01*
X170124285Y-53840952D01*
X169552857Y-54412380D01*
X170171904Y-54412380D01*
X164838095Y-54582380D02*
X164838095Y-53582380D01*
X165409523Y-54582380D02*
X164980952Y-54010952D01*
X165409523Y-53582380D02*
X164838095Y-54153809D01*
%TO.C,D11*%
X162392380Y-52014285D02*
X161392380Y-52014285D01*
X161392380Y-51776190D01*
X161440000Y-51633333D01*
X161535238Y-51538095D01*
X161630476Y-51490476D01*
X161820952Y-51442857D01*
X161963809Y-51442857D01*
X162154285Y-51490476D01*
X162249523Y-51538095D01*
X162344761Y-51633333D01*
X162392380Y-51776190D01*
X162392380Y-52014285D01*
X162392380Y-50490476D02*
X162392380Y-51061904D01*
X162392380Y-50776190D02*
X161392380Y-50776190D01*
X161535238Y-50871428D01*
X161630476Y-50966666D01*
X161678095Y-51061904D01*
X162392380Y-49538095D02*
X162392380Y-50109523D01*
X162392380Y-49823809D02*
X161392380Y-49823809D01*
X161535238Y-49919047D01*
X161630476Y-50014285D01*
X161678095Y-50109523D01*
X162222380Y-47251904D02*
X161222380Y-47251904D01*
X162222380Y-46680476D02*
X161650952Y-47109047D01*
X161222380Y-46680476D02*
X161793809Y-47251904D01*
%TO.C,D10*%
X112362380Y-87574285D02*
X111362380Y-87574285D01*
X111362380Y-87336190D01*
X111410000Y-87193333D01*
X111505238Y-87098095D01*
X111600476Y-87050476D01*
X111790952Y-87002857D01*
X111933809Y-87002857D01*
X112124285Y-87050476D01*
X112219523Y-87098095D01*
X112314761Y-87193333D01*
X112362380Y-87336190D01*
X112362380Y-87574285D01*
X112362380Y-86050476D02*
X112362380Y-86621904D01*
X112362380Y-86336190D02*
X111362380Y-86336190D01*
X111505238Y-86431428D01*
X111600476Y-86526666D01*
X111648095Y-86621904D01*
X111362380Y-85431428D02*
X111362380Y-85336190D01*
X111410000Y-85240952D01*
X111457619Y-85193333D01*
X111552857Y-85145714D01*
X111743333Y-85098095D01*
X111981428Y-85098095D01*
X112171904Y-85145714D01*
X112267142Y-85193333D01*
X112314761Y-85240952D01*
X112362380Y-85336190D01*
X112362380Y-85431428D01*
X112314761Y-85526666D01*
X112267142Y-85574285D01*
X112171904Y-85621904D01*
X111981428Y-85669523D01*
X111743333Y-85669523D01*
X111552857Y-85621904D01*
X111457619Y-85574285D01*
X111410000Y-85526666D01*
X111362380Y-85431428D01*
%TO.C,D9*%
X131412380Y-87098095D02*
X130412380Y-87098095D01*
X130412380Y-86860000D01*
X130460000Y-86717142D01*
X130555238Y-86621904D01*
X130650476Y-86574285D01*
X130840952Y-86526666D01*
X130983809Y-86526666D01*
X131174285Y-86574285D01*
X131269523Y-86621904D01*
X131364761Y-86717142D01*
X131412380Y-86860000D01*
X131412380Y-87098095D01*
X131412380Y-86050476D02*
X131412380Y-85860000D01*
X131364761Y-85764761D01*
X131317142Y-85717142D01*
X131174285Y-85621904D01*
X130983809Y-85574285D01*
X130602857Y-85574285D01*
X130507619Y-85621904D01*
X130460000Y-85669523D01*
X130412380Y-85764761D01*
X130412380Y-85955238D01*
X130460000Y-86050476D01*
X130507619Y-86098095D01*
X130602857Y-86145714D01*
X130840952Y-86145714D01*
X130936190Y-86098095D01*
X130983809Y-86050476D01*
X131031428Y-85955238D01*
X131031428Y-85764761D01*
X130983809Y-85669523D01*
X130936190Y-85621904D01*
X130840952Y-85574285D01*
%TO.C,D8*%
X154272380Y-87098095D02*
X153272380Y-87098095D01*
X153272380Y-86860000D01*
X153320000Y-86717142D01*
X153415238Y-86621904D01*
X153510476Y-86574285D01*
X153700952Y-86526666D01*
X153843809Y-86526666D01*
X154034285Y-86574285D01*
X154129523Y-86621904D01*
X154224761Y-86717142D01*
X154272380Y-86860000D01*
X154272380Y-87098095D01*
X153700952Y-85955238D02*
X153653333Y-86050476D01*
X153605714Y-86098095D01*
X153510476Y-86145714D01*
X153462857Y-86145714D01*
X153367619Y-86098095D01*
X153320000Y-86050476D01*
X153272380Y-85955238D01*
X153272380Y-85764761D01*
X153320000Y-85669523D01*
X153367619Y-85621904D01*
X153462857Y-85574285D01*
X153510476Y-85574285D01*
X153605714Y-85621904D01*
X153653333Y-85669523D01*
X153700952Y-85764761D01*
X153700952Y-85955238D01*
X153748571Y-86050476D01*
X153796190Y-86098095D01*
X153891428Y-86145714D01*
X154081904Y-86145714D01*
X154177142Y-86098095D01*
X154224761Y-86050476D01*
X154272380Y-85955238D01*
X154272380Y-85764761D01*
X154224761Y-85669523D01*
X154177142Y-85621904D01*
X154081904Y-85574285D01*
X153891428Y-85574285D01*
X153796190Y-85621904D01*
X153748571Y-85669523D01*
X153700952Y-85764761D01*
%TO.C,D7*%
X173322380Y-87098095D02*
X172322380Y-87098095D01*
X172322380Y-86860000D01*
X172370000Y-86717142D01*
X172465238Y-86621904D01*
X172560476Y-86574285D01*
X172750952Y-86526666D01*
X172893809Y-86526666D01*
X173084285Y-86574285D01*
X173179523Y-86621904D01*
X173274761Y-86717142D01*
X173322380Y-86860000D01*
X173322380Y-87098095D01*
X172322380Y-86193333D02*
X172322380Y-85526666D01*
X173322380Y-85955238D01*
%TO.C,D6*%
X140231904Y-57452380D02*
X140231904Y-56452380D01*
X140470000Y-56452380D01*
X140612857Y-56500000D01*
X140708095Y-56595238D01*
X140755714Y-56690476D01*
X140803333Y-56880952D01*
X140803333Y-57023809D01*
X140755714Y-57214285D01*
X140708095Y-57309523D01*
X140612857Y-57404761D01*
X140470000Y-57452380D01*
X140231904Y-57452380D01*
X141660476Y-56452380D02*
X141470000Y-56452380D01*
X141374761Y-56500000D01*
X141327142Y-56547619D01*
X141231904Y-56690476D01*
X141184285Y-56880952D01*
X141184285Y-57261904D01*
X141231904Y-57357142D01*
X141279523Y-57404761D01*
X141374761Y-57452380D01*
X141565238Y-57452380D01*
X141660476Y-57404761D01*
X141708095Y-57357142D01*
X141755714Y-57261904D01*
X141755714Y-57023809D01*
X141708095Y-56928571D01*
X141660476Y-56880952D01*
X141565238Y-56833333D01*
X141374761Y-56833333D01*
X141279523Y-56880952D01*
X141231904Y-56928571D01*
X141184285Y-57023809D01*
%TO.C,D5*%
X184562380Y-69318095D02*
X183562380Y-69318095D01*
X183562380Y-69080000D01*
X183610000Y-68937142D01*
X183705238Y-68841904D01*
X183800476Y-68794285D01*
X183990952Y-68746666D01*
X184133809Y-68746666D01*
X184324285Y-68794285D01*
X184419523Y-68841904D01*
X184514761Y-68937142D01*
X184562380Y-69080000D01*
X184562380Y-69318095D01*
X183562380Y-67841904D02*
X183562380Y-68318095D01*
X184038571Y-68365714D01*
X183990952Y-68318095D01*
X183943333Y-68222857D01*
X183943333Y-67984761D01*
X183990952Y-67889523D01*
X184038571Y-67841904D01*
X184133809Y-67794285D01*
X184371904Y-67794285D01*
X184467142Y-67841904D01*
X184514761Y-67889523D01*
X184562380Y-67984761D01*
X184562380Y-68222857D01*
X184514761Y-68318095D01*
X184467142Y-68365714D01*
X183092380Y-61221904D02*
X182092380Y-61221904D01*
X183092380Y-60650476D02*
X182520952Y-61079047D01*
X182092380Y-60650476D02*
X182663809Y-61221904D01*
%TO.C,D4*%
X175672380Y-69318095D02*
X174672380Y-69318095D01*
X174672380Y-69080000D01*
X174720000Y-68937142D01*
X174815238Y-68841904D01*
X174910476Y-68794285D01*
X175100952Y-68746666D01*
X175243809Y-68746666D01*
X175434285Y-68794285D01*
X175529523Y-68841904D01*
X175624761Y-68937142D01*
X175672380Y-69080000D01*
X175672380Y-69318095D01*
X175005714Y-67889523D02*
X175672380Y-67889523D01*
X174624761Y-68127619D02*
X175339047Y-68365714D01*
X175339047Y-67746666D01*
X174202380Y-61221904D02*
X173202380Y-61221904D01*
X174202380Y-60650476D02*
X173630952Y-61079047D01*
X173202380Y-60650476D02*
X173773809Y-61221904D01*
%TO.C,D3*%
X185307380Y-74398095D02*
X184307380Y-74398095D01*
X184307380Y-74160000D01*
X184355000Y-74017142D01*
X184450238Y-73921904D01*
X184545476Y-73874285D01*
X184735952Y-73826666D01*
X184878809Y-73826666D01*
X185069285Y-73874285D01*
X185164523Y-73921904D01*
X185259761Y-74017142D01*
X185307380Y-74160000D01*
X185307380Y-74398095D01*
X184307380Y-73493333D02*
X184307380Y-72874285D01*
X184688333Y-73207619D01*
X184688333Y-73064761D01*
X184735952Y-72969523D01*
X184783571Y-72921904D01*
X184878809Y-72874285D01*
X185116904Y-72874285D01*
X185212142Y-72921904D01*
X185259761Y-72969523D01*
X185307380Y-73064761D01*
X185307380Y-73350476D01*
X185259761Y-73445714D01*
X185212142Y-73493333D01*
X185877380Y-77731904D02*
X184877380Y-77731904D01*
X185877380Y-77160476D02*
X185305952Y-77589047D01*
X184877380Y-77160476D02*
X185448809Y-77731904D01*
%TO.C,D2*%
X185316904Y-17972380D02*
X185316904Y-16972380D01*
X185555000Y-16972380D01*
X185697857Y-17020000D01*
X185793095Y-17115238D01*
X185840714Y-17210476D01*
X185888333Y-17400952D01*
X185888333Y-17543809D01*
X185840714Y-17734285D01*
X185793095Y-17829523D01*
X185697857Y-17924761D01*
X185555000Y-17972380D01*
X185316904Y-17972380D01*
X186269285Y-17067619D02*
X186316904Y-17020000D01*
X186412142Y-16972380D01*
X186650238Y-16972380D01*
X186745476Y-17020000D01*
X186793095Y-17067619D01*
X186840714Y-17162857D01*
X186840714Y-17258095D01*
X186793095Y-17400952D01*
X186221666Y-17972380D01*
X186840714Y-17972380D01*
%TO.C,C4*%
X181642142Y-49736666D02*
X181689761Y-49784285D01*
X181737380Y-49927142D01*
X181737380Y-50022380D01*
X181689761Y-50165238D01*
X181594523Y-50260476D01*
X181499285Y-50308095D01*
X181308809Y-50355714D01*
X181165952Y-50355714D01*
X180975476Y-50308095D01*
X180880238Y-50260476D01*
X180785000Y-50165238D01*
X180737380Y-50022380D01*
X180737380Y-49927142D01*
X180785000Y-49784285D01*
X180832619Y-49736666D01*
X181070714Y-48879523D02*
X181737380Y-48879523D01*
X180689761Y-49117619D02*
X181404047Y-49355714D01*
X181404047Y-48736666D01*
%TO.C,C3*%
X198167142Y-49021666D02*
X198214761Y-49069285D01*
X198262380Y-49212142D01*
X198262380Y-49307380D01*
X198214761Y-49450238D01*
X198119523Y-49545476D01*
X198024285Y-49593095D01*
X197833809Y-49640714D01*
X197690952Y-49640714D01*
X197500476Y-49593095D01*
X197405238Y-49545476D01*
X197310000Y-49450238D01*
X197262380Y-49307380D01*
X197262380Y-49212142D01*
X197310000Y-49069285D01*
X197357619Y-49021666D01*
X197262380Y-48688333D02*
X197262380Y-48069285D01*
X197643333Y-48402619D01*
X197643333Y-48259761D01*
X197690952Y-48164523D01*
X197738571Y-48116904D01*
X197833809Y-48069285D01*
X198071904Y-48069285D01*
X198167142Y-48116904D01*
X198214761Y-48164523D01*
X198262380Y-48259761D01*
X198262380Y-48545476D01*
X198214761Y-48640714D01*
X198167142Y-48688333D01*
%TO.C,C2*%
X198167142Y-40766666D02*
X198214761Y-40814285D01*
X198262380Y-40957142D01*
X198262380Y-41052380D01*
X198214761Y-41195238D01*
X198119523Y-41290476D01*
X198024285Y-41338095D01*
X197833809Y-41385714D01*
X197690952Y-41385714D01*
X197500476Y-41338095D01*
X197405238Y-41290476D01*
X197310000Y-41195238D01*
X197262380Y-41052380D01*
X197262380Y-40957142D01*
X197310000Y-40814285D01*
X197357619Y-40766666D01*
X197357619Y-40385714D02*
X197310000Y-40338095D01*
X197262380Y-40242857D01*
X197262380Y-40004761D01*
X197310000Y-39909523D01*
X197357619Y-39861904D01*
X197452857Y-39814285D01*
X197548095Y-39814285D01*
X197690952Y-39861904D01*
X198262380Y-40433333D01*
X198262380Y-39814285D01*
%TO.C,C1*%
X197147142Y-58316666D02*
X197194761Y-58364285D01*
X197242380Y-58507142D01*
X197242380Y-58602380D01*
X197194761Y-58745238D01*
X197099523Y-58840476D01*
X197004285Y-58888095D01*
X196813809Y-58935714D01*
X196670952Y-58935714D01*
X196480476Y-58888095D01*
X196385238Y-58840476D01*
X196290000Y-58745238D01*
X196242380Y-58602380D01*
X196242380Y-58507142D01*
X196290000Y-58364285D01*
X196337619Y-58316666D01*
X197242380Y-57364285D02*
X197242380Y-57935714D01*
X197242380Y-57650000D02*
X196242380Y-57650000D01*
X196385238Y-57745238D01*
X196480476Y-57840476D01*
X196528095Y-57935714D01*
%TD*%
M02*
