%TF.GenerationSoftware,KiCad,Pcbnew,(5.1.9)-1*%
%TF.CreationDate,2021-04-24T17:16:38+01:00*%
%TF.ProjectId,PowerPole,506f7765-7250-46f6-9c65-2e6b69636164,rev?*%
%TF.SameCoordinates,Original*%
%TF.FileFunction,Copper,L1,Top*%
%TF.FilePolarity,Positive*%
%FSLAX46Y46*%
G04 Gerber Fmt 4.6, Leading zero omitted, Abs format (unit mm)*
G04 Created by KiCad (PCBNEW (5.1.9)-1) date 2021-04-24 17:16:38*
%MOMM*%
%LPD*%
G01*
G04 APERTURE LIST*
%TA.AperFunction,ComponentPad*%
%ADD10C,4.428000*%
%TD*%
%TA.AperFunction,ComponentPad*%
%ADD11C,2.400000*%
%TD*%
%TA.AperFunction,ComponentPad*%
%ADD12O,1.600000X1.600000*%
%TD*%
%TA.AperFunction,ComponentPad*%
%ADD13C,1.600000*%
%TD*%
%TA.AperFunction,ComponentPad*%
%ADD14O,6.000000X5.500000*%
%TD*%
%TA.AperFunction,ComponentPad*%
%ADD15O,1.905000X2.000000*%
%TD*%
%TA.AperFunction,ComponentPad*%
%ADD16R,1.905000X2.000000*%
%TD*%
%TA.AperFunction,ComponentPad*%
%ADD17O,3.500000X3.500000*%
%TD*%
%TA.AperFunction,ComponentPad*%
%ADD18C,1.800000*%
%TD*%
%TA.AperFunction,ComponentPad*%
%ADD19R,1.800000X1.800000*%
%TD*%
%TA.AperFunction,ComponentPad*%
%ADD20O,1.500000X1.500000*%
%TD*%
%TA.AperFunction,ComponentPad*%
%ADD21R,1.500000X1.500000*%
%TD*%
%TA.AperFunction,ComponentPad*%
%ADD22O,2.600000X2.600000*%
%TD*%
%TA.AperFunction,ComponentPad*%
%ADD23R,2.600000X2.600000*%
%TD*%
%TA.AperFunction,ComponentPad*%
%ADD24O,1.800000X1.800000*%
%TD*%
%TA.AperFunction,ComponentPad*%
%ADD25R,1.600000X1.600000*%
%TD*%
%TA.AperFunction,Conductor*%
%ADD26C,0.250000*%
%TD*%
%TA.AperFunction,Conductor*%
%ADD27C,10.000000*%
%TD*%
%TA.AperFunction,Conductor*%
%ADD28C,0.254000*%
%TD*%
%TA.AperFunction,Conductor*%
%ADD29C,0.100000*%
%TD*%
%TA.AperFunction,NonConductor*%
%ADD30C,0.254000*%
%TD*%
%TA.AperFunction,NonConductor*%
%ADD31C,0.100000*%
%TD*%
G04 APERTURE END LIST*
D10*
%TO.P,K1,87*%
%TO.N,/Vout*%
X155060000Y-36830000D03*
%TO.P,K1,86*%
%TO.N,Net-(D11-Pad1)*%
X146660000Y-45230000D03*
%TO.P,K1,85*%
%TO.N,/GND*%
X146660000Y-28430000D03*
%TO.P,K1,30*%
%TO.N,Net-(D14-Pad2)*%
X137160000Y-36830000D03*
%TD*%
D11*
%TO.P,F5,4*%
%TO.N,/Vout*%
X158750000Y-71620000D03*
%TO.P,F5,3*%
X162150000Y-71620000D03*
%TO.P,F5,2*%
%TO.N,Net-(F5-Pad1)*%
X162150000Y-85090000D03*
%TO.P,F5,1*%
X158750000Y-85090000D03*
%TD*%
%TO.P,F4,4*%
%TO.N,/Vout*%
X139700000Y-71620000D03*
%TO.P,F4,3*%
X143100000Y-71620000D03*
%TO.P,F4,2*%
%TO.N,Net-(F4-Pad1)*%
X143100000Y-85090000D03*
%TO.P,F4,1*%
X139700000Y-85090000D03*
%TD*%
%TO.P,F3,4*%
%TO.N,/Vout*%
X116840000Y-71620000D03*
%TO.P,F3,3*%
X120240000Y-71620000D03*
%TO.P,F3,2*%
%TO.N,Net-(F3-Pad1)*%
X120240000Y-85090000D03*
%TO.P,F3,1*%
X116840000Y-85090000D03*
%TD*%
%TO.P,F2,4*%
%TO.N,/Vout*%
X97790000Y-71620000D03*
%TO.P,F2,3*%
X101190000Y-71620000D03*
%TO.P,F2,2*%
%TO.N,Net-(F2-Pad1)*%
X101190000Y-85090000D03*
%TO.P,F2,1*%
X97790000Y-85090000D03*
%TD*%
%TO.P,F1,4*%
%TO.N,Net-(D14-Pad2)*%
X123325000Y-34925000D03*
%TO.P,F1,3*%
X123325000Y-38325000D03*
%TO.P,F1,2*%
%TO.N,Net-(F1-Pad1)*%
X109855000Y-38325000D03*
%TO.P,F1,1*%
X109855000Y-34925000D03*
%TD*%
D12*
%TO.P,R8,2*%
%TO.N,Net-(D15-Pad2)*%
X124460000Y-60960000D03*
D13*
%TO.P,R8,1*%
%TO.N,Net-(D14-Pad2)*%
X124460000Y-50800000D03*
%TD*%
%TO.P,J8,1*%
%TO.N,/GND*%
%TA.AperFunction,ComponentPad*%
G36*
G01*
X105750000Y-59734200D02*
X105750000Y-55835800D01*
G75*
G02*
X106000800Y-55585000I250800J0D01*
G01*
X109899200Y-55585000D01*
G75*
G02*
X110150000Y-55835800I0J-250800D01*
G01*
X110150000Y-59734200D01*
G75*
G02*
X109899200Y-59985000I-250800J0D01*
G01*
X106000800Y-59985000D01*
G75*
G02*
X105750000Y-59734200I0J250800D01*
G01*
G37*
%TD.AperFunction*%
%TD*%
%TO.P,J7,1*%
%TO.N,Net-(J1-Pad2)*%
%TA.AperFunction,ComponentPad*%
G36*
G01*
X96225000Y-59734200D02*
X96225000Y-55835800D01*
G75*
G02*
X96475800Y-55585000I250800J0D01*
G01*
X100374200Y-55585000D01*
G75*
G02*
X100625000Y-55835800I0J-250800D01*
G01*
X100625000Y-59734200D01*
G75*
G02*
X100374200Y-59985000I-250800J0D01*
G01*
X96475800Y-59985000D01*
G75*
G02*
X96225000Y-59734200I0J250800D01*
G01*
G37*
%TD.AperFunction*%
%TD*%
%TO.P,J6,1*%
%TO.N,Net-(D14-Pad2)*%
%TA.AperFunction,ComponentPad*%
G36*
G01*
X123410000Y-46520001D02*
X123410000Y-44919999D01*
G75*
G02*
X123659999Y-44670000I249999J0D01*
G01*
X125260001Y-44670000D01*
G75*
G02*
X125510000Y-44919999I0J-249999D01*
G01*
X125510000Y-46520001D01*
G75*
G02*
X125260001Y-46770000I-249999J0D01*
G01*
X123659999Y-46770000D01*
G75*
G02*
X123410000Y-46520001I0J249999D01*
G01*
G37*
%TD.AperFunction*%
%TD*%
D14*
%TO.P,J5,2*%
%TO.N,/GND*%
X99695000Y-108230000D03*
%TO.P,J5,1*%
%TO.N,Net-(F2-Pad1)*%
X99695000Y-100330000D03*
%TD*%
%TO.P,J4,2*%
%TO.N,/GND*%
X118745000Y-108230000D03*
%TO.P,J4,1*%
%TO.N,Net-(F3-Pad1)*%
X118745000Y-100330000D03*
%TD*%
%TO.P,J3,2*%
%TO.N,/GND*%
X141605000Y-108230000D03*
%TO.P,J3,1*%
%TO.N,Net-(F4-Pad1)*%
X141605000Y-100330000D03*
%TD*%
%TO.P,J2,2*%
%TO.N,/GND*%
X160655000Y-108230000D03*
%TO.P,J2,1*%
%TO.N,Net-(F5-Pad1)*%
X160655000Y-100330000D03*
%TD*%
%TO.P,J1,2*%
%TO.N,Net-(J1-Pad2)*%
X98425000Y-46635000D03*
%TO.P,J1,1*%
%TO.N,Net-(F1-Pad1)*%
X98425000Y-38735000D03*
%TD*%
D13*
%TO.P,C5,2*%
%TO.N,/GND*%
X177800000Y-43100000D03*
%TO.P,C5,1*%
%TO.N,Net-(C1-Pad1)*%
X177800000Y-38100000D03*
%TD*%
D15*
%TO.P,D1,3*%
%TO.N,Net-(C1-Pad1)*%
X172085000Y-38100000D03*
%TO.P,D1,2*%
%TO.N,/Vout*%
X169545000Y-38100000D03*
D16*
%TO.P,D1,1*%
%TO.N,/GND*%
X167005000Y-38100000D03*
D17*
%TO.P,D1,*%
%TO.N,*%
X169545000Y-21440000D03*
%TD*%
D13*
%TO.P,SW1,2*%
%TO.N,Net-(D11-Pad2)*%
X144570000Y-54610000D03*
%TO.P,SW1,1*%
%TO.N,Net-(D14-Pad1)*%
%TA.AperFunction,ComponentPad*%
G36*
G01*
X140170000Y-55160000D02*
X140170000Y-54060000D01*
G75*
G02*
X140420000Y-53810000I250000J0D01*
G01*
X141520000Y-53810000D01*
G75*
G02*
X141770000Y-54060000I0J-250000D01*
G01*
X141770000Y-55160000D01*
G75*
G02*
X141520000Y-55410000I-250000J0D01*
G01*
X140420000Y-55410000D01*
G75*
G02*
X140170000Y-55160000I0J250000D01*
G01*
G37*
%TD.AperFunction*%
%TD*%
D12*
%TO.P,R9,2*%
%TO.N,Net-(C1-Pad1)*%
X189230000Y-41910000D03*
D13*
%TO.P,R9,1*%
X189230000Y-52070000D03*
%TD*%
D12*
%TO.P,R7,2*%
%TO.N,Net-(D10-Pad2)*%
X107950000Y-91440000D03*
D13*
%TO.P,R7,1*%
%TO.N,Net-(F2-Pad1)*%
X107950000Y-101600000D03*
%TD*%
D12*
%TO.P,R6,2*%
%TO.N,Net-(D9-Pad2)*%
X127000000Y-91440000D03*
D13*
%TO.P,R6,1*%
%TO.N,Net-(F3-Pad1)*%
X127000000Y-101600000D03*
%TD*%
D12*
%TO.P,R5,2*%
%TO.N,Net-(D8-Pad2)*%
X149860000Y-91440000D03*
D13*
%TO.P,R5,1*%
%TO.N,Net-(F4-Pad1)*%
X149860000Y-101600000D03*
%TD*%
D12*
%TO.P,R4,2*%
%TO.N,Net-(D7-Pad2)*%
X168910000Y-91440000D03*
D13*
%TO.P,R4,1*%
%TO.N,Net-(F5-Pad1)*%
X168910000Y-101600000D03*
%TD*%
D12*
%TO.P,R3,2*%
%TO.N,Net-(D6-Pad2)*%
X151130000Y-60960000D03*
D13*
%TO.P,R3,1*%
%TO.N,/Vout*%
X161290000Y-60960000D03*
%TD*%
D12*
%TO.P,R2,2*%
%TO.N,Net-(C1-Pad1)*%
X187325000Y-56515000D03*
D13*
%TO.P,R2,1*%
%TO.N,Net-(D3-Pad2)*%
X187325000Y-66675000D03*
%TD*%
D12*
%TO.P,R1,2*%
%TO.N,/GND*%
X193675000Y-77470000D03*
D13*
%TO.P,R1,1*%
%TO.N,Net-(C1-Pad1)*%
X193675000Y-67310000D03*
%TD*%
D18*
%TO.P,D15,2*%
%TO.N,Net-(D15-Pad2)*%
X130810000Y-60960000D03*
D19*
%TO.P,D15,1*%
%TO.N,/GND*%
X133350000Y-60960000D03*
%TD*%
D20*
%TO.P,D14,2*%
%TO.N,Net-(D14-Pad2)*%
X129540000Y-54610000D03*
D21*
%TO.P,D14,1*%
%TO.N,Net-(D14-Pad1)*%
X137160000Y-54610000D03*
%TD*%
D20*
%TO.P,D13,2*%
%TO.N,/GND*%
X172720000Y-53340000D03*
D21*
%TO.P,D13,1*%
%TO.N,Net-(D11-Pad1)*%
X165100000Y-53340000D03*
%TD*%
D20*
%TO.P,D12,2*%
%TO.N,/Vout*%
X172720000Y-55880000D03*
D21*
%TO.P,D12,1*%
%TO.N,Net-(D11-Pad2)*%
X165100000Y-55880000D03*
%TD*%
D20*
%TO.P,D11,2*%
%TO.N,Net-(D11-Pad2)*%
X160020000Y-54610000D03*
D21*
%TO.P,D11,1*%
%TO.N,Net-(D11-Pad1)*%
X160020000Y-46990000D03*
%TD*%
D18*
%TO.P,D10,2*%
%TO.N,Net-(D10-Pad2)*%
X107950000Y-87630000D03*
D19*
%TO.P,D10,1*%
%TO.N,/GND*%
X107950000Y-85090000D03*
%TD*%
D18*
%TO.P,D9,2*%
%TO.N,Net-(D9-Pad2)*%
X127000000Y-87630000D03*
D19*
%TO.P,D9,1*%
%TO.N,/GND*%
X127000000Y-85090000D03*
%TD*%
D18*
%TO.P,D8,2*%
%TO.N,Net-(D8-Pad2)*%
X149860000Y-87630000D03*
D19*
%TO.P,D8,1*%
%TO.N,/GND*%
X149860000Y-85090000D03*
%TD*%
D18*
%TO.P,D7,2*%
%TO.N,Net-(D7-Pad2)*%
X168910000Y-87630000D03*
D19*
%TO.P,D7,1*%
%TO.N,/GND*%
X168910000Y-85090000D03*
%TD*%
D18*
%TO.P,D6,2*%
%TO.N,Net-(D6-Pad2)*%
X142240000Y-60960000D03*
D19*
%TO.P,D6,1*%
%TO.N,/GND*%
X139700000Y-60960000D03*
%TD*%
D22*
%TO.P,D5,2*%
%TO.N,/GND*%
X180340000Y-76200000D03*
D23*
%TO.P,D5,1*%
%TO.N,/Vout*%
X180340000Y-60960000D03*
%TD*%
D22*
%TO.P,D4,2*%
%TO.N,/GND*%
X171450000Y-76200000D03*
D23*
%TO.P,D4,1*%
%TO.N,/Vout*%
X171450000Y-60960000D03*
%TD*%
D24*
%TO.P,D3,2*%
%TO.N,Net-(D3-Pad2)*%
X187325000Y-69850000D03*
D19*
%TO.P,D3,1*%
%TO.N,/Vout*%
X187325000Y-77470000D03*
%TD*%
D15*
%TO.P,D2,3*%
%TO.N,Net-(C1-Pad1)*%
X188595000Y-38100000D03*
%TO.P,D2,2*%
%TO.N,/Vout*%
X186055000Y-38100000D03*
D16*
%TO.P,D2,1*%
%TO.N,/GND*%
X183515000Y-38100000D03*
D17*
%TO.P,D2,*%
%TO.N,*%
X186055000Y-21440000D03*
%TD*%
D13*
%TO.P,C4,2*%
%TO.N,/GND*%
X184785000Y-47070000D03*
%TO.P,C4,1*%
%TO.N,Net-(C1-Pad1)*%
X184785000Y-52070000D03*
%TD*%
%TO.P,C3,2*%
%TO.N,/GND*%
X194310000Y-51355000D03*
%TO.P,C3,1*%
%TO.N,Net-(C1-Pad1)*%
X194310000Y-46355000D03*
%TD*%
%TO.P,C2,2*%
%TO.N,/GND*%
X194310000Y-43100000D03*
%TO.P,C2,1*%
%TO.N,Net-(C1-Pad1)*%
X194310000Y-38100000D03*
%TD*%
%TO.P,C1,2*%
%TO.N,/GND*%
X193040000Y-59150000D03*
D25*
%TO.P,C1,1*%
%TO.N,Net-(C1-Pad1)*%
X193040000Y-57150000D03*
%TD*%
D26*
%TO.N,Net-(C1-Pad1)*%
X172085000Y-38100000D02*
X177800000Y-38100000D01*
X188595000Y-38100000D02*
X194310000Y-38100000D01*
X194310000Y-38100000D02*
X194310000Y-34290000D01*
X177800000Y-34290000D02*
X177800000Y-38100000D01*
X190500000Y-41910000D02*
X194310000Y-38100000D01*
X189230000Y-41910000D02*
X190500000Y-41910000D01*
X177800000Y-34290000D02*
X177800000Y-33020000D01*
X177800000Y-33020000D02*
X194310000Y-33020000D01*
X194310000Y-33020000D02*
X194310000Y-34290000D01*
X193675000Y-46355000D02*
X194310000Y-46355000D01*
X189230000Y-41910000D02*
X193675000Y-46355000D01*
X189230000Y-41910000D02*
X189230000Y-52070000D01*
X184785000Y-52070000D02*
X189230000Y-52070000D01*
X189230000Y-53340000D02*
X193040000Y-57150000D01*
X189230000Y-52070000D02*
X189230000Y-53340000D01*
X192405000Y-56515000D02*
X193040000Y-57150000D01*
X187325000Y-56515000D02*
X192405000Y-56515000D01*
X187325000Y-60960000D02*
X193675000Y-67310000D01*
X187325000Y-56515000D02*
X187325000Y-60960000D01*
%TO.N,Net-(D3-Pad2)*%
X187325000Y-69850000D02*
X187325000Y-66675000D01*
%TO.N,Net-(D7-Pad2)*%
X168910000Y-87630000D02*
X168910000Y-91440000D01*
%TO.N,Net-(D8-Pad2)*%
X149860000Y-87630000D02*
X149860000Y-91440000D01*
%TO.N,Net-(D9-Pad2)*%
X127000000Y-87630000D02*
X127000000Y-91440000D01*
%TO.N,Net-(D10-Pad2)*%
X107950000Y-87630000D02*
X108585000Y-87630000D01*
X107950000Y-87630000D02*
X107950000Y-91440000D01*
D27*
%TO.N,Net-(D14-Pad2)*%
X136000000Y-36830000D02*
X124460000Y-36830000D01*
D26*
X123325000Y-44585000D02*
X124460000Y-45720000D01*
X123325000Y-38325000D02*
X123325000Y-44585000D01*
X125730000Y-50800000D02*
X129540000Y-54610000D01*
X124460000Y-50800000D02*
X125730000Y-50800000D01*
X124460000Y-45720000D02*
X124460000Y-50800000D01*
%TO.N,Net-(D14-Pad1)*%
X137160000Y-54610000D02*
X140970000Y-54610000D01*
%TO.N,Net-(D15-Pad2)*%
X124460000Y-60960000D02*
X130810000Y-60960000D01*
D27*
%TO.N,Net-(F1-Pad1)*%
X98425000Y-37500000D02*
X98425000Y-37000000D01*
X98425000Y-36195000D02*
X109855000Y-36195000D01*
%TO.N,Net-(F2-Pad1)*%
X99695000Y-99000000D02*
X99695000Y-87630000D01*
D26*
X100965000Y-101600000D02*
X99695000Y-100330000D01*
X107950000Y-101600000D02*
X100965000Y-101600000D01*
D27*
%TO.N,Net-(F3-Pad1)*%
X118745000Y-99000000D02*
X118745000Y-87630000D01*
D26*
X119380000Y-101600000D02*
X118110000Y-100330000D01*
X127000000Y-101600000D02*
X119380000Y-101600000D01*
D27*
%TO.N,Net-(F4-Pad1)*%
X141605000Y-99000000D02*
X141605000Y-87630000D01*
D26*
X142240000Y-101600000D02*
X140970000Y-100330000D01*
X149860000Y-101600000D02*
X142240000Y-101600000D01*
D27*
%TO.N,Net-(F5-Pad1)*%
X160655000Y-99000000D02*
X160655000Y-87630000D01*
D26*
X161290000Y-101600000D02*
X160020000Y-100330000D01*
X168910000Y-101600000D02*
X161290000Y-101600000D01*
D27*
%TO.N,Net-(J1-Pad2)*%
X98425000Y-57150000D02*
X98425000Y-48150000D01*
%TD*%
D28*
%TO.N,/Vout*%
X177165026Y-32595724D02*
X177094454Y-32727753D01*
X177050997Y-32871014D01*
X177036323Y-33020000D01*
X177040001Y-33057342D01*
X177040000Y-34252667D01*
X177040000Y-34252668D01*
X177040001Y-36881956D01*
X176885241Y-36985363D01*
X176685363Y-37185241D01*
X176581957Y-37340000D01*
X173504208Y-37340000D01*
X173411345Y-37166265D01*
X173212963Y-36924537D01*
X172971234Y-36726155D01*
X172695448Y-36578745D01*
X172396203Y-36487970D01*
X172085000Y-36457319D01*
X171773796Y-36487970D01*
X171474551Y-36578745D01*
X171198765Y-36726155D01*
X170957037Y-36924537D01*
X170758655Y-37166266D01*
X170611245Y-37442052D01*
X170520470Y-37741297D01*
X170497500Y-37974515D01*
X170497500Y-38225486D01*
X170520470Y-38458704D01*
X170611245Y-38757949D01*
X170758655Y-39033735D01*
X170957037Y-39275463D01*
X171198766Y-39473845D01*
X171474552Y-39621255D01*
X171773797Y-39712030D01*
X172085000Y-39742681D01*
X172396204Y-39712030D01*
X172695449Y-39621255D01*
X172971235Y-39473845D01*
X173212963Y-39275463D01*
X173411345Y-39033734D01*
X173504207Y-38860000D01*
X176581957Y-38860000D01*
X176685363Y-39014759D01*
X176885241Y-39214637D01*
X177120273Y-39371680D01*
X177381426Y-39479853D01*
X177658665Y-39535000D01*
X177941335Y-39535000D01*
X178218574Y-39479853D01*
X178479727Y-39371680D01*
X178714759Y-39214637D01*
X178914637Y-39014759D01*
X179071680Y-38779727D01*
X179179853Y-38518574D01*
X179235000Y-38241335D01*
X179235000Y-37958665D01*
X179179853Y-37681426D01*
X179071680Y-37420273D01*
X178914637Y-37185241D01*
X178829396Y-37100000D01*
X181924428Y-37100000D01*
X181924428Y-39100000D01*
X181936688Y-39224482D01*
X181972998Y-39344180D01*
X182031963Y-39454494D01*
X182111315Y-39551185D01*
X182208006Y-39630537D01*
X182318320Y-39689502D01*
X182438018Y-39725812D01*
X182562500Y-39738072D01*
X184467500Y-39738072D01*
X184591982Y-39725812D01*
X184711680Y-39689502D01*
X184821994Y-39630537D01*
X184918685Y-39551185D01*
X184998037Y-39454494D01*
X185057002Y-39344180D01*
X185093312Y-39224482D01*
X185105572Y-39100000D01*
X185105572Y-37100000D01*
X185093312Y-36975518D01*
X185057002Y-36855820D01*
X184998037Y-36745506D01*
X184918685Y-36648815D01*
X184821994Y-36569463D01*
X184711680Y-36510498D01*
X184591982Y-36474188D01*
X184467500Y-36461928D01*
X182562500Y-36461928D01*
X182438018Y-36474188D01*
X182318320Y-36510498D01*
X182208006Y-36569463D01*
X182111315Y-36648815D01*
X182031963Y-36745506D01*
X181972998Y-36855820D01*
X181936688Y-36975518D01*
X181924428Y-37100000D01*
X178829396Y-37100000D01*
X178714759Y-36985363D01*
X178560000Y-36881957D01*
X178560000Y-33780000D01*
X193550001Y-33780000D01*
X193550001Y-34252667D01*
X193550000Y-36881956D01*
X193395241Y-36985363D01*
X193195363Y-37185241D01*
X193091957Y-37340000D01*
X190014208Y-37340000D01*
X189921345Y-37166265D01*
X189722963Y-36924537D01*
X189481234Y-36726155D01*
X189205448Y-36578745D01*
X188906203Y-36487970D01*
X188595000Y-36457319D01*
X188283796Y-36487970D01*
X187984551Y-36578745D01*
X187708765Y-36726155D01*
X187467037Y-36924537D01*
X187268655Y-37166266D01*
X187121245Y-37442052D01*
X187030470Y-37741297D01*
X187007500Y-37974515D01*
X187007500Y-38225486D01*
X187030470Y-38458704D01*
X187121245Y-38757949D01*
X187268655Y-39033735D01*
X187467037Y-39275463D01*
X187708766Y-39473845D01*
X187984552Y-39621255D01*
X188283797Y-39712030D01*
X188595000Y-39742681D01*
X188906204Y-39712030D01*
X189205449Y-39621255D01*
X189481235Y-39473845D01*
X189722963Y-39275463D01*
X189921345Y-39033734D01*
X190014207Y-38860000D01*
X192475198Y-38860000D01*
X190342297Y-40992901D01*
X190144759Y-40795363D01*
X189909727Y-40638320D01*
X189648574Y-40530147D01*
X189371335Y-40475000D01*
X189088665Y-40475000D01*
X188811426Y-40530147D01*
X188550273Y-40638320D01*
X188315241Y-40795363D01*
X188115363Y-40995241D01*
X187958320Y-41230273D01*
X187850147Y-41491426D01*
X187795000Y-41768665D01*
X187795000Y-42051335D01*
X187850147Y-42328574D01*
X187958320Y-42589727D01*
X188115363Y-42824759D01*
X188315241Y-43024637D01*
X188470000Y-43128044D01*
X188470001Y-50851956D01*
X188315241Y-50955363D01*
X188115363Y-51155241D01*
X188011957Y-51310000D01*
X186003043Y-51310000D01*
X185899637Y-51155241D01*
X185699759Y-50955363D01*
X185464727Y-50798320D01*
X185203574Y-50690147D01*
X184926335Y-50635000D01*
X184643665Y-50635000D01*
X184366426Y-50690147D01*
X184105273Y-50798320D01*
X183870241Y-50955363D01*
X183670363Y-51155241D01*
X183513320Y-51390273D01*
X183405147Y-51651426D01*
X183350000Y-51928665D01*
X183350000Y-52211335D01*
X183405147Y-52488574D01*
X183513320Y-52749727D01*
X183670363Y-52984759D01*
X183870241Y-53184637D01*
X184105273Y-53341680D01*
X184366426Y-53449853D01*
X184643665Y-53505000D01*
X184926335Y-53505000D01*
X185203574Y-53449853D01*
X185464727Y-53341680D01*
X185699759Y-53184637D01*
X185899637Y-52984759D01*
X186003043Y-52830000D01*
X188011957Y-52830000D01*
X188115363Y-52984759D01*
X188315241Y-53184637D01*
X188470001Y-53288044D01*
X188470001Y-53302668D01*
X188466324Y-53340000D01*
X188470001Y-53377333D01*
X188480998Y-53488986D01*
X188485856Y-53505000D01*
X188524454Y-53632246D01*
X188595026Y-53764276D01*
X188665379Y-53850000D01*
X188690000Y-53880001D01*
X188718998Y-53903799D01*
X190570199Y-55755000D01*
X188543043Y-55755000D01*
X188439637Y-55600241D01*
X188239759Y-55400363D01*
X188004727Y-55243320D01*
X187743574Y-55135147D01*
X187466335Y-55080000D01*
X187183665Y-55080000D01*
X186906426Y-55135147D01*
X186645273Y-55243320D01*
X186410241Y-55400363D01*
X186210363Y-55600241D01*
X186053320Y-55835273D01*
X185945147Y-56096426D01*
X185890000Y-56373665D01*
X185890000Y-56656335D01*
X185945147Y-56933574D01*
X186053320Y-57194727D01*
X186210363Y-57429759D01*
X186410241Y-57629637D01*
X186565000Y-57733044D01*
X186565001Y-60922668D01*
X186561324Y-60960000D01*
X186565001Y-60997333D01*
X186575245Y-61101335D01*
X186575998Y-61108985D01*
X186619454Y-61252246D01*
X186690026Y-61384276D01*
X186761201Y-61471002D01*
X186785000Y-61500001D01*
X186813998Y-61523799D01*
X192276312Y-66986114D01*
X192240000Y-67168665D01*
X192240000Y-67451335D01*
X192295147Y-67728574D01*
X192403320Y-67989727D01*
X192560363Y-68224759D01*
X192760241Y-68424637D01*
X192995273Y-68581680D01*
X193256426Y-68689853D01*
X193533665Y-68745000D01*
X193816335Y-68745000D01*
X194093574Y-68689853D01*
X194354727Y-68581680D01*
X194589759Y-68424637D01*
X194789637Y-68224759D01*
X194946680Y-67989727D01*
X195054853Y-67728574D01*
X195110000Y-67451335D01*
X195110000Y-67168665D01*
X195054853Y-66891426D01*
X194946680Y-66630273D01*
X194789637Y-66395241D01*
X194589759Y-66195363D01*
X194354727Y-66038320D01*
X194093574Y-65930147D01*
X193816335Y-65875000D01*
X193533665Y-65875000D01*
X193351114Y-65911312D01*
X188085000Y-60645199D01*
X188085000Y-57733043D01*
X188239759Y-57629637D01*
X188439637Y-57429759D01*
X188543043Y-57275000D01*
X191601928Y-57275000D01*
X191601928Y-57950000D01*
X191614188Y-58074482D01*
X191650498Y-58194180D01*
X191709463Y-58304494D01*
X191788815Y-58401185D01*
X191805393Y-58414790D01*
X191768320Y-58470273D01*
X191660147Y-58731426D01*
X191605000Y-59008665D01*
X191605000Y-59291335D01*
X191660147Y-59568574D01*
X191768320Y-59829727D01*
X191925363Y-60064759D01*
X192125241Y-60264637D01*
X192360273Y-60421680D01*
X192621426Y-60529853D01*
X192898665Y-60585000D01*
X193181335Y-60585000D01*
X193458574Y-60529853D01*
X193719727Y-60421680D01*
X193954759Y-60264637D01*
X194154637Y-60064759D01*
X194311680Y-59829727D01*
X194419853Y-59568574D01*
X194475000Y-59291335D01*
X194475000Y-59008665D01*
X194419853Y-58731426D01*
X194311680Y-58470273D01*
X194274607Y-58414790D01*
X194291185Y-58401185D01*
X194370537Y-58304494D01*
X194429502Y-58194180D01*
X194465812Y-58074482D01*
X194478072Y-57950000D01*
X194478072Y-56350000D01*
X194465812Y-56225518D01*
X194429502Y-56105820D01*
X194370537Y-55995506D01*
X194291185Y-55898815D01*
X194194494Y-55819463D01*
X194084180Y-55760498D01*
X193964482Y-55724188D01*
X193840000Y-55711928D01*
X192676730Y-55711928D01*
X190147099Y-53182297D01*
X190344637Y-52984759D01*
X190501680Y-52749727D01*
X190609853Y-52488574D01*
X190665000Y-52211335D01*
X190665000Y-51928665D01*
X190609853Y-51651426D01*
X190501680Y-51390273D01*
X190383675Y-51213665D01*
X192875000Y-51213665D01*
X192875000Y-51496335D01*
X192930147Y-51773574D01*
X193038320Y-52034727D01*
X193195363Y-52269759D01*
X193395241Y-52469637D01*
X193630273Y-52626680D01*
X193891426Y-52734853D01*
X194168665Y-52790000D01*
X194451335Y-52790000D01*
X194728574Y-52734853D01*
X194989727Y-52626680D01*
X195224759Y-52469637D01*
X195424637Y-52269759D01*
X195581680Y-52034727D01*
X195689853Y-51773574D01*
X195745000Y-51496335D01*
X195745000Y-51213665D01*
X195689853Y-50936426D01*
X195581680Y-50675273D01*
X195424637Y-50440241D01*
X195224759Y-50240363D01*
X194989727Y-50083320D01*
X194728574Y-49975147D01*
X194451335Y-49920000D01*
X194168665Y-49920000D01*
X193891426Y-49975147D01*
X193630273Y-50083320D01*
X193395241Y-50240363D01*
X193195363Y-50440241D01*
X193038320Y-50675273D01*
X192930147Y-50936426D01*
X192875000Y-51213665D01*
X190383675Y-51213665D01*
X190344637Y-51155241D01*
X190144759Y-50955363D01*
X189990000Y-50851957D01*
X189990000Y-43744801D01*
X192908141Y-46662943D01*
X192930147Y-46773574D01*
X193038320Y-47034727D01*
X193195363Y-47269759D01*
X193395241Y-47469637D01*
X193630273Y-47626680D01*
X193891426Y-47734853D01*
X194168665Y-47790000D01*
X194451335Y-47790000D01*
X194728574Y-47734853D01*
X194989727Y-47626680D01*
X195224759Y-47469637D01*
X195424637Y-47269759D01*
X195581680Y-47034727D01*
X195689853Y-46773574D01*
X195745000Y-46496335D01*
X195745000Y-46213665D01*
X195689853Y-45936426D01*
X195581680Y-45675273D01*
X195424637Y-45440241D01*
X195224759Y-45240363D01*
X194989727Y-45083320D01*
X194728574Y-44975147D01*
X194451335Y-44920000D01*
X194168665Y-44920000D01*
X193891426Y-44975147D01*
X193630273Y-45083320D01*
X193539065Y-45144263D01*
X191353467Y-42958665D01*
X192875000Y-42958665D01*
X192875000Y-43241335D01*
X192930147Y-43518574D01*
X193038320Y-43779727D01*
X193195363Y-44014759D01*
X193395241Y-44214637D01*
X193630273Y-44371680D01*
X193891426Y-44479853D01*
X194168665Y-44535000D01*
X194451335Y-44535000D01*
X194728574Y-44479853D01*
X194989727Y-44371680D01*
X195224759Y-44214637D01*
X195424637Y-44014759D01*
X195581680Y-43779727D01*
X195689853Y-43518574D01*
X195745000Y-43241335D01*
X195745000Y-42958665D01*
X195689853Y-42681426D01*
X195581680Y-42420273D01*
X195424637Y-42185241D01*
X195224759Y-41985363D01*
X194989727Y-41828320D01*
X194728574Y-41720147D01*
X194451335Y-41665000D01*
X194168665Y-41665000D01*
X193891426Y-41720147D01*
X193630273Y-41828320D01*
X193395241Y-41985363D01*
X193195363Y-42185241D01*
X193038320Y-42420273D01*
X192930147Y-42681426D01*
X192875000Y-42958665D01*
X191353467Y-42958665D01*
X190932789Y-42537988D01*
X191040001Y-42450001D01*
X191063804Y-42420997D01*
X193986114Y-39498688D01*
X194168665Y-39535000D01*
X194451335Y-39535000D01*
X194728574Y-39479853D01*
X194989727Y-39371680D01*
X195224759Y-39214637D01*
X195424637Y-39014759D01*
X195581680Y-38779727D01*
X195689853Y-38518574D01*
X195745000Y-38241335D01*
X195745000Y-37958665D01*
X195689853Y-37681426D01*
X195581680Y-37420273D01*
X195424637Y-37185241D01*
X195224759Y-36985363D01*
X195070000Y-36881957D01*
X195070000Y-33057333D01*
X195073677Y-33020000D01*
X195059003Y-32871014D01*
X195015546Y-32727753D01*
X194944974Y-32595724D01*
X194876264Y-32512000D01*
X199263000Y-32512000D01*
X199263000Y-81153000D01*
X90932000Y-81153000D01*
X90932000Y-78370000D01*
X185786928Y-78370000D01*
X185799188Y-78494482D01*
X185835498Y-78614180D01*
X185894463Y-78724494D01*
X185973815Y-78821185D01*
X186070506Y-78900537D01*
X186180820Y-78959502D01*
X186300518Y-78995812D01*
X186425000Y-79008072D01*
X187039250Y-79005000D01*
X187198000Y-78846250D01*
X187198000Y-77597000D01*
X187452000Y-77597000D01*
X187452000Y-78846250D01*
X187610750Y-79005000D01*
X188225000Y-79008072D01*
X188349482Y-78995812D01*
X188469180Y-78959502D01*
X188579494Y-78900537D01*
X188676185Y-78821185D01*
X188755537Y-78724494D01*
X188814502Y-78614180D01*
X188850812Y-78494482D01*
X188863072Y-78370000D01*
X188860000Y-77755750D01*
X188701250Y-77597000D01*
X187452000Y-77597000D01*
X187198000Y-77597000D01*
X185948750Y-77597000D01*
X185790000Y-77755750D01*
X185786928Y-78370000D01*
X90932000Y-78370000D01*
X90932000Y-76009419D01*
X169515000Y-76009419D01*
X169515000Y-76390581D01*
X169589361Y-76764419D01*
X169735225Y-77116566D01*
X169946987Y-77433491D01*
X170216509Y-77703013D01*
X170533434Y-77914775D01*
X170885581Y-78060639D01*
X171259419Y-78135000D01*
X171640581Y-78135000D01*
X172014419Y-78060639D01*
X172366566Y-77914775D01*
X172683491Y-77703013D01*
X172953013Y-77433491D01*
X173164775Y-77116566D01*
X173310639Y-76764419D01*
X173385000Y-76390581D01*
X173385000Y-76009419D01*
X178405000Y-76009419D01*
X178405000Y-76390581D01*
X178479361Y-76764419D01*
X178625225Y-77116566D01*
X178836987Y-77433491D01*
X179106509Y-77703013D01*
X179423434Y-77914775D01*
X179775581Y-78060639D01*
X180149419Y-78135000D01*
X180530581Y-78135000D01*
X180904419Y-78060639D01*
X181256566Y-77914775D01*
X181573491Y-77703013D01*
X181843013Y-77433491D01*
X182054775Y-77116566D01*
X182200639Y-76764419D01*
X182239311Y-76570000D01*
X185786928Y-76570000D01*
X185790000Y-77184250D01*
X185948750Y-77343000D01*
X187198000Y-77343000D01*
X187198000Y-76093750D01*
X187452000Y-76093750D01*
X187452000Y-77343000D01*
X188701250Y-77343000D01*
X188715585Y-77328665D01*
X192240000Y-77328665D01*
X192240000Y-77611335D01*
X192295147Y-77888574D01*
X192403320Y-78149727D01*
X192560363Y-78384759D01*
X192760241Y-78584637D01*
X192995273Y-78741680D01*
X193256426Y-78849853D01*
X193533665Y-78905000D01*
X193816335Y-78905000D01*
X194093574Y-78849853D01*
X194354727Y-78741680D01*
X194589759Y-78584637D01*
X194789637Y-78384759D01*
X194946680Y-78149727D01*
X195054853Y-77888574D01*
X195110000Y-77611335D01*
X195110000Y-77328665D01*
X195054853Y-77051426D01*
X194946680Y-76790273D01*
X194789637Y-76555241D01*
X194589759Y-76355363D01*
X194354727Y-76198320D01*
X194093574Y-76090147D01*
X193816335Y-76035000D01*
X193533665Y-76035000D01*
X193256426Y-76090147D01*
X192995273Y-76198320D01*
X192760241Y-76355363D01*
X192560363Y-76555241D01*
X192403320Y-76790273D01*
X192295147Y-77051426D01*
X192240000Y-77328665D01*
X188715585Y-77328665D01*
X188860000Y-77184250D01*
X188863072Y-76570000D01*
X188850812Y-76445518D01*
X188814502Y-76325820D01*
X188755537Y-76215506D01*
X188676185Y-76118815D01*
X188579494Y-76039463D01*
X188469180Y-75980498D01*
X188349482Y-75944188D01*
X188225000Y-75931928D01*
X187610750Y-75935000D01*
X187452000Y-76093750D01*
X187198000Y-76093750D01*
X187039250Y-75935000D01*
X186425000Y-75931928D01*
X186300518Y-75944188D01*
X186180820Y-75980498D01*
X186070506Y-76039463D01*
X185973815Y-76118815D01*
X185894463Y-76215506D01*
X185835498Y-76325820D01*
X185799188Y-76445518D01*
X185786928Y-76570000D01*
X182239311Y-76570000D01*
X182275000Y-76390581D01*
X182275000Y-76009419D01*
X182200639Y-75635581D01*
X182054775Y-75283434D01*
X181843013Y-74966509D01*
X181573491Y-74696987D01*
X181256566Y-74485225D01*
X180904419Y-74339361D01*
X180530581Y-74265000D01*
X180149419Y-74265000D01*
X179775581Y-74339361D01*
X179423434Y-74485225D01*
X179106509Y-74696987D01*
X178836987Y-74966509D01*
X178625225Y-75283434D01*
X178479361Y-75635581D01*
X178405000Y-76009419D01*
X173385000Y-76009419D01*
X173310639Y-75635581D01*
X173164775Y-75283434D01*
X172953013Y-74966509D01*
X172683491Y-74696987D01*
X172366566Y-74485225D01*
X172014419Y-74339361D01*
X171640581Y-74265000D01*
X171259419Y-74265000D01*
X170885581Y-74339361D01*
X170533434Y-74485225D01*
X170216509Y-74696987D01*
X169946987Y-74966509D01*
X169735225Y-75283434D01*
X169589361Y-75635581D01*
X169515000Y-76009419D01*
X90932000Y-76009419D01*
X90932000Y-69698816D01*
X185790000Y-69698816D01*
X185790000Y-70001184D01*
X185848989Y-70297743D01*
X185964701Y-70577095D01*
X186132688Y-70828505D01*
X186346495Y-71042312D01*
X186597905Y-71210299D01*
X186877257Y-71326011D01*
X187173816Y-71385000D01*
X187476184Y-71385000D01*
X187772743Y-71326011D01*
X188052095Y-71210299D01*
X188303505Y-71042312D01*
X188517312Y-70828505D01*
X188685299Y-70577095D01*
X188801011Y-70297743D01*
X188860000Y-70001184D01*
X188860000Y-69698816D01*
X188801011Y-69402257D01*
X188685299Y-69122905D01*
X188517312Y-68871495D01*
X188303505Y-68657688D01*
X188085000Y-68511687D01*
X188085000Y-67893043D01*
X188239759Y-67789637D01*
X188439637Y-67589759D01*
X188596680Y-67354727D01*
X188704853Y-67093574D01*
X188760000Y-66816335D01*
X188760000Y-66533665D01*
X188704853Y-66256426D01*
X188596680Y-65995273D01*
X188439637Y-65760241D01*
X188239759Y-65560363D01*
X188004727Y-65403320D01*
X187743574Y-65295147D01*
X187466335Y-65240000D01*
X187183665Y-65240000D01*
X186906426Y-65295147D01*
X186645273Y-65403320D01*
X186410241Y-65560363D01*
X186210363Y-65760241D01*
X186053320Y-65995273D01*
X185945147Y-66256426D01*
X185890000Y-66533665D01*
X185890000Y-66816335D01*
X185945147Y-67093574D01*
X186053320Y-67354727D01*
X186210363Y-67589759D01*
X186410241Y-67789637D01*
X186565001Y-67893044D01*
X186565000Y-68511687D01*
X186346495Y-68657688D01*
X186132688Y-68871495D01*
X185964701Y-69122905D01*
X185848989Y-69402257D01*
X185790000Y-69698816D01*
X90932000Y-69698816D01*
X90932000Y-64262000D01*
X144780000Y-64262000D01*
X144804776Y-64259560D01*
X144828601Y-64252333D01*
X144850557Y-64240597D01*
X144869803Y-64224803D01*
X144885597Y-64205557D01*
X144897333Y-64183601D01*
X144904560Y-64159776D01*
X144906998Y-64134365D01*
X144890420Y-60818665D01*
X149695000Y-60818665D01*
X149695000Y-61101335D01*
X149750147Y-61378574D01*
X149858320Y-61639727D01*
X150015363Y-61874759D01*
X150215241Y-62074637D01*
X150450273Y-62231680D01*
X150711426Y-62339853D01*
X150988665Y-62395000D01*
X151271335Y-62395000D01*
X151548574Y-62339853D01*
X151809727Y-62231680D01*
X152044759Y-62074637D01*
X152166694Y-61952702D01*
X160476903Y-61952702D01*
X160548486Y-62196671D01*
X160803996Y-62317571D01*
X161078184Y-62386300D01*
X161360512Y-62400217D01*
X161640130Y-62358787D01*
X161906292Y-62263603D01*
X162031514Y-62196671D01*
X162103097Y-61952702D01*
X161290000Y-61139605D01*
X160476903Y-61952702D01*
X152166694Y-61952702D01*
X152244637Y-61874759D01*
X152401680Y-61639727D01*
X152509853Y-61378574D01*
X152565000Y-61101335D01*
X152565000Y-61030512D01*
X159849783Y-61030512D01*
X159891213Y-61310130D01*
X159986397Y-61576292D01*
X160053329Y-61701514D01*
X160297298Y-61773097D01*
X161110395Y-60960000D01*
X161469605Y-60960000D01*
X162282702Y-61773097D01*
X162526671Y-61701514D01*
X162647571Y-61446004D01*
X162716300Y-61171816D01*
X162730217Y-60889488D01*
X162688787Y-60609870D01*
X162593603Y-60343708D01*
X162526671Y-60218486D01*
X162282702Y-60146903D01*
X161469605Y-60960000D01*
X161110395Y-60960000D01*
X160297298Y-60146903D01*
X160053329Y-60218486D01*
X159932429Y-60473996D01*
X159863700Y-60748184D01*
X159849783Y-61030512D01*
X152565000Y-61030512D01*
X152565000Y-60818665D01*
X152509853Y-60541426D01*
X152401680Y-60280273D01*
X152244637Y-60045241D01*
X152166694Y-59967298D01*
X160476903Y-59967298D01*
X161290000Y-60780395D01*
X162103097Y-59967298D01*
X162031514Y-59723329D01*
X161776004Y-59602429D01*
X161501816Y-59533700D01*
X161219488Y-59519783D01*
X160939870Y-59561213D01*
X160673708Y-59656397D01*
X160548486Y-59723329D01*
X160476903Y-59967298D01*
X152166694Y-59967298D01*
X152044759Y-59845363D01*
X151809727Y-59688320D01*
X151548574Y-59580147D01*
X151271335Y-59525000D01*
X150988665Y-59525000D01*
X150711426Y-59580147D01*
X150450273Y-59688320D01*
X150215241Y-59845363D01*
X150015363Y-60045241D01*
X149858320Y-60280273D01*
X149750147Y-60541426D01*
X149695000Y-60818665D01*
X144890420Y-60818665D01*
X144866397Y-56014156D01*
X144988574Y-55989853D01*
X145249727Y-55881680D01*
X145484759Y-55724637D01*
X145684637Y-55524759D01*
X145841680Y-55289727D01*
X145949853Y-55028574D01*
X146005000Y-54751335D01*
X146005000Y-54473589D01*
X158635000Y-54473589D01*
X158635000Y-54746411D01*
X158688225Y-55013989D01*
X158792629Y-55266043D01*
X158944201Y-55492886D01*
X159137114Y-55685799D01*
X159363957Y-55837371D01*
X159616011Y-55941775D01*
X159883589Y-55995000D01*
X160156411Y-55995000D01*
X160423989Y-55941775D01*
X160676043Y-55837371D01*
X160902886Y-55685799D01*
X161095799Y-55492886D01*
X161247371Y-55266043D01*
X161351775Y-55013989D01*
X161405000Y-54746411D01*
X161405000Y-54473589D01*
X161351775Y-54206011D01*
X161247371Y-53953957D01*
X161095799Y-53727114D01*
X160902886Y-53534201D01*
X160676043Y-53382629D01*
X160423989Y-53278225D01*
X160156411Y-53225000D01*
X159883589Y-53225000D01*
X159616011Y-53278225D01*
X159363957Y-53382629D01*
X159137114Y-53534201D01*
X158944201Y-53727114D01*
X158792629Y-53953957D01*
X158688225Y-54206011D01*
X158635000Y-54473589D01*
X146005000Y-54473589D01*
X146005000Y-54468665D01*
X145949853Y-54191426D01*
X145841680Y-53930273D01*
X145684637Y-53695241D01*
X145484759Y-53495363D01*
X145249727Y-53338320D01*
X144988574Y-53230147D01*
X144852341Y-53203048D01*
X144849276Y-52590000D01*
X163711928Y-52590000D01*
X163711928Y-54090000D01*
X163724188Y-54214482D01*
X163760498Y-54334180D01*
X163819463Y-54444494D01*
X163898815Y-54541185D01*
X163982667Y-54610000D01*
X163898815Y-54678815D01*
X163819463Y-54775506D01*
X163760498Y-54885820D01*
X163724188Y-55005518D01*
X163711928Y-55130000D01*
X163711928Y-56630000D01*
X163724188Y-56754482D01*
X163760498Y-56874180D01*
X163819463Y-56984494D01*
X163898815Y-57081185D01*
X163995506Y-57160537D01*
X164105820Y-57219502D01*
X164225518Y-57255812D01*
X164350000Y-57268072D01*
X165850000Y-57268072D01*
X165974482Y-57255812D01*
X166094180Y-57219502D01*
X166204494Y-57160537D01*
X166301185Y-57081185D01*
X166380537Y-56984494D01*
X166439502Y-56874180D01*
X166475812Y-56754482D01*
X166488072Y-56630000D01*
X166488072Y-56221185D01*
X171377682Y-56221185D01*
X171414347Y-56342070D01*
X171529580Y-56587912D01*
X171690560Y-56806549D01*
X171891101Y-56989579D01*
X172123496Y-57129969D01*
X172378814Y-57222323D01*
X172593000Y-57100420D01*
X172593000Y-56007000D01*
X172847000Y-56007000D01*
X172847000Y-57100420D01*
X173061186Y-57222323D01*
X173316504Y-57129969D01*
X173548899Y-56989579D01*
X173749440Y-56806549D01*
X173910420Y-56587912D01*
X174025653Y-56342070D01*
X174062318Y-56221185D01*
X173939656Y-56007000D01*
X172847000Y-56007000D01*
X172593000Y-56007000D01*
X171500344Y-56007000D01*
X171377682Y-56221185D01*
X166488072Y-56221185D01*
X166488072Y-55130000D01*
X166475812Y-55005518D01*
X166439502Y-54885820D01*
X166380537Y-54775506D01*
X166301185Y-54678815D01*
X166217333Y-54610000D01*
X166301185Y-54541185D01*
X166380537Y-54444494D01*
X166439502Y-54334180D01*
X166475812Y-54214482D01*
X166488072Y-54090000D01*
X166488072Y-53203589D01*
X171335000Y-53203589D01*
X171335000Y-53476411D01*
X171388225Y-53743989D01*
X171492629Y-53996043D01*
X171644201Y-54222886D01*
X171837114Y-54415799D01*
X172063957Y-54567371D01*
X172172467Y-54612317D01*
X172123496Y-54630031D01*
X171891101Y-54770421D01*
X171690560Y-54953451D01*
X171529580Y-55172088D01*
X171414347Y-55417930D01*
X171377682Y-55538815D01*
X171500344Y-55753000D01*
X172593000Y-55753000D01*
X172593000Y-55733000D01*
X172847000Y-55733000D01*
X172847000Y-55753000D01*
X173939656Y-55753000D01*
X174062318Y-55538815D01*
X174025653Y-55417930D01*
X173910420Y-55172088D01*
X173749440Y-54953451D01*
X173548899Y-54770421D01*
X173316504Y-54630031D01*
X173267533Y-54612317D01*
X173376043Y-54567371D01*
X173602886Y-54415799D01*
X173795799Y-54222886D01*
X173947371Y-53996043D01*
X174051775Y-53743989D01*
X174105000Y-53476411D01*
X174105000Y-53203589D01*
X174051775Y-52936011D01*
X173947371Y-52683957D01*
X173795799Y-52457114D01*
X173602886Y-52264201D01*
X173376043Y-52112629D01*
X173123989Y-52008225D01*
X172856411Y-51955000D01*
X172583589Y-51955000D01*
X172316011Y-52008225D01*
X172063957Y-52112629D01*
X171837114Y-52264201D01*
X171644201Y-52457114D01*
X171492629Y-52683957D01*
X171388225Y-52936011D01*
X171335000Y-53203589D01*
X166488072Y-53203589D01*
X166488072Y-52590000D01*
X166475812Y-52465518D01*
X166439502Y-52345820D01*
X166380537Y-52235506D01*
X166301185Y-52138815D01*
X166204494Y-52059463D01*
X166094180Y-52000498D01*
X165974482Y-51964188D01*
X165850000Y-51951928D01*
X164350000Y-51951928D01*
X164225518Y-51964188D01*
X164105820Y-52000498D01*
X163995506Y-52059463D01*
X163898815Y-52138815D01*
X163819463Y-52235506D01*
X163760498Y-52345820D01*
X163724188Y-52465518D01*
X163711928Y-52590000D01*
X144849276Y-52590000D01*
X144823439Y-47422534D01*
X144843868Y-47442963D01*
X145310492Y-47754751D01*
X145828977Y-47969514D01*
X146379398Y-48079000D01*
X146940602Y-48079000D01*
X147491023Y-47969514D01*
X148009508Y-47754751D01*
X148476132Y-47442963D01*
X148872963Y-47046132D01*
X149184751Y-46579508D01*
X149325379Y-46240000D01*
X158631928Y-46240000D01*
X158631928Y-47740000D01*
X158644188Y-47864482D01*
X158680498Y-47984180D01*
X158739463Y-48094494D01*
X158818815Y-48191185D01*
X158915506Y-48270537D01*
X159025820Y-48329502D01*
X159145518Y-48365812D01*
X159270000Y-48378072D01*
X160770000Y-48378072D01*
X160894482Y-48365812D01*
X161014180Y-48329502D01*
X161124494Y-48270537D01*
X161221185Y-48191185D01*
X161300537Y-48094494D01*
X161359502Y-47984180D01*
X161395812Y-47864482D01*
X161408072Y-47740000D01*
X161408072Y-46928665D01*
X183350000Y-46928665D01*
X183350000Y-47211335D01*
X183405147Y-47488574D01*
X183513320Y-47749727D01*
X183670363Y-47984759D01*
X183870241Y-48184637D01*
X184105273Y-48341680D01*
X184366426Y-48449853D01*
X184643665Y-48505000D01*
X184926335Y-48505000D01*
X185203574Y-48449853D01*
X185464727Y-48341680D01*
X185699759Y-48184637D01*
X185899637Y-47984759D01*
X186056680Y-47749727D01*
X186164853Y-47488574D01*
X186220000Y-47211335D01*
X186220000Y-46928665D01*
X186164853Y-46651426D01*
X186056680Y-46390273D01*
X185899637Y-46155241D01*
X185699759Y-45955363D01*
X185464727Y-45798320D01*
X185203574Y-45690147D01*
X184926335Y-45635000D01*
X184643665Y-45635000D01*
X184366426Y-45690147D01*
X184105273Y-45798320D01*
X183870241Y-45955363D01*
X183670363Y-46155241D01*
X183513320Y-46390273D01*
X183405147Y-46651426D01*
X183350000Y-46928665D01*
X161408072Y-46928665D01*
X161408072Y-46240000D01*
X161395812Y-46115518D01*
X161359502Y-45995820D01*
X161300537Y-45885506D01*
X161221185Y-45788815D01*
X161124494Y-45709463D01*
X161014180Y-45650498D01*
X160894482Y-45614188D01*
X160770000Y-45601928D01*
X159270000Y-45601928D01*
X159145518Y-45614188D01*
X159025820Y-45650498D01*
X158915506Y-45709463D01*
X158818815Y-45788815D01*
X158739463Y-45885506D01*
X158680498Y-45995820D01*
X158644188Y-46115518D01*
X158631928Y-46240000D01*
X149325379Y-46240000D01*
X149399514Y-46061023D01*
X149509000Y-45510602D01*
X149509000Y-44949398D01*
X149399514Y-44398977D01*
X149184751Y-43880492D01*
X148872963Y-43413868D01*
X148476132Y-43017037D01*
X148388773Y-42958665D01*
X176365000Y-42958665D01*
X176365000Y-43241335D01*
X176420147Y-43518574D01*
X176528320Y-43779727D01*
X176685363Y-44014759D01*
X176885241Y-44214637D01*
X177120273Y-44371680D01*
X177381426Y-44479853D01*
X177658665Y-44535000D01*
X177941335Y-44535000D01*
X178218574Y-44479853D01*
X178479727Y-44371680D01*
X178714759Y-44214637D01*
X178914637Y-44014759D01*
X179071680Y-43779727D01*
X179179853Y-43518574D01*
X179235000Y-43241335D01*
X179235000Y-42958665D01*
X179179853Y-42681426D01*
X179071680Y-42420273D01*
X178914637Y-42185241D01*
X178714759Y-41985363D01*
X178479727Y-41828320D01*
X178218574Y-41720147D01*
X177941335Y-41665000D01*
X177658665Y-41665000D01*
X177381426Y-41720147D01*
X177120273Y-41828320D01*
X176885241Y-41985363D01*
X176685363Y-42185241D01*
X176528320Y-42420273D01*
X176420147Y-42681426D01*
X176365000Y-42958665D01*
X148388773Y-42958665D01*
X148009508Y-42705249D01*
X147491023Y-42490486D01*
X146940602Y-42381000D01*
X146379398Y-42381000D01*
X145828977Y-42490486D01*
X145310492Y-42705249D01*
X144843868Y-43017037D01*
X144801622Y-43059283D01*
X144771826Y-37100000D01*
X165414428Y-37100000D01*
X165414428Y-39100000D01*
X165426688Y-39224482D01*
X165462998Y-39344180D01*
X165521963Y-39454494D01*
X165601315Y-39551185D01*
X165698006Y-39630537D01*
X165808320Y-39689502D01*
X165928018Y-39725812D01*
X166052500Y-39738072D01*
X167957500Y-39738072D01*
X168081982Y-39725812D01*
X168201680Y-39689502D01*
X168311994Y-39630537D01*
X168408685Y-39551185D01*
X168488037Y-39454494D01*
X168547002Y-39344180D01*
X168583312Y-39224482D01*
X168595572Y-39100000D01*
X168595572Y-37100000D01*
X168583312Y-36975518D01*
X168547002Y-36855820D01*
X168488037Y-36745506D01*
X168408685Y-36648815D01*
X168311994Y-36569463D01*
X168201680Y-36510498D01*
X168081982Y-36474188D01*
X167957500Y-36461928D01*
X166052500Y-36461928D01*
X165928018Y-36474188D01*
X165808320Y-36510498D01*
X165698006Y-36569463D01*
X165601315Y-36648815D01*
X165521963Y-36745506D01*
X165462998Y-36855820D01*
X165426688Y-36975518D01*
X165414428Y-37100000D01*
X144771826Y-37100000D01*
X144748886Y-32512000D01*
X177233736Y-32512000D01*
X177165026Y-32595724D01*
%TA.AperFunction,Conductor*%
D29*
G36*
X177165026Y-32595724D02*
G01*
X177094454Y-32727753D01*
X177050997Y-32871014D01*
X177036323Y-33020000D01*
X177040001Y-33057342D01*
X177040000Y-34252667D01*
X177040000Y-34252668D01*
X177040001Y-36881956D01*
X176885241Y-36985363D01*
X176685363Y-37185241D01*
X176581957Y-37340000D01*
X173504208Y-37340000D01*
X173411345Y-37166265D01*
X173212963Y-36924537D01*
X172971234Y-36726155D01*
X172695448Y-36578745D01*
X172396203Y-36487970D01*
X172085000Y-36457319D01*
X171773796Y-36487970D01*
X171474551Y-36578745D01*
X171198765Y-36726155D01*
X170957037Y-36924537D01*
X170758655Y-37166266D01*
X170611245Y-37442052D01*
X170520470Y-37741297D01*
X170497500Y-37974515D01*
X170497500Y-38225486D01*
X170520470Y-38458704D01*
X170611245Y-38757949D01*
X170758655Y-39033735D01*
X170957037Y-39275463D01*
X171198766Y-39473845D01*
X171474552Y-39621255D01*
X171773797Y-39712030D01*
X172085000Y-39742681D01*
X172396204Y-39712030D01*
X172695449Y-39621255D01*
X172971235Y-39473845D01*
X173212963Y-39275463D01*
X173411345Y-39033734D01*
X173504207Y-38860000D01*
X176581957Y-38860000D01*
X176685363Y-39014759D01*
X176885241Y-39214637D01*
X177120273Y-39371680D01*
X177381426Y-39479853D01*
X177658665Y-39535000D01*
X177941335Y-39535000D01*
X178218574Y-39479853D01*
X178479727Y-39371680D01*
X178714759Y-39214637D01*
X178914637Y-39014759D01*
X179071680Y-38779727D01*
X179179853Y-38518574D01*
X179235000Y-38241335D01*
X179235000Y-37958665D01*
X179179853Y-37681426D01*
X179071680Y-37420273D01*
X178914637Y-37185241D01*
X178829396Y-37100000D01*
X181924428Y-37100000D01*
X181924428Y-39100000D01*
X181936688Y-39224482D01*
X181972998Y-39344180D01*
X182031963Y-39454494D01*
X182111315Y-39551185D01*
X182208006Y-39630537D01*
X182318320Y-39689502D01*
X182438018Y-39725812D01*
X182562500Y-39738072D01*
X184467500Y-39738072D01*
X184591982Y-39725812D01*
X184711680Y-39689502D01*
X184821994Y-39630537D01*
X184918685Y-39551185D01*
X184998037Y-39454494D01*
X185057002Y-39344180D01*
X185093312Y-39224482D01*
X185105572Y-39100000D01*
X185105572Y-37100000D01*
X185093312Y-36975518D01*
X185057002Y-36855820D01*
X184998037Y-36745506D01*
X184918685Y-36648815D01*
X184821994Y-36569463D01*
X184711680Y-36510498D01*
X184591982Y-36474188D01*
X184467500Y-36461928D01*
X182562500Y-36461928D01*
X182438018Y-36474188D01*
X182318320Y-36510498D01*
X182208006Y-36569463D01*
X182111315Y-36648815D01*
X182031963Y-36745506D01*
X181972998Y-36855820D01*
X181936688Y-36975518D01*
X181924428Y-37100000D01*
X178829396Y-37100000D01*
X178714759Y-36985363D01*
X178560000Y-36881957D01*
X178560000Y-33780000D01*
X193550001Y-33780000D01*
X193550001Y-34252667D01*
X193550000Y-36881956D01*
X193395241Y-36985363D01*
X193195363Y-37185241D01*
X193091957Y-37340000D01*
X190014208Y-37340000D01*
X189921345Y-37166265D01*
X189722963Y-36924537D01*
X189481234Y-36726155D01*
X189205448Y-36578745D01*
X188906203Y-36487970D01*
X188595000Y-36457319D01*
X188283796Y-36487970D01*
X187984551Y-36578745D01*
X187708765Y-36726155D01*
X187467037Y-36924537D01*
X187268655Y-37166266D01*
X187121245Y-37442052D01*
X187030470Y-37741297D01*
X187007500Y-37974515D01*
X187007500Y-38225486D01*
X187030470Y-38458704D01*
X187121245Y-38757949D01*
X187268655Y-39033735D01*
X187467037Y-39275463D01*
X187708766Y-39473845D01*
X187984552Y-39621255D01*
X188283797Y-39712030D01*
X188595000Y-39742681D01*
X188906204Y-39712030D01*
X189205449Y-39621255D01*
X189481235Y-39473845D01*
X189722963Y-39275463D01*
X189921345Y-39033734D01*
X190014207Y-38860000D01*
X192475198Y-38860000D01*
X190342297Y-40992901D01*
X190144759Y-40795363D01*
X189909727Y-40638320D01*
X189648574Y-40530147D01*
X189371335Y-40475000D01*
X189088665Y-40475000D01*
X188811426Y-40530147D01*
X188550273Y-40638320D01*
X188315241Y-40795363D01*
X188115363Y-40995241D01*
X187958320Y-41230273D01*
X187850147Y-41491426D01*
X187795000Y-41768665D01*
X187795000Y-42051335D01*
X187850147Y-42328574D01*
X187958320Y-42589727D01*
X188115363Y-42824759D01*
X188315241Y-43024637D01*
X188470000Y-43128044D01*
X188470001Y-50851956D01*
X188315241Y-50955363D01*
X188115363Y-51155241D01*
X188011957Y-51310000D01*
X186003043Y-51310000D01*
X185899637Y-51155241D01*
X185699759Y-50955363D01*
X185464727Y-50798320D01*
X185203574Y-50690147D01*
X184926335Y-50635000D01*
X184643665Y-50635000D01*
X184366426Y-50690147D01*
X184105273Y-50798320D01*
X183870241Y-50955363D01*
X183670363Y-51155241D01*
X183513320Y-51390273D01*
X183405147Y-51651426D01*
X183350000Y-51928665D01*
X183350000Y-52211335D01*
X183405147Y-52488574D01*
X183513320Y-52749727D01*
X183670363Y-52984759D01*
X183870241Y-53184637D01*
X184105273Y-53341680D01*
X184366426Y-53449853D01*
X184643665Y-53505000D01*
X184926335Y-53505000D01*
X185203574Y-53449853D01*
X185464727Y-53341680D01*
X185699759Y-53184637D01*
X185899637Y-52984759D01*
X186003043Y-52830000D01*
X188011957Y-52830000D01*
X188115363Y-52984759D01*
X188315241Y-53184637D01*
X188470001Y-53288044D01*
X188470001Y-53302668D01*
X188466324Y-53340000D01*
X188470001Y-53377333D01*
X188480998Y-53488986D01*
X188485856Y-53505000D01*
X188524454Y-53632246D01*
X188595026Y-53764276D01*
X188665379Y-53850000D01*
X188690000Y-53880001D01*
X188718998Y-53903799D01*
X190570199Y-55755000D01*
X188543043Y-55755000D01*
X188439637Y-55600241D01*
X188239759Y-55400363D01*
X188004727Y-55243320D01*
X187743574Y-55135147D01*
X187466335Y-55080000D01*
X187183665Y-55080000D01*
X186906426Y-55135147D01*
X186645273Y-55243320D01*
X186410241Y-55400363D01*
X186210363Y-55600241D01*
X186053320Y-55835273D01*
X185945147Y-56096426D01*
X185890000Y-56373665D01*
X185890000Y-56656335D01*
X185945147Y-56933574D01*
X186053320Y-57194727D01*
X186210363Y-57429759D01*
X186410241Y-57629637D01*
X186565000Y-57733044D01*
X186565001Y-60922668D01*
X186561324Y-60960000D01*
X186565001Y-60997333D01*
X186575245Y-61101335D01*
X186575998Y-61108985D01*
X186619454Y-61252246D01*
X186690026Y-61384276D01*
X186761201Y-61471002D01*
X186785000Y-61500001D01*
X186813998Y-61523799D01*
X192276312Y-66986114D01*
X192240000Y-67168665D01*
X192240000Y-67451335D01*
X192295147Y-67728574D01*
X192403320Y-67989727D01*
X192560363Y-68224759D01*
X192760241Y-68424637D01*
X192995273Y-68581680D01*
X193256426Y-68689853D01*
X193533665Y-68745000D01*
X193816335Y-68745000D01*
X194093574Y-68689853D01*
X194354727Y-68581680D01*
X194589759Y-68424637D01*
X194789637Y-68224759D01*
X194946680Y-67989727D01*
X195054853Y-67728574D01*
X195110000Y-67451335D01*
X195110000Y-67168665D01*
X195054853Y-66891426D01*
X194946680Y-66630273D01*
X194789637Y-66395241D01*
X194589759Y-66195363D01*
X194354727Y-66038320D01*
X194093574Y-65930147D01*
X193816335Y-65875000D01*
X193533665Y-65875000D01*
X193351114Y-65911312D01*
X188085000Y-60645199D01*
X188085000Y-57733043D01*
X188239759Y-57629637D01*
X188439637Y-57429759D01*
X188543043Y-57275000D01*
X191601928Y-57275000D01*
X191601928Y-57950000D01*
X191614188Y-58074482D01*
X191650498Y-58194180D01*
X191709463Y-58304494D01*
X191788815Y-58401185D01*
X191805393Y-58414790D01*
X191768320Y-58470273D01*
X191660147Y-58731426D01*
X191605000Y-59008665D01*
X191605000Y-59291335D01*
X191660147Y-59568574D01*
X191768320Y-59829727D01*
X191925363Y-60064759D01*
X192125241Y-60264637D01*
X192360273Y-60421680D01*
X192621426Y-60529853D01*
X192898665Y-60585000D01*
X193181335Y-60585000D01*
X193458574Y-60529853D01*
X193719727Y-60421680D01*
X193954759Y-60264637D01*
X194154637Y-60064759D01*
X194311680Y-59829727D01*
X194419853Y-59568574D01*
X194475000Y-59291335D01*
X194475000Y-59008665D01*
X194419853Y-58731426D01*
X194311680Y-58470273D01*
X194274607Y-58414790D01*
X194291185Y-58401185D01*
X194370537Y-58304494D01*
X194429502Y-58194180D01*
X194465812Y-58074482D01*
X194478072Y-57950000D01*
X194478072Y-56350000D01*
X194465812Y-56225518D01*
X194429502Y-56105820D01*
X194370537Y-55995506D01*
X194291185Y-55898815D01*
X194194494Y-55819463D01*
X194084180Y-55760498D01*
X193964482Y-55724188D01*
X193840000Y-55711928D01*
X192676730Y-55711928D01*
X190147099Y-53182297D01*
X190344637Y-52984759D01*
X190501680Y-52749727D01*
X190609853Y-52488574D01*
X190665000Y-52211335D01*
X190665000Y-51928665D01*
X190609853Y-51651426D01*
X190501680Y-51390273D01*
X190383675Y-51213665D01*
X192875000Y-51213665D01*
X192875000Y-51496335D01*
X192930147Y-51773574D01*
X193038320Y-52034727D01*
X193195363Y-52269759D01*
X193395241Y-52469637D01*
X193630273Y-52626680D01*
X193891426Y-52734853D01*
X194168665Y-52790000D01*
X194451335Y-52790000D01*
X194728574Y-52734853D01*
X194989727Y-52626680D01*
X195224759Y-52469637D01*
X195424637Y-52269759D01*
X195581680Y-52034727D01*
X195689853Y-51773574D01*
X195745000Y-51496335D01*
X195745000Y-51213665D01*
X195689853Y-50936426D01*
X195581680Y-50675273D01*
X195424637Y-50440241D01*
X195224759Y-50240363D01*
X194989727Y-50083320D01*
X194728574Y-49975147D01*
X194451335Y-49920000D01*
X194168665Y-49920000D01*
X193891426Y-49975147D01*
X193630273Y-50083320D01*
X193395241Y-50240363D01*
X193195363Y-50440241D01*
X193038320Y-50675273D01*
X192930147Y-50936426D01*
X192875000Y-51213665D01*
X190383675Y-51213665D01*
X190344637Y-51155241D01*
X190144759Y-50955363D01*
X189990000Y-50851957D01*
X189990000Y-43744801D01*
X192908141Y-46662943D01*
X192930147Y-46773574D01*
X193038320Y-47034727D01*
X193195363Y-47269759D01*
X193395241Y-47469637D01*
X193630273Y-47626680D01*
X193891426Y-47734853D01*
X194168665Y-47790000D01*
X194451335Y-47790000D01*
X194728574Y-47734853D01*
X194989727Y-47626680D01*
X195224759Y-47469637D01*
X195424637Y-47269759D01*
X195581680Y-47034727D01*
X195689853Y-46773574D01*
X195745000Y-46496335D01*
X195745000Y-46213665D01*
X195689853Y-45936426D01*
X195581680Y-45675273D01*
X195424637Y-45440241D01*
X195224759Y-45240363D01*
X194989727Y-45083320D01*
X194728574Y-44975147D01*
X194451335Y-44920000D01*
X194168665Y-44920000D01*
X193891426Y-44975147D01*
X193630273Y-45083320D01*
X193539065Y-45144263D01*
X191353467Y-42958665D01*
X192875000Y-42958665D01*
X192875000Y-43241335D01*
X192930147Y-43518574D01*
X193038320Y-43779727D01*
X193195363Y-44014759D01*
X193395241Y-44214637D01*
X193630273Y-44371680D01*
X193891426Y-44479853D01*
X194168665Y-44535000D01*
X194451335Y-44535000D01*
X194728574Y-44479853D01*
X194989727Y-44371680D01*
X195224759Y-44214637D01*
X195424637Y-44014759D01*
X195581680Y-43779727D01*
X195689853Y-43518574D01*
X195745000Y-43241335D01*
X195745000Y-42958665D01*
X195689853Y-42681426D01*
X195581680Y-42420273D01*
X195424637Y-42185241D01*
X195224759Y-41985363D01*
X194989727Y-41828320D01*
X194728574Y-41720147D01*
X194451335Y-41665000D01*
X194168665Y-41665000D01*
X193891426Y-41720147D01*
X193630273Y-41828320D01*
X193395241Y-41985363D01*
X193195363Y-42185241D01*
X193038320Y-42420273D01*
X192930147Y-42681426D01*
X192875000Y-42958665D01*
X191353467Y-42958665D01*
X190932789Y-42537988D01*
X191040001Y-42450001D01*
X191063804Y-42420997D01*
X193986114Y-39498688D01*
X194168665Y-39535000D01*
X194451335Y-39535000D01*
X194728574Y-39479853D01*
X194989727Y-39371680D01*
X195224759Y-39214637D01*
X195424637Y-39014759D01*
X195581680Y-38779727D01*
X195689853Y-38518574D01*
X195745000Y-38241335D01*
X195745000Y-37958665D01*
X195689853Y-37681426D01*
X195581680Y-37420273D01*
X195424637Y-37185241D01*
X195224759Y-36985363D01*
X195070000Y-36881957D01*
X195070000Y-33057333D01*
X195073677Y-33020000D01*
X195059003Y-32871014D01*
X195015546Y-32727753D01*
X194944974Y-32595724D01*
X194876264Y-32512000D01*
X199263000Y-32512000D01*
X199263000Y-81153000D01*
X90932000Y-81153000D01*
X90932000Y-78370000D01*
X185786928Y-78370000D01*
X185799188Y-78494482D01*
X185835498Y-78614180D01*
X185894463Y-78724494D01*
X185973815Y-78821185D01*
X186070506Y-78900537D01*
X186180820Y-78959502D01*
X186300518Y-78995812D01*
X186425000Y-79008072D01*
X187039250Y-79005000D01*
X187198000Y-78846250D01*
X187198000Y-77597000D01*
X187452000Y-77597000D01*
X187452000Y-78846250D01*
X187610750Y-79005000D01*
X188225000Y-79008072D01*
X188349482Y-78995812D01*
X188469180Y-78959502D01*
X188579494Y-78900537D01*
X188676185Y-78821185D01*
X188755537Y-78724494D01*
X188814502Y-78614180D01*
X188850812Y-78494482D01*
X188863072Y-78370000D01*
X188860000Y-77755750D01*
X188701250Y-77597000D01*
X187452000Y-77597000D01*
X187198000Y-77597000D01*
X185948750Y-77597000D01*
X185790000Y-77755750D01*
X185786928Y-78370000D01*
X90932000Y-78370000D01*
X90932000Y-76009419D01*
X169515000Y-76009419D01*
X169515000Y-76390581D01*
X169589361Y-76764419D01*
X169735225Y-77116566D01*
X169946987Y-77433491D01*
X170216509Y-77703013D01*
X170533434Y-77914775D01*
X170885581Y-78060639D01*
X171259419Y-78135000D01*
X171640581Y-78135000D01*
X172014419Y-78060639D01*
X172366566Y-77914775D01*
X172683491Y-77703013D01*
X172953013Y-77433491D01*
X173164775Y-77116566D01*
X173310639Y-76764419D01*
X173385000Y-76390581D01*
X173385000Y-76009419D01*
X178405000Y-76009419D01*
X178405000Y-76390581D01*
X178479361Y-76764419D01*
X178625225Y-77116566D01*
X178836987Y-77433491D01*
X179106509Y-77703013D01*
X179423434Y-77914775D01*
X179775581Y-78060639D01*
X180149419Y-78135000D01*
X180530581Y-78135000D01*
X180904419Y-78060639D01*
X181256566Y-77914775D01*
X181573491Y-77703013D01*
X181843013Y-77433491D01*
X182054775Y-77116566D01*
X182200639Y-76764419D01*
X182239311Y-76570000D01*
X185786928Y-76570000D01*
X185790000Y-77184250D01*
X185948750Y-77343000D01*
X187198000Y-77343000D01*
X187198000Y-76093750D01*
X187452000Y-76093750D01*
X187452000Y-77343000D01*
X188701250Y-77343000D01*
X188715585Y-77328665D01*
X192240000Y-77328665D01*
X192240000Y-77611335D01*
X192295147Y-77888574D01*
X192403320Y-78149727D01*
X192560363Y-78384759D01*
X192760241Y-78584637D01*
X192995273Y-78741680D01*
X193256426Y-78849853D01*
X193533665Y-78905000D01*
X193816335Y-78905000D01*
X194093574Y-78849853D01*
X194354727Y-78741680D01*
X194589759Y-78584637D01*
X194789637Y-78384759D01*
X194946680Y-78149727D01*
X195054853Y-77888574D01*
X195110000Y-77611335D01*
X195110000Y-77328665D01*
X195054853Y-77051426D01*
X194946680Y-76790273D01*
X194789637Y-76555241D01*
X194589759Y-76355363D01*
X194354727Y-76198320D01*
X194093574Y-76090147D01*
X193816335Y-76035000D01*
X193533665Y-76035000D01*
X193256426Y-76090147D01*
X192995273Y-76198320D01*
X192760241Y-76355363D01*
X192560363Y-76555241D01*
X192403320Y-76790273D01*
X192295147Y-77051426D01*
X192240000Y-77328665D01*
X188715585Y-77328665D01*
X188860000Y-77184250D01*
X188863072Y-76570000D01*
X188850812Y-76445518D01*
X188814502Y-76325820D01*
X188755537Y-76215506D01*
X188676185Y-76118815D01*
X188579494Y-76039463D01*
X188469180Y-75980498D01*
X188349482Y-75944188D01*
X188225000Y-75931928D01*
X187610750Y-75935000D01*
X187452000Y-76093750D01*
X187198000Y-76093750D01*
X187039250Y-75935000D01*
X186425000Y-75931928D01*
X186300518Y-75944188D01*
X186180820Y-75980498D01*
X186070506Y-76039463D01*
X185973815Y-76118815D01*
X185894463Y-76215506D01*
X185835498Y-76325820D01*
X185799188Y-76445518D01*
X185786928Y-76570000D01*
X182239311Y-76570000D01*
X182275000Y-76390581D01*
X182275000Y-76009419D01*
X182200639Y-75635581D01*
X182054775Y-75283434D01*
X181843013Y-74966509D01*
X181573491Y-74696987D01*
X181256566Y-74485225D01*
X180904419Y-74339361D01*
X180530581Y-74265000D01*
X180149419Y-74265000D01*
X179775581Y-74339361D01*
X179423434Y-74485225D01*
X179106509Y-74696987D01*
X178836987Y-74966509D01*
X178625225Y-75283434D01*
X178479361Y-75635581D01*
X178405000Y-76009419D01*
X173385000Y-76009419D01*
X173310639Y-75635581D01*
X173164775Y-75283434D01*
X172953013Y-74966509D01*
X172683491Y-74696987D01*
X172366566Y-74485225D01*
X172014419Y-74339361D01*
X171640581Y-74265000D01*
X171259419Y-74265000D01*
X170885581Y-74339361D01*
X170533434Y-74485225D01*
X170216509Y-74696987D01*
X169946987Y-74966509D01*
X169735225Y-75283434D01*
X169589361Y-75635581D01*
X169515000Y-76009419D01*
X90932000Y-76009419D01*
X90932000Y-69698816D01*
X185790000Y-69698816D01*
X185790000Y-70001184D01*
X185848989Y-70297743D01*
X185964701Y-70577095D01*
X186132688Y-70828505D01*
X186346495Y-71042312D01*
X186597905Y-71210299D01*
X186877257Y-71326011D01*
X187173816Y-71385000D01*
X187476184Y-71385000D01*
X187772743Y-71326011D01*
X188052095Y-71210299D01*
X188303505Y-71042312D01*
X188517312Y-70828505D01*
X188685299Y-70577095D01*
X188801011Y-70297743D01*
X188860000Y-70001184D01*
X188860000Y-69698816D01*
X188801011Y-69402257D01*
X188685299Y-69122905D01*
X188517312Y-68871495D01*
X188303505Y-68657688D01*
X188085000Y-68511687D01*
X188085000Y-67893043D01*
X188239759Y-67789637D01*
X188439637Y-67589759D01*
X188596680Y-67354727D01*
X188704853Y-67093574D01*
X188760000Y-66816335D01*
X188760000Y-66533665D01*
X188704853Y-66256426D01*
X188596680Y-65995273D01*
X188439637Y-65760241D01*
X188239759Y-65560363D01*
X188004727Y-65403320D01*
X187743574Y-65295147D01*
X187466335Y-65240000D01*
X187183665Y-65240000D01*
X186906426Y-65295147D01*
X186645273Y-65403320D01*
X186410241Y-65560363D01*
X186210363Y-65760241D01*
X186053320Y-65995273D01*
X185945147Y-66256426D01*
X185890000Y-66533665D01*
X185890000Y-66816335D01*
X185945147Y-67093574D01*
X186053320Y-67354727D01*
X186210363Y-67589759D01*
X186410241Y-67789637D01*
X186565001Y-67893044D01*
X186565000Y-68511687D01*
X186346495Y-68657688D01*
X186132688Y-68871495D01*
X185964701Y-69122905D01*
X185848989Y-69402257D01*
X185790000Y-69698816D01*
X90932000Y-69698816D01*
X90932000Y-64262000D01*
X144780000Y-64262000D01*
X144804776Y-64259560D01*
X144828601Y-64252333D01*
X144850557Y-64240597D01*
X144869803Y-64224803D01*
X144885597Y-64205557D01*
X144897333Y-64183601D01*
X144904560Y-64159776D01*
X144906998Y-64134365D01*
X144890420Y-60818665D01*
X149695000Y-60818665D01*
X149695000Y-61101335D01*
X149750147Y-61378574D01*
X149858320Y-61639727D01*
X150015363Y-61874759D01*
X150215241Y-62074637D01*
X150450273Y-62231680D01*
X150711426Y-62339853D01*
X150988665Y-62395000D01*
X151271335Y-62395000D01*
X151548574Y-62339853D01*
X151809727Y-62231680D01*
X152044759Y-62074637D01*
X152166694Y-61952702D01*
X160476903Y-61952702D01*
X160548486Y-62196671D01*
X160803996Y-62317571D01*
X161078184Y-62386300D01*
X161360512Y-62400217D01*
X161640130Y-62358787D01*
X161906292Y-62263603D01*
X162031514Y-62196671D01*
X162103097Y-61952702D01*
X161290000Y-61139605D01*
X160476903Y-61952702D01*
X152166694Y-61952702D01*
X152244637Y-61874759D01*
X152401680Y-61639727D01*
X152509853Y-61378574D01*
X152565000Y-61101335D01*
X152565000Y-61030512D01*
X159849783Y-61030512D01*
X159891213Y-61310130D01*
X159986397Y-61576292D01*
X160053329Y-61701514D01*
X160297298Y-61773097D01*
X161110395Y-60960000D01*
X161469605Y-60960000D01*
X162282702Y-61773097D01*
X162526671Y-61701514D01*
X162647571Y-61446004D01*
X162716300Y-61171816D01*
X162730217Y-60889488D01*
X162688787Y-60609870D01*
X162593603Y-60343708D01*
X162526671Y-60218486D01*
X162282702Y-60146903D01*
X161469605Y-60960000D01*
X161110395Y-60960000D01*
X160297298Y-60146903D01*
X160053329Y-60218486D01*
X159932429Y-60473996D01*
X159863700Y-60748184D01*
X159849783Y-61030512D01*
X152565000Y-61030512D01*
X152565000Y-60818665D01*
X152509853Y-60541426D01*
X152401680Y-60280273D01*
X152244637Y-60045241D01*
X152166694Y-59967298D01*
X160476903Y-59967298D01*
X161290000Y-60780395D01*
X162103097Y-59967298D01*
X162031514Y-59723329D01*
X161776004Y-59602429D01*
X161501816Y-59533700D01*
X161219488Y-59519783D01*
X160939870Y-59561213D01*
X160673708Y-59656397D01*
X160548486Y-59723329D01*
X160476903Y-59967298D01*
X152166694Y-59967298D01*
X152044759Y-59845363D01*
X151809727Y-59688320D01*
X151548574Y-59580147D01*
X151271335Y-59525000D01*
X150988665Y-59525000D01*
X150711426Y-59580147D01*
X150450273Y-59688320D01*
X150215241Y-59845363D01*
X150015363Y-60045241D01*
X149858320Y-60280273D01*
X149750147Y-60541426D01*
X149695000Y-60818665D01*
X144890420Y-60818665D01*
X144866397Y-56014156D01*
X144988574Y-55989853D01*
X145249727Y-55881680D01*
X145484759Y-55724637D01*
X145684637Y-55524759D01*
X145841680Y-55289727D01*
X145949853Y-55028574D01*
X146005000Y-54751335D01*
X146005000Y-54473589D01*
X158635000Y-54473589D01*
X158635000Y-54746411D01*
X158688225Y-55013989D01*
X158792629Y-55266043D01*
X158944201Y-55492886D01*
X159137114Y-55685799D01*
X159363957Y-55837371D01*
X159616011Y-55941775D01*
X159883589Y-55995000D01*
X160156411Y-55995000D01*
X160423989Y-55941775D01*
X160676043Y-55837371D01*
X160902886Y-55685799D01*
X161095799Y-55492886D01*
X161247371Y-55266043D01*
X161351775Y-55013989D01*
X161405000Y-54746411D01*
X161405000Y-54473589D01*
X161351775Y-54206011D01*
X161247371Y-53953957D01*
X161095799Y-53727114D01*
X160902886Y-53534201D01*
X160676043Y-53382629D01*
X160423989Y-53278225D01*
X160156411Y-53225000D01*
X159883589Y-53225000D01*
X159616011Y-53278225D01*
X159363957Y-53382629D01*
X159137114Y-53534201D01*
X158944201Y-53727114D01*
X158792629Y-53953957D01*
X158688225Y-54206011D01*
X158635000Y-54473589D01*
X146005000Y-54473589D01*
X146005000Y-54468665D01*
X145949853Y-54191426D01*
X145841680Y-53930273D01*
X145684637Y-53695241D01*
X145484759Y-53495363D01*
X145249727Y-53338320D01*
X144988574Y-53230147D01*
X144852341Y-53203048D01*
X144849276Y-52590000D01*
X163711928Y-52590000D01*
X163711928Y-54090000D01*
X163724188Y-54214482D01*
X163760498Y-54334180D01*
X163819463Y-54444494D01*
X163898815Y-54541185D01*
X163982667Y-54610000D01*
X163898815Y-54678815D01*
X163819463Y-54775506D01*
X163760498Y-54885820D01*
X163724188Y-55005518D01*
X163711928Y-55130000D01*
X163711928Y-56630000D01*
X163724188Y-56754482D01*
X163760498Y-56874180D01*
X163819463Y-56984494D01*
X163898815Y-57081185D01*
X163995506Y-57160537D01*
X164105820Y-57219502D01*
X164225518Y-57255812D01*
X164350000Y-57268072D01*
X165850000Y-57268072D01*
X165974482Y-57255812D01*
X166094180Y-57219502D01*
X166204494Y-57160537D01*
X166301185Y-57081185D01*
X166380537Y-56984494D01*
X166439502Y-56874180D01*
X166475812Y-56754482D01*
X166488072Y-56630000D01*
X166488072Y-56221185D01*
X171377682Y-56221185D01*
X171414347Y-56342070D01*
X171529580Y-56587912D01*
X171690560Y-56806549D01*
X171891101Y-56989579D01*
X172123496Y-57129969D01*
X172378814Y-57222323D01*
X172593000Y-57100420D01*
X172593000Y-56007000D01*
X172847000Y-56007000D01*
X172847000Y-57100420D01*
X173061186Y-57222323D01*
X173316504Y-57129969D01*
X173548899Y-56989579D01*
X173749440Y-56806549D01*
X173910420Y-56587912D01*
X174025653Y-56342070D01*
X174062318Y-56221185D01*
X173939656Y-56007000D01*
X172847000Y-56007000D01*
X172593000Y-56007000D01*
X171500344Y-56007000D01*
X171377682Y-56221185D01*
X166488072Y-56221185D01*
X166488072Y-55130000D01*
X166475812Y-55005518D01*
X166439502Y-54885820D01*
X166380537Y-54775506D01*
X166301185Y-54678815D01*
X166217333Y-54610000D01*
X166301185Y-54541185D01*
X166380537Y-54444494D01*
X166439502Y-54334180D01*
X166475812Y-54214482D01*
X166488072Y-54090000D01*
X166488072Y-53203589D01*
X171335000Y-53203589D01*
X171335000Y-53476411D01*
X171388225Y-53743989D01*
X171492629Y-53996043D01*
X171644201Y-54222886D01*
X171837114Y-54415799D01*
X172063957Y-54567371D01*
X172172467Y-54612317D01*
X172123496Y-54630031D01*
X171891101Y-54770421D01*
X171690560Y-54953451D01*
X171529580Y-55172088D01*
X171414347Y-55417930D01*
X171377682Y-55538815D01*
X171500344Y-55753000D01*
X172593000Y-55753000D01*
X172593000Y-55733000D01*
X172847000Y-55733000D01*
X172847000Y-55753000D01*
X173939656Y-55753000D01*
X174062318Y-55538815D01*
X174025653Y-55417930D01*
X173910420Y-55172088D01*
X173749440Y-54953451D01*
X173548899Y-54770421D01*
X173316504Y-54630031D01*
X173267533Y-54612317D01*
X173376043Y-54567371D01*
X173602886Y-54415799D01*
X173795799Y-54222886D01*
X173947371Y-53996043D01*
X174051775Y-53743989D01*
X174105000Y-53476411D01*
X174105000Y-53203589D01*
X174051775Y-52936011D01*
X173947371Y-52683957D01*
X173795799Y-52457114D01*
X173602886Y-52264201D01*
X173376043Y-52112629D01*
X173123989Y-52008225D01*
X172856411Y-51955000D01*
X172583589Y-51955000D01*
X172316011Y-52008225D01*
X172063957Y-52112629D01*
X171837114Y-52264201D01*
X171644201Y-52457114D01*
X171492629Y-52683957D01*
X171388225Y-52936011D01*
X171335000Y-53203589D01*
X166488072Y-53203589D01*
X166488072Y-52590000D01*
X166475812Y-52465518D01*
X166439502Y-52345820D01*
X166380537Y-52235506D01*
X166301185Y-52138815D01*
X166204494Y-52059463D01*
X166094180Y-52000498D01*
X165974482Y-51964188D01*
X165850000Y-51951928D01*
X164350000Y-51951928D01*
X164225518Y-51964188D01*
X164105820Y-52000498D01*
X163995506Y-52059463D01*
X163898815Y-52138815D01*
X163819463Y-52235506D01*
X163760498Y-52345820D01*
X163724188Y-52465518D01*
X163711928Y-52590000D01*
X144849276Y-52590000D01*
X144823439Y-47422534D01*
X144843868Y-47442963D01*
X145310492Y-47754751D01*
X145828977Y-47969514D01*
X146379398Y-48079000D01*
X146940602Y-48079000D01*
X147491023Y-47969514D01*
X148009508Y-47754751D01*
X148476132Y-47442963D01*
X148872963Y-47046132D01*
X149184751Y-46579508D01*
X149325379Y-46240000D01*
X158631928Y-46240000D01*
X158631928Y-47740000D01*
X158644188Y-47864482D01*
X158680498Y-47984180D01*
X158739463Y-48094494D01*
X158818815Y-48191185D01*
X158915506Y-48270537D01*
X159025820Y-48329502D01*
X159145518Y-48365812D01*
X159270000Y-48378072D01*
X160770000Y-48378072D01*
X160894482Y-48365812D01*
X161014180Y-48329502D01*
X161124494Y-48270537D01*
X161221185Y-48191185D01*
X161300537Y-48094494D01*
X161359502Y-47984180D01*
X161395812Y-47864482D01*
X161408072Y-47740000D01*
X161408072Y-46928665D01*
X183350000Y-46928665D01*
X183350000Y-47211335D01*
X183405147Y-47488574D01*
X183513320Y-47749727D01*
X183670363Y-47984759D01*
X183870241Y-48184637D01*
X184105273Y-48341680D01*
X184366426Y-48449853D01*
X184643665Y-48505000D01*
X184926335Y-48505000D01*
X185203574Y-48449853D01*
X185464727Y-48341680D01*
X185699759Y-48184637D01*
X185899637Y-47984759D01*
X186056680Y-47749727D01*
X186164853Y-47488574D01*
X186220000Y-47211335D01*
X186220000Y-46928665D01*
X186164853Y-46651426D01*
X186056680Y-46390273D01*
X185899637Y-46155241D01*
X185699759Y-45955363D01*
X185464727Y-45798320D01*
X185203574Y-45690147D01*
X184926335Y-45635000D01*
X184643665Y-45635000D01*
X184366426Y-45690147D01*
X184105273Y-45798320D01*
X183870241Y-45955363D01*
X183670363Y-46155241D01*
X183513320Y-46390273D01*
X183405147Y-46651426D01*
X183350000Y-46928665D01*
X161408072Y-46928665D01*
X161408072Y-46240000D01*
X161395812Y-46115518D01*
X161359502Y-45995820D01*
X161300537Y-45885506D01*
X161221185Y-45788815D01*
X161124494Y-45709463D01*
X161014180Y-45650498D01*
X160894482Y-45614188D01*
X160770000Y-45601928D01*
X159270000Y-45601928D01*
X159145518Y-45614188D01*
X159025820Y-45650498D01*
X158915506Y-45709463D01*
X158818815Y-45788815D01*
X158739463Y-45885506D01*
X158680498Y-45995820D01*
X158644188Y-46115518D01*
X158631928Y-46240000D01*
X149325379Y-46240000D01*
X149399514Y-46061023D01*
X149509000Y-45510602D01*
X149509000Y-44949398D01*
X149399514Y-44398977D01*
X149184751Y-43880492D01*
X148872963Y-43413868D01*
X148476132Y-43017037D01*
X148388773Y-42958665D01*
X176365000Y-42958665D01*
X176365000Y-43241335D01*
X176420147Y-43518574D01*
X176528320Y-43779727D01*
X176685363Y-44014759D01*
X176885241Y-44214637D01*
X177120273Y-44371680D01*
X177381426Y-44479853D01*
X177658665Y-44535000D01*
X177941335Y-44535000D01*
X178218574Y-44479853D01*
X178479727Y-44371680D01*
X178714759Y-44214637D01*
X178914637Y-44014759D01*
X179071680Y-43779727D01*
X179179853Y-43518574D01*
X179235000Y-43241335D01*
X179235000Y-42958665D01*
X179179853Y-42681426D01*
X179071680Y-42420273D01*
X178914637Y-42185241D01*
X178714759Y-41985363D01*
X178479727Y-41828320D01*
X178218574Y-41720147D01*
X177941335Y-41665000D01*
X177658665Y-41665000D01*
X177381426Y-41720147D01*
X177120273Y-41828320D01*
X176885241Y-41985363D01*
X176685363Y-42185241D01*
X176528320Y-42420273D01*
X176420147Y-42681426D01*
X176365000Y-42958665D01*
X148388773Y-42958665D01*
X148009508Y-42705249D01*
X147491023Y-42490486D01*
X146940602Y-42381000D01*
X146379398Y-42381000D01*
X145828977Y-42490486D01*
X145310492Y-42705249D01*
X144843868Y-43017037D01*
X144801622Y-43059283D01*
X144771826Y-37100000D01*
X165414428Y-37100000D01*
X165414428Y-39100000D01*
X165426688Y-39224482D01*
X165462998Y-39344180D01*
X165521963Y-39454494D01*
X165601315Y-39551185D01*
X165698006Y-39630537D01*
X165808320Y-39689502D01*
X165928018Y-39725812D01*
X166052500Y-39738072D01*
X167957500Y-39738072D01*
X168081982Y-39725812D01*
X168201680Y-39689502D01*
X168311994Y-39630537D01*
X168408685Y-39551185D01*
X168488037Y-39454494D01*
X168547002Y-39344180D01*
X168583312Y-39224482D01*
X168595572Y-39100000D01*
X168595572Y-37100000D01*
X168583312Y-36975518D01*
X168547002Y-36855820D01*
X168488037Y-36745506D01*
X168408685Y-36648815D01*
X168311994Y-36569463D01*
X168201680Y-36510498D01*
X168081982Y-36474188D01*
X167957500Y-36461928D01*
X166052500Y-36461928D01*
X165928018Y-36474188D01*
X165808320Y-36510498D01*
X165698006Y-36569463D01*
X165601315Y-36648815D01*
X165521963Y-36745506D01*
X165462998Y-36855820D01*
X165426688Y-36975518D01*
X165414428Y-37100000D01*
X144771826Y-37100000D01*
X144748886Y-32512000D01*
X177233736Y-32512000D01*
X177165026Y-32595724D01*
G37*
%TD.AperFunction*%
%TD*%
D30*
X194183000Y-30988000D02*
X160147000Y-30988000D01*
X160147000Y-21156640D01*
X166668000Y-21156640D01*
X166668000Y-21723360D01*
X166778561Y-22279190D01*
X166995435Y-22802771D01*
X167310288Y-23273981D01*
X167711019Y-23674712D01*
X168182229Y-23989565D01*
X168705810Y-24206439D01*
X169261640Y-24317000D01*
X169828360Y-24317000D01*
X170384190Y-24206439D01*
X170907771Y-23989565D01*
X171378981Y-23674712D01*
X171779712Y-23273981D01*
X172094565Y-22802771D01*
X172311439Y-22279190D01*
X172422000Y-21723360D01*
X172422000Y-21156640D01*
X183178000Y-21156640D01*
X183178000Y-21723360D01*
X183288561Y-22279190D01*
X183505435Y-22802771D01*
X183820288Y-23273981D01*
X184221019Y-23674712D01*
X184692229Y-23989565D01*
X185215810Y-24206439D01*
X185771640Y-24317000D01*
X186338360Y-24317000D01*
X186894190Y-24206439D01*
X187417771Y-23989565D01*
X187888981Y-23674712D01*
X188289712Y-23273981D01*
X188604565Y-22802771D01*
X188821439Y-22279190D01*
X188932000Y-21723360D01*
X188932000Y-21156640D01*
X188821439Y-20600810D01*
X188604565Y-20077229D01*
X188289712Y-19606019D01*
X187888981Y-19205288D01*
X187417771Y-18890435D01*
X186894190Y-18673561D01*
X186338360Y-18563000D01*
X185771640Y-18563000D01*
X185215810Y-18673561D01*
X184692229Y-18890435D01*
X184221019Y-19205288D01*
X183820288Y-19606019D01*
X183505435Y-20077229D01*
X183288561Y-20600810D01*
X183178000Y-21156640D01*
X172422000Y-21156640D01*
X172311439Y-20600810D01*
X172094565Y-20077229D01*
X171779712Y-19606019D01*
X171378981Y-19205288D01*
X170907771Y-18890435D01*
X170384190Y-18673561D01*
X169828360Y-18563000D01*
X169261640Y-18563000D01*
X168705810Y-18673561D01*
X168182229Y-18890435D01*
X167711019Y-19205288D01*
X167310288Y-19606019D01*
X166995435Y-20077229D01*
X166778561Y-20600810D01*
X166668000Y-21156640D01*
X160147000Y-21156640D01*
X160147000Y-16637000D01*
X194183000Y-16637000D01*
X194183000Y-30988000D01*
%TA.AperFunction,NonConductor*%
D31*
G36*
X194183000Y-30988000D02*
G01*
X160147000Y-30988000D01*
X160147000Y-21156640D01*
X166668000Y-21156640D01*
X166668000Y-21723360D01*
X166778561Y-22279190D01*
X166995435Y-22802771D01*
X167310288Y-23273981D01*
X167711019Y-23674712D01*
X168182229Y-23989565D01*
X168705810Y-24206439D01*
X169261640Y-24317000D01*
X169828360Y-24317000D01*
X170384190Y-24206439D01*
X170907771Y-23989565D01*
X171378981Y-23674712D01*
X171779712Y-23273981D01*
X172094565Y-22802771D01*
X172311439Y-22279190D01*
X172422000Y-21723360D01*
X172422000Y-21156640D01*
X183178000Y-21156640D01*
X183178000Y-21723360D01*
X183288561Y-22279190D01*
X183505435Y-22802771D01*
X183820288Y-23273981D01*
X184221019Y-23674712D01*
X184692229Y-23989565D01*
X185215810Y-24206439D01*
X185771640Y-24317000D01*
X186338360Y-24317000D01*
X186894190Y-24206439D01*
X187417771Y-23989565D01*
X187888981Y-23674712D01*
X188289712Y-23273981D01*
X188604565Y-22802771D01*
X188821439Y-22279190D01*
X188932000Y-21723360D01*
X188932000Y-21156640D01*
X188821439Y-20600810D01*
X188604565Y-20077229D01*
X188289712Y-19606019D01*
X187888981Y-19205288D01*
X187417771Y-18890435D01*
X186894190Y-18673561D01*
X186338360Y-18563000D01*
X185771640Y-18563000D01*
X185215810Y-18673561D01*
X184692229Y-18890435D01*
X184221019Y-19205288D01*
X183820288Y-19606019D01*
X183505435Y-20077229D01*
X183288561Y-20600810D01*
X183178000Y-21156640D01*
X172422000Y-21156640D01*
X172311439Y-20600810D01*
X172094565Y-20077229D01*
X171779712Y-19606019D01*
X171378981Y-19205288D01*
X170907771Y-18890435D01*
X170384190Y-18673561D01*
X169828360Y-18563000D01*
X169261640Y-18563000D01*
X168705810Y-18673561D01*
X168182229Y-18890435D01*
X167711019Y-19205288D01*
X167310288Y-19606019D01*
X166995435Y-20077229D01*
X166778561Y-20600810D01*
X166668000Y-21156640D01*
X160147000Y-21156640D01*
X160147000Y-16637000D01*
X194183000Y-16637000D01*
X194183000Y-30988000D01*
G37*
%TD.AperFunction*%
M02*
