M48
; DRILL file {KiCad (5.1.9)-1} date 05/13/21 23:27:54
; FORMAT={-:-/ absolute / inch / decimal}
; #@! TF.CreationDate,2021-05-13T23:27:54+01:00
; #@! TF.GenerationSoftware,Kicad,Pcbnew,(5.1.9)-1
; #@! TF.FileFunction,Plated,1,2,PTH
FMAT,2
INCH
T1C0.0295
T2C0.0315
T3C0.0335
T4C0.0354
T5C0.0433
T6C0.0472
T7C0.0512
T8C0.0630
T9C0.1162
T10C0.1181
T11C0.1378
%
G90
G05
T1
X5.05Y-2.15
X5.35Y-2.15
X6.3Y-1.85
X6.3Y-2.15
X6.5Y-2.1
X6.5Y-2.2
X6.8Y-2.1
X6.8Y-2.2
T2
X4.25Y-3.6
X4.25Y-4.0
X4.9Y-2.0
X4.9Y-2.4
X5.0Y-3.6
X5.0Y-4.0
X5.9Y-3.6
X5.9Y-4.0
X5.95Y-2.4
X6.35Y-2.4
X6.65Y-3.6
X6.65Y-4.0
X7.0Y-1.5
X7.0Y-1.6969
X7.275Y-1.8531
X7.275Y-2.05
X7.375Y-2.225
X7.375Y-2.625
X7.45Y-1.65
X7.45Y-2.05
X7.6Y-2.25
X7.6Y-2.3287
X7.625Y-2.65
X7.625Y-3.05
X7.65Y-1.5
X7.65Y-1.6969
X7.65Y-1.825
X7.65Y-2.0219
T3
X5.475Y-2.15
X5.6404Y-2.15
T4
X4.25Y-3.35
X4.25Y-3.45
X5.0Y-3.35
X5.0Y-3.45
X5.15Y-2.4
X5.25Y-2.4
X5.5Y-2.4
X5.6Y-2.4
X5.9Y-3.35
X5.9Y-3.45
X6.65Y-3.35
X6.65Y-3.45
X7.375Y-2.75
X7.375Y-3.05
T5
X4.9Y-1.8
X6.575Y-1.5
X6.675Y-1.5
X6.775Y-1.5
X7.225Y-1.5
X7.325Y-1.5
X7.425Y-1.5
T7
X6.75Y-2.4
X6.75Y-3.0
X7.1Y-2.4
X7.1Y-3.0
T8
X3.85Y-2.8197
X3.85Y-3.35
X3.9839Y-2.8197
X3.9839Y-3.35
X4.325Y-1.375
X4.325Y-1.5089
X4.6Y-2.8197
X4.6Y-3.35
X4.7339Y-2.8197
X4.7339Y-3.35
X4.8553Y-1.375
X4.8553Y-1.5089
X5.5Y-2.8197
X5.5Y-3.35
X5.6339Y-2.8197
X5.6339Y-3.35
X6.25Y-2.8197
X6.25Y-3.35
X6.3839Y-2.8197
X6.3839Y-3.35
T9
X5.4Y-1.45
X5.774Y-1.1193
X5.774Y-1.7807
X6.1047Y-1.45
T10
X3.875Y-2.275
X4.25Y-2.275
T11
X6.675Y-0.8441
X7.325Y-0.8441
T6
G00X3.875Y-1.462
M15
G01X3.875Y-1.588
M16
G05
G00X3.875Y-1.773
M15
G01X3.875Y-1.899
M16
G05
G00X3.925Y-3.887
M15
G01X3.925Y-4.013
M16
G05
G00X3.925Y-4.198
M15
G01X3.925Y-4.324
M16
G05
G00X4.675Y-3.887
M15
G01X4.675Y-4.013
M16
G05
G00X4.675Y-4.198
M15
G01X4.675Y-4.324
M16
G05
G00X5.575Y-3.887
M15
G01X5.575Y-4.013
M16
G05
G00X5.575Y-4.198
M15
G01X5.575Y-4.324
M16
G05
G00X6.325Y-3.887
M15
G01X6.325Y-4.013
M16
G05
G00X6.325Y-4.198
M15
G01X6.325Y-4.324
M16
G05
T0
M30
